<svg id="Layer_1" viewBox="0 0 2341.5 2341.5" enable-background="new 0 0 2341.5 2341.5"><filter id="AI_GaussianBlur_24"><feGaussianBlur stdDeviation="24"/></filter><circle fill="#000507" cx="1170.8" cy="1170.8" r="926.9" filter="url(#AI_GaussianBlur_24)"/><circle fill="#052E42" cx="1170.8" cy="1170.8" r="952"/><path fill="#EFEAD7" d="M891.9 1748.6c0-11.1 8.1-20.1 18.1-20.1-10 0-18.1-9-18.1-20.1 0 11.1-8.1 20.1-18.1 20.1 10 0 18.1 9 18.1 20.1z"/><path opacity=".8" fill="#EFEAD7" enable-background="new" d="M319.5 1118.6c0-15.2 11.1-27.5 24.8-27.5-13.7 0-24.8-12.3-24.8-27.5 0 15.2-11.1 27.5-24.8 27.5 13.8 0 24.8 12.3 24.8 27.5z"/><path fill="#EFEAD7" d="M956.9 425.6c0-8.2 6-14.8 13.3-14.8-7.4 0-13.3-6.6-13.3-14.8 0 8.2-6 14.8-13.3 14.8 7.4 0 13.3 6.6 13.3 14.8zM626 826.7c0-10.7 7.5-19.4 16.6-19.4-9.2 0-16.6-8.7-16.6-19.4 0 10.7-7.5 19.4-16.6 19.4 9.1 0 16.6 8.7 16.6 19.4z"/><path fill="#EFEAD7" fill-opacity=".7" d="M1727.5 725c0-12.8 9.3-23.1 20.9-23.1-11.5 0-20.9-10.4-20.9-23.1 0 12.8-9.3 23.1-20.9 23.1 11.5 0 20.9 10.3 20.9 23.1z"/><path opacity=".9" fill="#EFEAD7" enable-background="new" d="M1730 1506.8c0-11.1 8.1-20.1 18.1-20.1-10 0-18.1-9-18.1-20.1 0 11.1-8.1 20.1-18.1 20.1 10 0 18.1 9 18.1 20.1zM1912.6 1329.6c0-15.8 11.5-28.7 25.8-28.7-14.3 0-25.8-12.8-25.8-28.7 0 15.8-11.5 28.7-25.8 28.7 14.2 0 25.8 12.8 25.8 28.7zM1154.9 1976.6c0-15.6 11.3-28.1 25.3-28.1-14 0-25.3-12.6-25.3-28.1 0 15.6-11.3 28.1-25.3 28.1 13.9.1 25.3 12.6 25.3 28.1z"/><path fill="#FFD571" d="M504.6 1619.7c.8-1.6 2-1.5 2.7.2l1.7 4.4c.8 1.8 2.3 3.2 4.2 3.8l4.2 1c1.6.4 1.9 1.7.7 2.9l-3.3 3.2c-1.4 1.5-2.1 3.5-2 5.6l.5 4.8c.2 1.8-.8 2.6-2.3 1.6l-3.7-2.5c-1.6-1-3.6-1.1-5.4-.3l-4 2c-1.5.8-2.5-.1-2.1-1.9l1-4.7c.3-2-.2-4.1-1.4-5.8l-2.9-3.6c-1.1-1.4-.7-2.6 1-2.8l4.3-.4c1.9-.3 3.6-1.5 4.5-3.2l2.3-4.3zM1527.5 1808.7c1.8-3.1 4.2-2.9 5.6.3l3.5 8.4c1.8 3.5 4.8 6.1 8.7 7.1l8.9 1.8c3.4.6 4 3.2 1.4 5.5l-6.8 6c-2.7 2.7-4.3 6.4-4 10.5l1 9c.3 3.4-1.8 4.8-4.7 3.1l-7.7-4.7c-3.4-1.8-7.6-2.1-11.1-.6l-8.2 3.7c-3.2 1.4-5.2-.2-4.3-3.5l2.1-8.9c.6-3.9-.3-7.7-2.9-10.8l-6.1-6.6c-2.3-2.6-1.4-4.8 2.1-5.2l9-.8c3.9-.5 7.2-2.7 9.3-6l4.2-8.3zM458 1303.1c1.8-3.1 4.2-2.9 5.6.3l3.5 8.4c1.8 3.5 4.8 6.1 8.7 7.1l8.9 1.8c3.4.6 4 3.2 1.4 5.5l-6.8 6c-2.7 2.7-4.3 6.4-4 10.5l1 9c.3 3.4-1.8 4.8-4.7 3.1l-7.7-4.7c-3.4-1.8-7.6-2.1-11.1-.6l-8.2 3.7c-3.2 1.4-5.2-.2-4.3-3.5l2.1-8.9c.6-3.9-.3-7.7-2.9-10.8l-6.1-6.6c-2.3-2.6-1.4-4.8 2.1-5.2l9-.8c3.9-.5 7.2-2.7 9.3-6l4.2-8.3zM1660.7 400.5c1.8-3.1 4.2-2.9 5.6.3l3.5 8.4c1.8 3.5 4.8 6.1 8.7 7.1l8.9 1.8c3.4.6 4 3.2 1.4 5.5l-6.8 6c-2.7 2.7-4.3 6.4-4 10.5l1 9c.3 3.4-1.8 4.8-4.7 3.1l-7.7-4.7c-3.4-1.8-7.6-2.1-11.1-.6l-8.2 3.7c-3.2 1.4-5.2-.2-4.3-3.5l2.1-8.9c.6-3.9-.3-7.7-2.9-10.8l-6.1-6.6c-2.3-2.6-1.4-4.8 2.1-5.2l9-.8c3.9-.5 7.2-2.7 9.3-6l4.2-8.3zM1966.3 1022.8c.8-1.3 1.8-1.2 2.4.1l1.5 3.6c.8 1.5 2 2.6 3.7 3l3.8.8c1.5.3 1.7 1.4.6 2.3l-2.9 2.6c-1.2 1.2-1.8 2.7-1.7 4.5l.4 3.8c.1 1.5-.8 2-2 1.3l-3.3-2c-1.5-.8-3.2-.9-4.7-.3l-3.5 1.6c-1.4.6-2.2-.1-1.8-1.5l.9-3.8c.3-1.7-.1-3.3-1.2-4.6l-2.6-2.8c-1-1.1-.6-2 .9-2.2l3.8-.3c1.7-.2 3.1-1.2 4-2.6l1.7-3.5zM585.2 549c-1-2.7.3-4.1 3-3.3l6.9 2.1c3.1.7 6.2.1 8.8-1.8l5.6-4.6c2.1-1.8 4-.9 4.1 1.9l.3 7.2c.3 3 1.8 5.9 4.5 7.8l6.1 3.9c2.2 1.5 2.1 3.5-.5 4.5l-6.8 2.4c-2.8 1.2-5.1 3.6-6 6.5l-1.9 6.9c-.8 2.7-2.7 3.1-4.3.9l-4.4-5.8c-2.1-2.3-4.9-3.7-8.1-3.7l-7.1.4c-2.8.1-3.7-1.6-2.1-3.9l4-6c1.7-2.7 2-5.8 1-8.8l-3.1-6.6z"/><path opacity=".8" fill="#FFD571" enable-background="new" d="M1345.3 375c1.2-.6 1.9-.1 1.7 1.2l-.6 3.4c-.1 1.5.3 2.9 1.4 4l2.5 2.4c1 .9.6 1.8-.7 2l-3.4.6c-1.4.3-2.7 1.2-3.4 2.6l-1.5 3.1c-.6 1.2-1.5 1.2-2.1 0l-1.5-3.1c-.7-1.3-2-2.2-3.4-2.4l-3.4-.5c-1.3-.2-1.6-1.1-.7-2l2.5-2.4c1-1.1 1.5-2.5 1.2-4l-.6-3.3c-.2-1.3.5-1.8 1.7-1.2l3 1.6c1.4.6 2.9.6 4.2-.1l3.1-1.9z"/><circle fill="#EFEAD7" cx="1170.8" cy="317.7" r="2.7"/><circle fill="#EFEAD7" cx="838.1" cy="372.6" r="2.2"/><circle fill="#EFEAD7" cx="1855.7" cy="669.6" r="3.1"/><circle fill="#EFEAD7" cx="1797.8" cy="1697.7" r="2.3"/><circle fill="#EFEAD7" cx="1328.3" cy="1993.5" r="1.8"/><circle fill="#EFEAD7" cx="543.6" cy="1463.2" r="3.4"/></svg>