<svg id="Layer_1" viewBox="0 0 3211.2 3211.2" enable-background="new 0 0 3211.2 3211.2"><filter id="a"><feGaussianBlur stdDeviation="24"/></filter><circle fill="#020202" cx="1605.6" cy="1605.6" r="1328" filter="url(#a)"/><circle fill="#052838" cx="1605.6" cy="1605.6" r="1351.9"/><path opacity=".7" fill="#FFD571" enable-background="new" d="M667.4 937.8c1-1.8 2.5-1.7 3.3.2l2.1 4.9c1 2.1 2.9 3.6 5.1 4.2l5.2 1.1c2 .4 2.4 1.9.8 3.2l-4.1 3.5c-1.7 1.6-2.5 3.9-2.4 6.2l.6 5.3c.2 2-1 2.9-2.8 1.8l-4.6-2.8c-2-1.1-4.5-1.2-6.6-.4l-4.9 2.2c-1.9.8-3-.1-2.6-2.1l1.2-5.2c.4-2.3-.2-4.6-1.7-6.4l-3.6-4c-1.4-1.5-.8-2.9 1.2-3.1l5.3-.5c2.3-.3 4.3-1.6 5.6-3.6l2.9-4.5zM496.7 1629c1.8-3.2 4.5-3.1 5.9.4l3.8 8.8c1.8 3.8 5.2 6.5 9.2 7.5l9.3 2c3.6.7 4.3 3.4 1.4 5.8l-7.4 6.3c-3.1 2.9-4.5 7-4.3 11.1l1.1 9.5c.4 3.6-1.8 5.2-5 3.2l-8.3-5c-3.6-2-8.1-2.2-11.9-.7l-8.8 4c-3.4 1.4-5.4-.2-4.7-3.8l2.2-9.3c.7-4.1-.4-8.3-3.1-11.5l-6.5-7.2c-2.5-2.7-1.4-5.2 2.2-5.6l9.5-.9c4.1-.5 7.7-2.9 10.1-6.5l5.3-8.1zM2053.3 589.9c1.1-1.9 2.6-1.8 3.5.2l2.2 5.2c1.1 2.2 3 3.8 5.4 4.4l5.5 1.1c2.1.4 2.5 2 .9 3.4l-4.2 3.7c-1.7 1.7-2.7 4-2.5 6.5l.6 5.6c.2 2.1-1.1 3-2.9 1.9l-4.8-2.9c-2.1-1.1-4.7-1.3-6.9-.4l-5.1 2.3c-2 .9-3.2-.1-2.7-2.2l1.3-5.5c.4-2.4-.2-4.8-1.8-6.7l-3.8-4.1c-1.4-1.6-.9-3 1.3-3.2l5.6-.5c2.4-.3 4.5-1.7 5.8-3.7l2.6-5.1zm653.1 1243c1.8-3.1 4.2-2.9 5.6.3l3.5 8.4c1.8 3.5 4.8 6.1 8.7 7.1l8.9 1.8c3.4.6 4 3.2 1.4 5.5l-6.8 6c-2.7 2.7-4.3 6.4-4 10.5l1 9c.3 3.4-1.8 4.8-4.7 3.1l-7.7-4.7c-3.4-1.8-7.6-2.1-11.1-.6l-8.2 3.7c-3.2 1.4-5.2-.2-4.3-3.5l2.1-8.9c.6-3.9-.3-7.7-2.9-10.8l-6.1-6.6c-2.3-2.6-1.4-4.8 2.1-5.2l9-.8c3.9-.5 7.2-2.7 9.3-6l4.2-8.3zm-1162.3 828.3c1.8-3.1 4.2-2.9 5.6.3l3.5 8.4c1.8 3.5 4.8 6.1 8.7 7.1l8.9 1.8c3.4.6 4 3.2 1.4 5.5l-6.8 6c-2.7 2.7-4.3 6.4-4 10.5l1 9c.3 3.4-1.8 4.8-4.7 3.1l-7.7-4.7c-3.4-1.8-7.6-2.1-11.1-.6l-8.2 3.7c-3.2 1.4-5.2-.2-4.3-3.5l2.1-8.9c.6-3.9-.3-7.7-2.9-10.8l-6.1-6.6c-2.3-2.6-1.4-4.8 2.1-5.2l9-.8c3.9-.5 7.2-2.7 9.3-6l4.2-8.3z"/><path fill="#EFEAD7" d="M2691.4 1397.3c0-12.3 9.9-22.2 22.2-22.2-12.3 0-22.2-9.9-22.2-22.2 0 12.3-9.9 22.2-22.2 22.2 12.2 0 22.2 10 22.2 22.2zM2507 2376.2c0-16 13-29 29-29-16 0-29-13-29-29 0 16-13 29-29 29 16 0 29 13 29 29zm23.2-1571.9c0-18.8 15.3-34.1 34.1-34.1-18.8 0-34.1-15.3-34.1-34.1 0 18.8-15.3 34.1-34.1 34.1 18.8 0 34.1 15.3 34.1 34.1zm-924.6-326.4c0-18.8 15.3-34.1 34.1-34.1-18.8 0-34.1-15.3-34.1-34.1 0 18.8-15.3 34.1-34.1 34.1 18.8 0 34.1 15.3 34.1 34.1zM1069 571.6c0-9.4 7.6-17 17-17-9.4 0-17-7.6-17-17 0 9.4-7.6 17-17 17 9.4 0 17 7.7 17 17zm968.5 2142c0-9.4 7.6-17 17-17-9.4 0-17-7.6-17-17 0 9.4-7.6 17-17 17 9.4 0 17 7.6 17 17z"/><path opacity=".7" fill="#EFEAD7" enable-background="new" d="M441.7 2073.4c0-18.8 15.3-34.1 34.1-34.1-18.8 0-34.1-15.3-34.1-34.1 0 18.8-15.3 34.1-34.1 34.1 18.8 0 34.1 15.2 34.1 34.1zm39.5-753.4c0-9.4 7.6-17 17-17-9.4 0-17-7.6-17-17 0 9.4-7.6 17-17 17 9.4 0 17 7.6 17 17z"/><path fill="#EFEAD7" d="M914.4 2506.5c0-14.9 12-26.9 26.9-26.9-14.9 0-26.9-12-26.9-26.9 0 14.9-12 26.9-26.9 26.9 14.9 0 26.9 12.1 26.9 26.9z"/><circle opacity=".7" fill="#EFEAD7" enable-background="new" cx="498.2" cy="2150" r="4"/><circle fill="#EFEAD7" cx="707.4" cy="2347.2" r="6.9"/><circle fill="#EFEAD7" cx="2556.1" cy="868.3" r="5.8"/><circle fill="#EFEAD7" cx="2254.3" cy="627.9" r="2.2"/><circle fill="#EFEAD7" cx="1937.8" cy="459.3" r="2"/><circle fill="#EFEAD7" cx="1665.3" cy="386.2" r="5.1"/><circle fill="#EFEAD7" cx="1148.3" cy="428.5" r="2.3"/><circle fill="#EFEAD7" cx="679.5" cy="804.8" r="1.9"/><circle fill="#EFEAD7" cx="889.6" cy="655.4" r="5.8"/><circle fill="#EFEAD7" cx="581.6" cy="1148" r="5"/><circle fill="#EFEAD7" cx="502.7" cy="1808.3" r="4.5"/><circle fill="#EFEAD7" cx="1393.4" cy="2569.5" r="5.4"/><circle fill="#EFEAD7" cx="2270.4" cy="2439.5" r="2.7"/><circle fill="#EFEAD7" cx="1726.9" cy="2786.7" r="2.7"/><circle fill="#EFEAD7" cx="1901.2" cy="2671.7" r="2.7"/><circle fill="#EFEAD7" cx="1052" cy="2596.1" r="2.7"/><circle fill="#EFEAD7" cx="2533.7" cy="1981.5" r="5.4"/><circle fill="#EFEAD7" cx="2847.3" cy="1600" r="5.6"/><circle fill="#EFEAD7" cx="2666.5" cy="988.4" r="1.6"/><circle fill="#0A0A0A" cx="2694.7" cy="1154.2" r="3.5"/></svg>