<svg id="Layer_1" viewBox="0 0 107.3 107.3" enable-background="new 0 0 107.3 107.3"><defs><filter height="150%" id="AI_GaussianBlur_10" width="150%" x="-25%" y="-25%"><feGaussianBlur stdDeviation="10"/></filter></defs><circle fill="#09090A" cx="53.6" cy="53.6" r="37" filter="url(#AI_GaussianBlur_10)"/><circle fill="#222E56" cx="53.6" cy="53.6" r="45.9"/><path fill="#FFF" d="M36.3 37.7H71c1.4 0 2.5 1 2.5 2.2V41c0 1.2-1.1 2.2-2.5 2.2H36.3c-1.4 0-2.5-1-2.5-2.2v-1.1c-.1-1.2 1-2.2 2.5-2.2zM36.2 50.8h34.7c1.4 0 2.5 1 2.5 2.2v1.1c0 1.2-1.1 2.2-2.5 2.2H36.2c-1.4 0-2.5-1-2.5-2.2V53c-.1-1.2 1-2.2 2.5-2.2zM36.2 63.9h34.7c1.4 0 2.5 1 2.5 2.2v1.1c0 1.2-1.1 2.2-2.5 2.2H36.2c-1.4 0-2.5-1-2.5-2.2v-1.1c-.1-1.2 1-2.2 2.5-2.2z"/></svg>