<svg id="Layer_1" viewBox="0 0 107.3 514.5" enable-background="new 0 0 107.3 514.5"><defs><filter id="goo"><feGaussianBlur in="SourceGraphic" stdDeviation="10" result="blur"/><feColorMatrix in="blur" result="goo" values="1 0 0 0 0 0 1 0 0 0 0 0 1 0 0 0 0 0 19 -9"/><feComposite in="SourceGraphic" in2="goo" operator="atop"/></filter><filter height="150%" id="AI_GaussianBlur_6" width="150%" x="-25%" y="-25%"><feGaussianBlur stdDeviation="6"/></filter><filter id="shadowed-goo"><feGaussianBlur in="SourceGraphic" result="blur" stdDeviation="10"/><feColorMatrix in="blur" values="1 0 0 0 0 0 1 0 0 0 0 0 1 0 0 0 0 0 18 -7" result="goo"/><feGaussianBlur in="goo" stdDeviation="20" result="shadow"/><feColorMatrix in="shadow" values="0 0 0 0 0 0 0 0 0 0 0 0 0 0 0 0 0 0 0.9 -0.2" result="shadow"/><feComposite in2="shadow" in="goo" result="goo"/><feComposite in2="goo" in="SourceGraphic" result="mix"/></filter></defs><g filter="url(#shadowed-goo)"><g id="menu-items"><g class="item" id="linkin"><circle id="_x31_" fill="#222E56" cx="53.6" cy="53.6" r="41"/><path fill="#FFF" d="M77.6 56.3v16.2h-9.4V57.3c0-3.8-1.4-6.4-4.8-6.4-2.6 0-4.2 1.8-4.8 3.4-.2.6-.3 1.4-.3 2.3v15.8h-9.4s.1-25.7 0-28.3h9.4v4s0 .1-.1.1h.1v-.1c1.3-1.9 3.5-4.7 8.5-4.7 6.1.1 10.8 4.1 10.8 12.9M39 30.5c-3.2 0-5.3 2.1-5.3 4.9 0 2.7 2 4.9 5.2 4.9h.1c3.3 0 5.3-2.2 5.3-4.9-.1-2.8-2.1-4.9-5.3-4.9m-4.8 42h9.4V44.2h-9.4v28.3z"/></g><g class="item" id="email"><circle id="_x33_" fill="#222E56" cx="53.6" cy="53.6" r="41"/><g fill="#FFF"><path d="M72.1 36.1H35.2c-3.3 0-6 2.7-6 6v25.2c0 3.3 2.7 6 6 6H72c3.3 0 6-2.7 6-6V42.1c0-3.3-2.6-6-5.9-6zm3.2 31.2c0 1.8-1.5 3.2-3.2 3.2H35.2c-1.8 0-3.2-1.5-3.2-3.2V42.1c0-1.8 1.5-3.2 3.2-3.2H72c1.8 0 3.2 1.5 3.2 3.2l.1 25.2z"/><path d="M60 54.4l11.9-10.7c.6-.5.6-1.4.1-1.9-.5-.6-1.4-.6-1.9-.1L53.7 56.4l-3.2-2.9-.2-.2-13-11.7c-.6-.5-1.4-.5-1.9.1s-.5 1.4.1 1.9l12.1 10.8-12 11.2c-.5.5-.6 1.4-.1 1.9.3.3.6.4 1 .4.3 0 .7-.1.9-.4l12.2-11.4 3.3 3c.3.2.6.3.9.3.3 0 .7-.1.9-.4l3.4-3 12.1 11.5c.3.3.6.4.9.4a1.304 1.304 0 0 0 .9-2.3L60 54.4z"/></g></g><g class="item" id="resume"><circle id="_x34__1_" fill="#222E56" cx="53.6" cy="53.6" r="41"/><g fill="#FFF"><path d="M67.1 33.7h-27c-2.3 0-4.2 1.9-4.2 4.2v33.8c0 2.3 1.9 4.2 4.2 4.2h27c2.3 0 4.2-1.9 4.2-4.2V38c0-2.4-1.9-4.3-4.2-4.3zm2.5 38c0 1.4-1.1 2.5-2.5 2.5h-27c-1.4 0-2.5-1.1-2.5-2.5V38c0-1.4 1.1-2.5 2.5-2.5h27c1.4 0 2.5 1.1 2.5 2.5v33.7z"/><path d="M62.5 52.2H44.7c-.4 0-.8.3-.8.8 0 .4.3.8.8.8h17.8c.4 0 .8-.3.8-.8s-.4-.8-.8-.8zM62.5 55.7H44.7c-.4 0-.8.3-.8.8 0 .4.3.8.8.8h17.8c.4 0 .8-.3.8-.8 0-.4-.4-.8-.8-.8zM62.5 59.2H44.7c-.4 0-.8.3-.8.8 0 .4.3.8.8.8h17.8c.4 0 .8-.3.8-.8 0-.4-.4-.8-.8-.8zM62.5 62.8h-8.9c-.4 0-.8.3-.8.8s.3.8.8.8h8.9c.4 0 .8-.3.8-.8s-.4-.8-.8-.8zM62.5 69.8h-6.2c-.4 0-.8.3-.8.8 0 .4.3.8.8.8h6.2c.4 0 .8-.3.8-.8s-.4-.8-.8-.8zM54.5 48.8c0-1.5-1.7-3.4-4-4 1-.6 1.6-1.9 1.6-3 0-1.6-1.3-2.9-2.9-2.9-1.6 0-2.9 1.3-2.9 2.9 0 1.1.7 2.4 1.6 3-2.3.6-4 2.6-4 4 0 1.7 10.6 1.7 10.6 0zM49 45.6l-.5-.6c.2.1.5.1.7.1.3 0 .5 0 .7-.1l-.5.6 1.2 3-1.5 1.5-1.5-1.5 1.4-3z"/></g></g><path fill="#222E56" d="M53.7 12.7c-22.7 0-41 18.3-41 40.9s18.3 40.9 41 40.9 40.9-18.3 40.9-40.9-18.3-40.9-40.9-40.9zM78 77.9c-3.2 3.2-6.8 5.6-10.9 7.4-1 .4-2.1.8-3.2 1.2v-6.1c0-3.2-1.1-5.6-3.3-7.1 1.4-.1 2.7-.3 3.8-.6 1.2-.2 2.4-.6 3.7-1 1.3-.5 2.5-1 3.5-1.6 1-.6 2-1.4 3-2.4.9-1 1.7-2.1 2.4-3.4.6-1.3 1.1-2.8 1.5-4.6.4-1.8.6-3.7.6-5.9 0-4.1-1.3-7.7-4-10.6 1.2-3.2 1.1-6.7-.4-10.4l-1-.1c-.7-.1-1.9.2-3.7.9-1.8.7-3.8 1.8-6.1 3.3-3.2-.9-6.5-1.3-9.9-1.3-3.4 0-6.7.4-9.8 1.3-1.4-1-2.8-1.8-4-2.4-1.3-.6-2.3-1.1-3-1.3-.8-.2-1.5-.4-2.1-.4-.7-.1-1.1-.1-1.3 0-.2 0-.3.1-.4.1-1.5 3.8-1.6 7.3-.4 10.4-2.7 2.9-4 6.4-4 10.6 0 2.1.2 4.1.6 5.9.4 1.8.9 3.3 1.5 4.6.6 1.3 1.4 2.4 2.4 3.4.9 1 1.9 1.8 3 2.4 1 .6 2.2 1.2 3.5 1.6s2.5.8 3.7 1c1.2.2 2.4.4 3.8.6-2.2 1.5-3.3 3.9-3.3 7.1v6.3c-1.2-.4-2.4-.8-3.6-1.3-4.1-1.7-7.8-4.2-10.9-7.4-3.2-3.2-5.6-6.8-7.4-10.9-1.8-4.2-2.7-8.7-2.7-13.4s.9-9.1 2.7-13.4c1.7-4.1 4.2-7.8 7.4-10.9s6.8-5.6 10.9-7.4c4.2-1.8 8.7-2.7 13.4-2.7s9.1.9 13.4 2.7c4.1 1.7 7.8 4.2 10.9 7.4 3.2 3.2 5.6 6.8 7.4 10.9C87.1 44.5 88 49 88 53.6s-.9 9.1-2.7 13.4c-1.7 4.1-4.2 7.8-7.3 10.9z" class="item" id="github"/></g><circle fill="#222E56" cx="53.6" cy="53.6" r="45.9"/><path fill="#FFF" d="M36.3 37.7H71c1.4 0 2.5 1 2.5 2.2V41c0 1.2-1.1 2.2-2.5 2.2H36.3c-1.4 0-2.5-1-2.5-2.2v-1.1c-.1-1.2 1-2.2 2.5-2.2zM36.2 50.8h34.7c1.4 0 2.5 1 2.5 2.2v1.1c0 1.2-1.1 2.2-2.5 2.2H36.2c-1.4 0-2.5-1-2.5-2.2V53c-.1-1.2 1-2.2 2.5-2.2zM36.2 63.9h34.7c1.4 0 2.5 1 2.5 2.2v1.1c0 1.2-1.1 2.2-2.5 2.2H36.2c-1.4 0-2.5-1-2.5-2.2v-1.1c-.1-1.2 1-2.2 2.5-2.2z"/></g></svg>