<svg id="Layer_1" viewBox="0 0 1041.1 840.8"><path class="outer-flame" fill="#0C5984" d="M1027.8 808.4c-23.6 34-70.2 42.7-104.3 19.1-2.3-1.6-4.5-3.3-6.6-5.2L267.1 377.4c-.6-.6-1-1.1-1.8-1.6l3.2 3.9c-4.2-2.9-5.3-8.5-2.4-12.7l1-1.5c2.8-4.3 8.6-5.4 12.9-2.5l279.3 186c4.3 2.8 9.9 1.7 12.9-2.5l1.6-2.6c2.8-4.3 1.7-9.9-2.5-12.8l-328.1-219c-4.3-2.8-5.4-8.5-2.5-12.8l1.7-2.7c2.8-4.3 8.5-5.4 12.7-2.5l326.7 215.7c4.3 2.8 9.8 1.6 12.7-2.5l1.7-2.6c2.8-4.3 1.7-10-2.5-12.9L256.4 269.2a9.12 9.12 0 0 1-2.5-12.9l1.3-1.8c2.8-4.3 8.5-5.4 12.8-2.5l315.4 209.6c4.3 2.8 9.9 1.7 12.8-2.5l1.6-2.5c2.8-4.3 1.7-9.9-2.5-12.8L279.1 231.7c-4.3-2.8-5.4-8.6-2.5-12.8l1.5-2.4c2.8-4.3 8.6-5.4 12.9-2.5l259 173.7c.9.5 1.7 1 2.5 1.1l448.2 310.4c2.8 1.5 5.5 3.1 8.2 5 33.9 23.4 42.5 70 18.9 104.2z"/><path class="mid-flame" fill="#58FFF3" d="M651.2 475.7l-11.2-8.2c-4.2-2.9-9.7-1.9-12.6 2.2-2.9 4.2-1.9 9.8 2.2 12.6l11.1 8.2c1.3.9 2.5 1.3 3.9 1.6 3.3.5 6.7-1 8.7-3.8 3-4.1 2-9.7-2.1-12.6zm363.6 323.8c-18.6 27-55.5 33.7-82.5 15.1-1.3-.9-2.5-1.8-3.8-2.8-.6-.3-1.3-.7-1.8-1.1l-298-204.8c-4.5-3-6.3-8.3-3.9-11.6l1.6-2.4c2.3-3.3 7.9-3.5 12.2-.4l54.4 36.7c4.4 3 10 2.9 12.2-.4l.9-1.4c2.3-3.3.4-8.5-3.9-11.6l-52-37.7c-4.5-3-6.3-8.3-3.9-11.6l1.7-2.4c2.3-3.3 7.8-3.6 12.1-.4l46.6 33.7c4.4 3 10 2.9 12.2-.4l1.4-2c2.3-3.3.4-8.5-3.9-11.6l-91.8-62.8c-4.5-3-6.3-8.3-3.9-11.6l1.6-2.4c2.3-3.3 7.9-3.5 12.2-.4l102.3 69.9c2.3 1.5 4.8 2.3 7.1 2.2 2.2-.1 4.1-1 5.2-2.6 2.3-3.3.4-8.5-3.9-11.6l-13.6-9.3c-.7-.3-1.4-.6-2-1l-67-47.8c-4.2-2.9-5.2-8.5-2.2-12.6 2.9-4.2 8.5-5.2 12.6-2.2l67 47.4c.7.4 1.2 1 1.7 1.6l252.2 174.1c.5.3 1.1.8 1.4 1.2 1.4.8 2.7 1.6 4.1 2.6 27.3 18.6 34 55.5 15.4 82.4z"/><path class="inner-flame" fill="#F9F6ED" d="M789.1 650.8l-13.7-9.5c-4.3-3-9.6-2.8-11.8.5-2.2 3.2-.5 8.2 3.8 11.2l13.7 9.5c4.3 3 9.6 2.8 11.8-.5 2.1-3.2.4-8.2-3.8-11.2zm-32 30.4l27.9 19.3c4.3 3 9.6 2.8 11.8-.5 2.2-3.2.5-8.2-3.8-11.2l-27.9-19.3c-4.3-3-9.6-2.8-11.8.5-2.3 3.1-.5 8.1 3.8 11.2zm12.8-77.2l-16.3-11.3c-4.3-3-9.6-2.8-11.8.5-2.2 3.2-.5 8.2 3.8 11.2l16.3 11.3c4.3 3 9.6 2.8 11.8-.5 2.2-3.1.4-8.1-3.8-11.2zm-50.4 51.1l11.3 8.1c4.3 3 9.6 2.8 11.8-.5 2.2-3.2.5-8.2-3.8-11.2l-11.3-8.1c-4.3-3-9.6-2.8-11.8.5-2.3 3.2-.5 8.2 3.8 11.2zm77.6-65.9l-26.4-18.3c-4.3-3-9.6-2.8-11.8.5-2.2 3.2-.5 8.2 3.8 11.2l26.4 18.2c4.3 3 9.6 2.8 11.8-.5 2.3-3.1.5-8.1-3.8-11.1zm-42.4 46.6c2.2-3.2.5-8.2-3.8-11.2l-24.2-15.8c-4.3-3-9.6-2.8-11.8.5-2.2 3.2-.5 8.2 3.8 11.2l24.1 15.8c4.3 2.9 9.7 2.8 11.9-.5zm251.8 157.8c-15.4 22.3-45.9 27.8-68.1 12.5-.9-.5-1.5-1.1-2.4-1.7l-121.3-83.9c-4.2-2.8-5.8-7.6-3.6-10.6l.4-.7c2.2-3 7.1-3.1 11.2-.3l90.1 63.4c4.2 2.9 9.1 2.7 11.2-.3l.4-.7c2.1-3 .5-7.8-3.6-10.6l-117.4-82.3c-4.2-2.8-5.8-7.6-3.6-10.6l.4-.7c2.2-3 7.1-3.1 11.2-.3l111.9 77.4c4.2 2.9 9.1 2.7 11.2-.3l.4-.7c2.1-3 .5-7.8-3.6-10.6l-144.9-99.7c-4.2-2.8-5.8-7.6-3.6-10.6l.4-.7c2.2-3 7.1-3.1 11.2-.3l84.9 58.5c1.6 1 3.2 1.7 4.8 1.9 2.7.3 5.1-.4 6.6-2.4 2.1-3 .5-7.8-3.6-10.6l-77.9-53.9c-4.2-2.8-5.8-7.6-3.6-10.6l.4-.7c2.2-3 7.1-3.1 11.2-.3l174.6 120.6c.7.5 1.3 1 1.8 1.5.1 0 .1.1.2.1 22.4 15.4 28 45.8 12.7 68.2z"/></svg>