<svg viewBox="0 0 1041.1 840.8"><path class="outer-flame" fill="#0C5984" d="M1027.8 808.4c-23.6 34.1-70.2 42.7-104.3 19.1-2.3-1.6-4.5-3.3-6.6-5.2L518.8 544.2c-.6-.6-1-1.1-1.8-1.6l-11.9-8.1c-4.2-2.9-5.3-8.5-2.4-12.7l1-1.5c2.8-4.3 8.6-5.4 12.9-2.5l80.5 55.1c4.3 2.8 9.9 1.7 12.9-2.5l1.6-2.6c2.8-4.3 1.7-9.9-2.5-12.8l-15.4-10.2c-4.3-2.8-5.4-8.5-2.5-12.8l1.7-2.7c2.8-4.3 8.5-5.4 12.7-2.5l44.7 29.2c4.3 2.8 9.8 1.6 12.7-2.5l1.7-2.6c2.8-4.3 1.7-10-2.5-12.9l-62.8-40.5a9.12 9.12 0 0 1-2.5-12.9l1.3-1.8c2.8-4.3 8.5-5.4 12.8-2.5l58.9 38.7c4.3 2.8 9.9 1.7 12.8-2.5l1.6-2.5c2.8-4.3 1.7-9.9-2.5-12.8L614 455.9c-4.3-2.8-5.4-8.6-2.5-12.8l1.5-2.4c2.8-4.3 8.6-5.4 12.9-2.5l18.1 12.2c.9.5 1.7 1 2.5 1.1l353.6 247.6c2.9 1.5 5.7 3.1 8.3 5 34.4 23.5 43 70.1 19.4 104.3zm-442-330.1l1.5-2.4c2.9-4.4 1.7-10.1-2.6-13.1l-4-2.4c-4.4-2.9-10.1-1.7-13.1 2.6l-1.5 2.4c-2.9 4.4-1.7 10.1 2.6 13.1l4 2.4c4.4 3 10.3 1.8 13.1-2.6z"/><path class="mid-flame" fill="#58FFF3" d="M730 530.6l-2.6-1.7c-4.2-2.9-9.7-1.9-12.6 2.2-2.9 4.2-1.9 9.8 2.2 12.6l2.6 1.7c1.2.9 2.5 1.3 3.9 1.6 3.3.5 6.7-.9 8.7-3.8 2.9-4.1 1.9-9.7-2.2-12.6zm284.8 268.9c-18.6 27-55.5 33.7-82.5 15.1-1.3-.9-2.6-1.8-3.8-2.8-.7-.3-1.3-.7-1.8-1.1L646.4 617.3c-4.5-3-6.3-8.3-3.9-11.6l1.6-2.4c2.3-3.3 7.9-3.5 12.2-.4l102.1 70.4c4.4 3 10 2.9 12.2-.4l.9-1.4c2.3-3.3.4-8.5-3.9-11.6l-72.7-50.4c-4.5-3-6.3-8.3-3.9-11.6l1.7-2.4c2.3-3.3 7.8-3.6 12.1-.4l40.8 28.4c4.4 3 10 2.9 12.2-.4l1.4-2c2.3-3.3.4-8.5-3.9-11.6L696.4 569c-4.5-3-6.3-8.3-3.9-11.6l1.6-2.4c2.3-3.3 7.9-3.5 12.2-.4L771 599c2.3 1.5 4.8 2.3 7.1 2.2s4.1-1 5.2-2.6c2.3-3.3.4-8.5-3.9-11.6l-9.1-6c-.7-.3-1.4-.6-2-1l-25.8-18c-4.2-2.9-5.2-8.5-2.2-12.6 2.9-4.2 8.5-5.2 12.6-2.2l25.8 18c.7.4 1.2 1 1.7 1.6l213.3 147.3c.5.2 1 .7 1.3.9 1.5.8 3 1.9 4.5 2.8 27.2 17.8 33.9 54.7 15.3 81.7z"/><path class="inner-flame" fill="#F9F6ED" d="M817 668.5l-10.5-7.1c-4.3-3-9.6-2.8-11.8.5-2.2 3.2-.5 8.2 3.8 11.2l10.5 7.1c4.3 3 9.6 2.8 11.8-.5 2.1-3.2.3-8.2-3.8-11.2zM789.9 701l22.6 16.6c4.3 3 9.6 2.8 11.8-.5 2.2-3.2.5-8.2-3.8-11.2L798 689.3c-4.3-3-9.6-2.8-11.8.5-2.3 3.2-.6 8.2 3.7 11.2zm14.8-74.7l-12-8.8c-4.3-3-9.6-2.8-11.8.5-2.2 3.2-2.6 7.3 1.8 10.3l14 9.7c4.3 3 9.6 2.8 11.8-.5 2.3-3.2.5-8.2-3.8-11.2zm40.1-5.8l-26.6-17.8c-4.3-3-9.6-2.8-11.8.5-2.2 3.2-.5 8.2 3.8 11.2l26.5 17.8c4.3 3 9.6 2.8 11.8-.5 2.3-3.2.7-8.3-3.7-11.2zm161.7 173.1c-15.4 22.3-45.9 27.8-68.1 12.5-.9-.5-1.5-1.1-2.4-1.7l-93.6-66.6c-4.2-2.8-5.8-7.6-3.6-10.6l.4-.7c2.2-3 7.1-3.1 11.2-.3l10.1 7.7c4.2 2.9 9.1 2.7 11.2-.3l.4-.7c2.1-3 .5-7.8-3.6-10.6L831 695.6c-4.2-2.8-5.8-7.6-3.6-10.6l.4-.7c2.2-3 7.1-3.1 11.2-.3l55.2 40.7c4.2 2.9 9.1 2.7 11.2-.3l.4-.7c2.1-3 .5-7.8-3.6-10.6l-78-56.5c-4.2-2.8-5.8-7.6-3.6-10.6l.4-.7c2.2-3 7.1-3.1 11.2-.3l100.1 71.5c1.6 1 3.2 1.7 4.8 1.9 2.7.3 5.1-.4 6.6-2.4 2.1-3 .5-7.8-3.6-10.6l-65.4-46.7c-4.2-2.8-5.8-7.6-3.6-10.6l.4-.7c2.2-3 7.1-3.1 11.2-.3L992 723.6c.7.5 1.3 1 1.8 1.5.1 0 .1.1.2.1 22.3 15.6 27.9 46.1 12.5 68.4zM788 647.9l-17.3-12.6c-4.3-3-9.6-2.8-11.8.5-2.2 3.2-.5 8.2 3.8 11.2l17.3 12.6c4.3 3 9.6 2.8 11.8-.5 2.3-3.2.6-8.2-3.8-11.2zm-5 36.6c1.9-3.5.9-7.1-2-8.1-2.9-1.2-6.7.6-8.6 4.1v.1c-1.9 3.4-.9 7 2 8 2.9 1.1 6.8-.7 8.6-4.1z"/></svg>