<svg id="Layer_1" viewBox="0 0 1041.1 840.8"><path class="outer-flame" fill="#0C5984" d="M1027.8 808.4c-23.6 34.1-70.2 42.7-104.3 19.1-2.3-1.6-4.5-3.3-6.6-5.2L511.6 542.5c-.6-.6-1-1.1-1.8-1.6l-21.5-14.3c-4.2-2.9-5.3-8.5-2.4-12.7l1-1.5c2.8-4.3 8.6-5.4 12.9-2.5l60.3 40.3c4.3 2.8 9.9 1.7 12.9-2.5l1.6-2.6c2.8-4.3 1.7-9.9-2.5-12.8l-69.5-46.8c-4.3-2.8-5.4-8.5-2.5-12.8l1.7-2.7c2.8-4.3 8.5-5.4 12.7-2.5l54.9 35.9c4.3 2.8 9.8 1.6 12.7-2.5l1.7-2.6c2.8-4.3 1.7-10-2.5-12.9l-124.2-82.7a9.12 9.12 0 0 1-2.5-12.9l1.3-1.8c2.8-4.3 8.5-5.4 12.8-2.5l129.1 87.1c4.3 2.8 9.9 1.7 12.8-2.5l1.6-2.5c2.8-4.3 1.7-9.9-2.5-12.8l-14.6-9.4c-4.3-2.8-5.4-8.6-2.5-12.8l1.5-2.4c2.8-4.3 8.6-5.4 12.9-2.5l18.1 12.2c.9.5 1.7 1 2.5 1.1L1000 699c2.9 1.5 5.7 3.1 8.3 5 34.4 23.6 43.1 70.3 19.5 104.4zM578.7 424.1l1.5-2.4c2.9-4.4 1.7-10.1-2.6-13.1l-4-2.4c-4.4-2.9-10.1-1.7-13.1 2.6l-1.3-.7c-2.9 4.4-2 13.2 2.4 16.1l4 2.4c4.3 3 10.2 1.8 13.1-2.5zm-82.9 41.7l1.5-2.4c2.9-4.4 1.7-10.1-2.6-13.1l-4-2.4c-4.4-2.9-10.1-1.7-13.1 2.6l-1.5 2.4c-2.9 4.4-1.7 10.1 2.6 13.1l4 2.4c4.4 2.9 10.2 1.7 13.1-2.6z"/><path class="mid-flame" fill="#58FFF3" d="M690.9 503.7l-8-5.9c-4.2-2.9-9.7-1.9-12.6 2.2-2.9 4.2-1.9 9.8 2.2 12.6l8 5.9c1.2.9 2.5 1.3 3.9 1.6 3.3.5 6.7-.9 8.7-3.8 3-4.1 2-9.6-2.2-12.6zm323.9 295.8c-18.6 27-55.5 33.7-82.5 15.1-1.3-.9-2.6-1.8-3.8-2.8-.7-.3-1.3-.7-1.8-1.1L607.4 590.4c-4.5-3-6.3-8.3-3.9-11.6l1.6-2.4c2.3-3.3 7.9-3.5 12.2-.4l63.3 43.8c4.4 3 10 2.9 12.2-.4l.9-1.4c2.3-3.3.4-8.5-3.9-11.6l-89.1-61.5c-4.5-3-6.3-8.3-3.9-11.6l1.7-2.4c2.3-3.3 7.8-3.6 12.1-.4l68.6 46.7c4.4 3 10 2.9 12.2-.4l1.4-2c2.3-3.3.4-8.5-3.9-11.6L657.4 542c-4.5-3-6.3-8.3-3.9-11.6l1.6-2.4c2.3-3.3 7.9-3.5 12.2-.4l92.4 63.8c2.3 1.5 4.8 2.3 7.1 2.2s4.1-1 5.2-2.6c2.3-3.3.4-8.5-3.9-11.6L731.3 554c-.7-.3-1.4-.6-2-1l-21.2-15.2c-4.2-2.9-5.2-8.5-2.2-12.6 2.9-4.2 8.5-5.2 12.6-2.2l21.4 14.8c.7.4 1.2 1 1.7 1.6l252.4 174c.5.2 1 .7 1.3.9 1.5.8 3 1.9 4.5 2.8 26.9 18.5 33.6 55.4 15 82.4z"/><path class="inner-flame" fill="#F9F6ED" d="M783.5 646.9l-12.1-8.3c-4.3-3-9.6-2.8-11.8.5-2.2 3.2-.5 8.2 3.8 11.2l12.1 8.3c4.3 3 9.6 2.8 11.8-.5 2.1-3.2.3-8.2-3.8-11.2zM757 681.1l27.9 19.3c4.3 3 9.6 2.8 11.8-.5 2.2-3.2.5-8.2-3.8-11.2l-27.8-19.2c-4.3-3-9.6-2.8-11.8.5-2.3 3.1-.6 8.1 3.7 11.1zm20-72l-14-9.7c-4.3-3-9.6-2.8-11.8.5-2.2 3.2-.5 8.2 3.8 11.2l14 9.7c4.3 3 9.6 2.8 11.8-.5 2.3-3.3.6-8.2-3.8-11.2zm-60.3 44.2l8.4 5.8c4.3 3 9.6 2.8 11.8-.5 2.2-3.2.5-8.2-3.8-11.2l-8.4-5.8c-4.3-3-9.6-2.8-11.8.5-2.3 3.3-.5 8.3 3.8 11.2zm104.1-46.8l-27.5-19.7c-4.3-3-9.6-2.8-11.8.5-2.2 3.2-.5 8.2 3.8 11.2l27.5 19.7c4.3 3 9.6 2.8 11.8-.5 2.2-3.2.6-8.3-3.8-11.2zm-66.9 29c2.2-3.2.5-8.2-3.8-11.2L731 611.4c-4.3-3-9.6-2.8-11.8.5-2.2 3.2-.5 8.2 3.8 11.2l19 12.9c4.4 2.9 9.8 2.8 11.9-.5zm252.5 158.1c-15.4 22.3-45.9 27.8-68.1 12.5-.9-.5-1.5-1.1-2.4-1.7l-121.2-83.9c-4.2-2.8-5.8-7.6-3.6-10.6l.4-.7c2.2-3 7.1-3.1 11.2-.3l66.6 46c4.2 2.9 9.1 2.7 11.2-.3l.4-.7c2.1-3 .5-7.8-3.6-10.6l-93.9-64.8c-4.2-2.8-5.8-7.6-3.6-10.6l.4-.7c2.2-3 7.1-3.1 11.2-.3l67.5 46.5c4.2 2.9 9.1 2.7 11.2-.3l.4-.7c2.1-3 .5-7.8-3.6-10.6l-90.2-62.3c-4.2-2.8-5.8-7.6-3.6-10.6l.4-.7c2.2-3 7.1-3.1 11.2-.3l116.9 80.7c1.6 1 3.2 1.7 4.8 1.9 2.7.3 5.1-.4 6.6-2.4 2.1-3 .5-7.8-3.6-10.6l-94.2-65c-4.2-2.8-5.8-7.6-3.6-10.6l.4-.7c2.2-3 7.1-3.1 11.2-.3L992 723.7c.7.5 1.3 1 1.8 1.5.1 0 .1.1.2.1 22.2 15.5 27.8 46 12.4 68.3z"/></svg>