<svg id="Layer_1" viewBox="0 0 1422.2 325.9" enable-background="new 0 0 1422.2 325.9"><defs><filter id="Adobe_OpacityMaskFilter" filterUnits="userSpaceOnUse" x="0" y="0" width="1422.3" height="325.7"><feColorMatrix values="1 0 0 0 0 0 1 0 0 0 0 0 1 0 0 0 0 0 1 0"/></filter></defs><mask maskUnits="userSpaceOnUse" x="0" y="0" width="1422.3" height="325.7" id="mask"><g id="mask-group" filter="url(#Adobe_OpacityMaskFilter)" fill="none" stroke="#FFF" stroke-miterlimit="10"><path id="path1" stroke-width="11" d="M173 45.5s6.3 4.7 12.7 4.7c6.3 0 13.5.3 20.3-4.7s7.9-6.9 9-10.5c1.2-3.5 1.6-3.1 1.5-6.3-.2-3.1-1.6-7.4-1.6-7.4s-1.2-4.2-4.3-6.3-6.1-4.5-12.4-4.9c-6.3-.4-12.2-.5-13.8 0s-5 1-8.9 5-8.9 10.5-8.9 10.5l-4.7 10.7-1.1 4.4-.8 6.1v14.9l1 8.2 1.1 5.2 1.5 5.6 1.8 3.3 2.9 3.9 5.1 2.6h4.3l3.1-2.5 2.8-5.7 2.6-5.4 2.1-6.1 1-9-1-20.1s-1-.3 0-4.3c1-3.9 2.1-6.1 2.1-6.1l2.1-2.9 3.7-3"/><path id="path2" stroke-width="11" d="M221.4 67s3.9.4 7.3-.5c3.4-1 4.8-1.5 7-3.3s2.8-2.9 4-5.1c1.2-2.1 1.9-5.6 1.9-5.6v-1.4s.2-.1-.4-1.7c-.6-1.5-.9-1.8-2.1-2.5-1.2-.7-3.3-1.2-3.3-1.2s.9-.1-1.8-.4c-2.7-.3-3.3.2-4 .6s-2.6 1.9-3.3 2.7c-.7.9-.7.4-1.7 2.6s-2.6 6.7-2.6 6.7l-.4 2.2-.4 2.8-.3 7.8s-.2 1.8.4 2.5 1.7 2.6 1.7 2.6.7 1.2 1.3 1.8 2.7 1.8 2.7 1.8l2.5.4 5.2-.5 5.2-1.7 6.3-3.2 5.2-4.5 6.6-21-3.4 29.5 21-30 1.4-2v5.2l-1.3 8.8-.7 5.9.2 6.1 1.1 5.4s.7 1.6 2 2 12.4-5.6 12.4-5.6l3.8-5.2 1.4-9.9 3.8-7 4.5-4.5 5.9-2.4 2.9-.6.6 1.8-8 1.9-2.5 3.1-3 4.2-.9 3.6-1.8 3.7-.7 5v4.5l.1 4.7 1.7 2.4 3.4.4 5.6-1.7 4.2-3.7 3-4.6 3.2-12.9 1-9.6-6.3 53.4-2.5 14.9s-.9 3.3-3.6 5.2c-2.8 1.8-5.5 3.7-9.3.5-3.7-3.2-3.1-9.4-3.1-9.4l3.1-7.7 4-5.4 9.8-9.2 10.6-6 8.7-5.8 5.7-6.6 16.2-25.7 12.7-23.5 1.6-4.9-.5-5.6-2-3.6s-1.6-2.2-4.6-1.5-8.6 8.1-8.6 8.1l-4.1 8.8-5.9 33.1s-4.2 25.2-4 32.2 2 15.4 4.3 16.9 3.1 2.2 6.2.7 5-7.2 5-7.2l2.2-10.2-.4-6.7-2.6-10.3-1.2-4.9-1.6-4.2 13.2-.9 9.2-2.9 1 8.4s5.2.4 8.6-1.1 8.8-6 8.8-6 3.2-4 3.3-7.3c.1-3.2-1.6-7-2.9-7.6-1.2-.7-5.1-1.8-7.6-.3s-5.5 2.5-7 6.7c-1.4 4.2-2.5 13.8-2.5 13.8s-.7 5.8.1 8.1c.8 2.3 4.8 5.5 4.8 5.5s1.4 1.1 3.3.9 0 2 10.8-2 12.9-13.4 12.9-13.4l5.3-20.4 5.1-.9-10.4 32s-.6 2.9.4 3.8c1 1 1.6 2.5 5.8 1.4 4.2-1 18.4-10.5 18.4-10.5"/><path id="dot" stroke-width="21" d="M410.1 22.2l12.5 11.7"/><path id="path3" stroke-width="11" d="M446.3 38.1l7.8-16.1s-.5-1.9 3.7-3.5c4.3-1.6 11.2 1.3 11.2 1.3l10.7 1.3 10.2-1.1-41.5 55.9s6.2-2.7 8.6-2.1c2.4.5 11.1 4.5 11.1 4.5s2 2.1 6 2.1 21.2-7.5 24.8-11.1 11.6-20.1 11.6-20.1l7.8-17.4s3.7-8.3 5.6-15.2 4-12.6 0-13.4-7.5.1-9.9 3c-2.4 2.9-7.5 10.9-8.8 19.2s-2.7 27.3-2.7 27.3L500.9 79s4-11 12-19 15.5-12.8 15.5-12.8l2.7-1.6s-4.8 10.2-6.2 17.9c-1.3 7.8-2.4 11.8 1.1 13.9s19.8-7.8 19.8-7.8l13.6-5s1.1.7 4.8-3.6 5.1-4.8 3.7-9.9c-1.3-5.1-.8-5.4-4.3-5.9l-3.5-.5s-5.9-1.1-7.5 3.7-3.5 12-3.5 12-3.5 7.5 0 12.6 5.4 8 11.2 7.5c5.9-.5 20.9-12.3 20.9-12.3l3.5-20.6s-2.4 32.8-2.4 33 19-32.4 19-32.4l2.9-1.9s-2.1 13.5-2.1 18.3 2.1 13.6 2.1 13.6l2.9.8 12.3-4.5 2.9-9.8 4.8-9.4 7.2-10.2 4.3-1.1-9.1 9.5s-2 1.7-3.2 5.1-2.5 5.5-2.8 8.7c-.3 3.3-.6 9.5-.6 9.5s.3 1.8 1.5 3.2c1.2 1.4 1.8 1.4 3.3 1.4s7.8-3.3 7.8-3.3 1.8-.8 3.8-4.8 4.5-12.7 4.5-12.7l1.4-11.8-2.2-3.2 2.7 6.3-4.1 32.4-1.5 21.5s-.3 7.3-3.1 10.2-4.3 5.5-8.7 4.8-6-1-6.7-5 3.2-12.9 3.2-12.9l8.4-9.6 14.1-8 18.1-17.5 1.8-3.6"/><path id="path5" stroke-width="11" d="M762.4 12.5l-9 30.2s-2.6 7.4-2.2 17.5c.4 10 3.3 16.7 3.3 16.7s1.1 4.8 5.6 5.6c4.5.7 10-.7 13.4-4.5 3.3-3.7 15.2-49.8 15.2-49.8l5.2-8.2-3.3 41.9s-.7 5.3 3.3 13.1 4.1 7.8 4.1 7.8l3.1 1.4s3.1 1 6.4-1c3.3-2.1 5.7-2.6 9-12.9s7.2-32.4 7.2-32.4l4-19.1 1.6-4.3-.9 18.3-2.1 18.1-.7 7.6-.2 8.6 1 4.1 2.8 2.4 3.1 2.1 5.3-2.7 6.2-3.8 6.5-4 5.2-2.6 5-4.3s2.2-.9 2.2-6-4.3-7.2-4.3-7.2-1.9-1.6-5.5.5-7.1 5-8.3 7.2-3 13.8-3 13.8.1 6.2 4.9 10.1c4.8 4 10.7 2.9 10.7 2.9l10.9-5.5 5.5-4.5 2.8-9.3 3.4-11.1L891.7 31l5.7-12.7V9.5l-2.2-4.8s-.7-2.4-3.6-1c-2.9 1.4-7.6 9.1-7.6 9.1l-5.5 18.4-2.5 16.7-1 9.5-1 18.8 4.1-15.7 3.6-7.2 5.9-4 8.3-1.2s2.1.7 3.3 3.4 1.7 9.3 1 12.7-3.4 10.2-3.4 10.2l-4.8 2.8-6.9 1.6-7.6-.9 38.2-9.3 6.2-5.5"/><path id="path6" stroke-width="11" d="M961.3 43.8s-9 1-13.9 7.8S941 61 941 66.2s1 9.4 1 9.4-.3 1.4 2.2 3.3c2.6 1.9 7.7 0 7.7 0l8.6-9.1 9.1-14.6 5.5-10.5 5.3-19.1 1.7-10V10s-1.5-3.8-3.3-4.6c-1.7-.9-6.2 1.9-6.2 1.9s-3.4 3.4-5.3 7.6c-1.9 4.1-3.1 17.4-3.1 17.4l-.9 13.4v11.9l1 12.9 1.5 4.5 2.1 2.9s2.1 1.9 2.8 1.9 10.3-3.9 10.3-3.9l12-7.4s6.5-2.4 10.5-5.5 6.2-7.7 6.2-7.7 1-1.9 0-5.3-5.5-4.8-5.5-4.8-1.7-.3-3.6-.3c-1.9 0-6.5 4.3-6.5 4.3s-4.1 5.2-4.1 10-1.4 11.7.3 15.1 5.2 5.3 8.3 5.7c3.1.4 15.5-5 15.5-5l6-6 2.6-18.6.7-6.2 1 35.8 3.1.9 18.4-36.7s-5.5 17.9-5.5 19.1c0 1.2 2.8 8.4 3.1 9.1.3.7 2.2 2.2 5.3 1.4 3.1-.9 21.3-8.6 21.3-8.6s8.3-4.3 8.8-6.2 2.4-4.8 1.5-8.1c-.9-3.3-3.3-5.3-5.2-5.7-1.9-.3-6.4-1.2-8.3 1.7s-6.4 6-6.5 10.5.7 16.9.7 16.9 1.6 3.6 3.8 4.8c2.2 1.2 5 2.6 10 .2s15.7-7.7 15.7-7.7l17.7-31.8 7.6-17.7 1.2-10.5s.3-3.8-1-5-6.7 1.4-6.7 1.4l-7.7 11.7-4.8 13.8-2.8 15-.3 9.8s-1.9 16 3.3 19.4c5.2 3.4 10.7.9 10.7.9l7.5-5.9 1.1-14.1 7.8-10.6-7.3 28.3s2.8 4.9 7.3 3.7 7.1-.3 10.2-6.8 1.1-20 1.1-20l-2.9-4.9-1.1-2.9 12.5 4.7 7.8 5.5 7.1 6.2V74l-.8 1.9 11.7-3.7s8.6-5.5 9.4-10.4 1.5-7.5 0-10.6-5.7-5.7-5.7-5.7c-5.4 1-11.5 6.7-11.5 6.7l-1.8 6.8-1.5 30.7s.8 10.1-.8 14.3c-1.6 4.2-2.3 9.1-6.5 9.1s-5.5-1.8-5.5-1.8l-1.9-5.4V104l1.8-7.6 3.6-10.7 2.9-4.1 5-2.9h10.9l9.7.6 8-1.8 4.9-3.9 11.7-8s5.7-.6 8-5.2c2.3-4.5 4.4-7.5 3.4-10.2s-5.4-5.2-5.4-5.2-5-1.9-7 .2-4.5 5.5-4.5 5.5l-3.2 5.2v9.4s0 8.6 3 11.1c3.1 2.4 7 4.1 10.9 3.2 3.9-.8 13.6-6.5 13.6-6.5l6.8-14.2 2.3-10.8 1-3.6-4.4 36.6s10.1-30.9 14.8-33.3 5.7-2.6 5.7-2.6-3.7 6.8-2.6 10.4 2.6 9.3 2.6 9.3 1.8 2.6 5 2.9 11.9-5 11.9-5l5.4-3.8"/><path id="path7" stroke-width="21" d="M693.2 40.1l13.2 16.2"/></g></mask><path fill="#FFF" d="M0 220h5v-23.7h29.2v23.6h5v-6.6-9-10.1-25.6h-5v23.2H5v-23.2H0V220zm49.8-39.2c-.1.8.3 1.6.9 2.1.5.5 1.3.8 2 .8s1.4-.3 1.9-.8c.6-.5.9-1.3.9-2.1 0-1.6-1.2-2.9-2.8-2.9-.7 0-1.5.3-2 .8-.6.6-.9 1.3-.9 2.1zm4.8 39.2v-28.8h-4V220h4zm14-.9c1.6 0 2.9-1.3 2.9-2.9 0-.9-.3-1.7-.9-2.2-.5-.5-1.3-.8-2-.8s-1.5.3-2 .8c-.6.5-.9 1.3-.9 2.1s.3 1.6.9 2.1c.5.6 1.2.9 2 .9zm-2.2-53.5l.1 42.4h4.2v-42.4h-4.3zm36.3 3V220h5v-51.4h-5zm18.3 10.2c1.4-1.3 2.4-2.9 3-4.7.6-1.8.7-3.8.3-5.7l-2.9.5c.3 1.6.3 3.2-.2 4.7-.5 1.4-1.2 2.6-2.3 3.6l2.1 1.6zm12.4 12.4l-.2 28.8h4v-15.3c0-1.4.3-2.8.8-4.1.5-1.2 1.2-2.3 2.2-3.2 1-.9 2.2-1.6 3.4-2.1 1.3-.6 2.8-.8 4.2-.8 1.8 0 3.5.7 4.7 1.9 1 1.2 1.6 2.6 1.7 4.2V220h4v-15.3c.1-1.4.4-2.7.9-4 .5-1.2 1.3-2.3 2.2-3.2.9-.9 2.1-1.6 3.3-2.1 1.3-.6 2.7-.8 4.1-.8h.2c3.4-.1 6.2 2.6 6.3 6V220h4v-20.7c0-2.4-.9-4.7-2.6-6.3-1.9-1.7-4.3-2.5-6.8-2.4-2.5 0-5 .7-7.1 2.2-1.9 1.4-3.5 3.3-4.5 5.5-.2-2.2-1.3-4.2-2.9-5.6-1.8-1.5-4.2-2.2-6.5-2.1-2.6 0-5.1.8-7.2 2.3-2 1.5-3.5 3.5-4.5 5.8v-1.5c0-.7-.1-1.4-.1-2.1 0-.8-.1-1.5-.1-2.2s-.1-1.3-.1-1.7h-3.4zM209 220h4.9v-20.5h7.7c2.6 0 5.2-.4 7.6-1.4 1.9-.8 3.7-2.1 5.1-3.6 1.3-1.4 2.3-3.1 2.9-5 .6-1.9.9-3.8.9-5.8.1-2.3-.4-4.6-1.4-6.7-.9-1.8-2.1-3.4-3.7-4.7-1.5-1.3-3.4-2.2-5.3-2.8-2.1-.6-4.2-.9-6.3-.9H209V220zm4.9-25.2l-.1-21.6h7.7c1.7 0 3.5.3 5.1.9 1.4.5 2.7 1.4 3.7 2.4s1.7 2.1 2.2 3.4c.5 1.3.8 2.6.8 3.9 0 1.2-.2 2.4-.5 3.5-.4 1.3-1 2.5-1.9 3.6-.9 1.2-2.2 2.2-3.6 2.8-1.9.8-3.8 1.2-5.8 1.1h-7.6zm50.4 21.8l-3-3c-1 1-2.2 1.7-3.5 2.2-1.4.5-2.9.8-4.4.8-4.3 0-8.3-2.6-10.1-6.6l5.8-2.3 6.2-2.5 6.1-2.4c2-.8 3.8-1.5 5.4-2.1-1-2.8-2.8-5.4-5.1-7.3-2.3-1.9-5.2-3-8.2-2.9-2 0-4 .4-5.8 1.2-3.6 1.6-6.5 4.5-8 8.1-.8 1.9-1.2 3.9-1.2 5.9s.4 4 1.2 5.8c.7 1.8 1.8 3.4 3.2 4.8 1.4 1.4 3 2.4 4.8 3.2 1.8.8 3.9 1.2 5.9 1.2s3.9-.4 5.8-1.1c1.8-.7 3.5-1.7 4.9-3zm-2.5-16.9c-1.4.6-2.9 1.1-4.6 1.7-1.7.7-3.3 1.3-5 2-1.7.8-3.3 1.4-5 2.1-1.7.6-3.3 1.3-4.8 1.9-.1-.7-.2-1.3-.2-2 0-1.4.3-2.9.9-4.2.6-1.3 1.4-2.5 2.4-3.5s2.2-1.8 3.5-2.4c1.3-.6 2.8-.9 4.3-.9 1.8 0 3.5.5 5 1.4 1.5 1 2.7 2.3 3.5 3.9zm11.5-8.5V220h4v-15.2c0-1.4.2-2.8.8-4.1.5-1.2 1.3-2.3 2.3-3.2 1-.9 2.1-1.6 3.4-2.1 1.3-.6 2.7-.8 4.2-.8h.2c3.4-.1 6.2 2.6 6.3 6V220h4v-20.7c0-2.4-.9-4.7-2.6-6.3-1.8-1.7-4.2-2.5-6.7-2.4-2.6-.1-5.2.7-7.4 2.2-2.1 1.5-3.7 3.5-4.7 5.8l-.4-7.4h-3.4zm32.7 14.5c-.1 2 .3 4 .9 5.5.7 1.7 1.8 3.4 3.1 4.7 2.8 2.8 6.6 4.3 10.6 4.3 4.9.2 9.4-2.5 11.7-6.8v3.3c-.1.9-.1 1.4-.1 1.7v1c0 1.4-.3 2.8-.7 4.2-.4 1.2-1.1 2.3-2 3.2-1 1-2.2 1.7-3.5 2.1-1.6.6-3.4.8-5.1.8-1.8 0-3.6-.3-5.3-1-2-.9-3.9-2.2-5.4-3.8l-2.6 2.7c1.8 1.8 3.9 3.3 6.2 4.5 2.3 1 4.7 1.6 7.2 1.5 2.3 0 4.6-.3 6.8-1.1 1.8-.6 3.5-1.7 4.8-3 1.2-1.2 2.2-2.8 2.8-4.5.6-1.8.9-3.8.9-5.7V191h-3.7c-.1 1-.1 2-.2 3s-.1 2-.1 3c-.3-.8-.8-1.5-1.4-2.2-.7-.8-1.6-1.5-2.5-2.1-1-.7-2.2-1.2-3.4-1.6-1.4-.4-2.8-.6-4.3-.6-3.9 0-7.6 1.6-10.4 4.4-2.8 2.9-4.3 6.8-4.3 10.8zm4-.1c0-1.5.3-3 .8-4.4.6-1.3 1.4-2.5 2.4-3.5 3.3-3.1 8.2-4.1 12.4-2.3 1.4.6 2.6 1.4 3.6 2.4s1.8 2.2 2.4 3.5.9 2.8.9 4.3c.1 4.5-2.6 8.6-6.8 10.3-2.9 1.2-6.1 1.2-8.9 0-2.6-1.1-4.8-3.2-5.9-5.9-.6-1.4-.9-2.9-.9-4.4zm33.4-10.4h4.9V220h4v-24.7h9.4v-3.9h-9.4v-8.5c0-4.4 1.1-7.8 3.1-10.3 2.1-2.5 5.2-4 8.4-3.9v-3.8c-4.2 0-8.3 1.7-11.2 4.7-2.8 2.9-4.2 7.3-4.2 13.2v8.5h-5v3.9zm47.1 21.4l-3-3c-1 1-2.2 1.7-3.5 2.2-1.4.5-2.9.8-4.4.8-4.3 0-8.3-2.6-10.1-6.6l5.8-2.3 6.2-2.5 6.1-2.4c2-.8 3.8-1.5 5.4-2.1-1-2.8-2.8-5.4-5.1-7.3-2.3-1.9-5.2-3-8.2-2.9-2 0-4 .4-5.8 1.2-3.6 1.6-6.5 4.5-8 8.1-.8 1.9-1.2 3.9-1.2 5.9s.4 4 1.2 5.8c.7 1.8 1.8 3.4 3.2 4.8s3 2.4 4.8 3.2 3.9 1.2 5.9 1.2 3.9-.4 5.8-1.1c1.8-.7 3.5-1.7 4.9-3zm-2.5-16.9c-1.4.6-2.9 1.1-4.6 1.7-1.7.7-3.3 1.3-5 2-1.7.7-3.3 1.4-5 2.1-1.7.6-3.3 1.3-4.8 1.9-.1-.7-.2-1.3-.2-2 0-1.4.3-2.9.9-4.2s1.4-2.5 2.4-3.5 2.2-1.8 3.5-2.4c1.3-.6 2.8-.9 4.3-.9 1.8 0 3.5.5 5 1.4 1.5 1 2.7 2.3 3.5 3.9zm10.6-18.9c0 .8.3 1.6.9 2.1.5.5 1.3.8 2 .8s1.4-.3 1.9-.8c.6-.5.9-1.3.9-2.1 0-1.6-1.2-2.9-2.8-2.9-.7 0-1.5.3-2 .8-.6.6-.9 1.3-.9 2.1zm4.8 39.2v-28.8h-4V220h4zm16.1-6.3H415c-1 2.6-1.9 5-2.8 7.5s-1.8 5-2.8 7.5h3.9l6.2-15zm25.9-8c-.1 2 .3 3.9 1 5.7.7 1.7 1.8 3.3 3.1 4.7 1.4 1.4 3 2.5 4.8 3.2 1.9.8 3.9 1.2 6 1.2 1.4.1 2.8-.1 4.1-.5 1.2-.4 2.4-.8 3.4-1.5.9-.6 1.8-1.3 2.5-2.1.6-.6 1.1-1.4 1.5-2.3v5.9h4v-28.9h-3.7l-.3 6c-.4-.8-.9-1.6-1.5-2.3-.7-.9-1.6-1.6-2.5-2.2-1.1-.7-2.2-1.2-3.4-1.6-1.3-.4-2.6-.6-4-.6-2 0-4 .4-5.8 1.2s-3.4 1.9-4.8 3.3c-1.3 1.4-2.4 3.1-3.2 4.9-.8 1.9-1.2 3.9-1.2 5.9zm4-.2c-.1-1.5.2-3 .8-4.4.6-1.3 1.4-2.5 2.4-3.5 3.3-3.1 8.2-4.1 12.4-2.3 1.4.6 2.6 1.4 3.6 2.4s1.8 2.2 2.4 3.5.9 2.8.9 4.3c.1 4.5-2.6 8.6-6.8 10.3-2.9 1.2-6.1 1.2-8.9 0-2.6-1.1-4.8-3.2-5.9-5.9-.6-1.4-.9-2.9-.9-4.4zm69.1-11.5c-1.1-1.1-2.4-1.9-4-2.3-1.3-.5-2.7-.8-4.1-.8-1 0-2 .1-3 .4-2.1.6-3.8 2-4.8 3.9-.6 1.1-.8 2.3-.8 3.6-.1 1.4.3 2.7 1 3.9.6.9 1.5 1.8 2.5 2.4 1.1.6 2.2 1.1 3.3 1.5 1.1.3 2.2.8 3.3 1.3.9.4 1.8 1 2.5 1.7s1.1 1.6 1 2.6c0 .7-.2 1.5-.5 2.1-.3.5-.8 1-1.3 1.4-.5.4-1.2.6-1.8.8-.6.1-1.2.2-1.8.2-.7 0-1.4-.1-2.1-.3s-1.3-.4-2-.7c-.6-.2-1.2-.5-1.7-.8-.3-.2-.7-.5-.9-.8l-.3.3-.6.8-.8.9c-.3.3-.5.6-.7.8 1.1 1.3 2.6 2.3 4.2 2.8 1.6.6 3.3.9 5 .9 3 0 5.4-.8 7-2.5 1.7-1.6 2.5-3.8 2.5-6.1.1-1.4-.3-2.7-1-3.8-.6-1-1.5-1.8-2.5-2.4-1.1-.7-2.2-1.2-3.3-1.6-1.2-.5-2.3-.9-3.3-1.4-.9-.4-1.8-1-2.5-1.7s-1.1-1.6-1-2.6c0-.6.2-1.2.5-1.8.2-.5.6-.9 1.1-1.2s1-.6 1.5-.7c.5-.1 1-.2 1.5-.2 1.2 0 2.3.3 3.4.7.9.3 1.7.8 2.3 1.5l2.2-2.8zm11-15.3l-.1 12.8h-5.8v3.6h5.8V220h4v-24.8h8.6v-3.6h-8.5v-12.9h-4zm43.2 41.7l.2-29.4h-4v15.3c0 1.4-.3 2.8-.9 4.1-.5 1.2-1.3 2.3-2.3 3.2-1 .9-2.1 1.6-3.4 2.1s-2.8.8-4.2.8h-.2c-3.4.1-6.2-2.6-6.3-6v-19.4h-4v20.8c0 2.4.9 4.7 2.6 6.3 1.8 1.7 4.2 2.5 6.7 2.4 2.7.1 5.3-.7 7.5-2.2 2-1.4 3.6-3.5 4.6-5.8l.4 7.8h3.3zm7.8-14.7c0 1.9.4 3.8 1.1 5.5 1.4 3.6 4.2 6.5 7.7 8 1.9.8 3.9 1.2 6 1.2 2.5.1 5.1-.6 7.3-1.9 1.9-1.1 3.4-2.7 4.5-4.6 0 .5-.1 1-.1 1.5-.1.6-.1 1.1-.1 1.6v3h4v-55.1h-4v32.4c-.9-1.9-2.3-3.5-4.1-4.6-2.3-1.4-4.9-2.1-7.5-2.1-3.9 0-7.7 1.5-10.5 4.3-1.3 1.4-2.4 3-3.1 4.8-.8 1.9-1.2 3.9-1.2 6zm4-.1c0-1.5.3-3 .8-4.4.6-1.3 1.4-2.5 2.4-3.5 3.3-3.1 8.2-4.1 12.4-2.3 1.4.6 2.6 1.4 3.6 2.4s1.8 2.2 2.4 3.5c.6 1.3.9 2.8.9 4.3.1 4.5-2.6 8.6-6.8 10.3-2.9 1.2-6.1 1.2-8.9 0-2.6-1.1-4.8-3.2-5.9-5.9-.6-1.4-.9-2.9-.9-4.4zm60.1 11l-2.7-3.1c-1 1-2.2 1.7-3.5 2.2-1.4.5-2.9.8-4.4.8-4.4 0-8.4-2.6-10.2-6.6l5.8-2.3 6.2-2.5 6.1-2.4c2-.8 3.8-1.5 5.4-2.1-1.1-2.8-2.9-5.4-5.2-7.3-2.4-1.9-5.3-2.9-8.3-2.8-2 0-4 .4-5.8 1.2-3.6 1.6-6.5 4.5-8 8.1-.8 1.9-1.2 3.9-1.2 5.9s.4 4 1.2 5.8c.7 1.8 1.8 3.4 3.2 4.8 1.4 1.4 3 2.4 4.8 3.2 1.8.8 3.9 1.2 5.9 1.2s3.9-.4 5.8-1.1c1.8-.7 3.5-1.7 4.9-3zm-2.4-16.9c-1.4.6-2.9 1.1-4.6 1.7-1.7.7-3.3 1.3-5 2-1.7.8-3.3 1.5-5 2.1s-3.3 1.3-4.8 1.9c-.1-.7-.2-1.3-.2-2 0-1.4.3-2.9.9-4.2.6-1.3 1.4-2.5 2.4-3.5s2.2-1.8 3.5-2.4c1.3-.6 2.8-.9 4.3-.9 1.8 0 3.5.5 5 1.4 1.5 1 2.7 2.3 3.5 3.9zm11.5-8.5V220h4v-15.2c0-1.4.2-2.8.8-4.1.5-1.2 1.3-2.3 2.3-3.2 1-.9 2.1-1.6 3.4-2.1 1.3-.6 2.7-.8 4.2-.8h.2c3.4-.1 6.2 2.6 6.3 6V220h4v-20.7c0-2.4-.9-4.7-2.6-6.3-1.8-1.7-4.2-2.5-6.7-2.4-2.6-.1-5.2.7-7.4 2.2-2.1 1.5-3.7 3.5-4.7 5.8l-.4-7.4h-3.4zm37-12.6v12.9h-5.8v3.6h5.8V220h4v-24.9h8.6v-3.6h-8.6v-12.9h-4zm32.6 27.2c-.1 1.9.3 3.8 1 5.6.7 1.7 1.8 3.3 3.1 4.7 1.4 1.4 3 2.5 4.8 3.2 1.9.8 3.9 1.2 6 1.2 1.4.1 2.8-.1 4.1-.5 1.1-.4 2.3-.8 3.3-1.5.9-.6 1.8-1.3 2.5-2.1.6-.6 1.1-1.4 1.5-2.3v5.9h4v-28.8h-3.7l-.3 6c-.4-.8-.9-1.6-1.5-2.3-.7-.9-1.6-1.6-2.5-2.2-1-.7-2.1-1.2-3.3-1.6-1.3-.4-2.6-.6-4-.6-2 0-4 .4-5.8 1.2s-3.4 1.9-4.8 3.3c-1.3 1.4-2.4 3.1-3.2 4.9-.8 1.9-1.2 3.9-1.2 5.9zm4-.2c-.1-1.5.1-3 .6-4.4.6-1.3 1.4-2.5 2.4-3.5 3.3-3.1 8.2-4.1 12.4-2.3 1.4.6 2.6 1.4 3.6 2.4s1.8 2.2 2.4 3.5c.6 1.3.9 2.8.9 4.3.1 4.5-2.6 8.6-6.8 10.3-2.9 1.2-6.1 1.2-8.9 0-2.6-1.1-4.8-3.2-5.9-5.9-.5-1.4-.8-2.9-.7-4.4zm38.5-27v12.9H760v3.6h5.8V220h4v-24.9h8.6v-3.6h-8.6v-12.9h-4zm54.9 42c2.3 0 4.8-.4 7.2-1.3 2.1-.8 4.1-2 5.8-3.6 1.7-1.5 3-3.5 3.9-5.6 1-2.4 1.4-5 1.4-7.6v-33.9h-4.9v33.7c0 1.9-.3 3.8-1 5.6-1.3 3.2-3.9 5.8-7.1 7-1.7.7-3.5 1-5.3 1s-3.6-.3-5.3-1c-1.5-.6-3-1.5-4.2-2.7s-2.2-2.7-2.8-4.3c-.7-1.8-1-3.7-1-5.6v-33.7h-4.9v33.9c0 2.6.4 5.2 1.4 7.6.8 2.1 2.1 4 3.8 5.6s3.6 2.8 5.8 3.6c2.3.9 4.7 1.3 7.2 1.3zm28.5-29.4V220h4v-15.2c0-1.4.2-2.8.8-4.1.5-1.2 1.3-2.3 2.3-3.2 1-.9 2.1-1.6 3.4-2.1 1.3-.6 2.7-.8 4.2-.8h.2c3.4-.1 6.2 2.6 6.3 6V220h4v-20.7c0-2.4-.9-4.7-2.6-6.3-1.8-1.7-4.2-2.5-6.7-2.4-2.6-.1-5.2.7-7.4 2.2-2.1 1.5-3.7 3.5-4.7 5.8l-.4-7.4h-3.4zm33.8-10.4c0 .8.3 1.6.9 2.1.5.5 1.3.8 2 .8s1.4-.3 1.9-.8c.6-.5.9-1.3.9-2.1 0-1.6-1.2-2.9-2.8-2.9-.7 0-1.5.3-2 .8-.6.6-.9 1.3-.9 2.1zm4.8 39.2v-28.8h-4V220h4zm20.3 1.7c2.6-5.1 5-10.2 7.1-15.1 2.2-5.1 4.6-10.2 7.2-15.3h-4.2c-1.5 2.9-2.7 5.4-3.7 7.6s-1.9 4.1-2.6 5.9c-.7 1.8-1.4 3.4-2 4.9s-1.2 3.1-1.9 4.6c-.6-1.6-1.3-3.1-1.9-4.6s-1.3-3.1-2-4.9c-.7-1.7-1.6-3.7-2.6-5.9s-2.3-4.7-3.7-7.6h-4.2c1.3 2.5 2.5 5.1 3.7 7.6s2.3 5.1 3.5 7.6c1.1 2.5 2.3 5.1 3.5 7.6s2.5 5.1 3.8 7.6zm43.1-5.1l-2.8-3c-1 1-2.2 1.7-3.5 2.2-1.4.5-2.9.8-4.4.8-4.4 0-8.4-2.6-10.2-6.6l5.8-2.3 6.2-2.5 6.1-2.4c2-.8 3.8-1.5 5.4-2.1-1.1-2.8-2.9-5.4-5.2-7.3s-5.2-3-8.2-2.9c-2 0-4 .4-5.8 1.2-3.6 1.6-6.5 4.5-8 8.1-.8 1.9-1.2 3.9-1.2 5.9s.4 4 1.2 5.8c.7 1.8 1.8 3.4 3.2 4.8 1.4 1.4 3 2.4 4.8 3.2 1.8.8 3.9 1.2 5.9 1.2s3.9-.4 5.8-1.1c1.8-.7 3.5-1.7 4.9-3zm-2.4-16.9c-1.4.5-2.9 1.1-4.6 1.7-1.7.7-3.3 1.3-5 2-1.7.7-3.3 1.4-5 2.1-1.7.6-3.3 1.3-4.8 1.9-.1-.7-.2-1.3-.2-2 0-1.4.3-2.9.9-4.2.6-1.3 1.4-2.5 2.4-3.5s2.2-1.8 3.5-2.4c1.3-.6 2.8-.9 4.3-.9 1.8 0 3.5.5 5 1.4 1.5 1 2.7 2.3 3.5 3.9zm26.4-4.2l.8-5c-1.1 0-2.2.2-3.3.6-1.2.4-2.3.9-3.4 1.6s-2.1 1.5-3 2.5-1.6 2.2-2.2 3.4l-.4-7.4h-3.4V220h4v-15c0-1.3.3-2.7.9-3.9.6-1.2 1.4-2.2 2.4-3 1.1-.8 2.2-1.5 3.5-1.9 1.3-.5 2.7-.7 4.1-.7zm21.4-1.5c-1.1-1.1-2.4-2-4-2.3-1.3-.5-2.7-.8-4.1-.8-1 0-2 .1-3 .4-2.1.6-3.8 2-4.8 3.9-.6 1.1-.8 2.3-.8 3.6-.1 1.4.3 2.7 1 3.9.6.9 1.5 1.8 2.5 2.4 1 .7 2.1 1.2 3.3 1.6 1.1.3 2.2.8 3.3 1.3.9.4 1.8 1 2.5 1.7s1.1 1.6 1 2.6c0 .7-.2 1.5-.5 2.1-.3.5-.8 1-1.3 1.4-.5.4-1.2.6-1.8.8-.6.1-1.2.2-1.8.2-.7 0-1.4-.1-2.1-.3s-1.3-.4-2-.7c-.6-.2-1.2-.5-1.7-.8-.3-.2-.7-.5-.9-.8l-.3.3-.6.8-.8.9c-.3.3-.5.6-.7.8 1.1 1.2 2.5 2.2 4.1 2.7 1.6.6 3.3.9 5 .9 3 0 5.4-.8 7-2.5 1.7-1.6 2.5-3.8 2.5-6.1.1-1.4-.3-2.7-1-3.8-.6-1-1.5-1.8-2.5-2.4-1.1-.7-2.2-1.2-3.3-1.6-1.2-.5-2.3-.9-3.3-1.4-.9-.4-1.8-1-2.5-1.7s-1.1-1.6-1-2.6c0-.6.2-1.2.5-1.8.3-.5.7-.9 1.2-1.2s1-.6 1.5-.7c.5-.1 1-.2 1.5-.2 1.2 0 2.3.3 3.4.7.9.3 1.7.8 2.3 1.5l2.2-2.8zm7.9-13.2c-.1.8.3 1.6.9 2.1.5.5 1.3.8 2 .8s1.4-.3 1.9-.8c.6-.5.9-1.3.9-2.1 0-1.6-1.2-2.9-2.8-2.9-.7 0-1.5.3-2 .8-.6.6-.9 1.3-.9 2.1zm4.8 39.3v-28.8h-4v28.8h4zm12-41.4v12.8h-5.8v3.6h5.8V220h4v-24.8h8.6v-3.6h-8.6v-12.9h-4zm25 55.2l19.4-42.6h-4.2c-1.4 2.9-2.7 5.5-3.7 7.8s-2 4.4-2.8 6.3c-.8 1.9-1.5 3.7-2.2 5.3-.7 1.7-1.3 3.3-2 4.8-.7-1.6-1.3-3.2-2-4.8-.7-1.6-1.5-3.4-2.3-5.3-.8-1.9-1.7-4-2.8-6.3-1-2.3-2.3-4.9-3.7-7.8h-4.2c2.2 4.5 4.4 9.1 6.5 13.9s4.3 9.4 6.5 13.8c-.7 1.6-1.3 3-1.9 4.3-.6 1.2-1.1 2.4-1.6 3.6-.5 1.1-1 2.3-1.5 3.4s-1.1 2.3-1.7 3.6h4.2zm39.6-28.2c-.1 4 1.5 7.9 4.4 10.8 1.4 1.3 3 2.4 4.8 3.1 1.9.7 3.9 1.1 5.9 1.1 2.1 0 4.1-.4 6-1.2 1.8-.8 3.4-1.8 4.8-3.2 1.4-1.4 2.5-3 3.2-4.8.8-1.8 1.2-3.8 1.2-5.8s-.4-4-1.2-5.9c0-.1-.1-.2-.1-.3-3.3-7.6-12.1-11.1-19.7-7.8-3.7 1.6-6.6 4.5-8.1 8.1-.8 1.9-1.2 3.9-1.2 5.9zm4 0c-.1-4.5 2.6-8.6 6.9-10.3 1.3-.6 2.8-.9 4.3-.9h.1c6.1.1 11 5.1 11 11.2 0 1.5-.3 2.9-.9 4.3-1.7 4.2-5.8 6.8-10.3 6.8-1.5 0-2.9-.3-4.3-.9-2.7-1.1-4.8-3.2-5.9-5.9-.6-1.3-.9-2.8-.9-4.3zm30.5-10.5h4.9V220h4v-24.7h9.4v-3.9h-9.4v-8.5c0-4.4 1.1-7.8 3.1-10.3 2.1-2.5 5.2-4 8.4-3.9v-3.8c-4.2 0-8.3 1.7-11.2 4.7-2.8 2.9-4.2 7.3-4.2 13.2v8.5h-5v3.9zm99.6-26.4l-4.5.2c-.9 2.3-1.9 4.8-3 7.5s-2.1 5.4-3.2 8.1-2.1 5.3-3.1 8c-1 2.6-1.9 5-2.7 7.2-.8 2.2-1.5 4.1-2.1 5.7-.5 1.1-.8 2.3-1.1 3.5l-.6 2.2c-.1-.4-.2-.8-.3-1.1-.1-.4-.2-.7-.3-1.1-.4-1.2-.9-2.6-1.6-4.4l-2.1-5.8c-.7-2.1-1.6-4.3-2.4-6.6s-1.7-4.6-2.5-6.8c-2-5.2-4-10.7-6.3-16.5h-4.8c.1.2.1.6.4 1.2s.5 1.3.8 2.2c.3.8.6 1.8 1 2.8.3 1 .7 2 1.1 3.1l2.9 8.1c-1.5 4-2.9 7.6-4.1 10.9l-1.6 4.1c-.5 1.3-.9 2.5-1.3 3.6s-.7 2-1 2.7-.5 1.2-.5 1.3l-.4 1c-.1.3-.2.7-.3 1l-.6-2.2c-.2-.7-.5-1.9-1.1-3.4s-1.3-3.4-2.1-5.6l-2.7-7.2c-1-2.6-2-5.3-3.1-8-1.1-2.8-2.1-5.5-3.2-8.2l-3-7.6h-5.5c3.6 9 7 17.9 10.4 26.8 3.3 8.9 6.8 17.9 10.4 26.9.4-1.2.9-2.5 1.5-4s1.2-3 1.8-4.6 1.2-3.2 1.9-4.8c.6-1.6 1.2-3.2 1.8-4.7 1.3-3.5 2.8-7.2 4.2-10.9l.1-.6c0-.1.1-.3.1-.5 0-.1 0-.3.1-.4 0 .3.1.5.2.8.1.3.2.5.3.7l11.2 29c.4-1.2 1.1-3 2-5.3l3.1-7.9 3.7-9.6 4.1-10.6c1.4-3.6 2.8-7.1 4.2-10.6 1.3-3.4 2.6-6.6 3.8-9.6zm-3 37c0 1.9.3 3.8 1 5.6.7 1.7 1.8 3.3 3.1 4.7 1.4 1.4 3 2.5 4.8 3.2 1.9.8 3.9 1.2 6 1.2 1.4.1 2.8-.1 4.1-.5 1.1-.4 2.3-.8 3.3-1.5.9-.6 1.8-1.3 2.5-2.1.6-.6 1.1-1.4 1.5-2.3v5.9h4v-28.8h-3.7l-.3 6c-.4-.8-.9-1.6-1.5-2.3-.7-.9-1.6-1.6-2.5-2.2-1-.7-2.1-1.2-3.3-1.6-1.3-.4-2.6-.6-4-.6-2 0-4 .4-5.8 1.2s-3.4 1.9-4.8 3.3c-1.3 1.4-2.4 3.1-3.2 4.9-.8 1.9-1.2 3.9-1.2 5.9zm4-.2c0-1.5.3-3.1.8-4.4.6-1.3 1.4-2.5 2.4-3.5 3.3-3.1 8.2-4.1 12.4-2.3 1.4.6 2.6 1.4 3.6 2.4s1.8 2.2 2.4 3.5.9 2.8.9 4.3c.1 4.5-2.6 8.6-6.8 10.3-2.9 1.2-6.1 1.2-8.9 0-2.6-1.1-4.8-3.2-5.9-5.9-.6-1.4-.9-2.9-.9-4.4zm38.5-27l-.1 12.9h-5.8v3.6h5.8V220h4v-24.9h8.6v-3.6h-8.5v-12.9h-4zm41.3 38l-2.8-3c-1 1-2.2 1.7-3.5 2.2-1.4.5-2.9.8-4.4.8-4.4 0-8.4-2.6-10.2-6.6l5.8-2.3 6.2-2.5 6.1-2.4c2-.8 3.8-1.5 5.4-2.1-1.1-2.8-2.9-5.4-5.2-7.3-2.3-1.9-5.2-3-8.2-2.9-2 0-4 .4-5.8 1.2-3.6 1.6-6.5 4.5-8 8.1-.8 1.9-1.2 3.9-1.2 5.9s.4 4 1.2 5.8c.7 1.8 1.8 3.4 3.2 4.8s3 2.4 4.8 3.2 3.9 1.2 5.9 1.2 3.9-.4 5.8-1.1c1.8-.7 3.5-1.7 4.9-3zm-2.4-16.9c-1.4.5-2.9 1.1-4.6 1.7-1.7.7-3.3 1.3-5 2-1.7.7-3.3 1.4-5 2.1-1.7.6-3.3 1.3-4.8 1.9-.1-.7-.2-1.3-.2-2 0-1.4.3-2.9.9-4.2s1.4-2.5 2.4-3.5 2.2-1.8 3.5-2.4c1.3-.6 2.8-.9 4.3-.9 1.8 0 3.5.5 5 1.4 1.5 1 2.7 2.3 3.5 3.9zm26.4-4.2l.8-5c-1.1 0-2.2.2-3.3.6-1.2.4-2.3.9-3.4 1.6s-2.1 1.5-3 2.5c-.9 1-1.6 2.2-2.2 3.4l-.4-7.4h-3.4V220h4v-15c0-1.3.3-2.7.9-3.9s1.4-2.2 2.4-3c1.1-.8 2.2-1.5 3.5-1.9 1.3-.5 2.7-.7 4.1-.7zm10.3 24.5v-55.1h-4V220h4zm7.8-14.4c0 4 1.6 7.9 4.4 10.8 1.4 1.3 3 2.4 4.8 3.1 1.9.7 3.9 1.1 5.9 1.1 2.1 0 4.1-.4 6-1.2 1.8-.8 3.4-1.8 4.8-3.2 1.4-1.4 2.5-3 3.2-4.8.8-1.8 1.2-3.8 1.2-5.8s-.4-4-1.2-5.9c0-.1-.1-.2-.1-.3-3.3-7.6-12.1-11.1-19.7-7.8-3.7 1.6-6.6 4.5-8.1 8.1-.8 1.9-1.2 3.9-1.2 5.9zm4 0c0-4.4 2.7-8.5 6.8-10.2 1.3-.6 2.8-.9 4.3-.9h.1c6.1 0 11.1 5 11.1 11.1 0 1.5-.3 2.9-.9 4.3-1.7 4.2-5.8 6.8-10.3 6.8-1.5 0-2.9-.3-4.3-.9-2.7-1.1-4.8-3.2-5.9-5.9-.6-1.3-.9-2.8-.9-4.3zm31.9 0c-.1 4 1.5 7.9 4.4 10.8 1.4 1.3 3 2.4 4.8 3.1 1.9.7 3.9 1.1 5.9 1.1 2.1 0 4.1-.4 6-1.2 1.8-.8 3.4-1.8 4.8-3.2 1.4-1.4 2.5-3 3.2-4.8.8-1.8 1.2-3.8 1.2-5.8s-.4-4-1.2-5.9c0-.1-.1-.2-.1-.3-3.3-7.6-12.1-11.1-19.7-7.8-3.7 1.6-6.6 4.5-8.1 8.1-.8 1.9-1.2 3.9-1.2 5.9zm4 0c0-4.5 2.6-8.6 6.9-10.3 1.3-.6 2.8-.9 4.3-.9h.1c6.1.1 11 5.1 11 11.2 0 1.5-.3 2.9-.9 4.3-1.7 4.2-5.8 6.8-10.3 6.8-1.5 0-2.9-.3-4.3-.9-2.7-1.1-4.8-3.2-5.9-5.9-.6-1.3-.9-2.8-.9-4.3zm33.7 11.5c0 1.6 1.3 2.9 2.9 2.9.7 0 1.5-.3 2-.8.6-.5.9-1.3.9-2.1 0-1.6-1.3-2.9-2.9-3-.8 0-1.5.4-2 .9-.6.6-.9 1.3-.9 2.1zM140.8 260.6V312h5v-51.4h-5zm39 51.4v-55.1h-4V312h4zm7.9-14.4c-.1 4.1 1.5 7.9 4.4 10.8 1.4 1.3 3 2.4 4.8 3.1 1.9.7 3.9 1.1 5.9 1.1 2.1 0 4.1-.4 6-1.2 1.8-.8 3.4-1.8 4.8-3.2s2.5-3 3.2-4.8c.7-1.8 1.1-3.8 1.1-5.8.1-2-.3-4-1.1-5.9 0-.1-.1-.2-.1-.3-3.3-7.6-12.1-11.1-19.7-7.8-3.7 1.6-6.6 4.5-8.1 8.1-.8 1.9-1.2 3.9-1.2 5.9zm4 0c-.1-4.4 2.6-8.5 6.8-10.2 1.3-.6 2.8-.9 4.3-.9h.1c6.1.1 11 5.1 11 11.2 0 1.5-.3 2.9-.9 4.3-1.7 4.1-5.7 6.7-10.2 6.7-1.5 0-2.9-.3-4.3-.9-2.7-1.1-4.8-3.2-5.9-5.9-.6-1.3-.9-2.8-.9-4.3zm43.5 16.2c2.6-5.2 5-10 7.2-15.1s4.6-10.2 7.2-15.3h-4.2c-1.5 2.9-2.7 5.4-3.7 7.6s-1.9 4.1-2.6 5.9-1.4 3.4-2 4.9c-.6 1.5-1.2 3.1-1.9 4.6-.6-1.6-1.3-3.1-1.9-4.6-.7-1.5-1.4-3.1-2.1-4.9-.7-1.7-1.6-3.7-2.6-5.9s-2.3-4.7-3.7-7.6h-4.2c1.3 2.5 2.5 5.1 3.7 7.6s2.3 5.1 3.5 7.6c1.1 2.5 2.3 5.1 3.5 7.6s2.5 5.1 3.8 7.6zm43.2-5.2l-3-3c-1 1-2.2 1.7-3.5 2.2-1.4.5-2.9.8-4.4.8-4.3.1-8.3-2.5-10.1-6.5l5.8-2.3 6.2-2.5 6.1-2.5c2-.8 3.8-1.5 5.4-2.1-1-2.8-2.8-5.4-5.1-7.3-2.3-1.9-5.2-3-8.2-2.9-2 0-4 .4-5.8 1.2-3.6 1.6-6.5 4.5-8 8.1-.8 1.9-1.2 3.9-1.2 5.9s.4 4 1.2 5.8c.7 1.8 1.8 3.4 3.2 4.8 1.4 1.4 3 2.4 4.8 3.2 1.8.8 3.9 1.2 5.9 1.2s3.9-.4 5.8-1.1c1.8-.7 3.5-1.7 4.9-3zm-2.5-16.9c-1.4.6-2.9 1.1-4.6 1.8-1.7.7-3.3 1.3-5 2-1.7.6-3.3 1.4-5 2s-3.3 1.3-4.8 1.9c-.1-.7-.2-1.3-.2-2 0-1.4.3-2.9.9-4.2s1.4-2.5 2.4-3.5 2.2-1.8 3.5-2.4 2.8-.9 4.3-.9c1.8 0 3.5.5 5 1.4 1.5 1 2.7 2.3 3.5 3.9zm30.7-21.1v12.9h-5.8v3.6h5.8V312h4v-24.9h8.6v-3.6h-8.6v-12.9h-4zm15.4 27c0 4.1 1.5 7.9 4.4 10.8 1.4 1.3 3 2.4 4.8 3.1 1.9.7 3.9 1.1 5.9 1.1 2.1 0 4.1-.4 6-1.2 1.8-.8 3.4-1.8 4.8-3.2 1.4-1.4 2.5-3 3.2-4.8s1.1-3.8 1.1-5.8c.1-2-.3-4-1.1-5.9 0-.1-.1-.2-.1-.3-3.3-7.6-12.1-11.1-19.7-7.8-3.7 1.6-6.6 4.5-8.1 8.1-.8 1.9-1.2 3.9-1.2 5.9zm4 0c-.1-4.4 2.6-8.5 6.8-10.3 1.3-.6 2.8-.9 4.3-.9h.2c6.1.1 11 5.1 11 11.2 0 1.5-.3 2.9-.9 4.3-1.7 4.2-5.8 6.8-10.3 6.8-1.5 0-2.9-.3-4.3-.9-2.7-1.1-4.8-3.2-5.9-5.9-.6-1.3-.9-2.8-.9-4.3zm49.7 0c-.1 2 .3 3.9 1 5.7 1.4 3.6 4.2 6.5 7.7 8 1.9.8 3.9 1.2 6 1.2 2.5.1 5.1-.6 7.3-1.9 1.9-1.1 3.4-2.7 4.5-4.6 0 .5-.1 1-.1 1.5-.1.5-.1 1-.1 1.5v3h4v-55.2h-4v32.4c-.9-1.9-2.3-3.5-4.1-4.6-2.3-1.4-4.9-2.1-7.5-2.1-3.9 0-7.7 1.5-10.5 4.3-1.3 1.4-2.4 3-3.1 4.8-.7 1.9-1.1 3.9-1.1 6zm4 0h-.2c.1-1.5.4-3 1-4.4.6-1.3 1.4-2.5 2.4-3.5 3.3-3.1 8.2-4.1 12.4-2.3 1.4.6 2.6 1.4 3.6 2.4s1.8 2.2 2.4 3.5.9 2.8.9 4.3c.1 4.5-2.6 8.6-6.8 10.3-2.9 1.2-6.1 1.2-8.9 0-2.6-1.1-4.8-3.2-5.9-5.9-.6-1.4-.9-2.9-.9-4.4zm60.1 11l-3-3c-1 1-2.2 1.7-3.5 2.2-1.4.5-2.9.8-4.4.8-4.3.1-8.3-2.5-10.1-6.5l5.8-2.3 6.2-2.5 6.1-2.5c2-.8 3.8-1.5 5.4-2.1-1-2.8-2.8-5.4-5.1-7.3-2.3-1.9-5.2-3-8.2-2.9-2 0-4 .4-5.8 1.2-3.6 1.6-6.5 4.5-8 8.1-.8 1.9-1.2 3.9-1.2 5.9s.4 4 1.2 5.8c.7 1.8 1.8 3.4 3.2 4.8 1.4 1.4 3 2.4 4.8 3.2 1.8.8 3.9 1.2 5.9 1.2s3.9-.4 5.8-1.1c1.8-.7 3.5-1.7 4.9-3zm-2.5-16.9c-1.4.5-2.9 1.1-4.6 1.8-1.7.7-3.3 1.3-5 2-1.7.6-3.3 1.4-5 2s-3.3 1.3-4.8 1.9c-.1-.7-.2-1.3-.2-2 0-1.4.3-2.9.9-4.2s1.4-2.5 2.4-3.5 2.2-1.8 3.5-2.4 2.8-.9 4.3-.9c1.8 0 3.5.5 5 1.4 1.5 1 2.7 2.3 3.5 3.9zm26.6-5.7c-1.1-1.1-2.4-2-3.9-2.3-1.3-.5-2.7-.8-4.1-.8-1 0-2 .1-3 .4-2.1.6-3.8 2-4.8 3.9-.6 1.1-.8 2.3-.8 3.6-.1 1.4.3 2.7 1 3.9.6 1 1.5 1.9 2.5 2.5s2.1 1.1 3.3 1.5c1.1.3 2.2.8 3.3 1.3.9.4 1.8 1 2.5 1.7s1.1 1.6 1 2.6c0 .7-.2 1.5-.5 2.1-.3.5-.8 1-1.3 1.4s-1.2.6-1.8.8c-.6.1-1.2.2-1.8.2-.7 0-1.4-.1-2.1-.3s-1.4-.4-2-.7c-.6-.2-1.2-.5-1.7-.8-.3-.2-.7-.5-.9-.8l-.3.3-.6.8-.8.9c-.3.3-.5.6-.7.8 1.1 1.2 2.5 2.2 4.1 2.7 1.6.6 3.3.9 5 .9 3 0 5.4-.8 7-2.5 1.7-1.6 2.5-3.8 2.5-6.1.1-1.4-.3-2.7-1-3.8-.6-1-1.5-1.8-2.5-2.4-1.1-.7-2.2-1.2-3.3-1.6-1.2-.5-2.3-.9-3.3-1.4-.9-.4-1.8-1-2.5-1.7s-1.1-1.6-1-2.6c0-.6.2-1.2.5-1.8.2-.5.6-.9 1.1-1.2.5-.3 1-.6 1.5-.7s1-.2 1.5-.2c1.2 0 2.3.3 3.4.7.9.3 1.7.8 2.3 1.5l2.2-2.8zm7.8-13.2c0 .8.3 1.6.9 2.2.5.5 1.3.8 2 .8s1.4-.3 1.9-.8c.6-.5.9-1.3.9-2.1 0-1.6-1.2-2.9-2.8-2.9-.7 0-1.5.3-2 .8-.6.5-.9 1.2-.9 2zm4.9 39.2v-28.8h-4V312h4zm7.7-14.3c0 2 .3 4 .9 5.7.7 1.7 1.8 3.4 3.1 4.7 2.8 2.8 6.6 4.3 10.6 4.3 4.9.2 9.4-2.5 11.7-6.8v3.3c-.1.9-.1 1.4-.1 1.7v1c0 1.4-.3 2.8-.7 4.2-.4 1.2-1.1 2.3-2 3.2-1.1.9-2.3 1.7-3.6 2.1-1.6.6-3.4.8-5.1.8-1.8 0-3.6-.4-5.3-1.1-2-.9-3.8-2.2-5.3-3.8l-2.6 2.7c1.8 1.8 3.9 3.3 6.2 4.5 2.3 1 4.7 1.6 7.2 1.5 2.3 0 4.6-.3 6.8-1.1 1.8-.6 3.5-1.7 4.8-3 1.3-1.3 2.2-2.9 2.8-4.6.6-1.8.9-3.8.9-5.7V283h-3.7c-.1 1-.1 2-.2 3s-.1 2-.1 3c-.3-.8-.8-1.5-1.4-2.2-.7-.8-1.6-1.5-2.5-2.1-1-.7-2.2-1.2-3.4-1.6-1.4-.4-2.8-.6-4.3-.6-3.9 0-7.6 1.6-10.4 4.4-2.8 2.9-4.3 6.8-4.3 10.8zm4-.2c0-1.5.3-3 .8-4.4.6-1.3 1.4-2.5 2.4-3.5 3.3-3.1 8.2-4.1 12.4-2.3 1.4.6 2.6 1.4 3.6 2.4s1.8 2.2 2.4 3.5.9 2.8.9 4.3c.1 4.5-2.6 8.6-6.8 10.3-2.9 1.2-6.1 1.2-8.9 0-2.6-1.1-4.8-3.2-5.9-5.9-.6-1.4-.9-2.9-.9-4.4zm36.4-14.3l-.1 28.8h4v-15.2c0-1.4.2-2.8.8-4.1.5-1.2 1.3-2.3 2.3-3.2s2.1-1.6 3.4-2.1c1.3-.6 2.7-.8 4.2-.8h.2c3.4-.1 6.2 2.6 6.3 6V312h4v-20.7c0-2.4-.9-4.7-2.6-6.3-1.8-1.7-4.2-2.5-6.7-2.4-2.6-.1-5.2.7-7.4 2.2-2.1 1.5-3.7 3.5-4.7 5.8l-.4-7.4h-3.3zm91.7 28.8l-7.4-9.6 7.5-19.8h-4.2l-6.2 16.2L588 275c-.2-.2-.3-.4-.4-.6-.2-.5-.4-.9-.6-1.4-.2-.6-.4-1.3-.6-1.9-.2-.7-.3-1.5-.3-2.2 0-1.2.3-2.3.8-3.3.5-.9 1.2-1.7 2.1-2.3.9-.7 1.9-1.1 3-1.4 1.2-.3 2.3-.5 3.5-.4 1.2.1 2.4.4 3.5.8 1 .4 2 .9 3 1.4.1-.2.2-.4.3-.5l.7-1c.2-.4.5-.7.7-1 .1-.1.2-.3.3-.5-1.4-.8-2.8-1.5-4.3-2-1.8-.7-3.8-1-5.8-.9-1.6 0-3.1.3-4.6.8-1.4.5-2.7 1.2-3.8 2.2-1.1.9-2 2.1-2.6 3.4-.7 1.4-1 3-1 4.5 0 1.4.2 2.8.7 4.1.5 1.2 1 2.4 1.7 3.7.5.9 1 1.7 1.6 2.5.8 1.1 1.7 2.4 2.8 3.9-1.8.4-3.6 1-5.2 1.9-1.5.9-3 2-4.2 3.3s-2.2 2.8-2.9 4.4c-.7 1.7-1 3.6-1 5.4 0 2 .4 4 1.2 5.8.9 1.8 2 3.4 3.5 4.7 1.6 1.3 3.4 2.4 5.3 3.1 2.1.7 4.4 1.1 6.7 1.1 3 0 5.9-.6 8.6-1.8 2.4-1.1 4.5-2.7 6.1-4.7 1.4 1.8 2.5 3.2 3.4 4.3.4.6.9 1.1 1.4 1.6h4.8zm-24.9-25.6c2 2.7 4.2 5.5 6.5 8.3 2.3 2.9 4.4 5.7 6.4 8.2-.6.9-1.3 1.7-2.1 2.3-.9.7-1.9 1.3-2.9 1.8-1.1.5-2.2.9-3.4 1.2-1.2.3-2.4.4-3.6.4-1.7 0-3.3-.2-4.9-.7-1.5-.4-2.9-1.1-4.1-2.1-1.1-1-2.1-2.2-2.8-3.5-.8-1.4-1.1-3.1-1.1-4.7s.3-3.1 1-4.5c.7-1.3 1.7-2.5 2.8-3.5 1.2-1 2.5-1.8 3.9-2.3 1.4-.5 2.8-.8 4.3-.9zm80.6 11.2c0-2-.4-4.1-1.3-6-.7-1.8-1.8-3.4-3.1-4.8-1.4-1.3-2.9-2.4-4.7-3.1-1.8-.7-3.9-1.1-5.9-1.1-4.8-.1-9.3 2.5-11.6 6.7v-32.4h-4V312h4v-3-1.5-1.4c1 1.9 2.5 3.6 4.4 4.6 2.2 1.3 4.7 1.9 7.2 1.9 2.1.1 4.1-.3 6-1.1 1.8-.8 3.4-1.8 4.8-3.2 1.3-1.4 2.4-3 3.1-4.8.7-1.9 1.1-3.9 1.1-5.9zm-4.2 0c0 1.5-.3 2.9-.8 4.4-.5 1.3-1.3 2.5-2.3 3.5s-2.2 1.8-3.5 2.4c-1.4.6-2.9.9-4.4.9s-3-.3-4.4-.9c-1.4-.6-2.6-1.4-3.6-2.4s-1.8-2.2-2.4-3.5c-1.2-2.8-1.2-6 0-8.8.6-1.3 1.4-2.5 2.4-3.5 2.1-2.1 5-3.2 8-3.2s5.8 1.1 7.9 3.2c1 1 1.8 2.2 2.3 3.5.5 1.4.8 2.9.8 4.4zm36.9 14.8l.2-29.4h-4v15.3c0 1.4-.3 2.8-.9 4.1-.5 1.2-1.3 2.3-2.3 3.2s-2.1 1.6-3.4 2.1-2.8.8-4.2.8h-.2c-3.4.1-6.2-2.6-6.3-6v-19.4h-4v20.8c0 2.4.9 4.7 2.6 6.3 1.8 1.7 4.2 2.5 6.7 2.4 2.7.1 5.3-.7 7.5-2.2 2-1.4 3.6-3.5 4.6-5.8l.4 7.8h3.3zm8.9-39.6c0 .8.3 1.5.9 2.2.5.5 1.3.8 2 .8s1.4-.3 1.9-.8c.6-.5.9-1.3.9-2.1 0-1.6-1.2-2.9-2.8-2.9-.7 0-1.5.3-2 .8-.6.5-.9 1.2-.9 2zm4.8 39.2v-28.8h-4V312h4zm14 0v-55.1h-4V312h4zm7.9-14.4c0 2 .3 3.9 1.1 5.7 1.4 3.6 4.2 6.5 7.7 8 1.9.8 3.9 1.2 6 1.2 2.5.1 5.1-.6 7.3-1.9 1.9-1.1 3.4-2.7 4.5-4.6 0 .5-.1 1-.1 1.5-.1.5-.1 1-.1 1.5v3h4v-55.2h-4v32.4c-.9-1.9-2.3-3.5-4.1-4.6-2.3-1.4-4.9-2.1-7.5-2.1-3.9 0-7.7 1.5-10.5 4.3-1.3 1.4-2.4 3-3.1 4.8-.8 1.9-1.2 3.9-1.2 6zm4-.1c-.1-1.5.2-3 .8-4.4.6-1.3 1.4-2.5 2.4-3.5 3.3-3.1 8.2-4.1 12.4-2.3 1.4.6 2.6 1.4 3.6 2.4s1.8 2.2 2.4 3.5c.6 1.3.9 2.8.9 4.3.1 4.5-2.6 8.6-6.8 10.3-2.9 1.2-6.1 1.2-8.9 0-2.6-1.1-4.8-3.2-5.9-5.9-.6-1.4-.9-2.9-.9-4.4zm84.4.1c0-2-.4-4.1-1.3-6-.7-1.8-1.8-3.4-3.1-4.8-1.4-1.3-2.9-2.4-4.7-3.1-1.8-.7-3.9-1.1-5.9-1.1-4.8-.1-9.3 2.5-11.6 6.7v-32.4h-4V312h4v-3-1.5-1.4c1 1.9 2.5 3.6 4.4 4.6 2.2 1.3 4.7 1.9 7.2 1.9 2.1.1 4.1-.3 6-1.1 1.8-.8 3.4-1.8 4.8-3.2 1.3-1.4 2.4-3 3.1-4.8.7-1.9 1.1-3.9 1.1-5.9zm-4.2 0c-.1 1.5-.3 2.9-.9 4.4-.5 1.3-1.3 2.5-2.3 3.5s-2.2 1.8-3.5 2.4c-1.4.6-2.9.9-4.4.9s-3-.3-4.4-.9c-2.6-1.1-4.8-3.2-5.9-5.9-1.2-2.8-1.2-6 0-8.8.6-1.3 1.4-2.5 2.4-3.5 2.1-2.1 5-3.2 8-3.2s5.8 1.1 7.9 3.2c1 1 1.8 2.2 2.3 3.5.5 1.4.8 2.9.8 4.4zm35.8 10.9l-2.8-3c-1 1-2.2 1.7-3.5 2.2-1.4.5-2.9.8-4.4.8-4.4.1-8.4-2.5-10.2-6.5l5.8-2.3 6.2-2.5 6.1-2.5c2-.8 3.8-1.5 5.4-2.1-1.1-2.8-2.9-5.4-5.2-7.3s-5.2-3-8.2-2.9c-2 0-4 .4-5.8 1.2-3.6 1.6-6.5 4.5-8 8.1-.8 1.9-1.2 3.9-1.2 5.9s.4 4 1.2 5.8c.7 1.8 1.8 3.4 3.2 4.8 1.4 1.4 3 2.4 4.8 3.2 1.8.8 3.9 1.2 5.9 1.2s3.9-.4 5.8-1.1c1.8-.7 3.5-1.7 4.9-3zm-2.4-16.8c-1.4.5-2.9 1.1-4.6 1.8-1.7.7-3.3 1.3-5 2s-3.3 1.3-5 2c-1.7.6-3.3 1.3-4.8 1.9-.1-.7-.2-1.3-.2-2 0-1.4.3-2.9.9-4.2.6-1.3 1.4-2.5 2.4-3.5s2.2-1.8 3.5-2.4 2.8-.9 4.3-.9c1.8 0 3.5.5 5 1.4 1.5 1 2.7 2.3 3.5 3.9zm9.3 6c0 2 .3 3.9 1 5.6.7 1.7 1.8 3.3 3.1 4.7 1.4 1.4 3 2.5 4.8 3.2 1.9.8 3.9 1.2 6 1.2 1.4.1 2.8-.1 4.1-.5 1.1-.4 2.3-.8 3.3-1.5.9-.5 1.8-1.2 2.5-2 .6-.6 1.1-1.4 1.5-2.3v5.9h4v-29h-3.7l-.3 6c-.4-.8-.9-1.6-1.5-2.3-.7-.9-1.6-1.6-2.5-2.2-1-.6-2.1-1.1-3.3-1.5-1.3-.4-2.6-.6-4-.6-2 0-4 .4-5.8 1.2s-3.4 1.9-4.8 3.3c-1.3 1.4-2.4 3.1-3.2 4.9-.8 1.9-1.2 3.9-1.2 5.9zm4-.2l-.1.1c-.1-1.5.3-3.1.9-4.5.6-1.3 1.4-2.5 2.4-3.5 3.3-3.1 8.2-4.1 12.4-2.3 1.4.6 2.6 1.4 3.6 2.4s1.8 2.2 2.4 3.5c.6 1.3.9 2.8.9 4.3.1 4.5-2.6 8.6-6.8 10.3-2.9 1.2-6.1 1.2-8.9 0-2.6-1.1-4.8-3.2-5.9-5.9-.6-1.4-.9-2.9-.9-4.4zm61.2 14.8l.2-29.3h-4v15.3c0 1.4-.3 2.8-.9 4.1-.5 1.2-1.3 2.3-2.3 3.2s-2.1 1.6-3.4 2.1-2.8.8-4.2.8h-.2c-3.4.1-6.2-2.6-6.3-6v-19.4h-4v20.7c0 2.4.9 4.7 2.6 6.3 1.8 1.7 4.2 2.5 6.7 2.4 2.7.1 5.3-.7 7.5-2.2 2-1.4 3.6-3.5 4.6-5.8l.4 7.8h3.3zm12-41.8l-.1 13h-5.8v3.6h5.8V312h4v-25h8.6v-3.6h-8.5v-12.9h-4zm17.5 2.3c0 .8.3 1.6.9 2.2.5.5 1.3.8 2 .8s1.4-.3 1.9-.8c.6-.5.9-1.3.9-2.1 0-1.6-1.2-2.9-2.8-2.9-.7 0-1.5.3-2 .8-.6.5-.9 1.2-.9 2zm4.8 39.2v-28.8h-4V312h4zm6.9-24.8h4.9V312h4v-24.7h9.4v-3.9h-9.4v-8.5c0-4.4 1.1-7.8 3.1-10.3 2.1-2.5 5.2-4 8.4-3.9v-3.8c-4.2 0-8.3 1.7-11.2 4.7-2.8 2.9-4.2 7.3-4.2 13.2v8.5h-5v3.9zm49.1 25.2l.2-29.4h-4v15.3c0 1.4-.3 2.8-.9 4.1-.5 1.2-1.3 2.3-2.3 3.2s-2.1 1.6-3.4 2.1-2.8.8-4.2.8h-.2c-3.4.1-6.2-2.6-6.3-6v-19.4h-4v20.8c0 2.4.9 4.7 2.6 6.3 1.8 1.7 4.2 2.5 6.7 2.4 2.7.1 5.3-.7 7.5-2.2 2-1.4 3.6-3.5 4.6-5.8l.4 7.8h3.3zm13.9-.4v-55.1h-4V312h4zm42.4-22.6c-.9 2.2-1.7 4.1-2.5 5.7l-1.8 4.4-1.4 3.5c-.4 1.1-.8 2.1-1.2 3.1-.6-1.7-1.2-3.4-1.8-5s-1.3-3.3-2-5.1c-.7-1.8-1.5-3.7-2.4-5.8s-1.9-4.4-3.1-7.1h-4c2.2 5.2 4.4 10.2 6.6 15.3s4.4 10.2 6.7 15.3l8.6-20.5c1.6 3.4 3.1 6.8 4.5 10.2 1.4 3.3 2.9 6.7 4.5 10.2l13.6-30.5h-4c-1.1 2.7-2.2 5-3.1 7.1-1 2.1-1.8 4-2.6 5.8-.7 1.8-1.4 3.5-2.1 5.1-.6 1.6-1.2 3.3-1.8 5-1.2-2.7-2.5-5.9-4.1-9.5-1.5-3.6-3.5-8.1-5.9-13.4h-3.5l2.8 6.2zm53.1 19.1l-2.8-3c-1 1-2.2 1.7-3.5 2.2-1.4.5-2.9.8-4.4.8-4.4.1-8.4-2.5-10.2-6.5l5.8-2.3 6.2-2.5 6.1-2.5c2-.8 3.8-1.5 5.4-2.1-1.1-2.8-2.9-5.4-5.2-7.3-2.3-1.9-5.2-3-8.2-2.9-2 0-4 .4-5.8 1.2-3.6 1.6-6.5 4.5-8 8.1-.8 1.9-1.2 3.9-1.2 5.9s.4 4 1.2 5.8c.7 1.8 1.8 3.4 3.2 4.8 1.4 1.4 3 2.4 4.8 3.2 1.8.8 3.9 1.2 5.9 1.2s3.9-.4 5.8-1.1c1.8-.7 3.5-1.7 4.9-3zm-2.4-16.8c-1.4.5-2.9 1.1-4.6 1.8-1.7.7-3.3 1.3-5 2s-3.3 1.3-5 2c-1.7.6-3.3 1.3-4.8 1.9-.1-.7-.2-1.3-.2-2 0-1.4.3-2.9.9-4.2s1.4-2.5 2.4-3.5 2.2-1.8 3.5-2.4 2.8-.9 4.3-.9c1.8 0 3.5.5 5 1.4 1.5 1 2.7 2.3 3.5 3.9zm41.9 5.9c0-2-.4-4.1-1.3-6-.7-1.8-1.8-3.4-3.1-4.8-1.4-1.3-2.9-2.4-4.7-3.1s-3.9-1.1-5.9-1.1c-4.8-.1-9.3 2.5-11.6 6.7v-32.4h-4V312h4v-3-1.5-1.4c1 1.9 2.5 3.6 4.4 4.6 2.2 1.3 4.7 1.9 7.2 1.9 2.1.1 4.1-.3 6-1.1 1.8-.8 3.4-1.8 4.8-3.2 1.3-1.4 2.4-3 3.1-4.8.7-1.9 1.1-3.9 1.1-5.9zm-4.2 0c0 1.5-.3 2.9-.9 4.4-.5 1.3-1.3 2.5-2.3 3.5s-2.2 1.8-3.5 2.4c-1.4.6-2.9.9-4.4.9s-3-.3-4.4-.9c-2.6-1.1-4.8-3.2-5.9-5.9-1.2-2.8-1.2-6 0-8.8.6-1.3 1.4-2.5 2.4-3.5 2.1-2.1 5-3.2 8-3.2s5.8 1.1 7.9 3.2c1 1 1.8 2.2 2.3 3.5.5 1.4.8 2.9.8 4.4zm27.2-11.6c-1.1-1.1-2.5-2-4-2.3-1.3-.5-2.7-.8-4.1-.8-1 0-2 .1-3 .4-2.1.6-3.8 2-4.8 3.9-.6 1.1-.8 2.3-.8 3.6-.1 1.4.3 2.7 1 3.9.6 1 1.5 1.9 2.5 2.5s2.1 1.1 3.3 1.5c1.1.3 2.2.8 3.3 1.3.9.4 1.8 1 2.5 1.7s1.1 1.6 1 2.6c0 .7-.2 1.5-.5 2.1-.3.5-.8 1-1.3 1.4s-1.2.6-1.8.8c-.6.1-1.2.2-1.8.2-.7 0-1.4-.1-2.1-.3s-1.4-.4-2-.7c-.6-.2-1.2-.5-1.7-.8-.3-.2-.7-.5-.9-.8l-.3.3-.6.8-.8.9c-.3.3-.5.6-.7.8 1.1 1.2 2.5 2.2 4.1 2.7 1.6.6 3.3.9 5 .9 3 0 5.4-.8 7-2.5 1.6-1.6 2.4-3.8 2.4-6.1.1-1.4-.3-2.7-1-3.8-.6-1-1.5-1.8-2.5-2.4-1.1-.7-2.2-1.2-3.3-1.6-1.2-.5-2.3-.9-3.3-1.4-.9-.4-1.8-1-2.5-1.7s-1.1-1.6-1-2.6c0-.6.2-1.2.5-1.8.3-.5.7-.9 1.2-1.2.5-.3 1-.6 1.5-.7.6-.1 1.1-.2 1.6-.2 1.2 0 2.3.3 3.4.7.9.3 1.7.8 2.3 1.5l2.2-2.8zm7.8-13.2c0 .8.3 1.6.9 2.2.5.5 1.3.8 2 .8s1.4-.3 1.9-.8c.6-.5.9-1.3.9-2.1 0-1.6-1.2-2.9-2.8-2.9-.7 0-1.5.3-2 .8-.6.5-.9 1.2-.9 2zm4.8 39.3v-28.8h-4v28.8h4zm12-41.4v12.8h-5.8v3.6h5.8V312h4v-24.8h8.6v-3.6h-8.6v-12.9h-4zm41.4 37.9l-2.8-3c-1 1-2.2 1.7-3.5 2.2-1.4.5-2.9.8-4.4.8-4.4.1-8.4-2.5-10.2-6.5l5.8-2.3 6.2-2.5 6.1-2.5c2-.8 3.8-1.5 5.4-2.1-1.1-2.8-2.9-5.4-5.2-7.3-2.3-1.9-5.2-3-8.2-2.9-2 0-4 .4-5.8 1.2-3.6 1.6-6.5 4.5-8 8.1-.8 1.9-1.2 3.9-1.2 5.9s.4 4 1.2 5.8c.7 1.8 1.8 3.4 3.2 4.8 1.4 1.4 3 2.4 4.8 3.2 1.8.8 3.9 1.2 5.9 1.2s3.9-.4 5.8-1.1c1.8-.7 3.5-1.7 4.9-3zm-2.5-16.8c-1.4.5-2.9 1.1-4.6 1.8-1.7.7-3.3 1.3-5 2-1.7.6-3.3 1.3-5 2-1.7.6-3.3 1.3-4.8 1.9-.1-.7-.2-1.3-.2-2 0-1.4.3-2.9.9-4.2s1.4-2.5 2.4-3.5 2.2-1.8 3.5-2.4 2.8-.9 4.3-.9c1.8 0 3.5.5 5 1.4 1.5 1 2.7 2.3 3.5 3.9zm26.7-5.8c-1.1-1.1-2.5-2-4-2.3-1.3-.5-2.7-.8-4.1-.8-1 0-2 .1-3 .4-2.1.6-3.8 2-4.8 3.9-.6 1.1-.8 2.3-.8 3.6-.1 1.4.3 2.7 1 3.9.6 1 1.5 1.9 2.5 2.5s2.1 1.1 3.3 1.5c1.1.3 2.2.8 3.3 1.3.9.4 1.8 1 2.5 1.7s1.1 1.6 1 2.6c0 .7-.2 1.5-.5 2.1-.3.5-.8 1-1.3 1.4s-1.2.6-1.8.8c-.6.1-1.2.2-1.8.2-.7 0-1.4-.1-2.1-.3s-1.4-.4-2-.7c-.6-.2-1.2-.5-1.7-.8-.3-.2-.7-.5-.9-.8l-.3.3-.6.8-.8.9c-.3.3-.5.6-.7.8 1.1 1.2 2.5 2.2 4.1 2.7 1.6.6 3.3.9 5 .9 3 0 5.4-.8 7-2.5 1.6-1.6 2.4-3.8 2.4-6.1.1-1.4-.3-2.7-1-3.8-.6-1-1.5-1.8-2.5-2.4-1.1-.7-2.2-1.2-3.3-1.6-1.2-.5-2.3-.9-3.3-1.4-.9-.4-1.8-1-2.5-1.7s-1.1-1.6-1-2.6c0-.6.2-1.2.5-1.8.3-.5.7-.9 1.2-1.2.5-.3 1-.6 1.5-.7.6-.1 1.1-.2 1.6-.2 1.2 0 2.3.3 3.4.7.9.3 1.7.8 2.3 1.5l2.2-2.8zm8.4 23.1c-.1 0-.1.1 0 0 0 1.6 1.3 2.9 2.9 2.9.7 0 1.5-.3 2-.8.6-.5.9-1.3.9-2.1 0-1.6-1.3-2.9-2.9-3-.8 0-1.5.4-2 .9-.6.6-.9 1.3-.9 2.1z"/><path mask="url(#mask)" class="title" fill="#FFF" d="M191.9 4.3c-3.6 0-7.2.6-10.6 1.9-3.3 1.3-6.4 3-9.2 5.2-2.9 2.3-5.4 5-7.6 8-2.3 3.2-4.3 6.7-5.8 10.3-1.6 3.9-2.8 8-3.6 12.1-.9 4.4-1.4 9-1.4 13.5 0 2.7.1 5.6.4 8.6.2 3.1.7 6.1 1.3 9.1.6 2.9 1.4 5.8 2.4 8.6.9 2.6 2.1 5 3.6 7.3 1.3 2 3 3.7 5 5 1.9 1.3 4.1 1.9 6.4 1.9 2.2.1 4.3-.4 6.3-1.2 1.9-.8 3.7-2 5.2-3.4 1.6-1.5 3-3.2 4.1-5 1.2-1.9 2.2-3.9 3-6 .8-2.1 1.4-4.3 1.9-6.5.4-2.1.6-4.3.7-6.4v-1-1.7c0-.6 0-1.3.1-2.1s.1-1.5.1-2.3c0-1.8.1-3.8.2-5.9 4.2-.6 8.3-1.9 12.1-3.7 3.1-1.6 6-3.7 8.5-6.2 2.1-2.3 3.8-4.9 5-7.8 1.1-2.7 1.7-5.6 1.7-8.5 0-6.3-2.7-12.3-7.5-16.5-2.7-2.4-5.9-4.2-9.3-5.3-4.2-1.4-8.6-2.1-13-2zm-26.4 49.6c0-3 .2-6 .6-9 .4-3 1.1-6.1 2-9 .9-2.9 2-5.7 3.4-8.3 1.3-2.5 3-4.8 4.9-6.8 1.8-1.9 4-3.5 6.4-4.6 2.6-1.2 5.3-1.7 8.1-1.7 3.3-.1 6.6.4 9.8 1.4 2.3.7 4.4 1.9 6.2 3.5 1.5 1.3 2.6 2.9 3.3 4.7.6 1.7.9 3.4.9 5.1 0 1.7-.3 3.3-1 4.9-.7 1.6-1.7 3.1-3 4.4-1.5 1.5-3.2 2.6-5.1 3.5-2.4 1-4.8 1.7-7.4 2.1l.4-3.5 2.5-11.9v-.3-.4c0-.6-.2-1.3-.5-1.8-.3-.4-.6-.8-1.1-1.1-.4-.3-1-.5-1.5-.6-.5 0-1.1-.1-1.6-.1-1.5-.1-3.1.4-4.4 1.3-1.2.9-2.2 2-2.9 3.3-.8 1.4-1.3 2.9-1.7 4.4-.3 1.5-.6 3.1-.8 4.6s-.3 2.8-.3 3.9v2.3c-.6-.1-1.1-.3-1.7-.5s-1.2-.5-2-.8-1.6-.8-2.6-1.3c-.3-.2-.7-.4-.9-.5-.2-.1-.5-.2-.8-.2-.4 0-.7.1-1 .4s-.5.6-.6 1c-.1.5-.2.9-.2 1.4v1.6c0 .9.1 1.8.3 2.6s.7 1.5 1.3 2.1c.9.9 2 1.6 3.1 2.1 1.9.9 3.8 1.8 5.7 2.5v2.1c0 1.3 0 3-.1 4.9-.1 1.9-.2 3.9-.4 6s-.5 4.2-.9 6.3c-.3 2-.9 3.9-1.7 5.7-.6 1.5-1.5 2.9-2.6 4-1 1.1-2.4 1.6-3.8 1.6s-2.8-.6-3.6-1.8c-1.1-1.4-1.9-3-2.4-4.7-.6-2.1-1.1-4.2-1.4-6.4-.3-2.3-.6-4.7-.7-7-.1-2.3-.2-4.4-.2-6.5v-4.9zm66.2 30.5c1.7 0 3.4-.2 5-.5 1.7-.4 3.4-.9 5-1.6 1.6-.6 3.1-1.4 4.6-2.3 1.5-.9 2.8-1.8 4.1-2.7 2.9-2.2 5.7-4.6 8.2-7.3l-5.7-5.8c-1.3 1.2-2.7 2.4-4.1 3.5-1.6 1.3-3.4 2.4-5.2 3.4s-3.7 1.9-5.7 2.6c-1.8.6-3.7 1-5.6 1-.6 0-1.1-.1-1.6-.2s-1-.3-1.4-.6c-.5-.3-.9-.7-1.3-1.2-.5-.6-.9-1.2-1.3-1.9 2.5-.7 4.9-1.6 7.1-2.9 2.1-1.1 4-2.5 5.7-4.2 1.7-1.7 3.1-3.6 4.2-5.7 1.1-1.8 1.7-3.9 1.8-6 0-1.5-.3-3.1-.9-4.5-.5-1.4-1.4-2.5-2.4-3.5s-2.3-1.7-3.6-2.2c-1.5-.5-3-.8-4.6-.8-1.9 0-3.8.3-5.5 1s-3.2 1.7-4.5 2.9c-1.3 1.2-2.5 2.6-3.4 4.1-1 1.6-1.8 3.3-2.5 5-.7 1.8-1.3 3.8-1.9 6-.5 1.9-.8 3.8-.9 5.8 0 2.4.3 4.8 1 7.1.7 2.1 1.7 4.1 3.1 5.9 1.4 1.7 3.1 3.1 5.1 4.1 2.3 1 4.7 1.6 7.2 1.5zm-5.9-20.9c0-.6 0-1.4.1-2.2.1-1.2.4-2.3.8-3.4.5-1.4.9-2.6 1.3-3.5s.9-1.8 1.5-2.5c1.4-1.7 3.4-2.6 5.5-2.5.7.1 1.4.6 1.7 1.3.5 1 .7 2.1.7 3.2-.1 1.3-.6 2.5-1.5 3.5-.8 1.2-1.9 2.3-3.1 3.3-1.1.8-2.3 1.5-3.5 2-1.1.5-2.3.8-3.5.8zm24.3 11.7c0 1.2 0 2.3.5 3.8.1 1 .4 2 .8 2.9.8 1.8 2.6 2.9 4.6 2.8.9 0 1.8-.2 2.6-.7.9-.7 1.6-1.5 2-2.5l11.6-22.9h.7c-.4 2.4-.7 4.6-.9 6.6-.3 1.9-.4 3.8-.4 5.7 0 4.5.5 7.9 1.6 10.2s2.5 3.5 4.1 3.5 3.1-.2 4.6-.7 2.9-1.1 4.3-1.8c.9-.4 3.3-1.6 7-3.6 2.5-1.4 3.9-2.2 4.1-2.3l2.2-1.7v-9.8c-3.3 2.2-6.1 4-8.4 5.5-1 .7-2 1.3-3 1.8-.7.4-1.4.9-2 1.4-.6.4-1.2.7-1.9.9-.5.2-1 .4-1.5.4-1-.1-1.9-.8-2.1-1.8-.5-1.5-.7-3-.7-4.5 0-1.2.1-2.4.2-3.6.1-1.3.3-2.6.5-3.9s.5-2.8.7-4.5c.3-1.7.5-3 .7-4.1.2-1 .4-1.9.5-2.7.1-.5.2-1.1.2-1.6.1-1.8-.4-3.6-1.3-5.1-.8-1.1-2.1-1.8-3.5-1.8s-2.8.3-4 .9c-1.4.7-2.5 1.8-3.2 3.2l-.9 1.6c-.5.7-.9 1.5-1.4 2.5s-1 2-1.6 3c-.6 1.2-1.2 2.4-1.6 3.6-.4 1.1-.8 2.1-1.3 3.1l-.8 1.6h-.9c0-.4 0-.8.1-1.2.1-.6.2-1.5.3-2.7s.3-2.2.4-3.2.3-1.9.4-2.8c.1-.9.2-1.8.3-2.5 0-.6.1-1.2.1-1.8.1-1.4-.2-2.7-.9-3.9-.8-1.1-2-1.6-3.3-1.5-1.4 0-2.8.5-3.8 1.4s-1.6 2.1-1.9 3.4c-.4 1.7-.9 3.8-1.3 6.2s-.8 5.2-1.2 8.2-.7 5.8-.9 8.3c-.3 2.5-.4 4.8-.4 6.7zm47.7 49.5c1.3.3 2.7.5 4.1.6 1.7 0 3.5-.3 5.1-.9 1.5-.5 2.8-1.3 4-2.3 1.2-.9 2.2-2.1 3-3.4.9-1.3 1.6-2.7 2.2-4.1.6-1.5 1.1-3 1.5-4.5s.7-2.9.9-4.4l.5-3.9c.1-.6.2-1.4.3-2.5.4-3.7.7-6.3 1-7.7.1-1.2.7-2.2 1.6-2.9 1.2-.8 3.3-2.2 6.1-4l.6-.4c1.9-1.5 3.7-3.1 5.4-4.8 1.8-1.6 3.2-3.5 4.4-5.6l-2.9-9.8c-4.3 7.1-8.3 11.9-11.8 14.5-.8.6-1.8 1.2-2.7 1.8.5-4.6.8-8.3 1-11.2.2-2.6.6-5.2 1.3-7.8.6-1.9.9-3.9 1.1-5.9.3-5.1.3-8.1-.1-9-.2-.5-.4-.9-.6-1.3-.6-.9-1.6-1.3-2.7-1.2h-2.9c-.3 0-.5-.1-.8-.2l-.6-.2c-.2 0-.4-.2-.5-.3-.2-.1-.3-.2-.4-.3-.2-.2-.3-.3-.4-.5s-.3-.3-.4-.5c-.8-.9-2-1.4-3.3-1.3-3.4 0-6.8 1.6-10.4 4.8-2.5 2.2-4.5 4.9-6 7.8-1.8 3.6-3.4 7.4-4.6 11.3-1.7 4.9-1.7 9.1.1 12.8.9 2 2.4 3.8 4.3 5.1 1.8 1.4 4 2.1 6.3 2.1 3.1 0 6.3-1.6 9.6-4.7l-.9 5.2c-1.9 1.6-3.4 3.1-4.8 4.5s-3 3.3-5.1 5.6c-1 1.2-2 2.5-2.9 3.8-1 1.4-1.7 2.5-2.1 3.2s-1.2 2.1-2.3 4c-1.8 2.9-2.6 6.4-2.5 9.8.1 1.5.5 3 1.2 4.3.6 1.2 1.5 2.2 2.6 2.9s2.3 1.2 3.5 1.5zm6.3-22c1.6-2.7 3.6-5.1 6.1-7l-.4 2.8-.5 3.8c-.1.9-.3 1.9-.6 2.8-.4 1.6-.8 2.9-1.1 3.8s-.7 1.9-1.1 2.9c-.3.8-.7 1.6-1.1 2.3-.3.6-.7 1.1-1.2 1.5-.4.4-.9.7-1.5.9-.6.2-1.3.3-1.9.3-2 0-2.5-1.4-1.5-4.2 1.3-3.5 2.9-6.8 4.8-9.9zm-2.6-28.5c-1.1-1.9-1.4-4.7-.8-8.5.3-1.7 1.8-5 4.6-9.9 2.6-4.6 5.6-6.9 9-6.9L311 63.6c-.1 2.6-.7 5.2-1.7 7.6-1.3 3.2-3 4.8-5 4.8-1.2 0-2.3-.7-2.8-1.8zM332.7 86c0 1.9.1 3.7.4 5.6.1 1.9.4 3.7.7 5.6.3 1.7.7 3.5 1.3 5.2.5 1.5 1.2 3 2.1 4.3.8 1.2 1.9 2.2 3.1 3 1.3.8 2.7 1.1 4.2 1.1s3.1-.3 4.5-1c1.3-.7 2.5-1.6 3.5-2.7 1.1-1.2 2-2.4 2.7-3.8.8-1.4 1.4-2.9 2-4.4.5-1.5.9-3 1.3-4.5s.6-2.9.8-4.1c.2-1.2.3-2.2.4-3.1.1-.9.1-1.4.1-1.7 0-2.3-.3-4.5-1-6.7-.5-2-1.3-4-2.1-6-.9-2.1-2-4.1-3.1-6 2.1-.1 4.2-.3 6.3-.6 1.9-.3 3.9-.8 5.8-1.3 2.1-.5 4.2-1.4 6.1-2.4l1-10.7c-1.4 1.4-3 2.5-4.7 3.4-1.8 1-3.6 1.7-5.6 2.3-2.5.7-5.1 1.1-7.7 1-.3 0-.5 0-.8-.1l-.6-.2c-.2-.1-.5-.1-.7-.2-.3-.1-.7-.1-1-.1s-.7 0-1 .1c-.5.1-.9.3-1.4.5l.1-.7c1.9-2.3 3.7-4.7 5.5-7.4s3.5-5.4 5.1-8.1 3.1-5.5 4.5-8.2 2.6-5.3 3.6-7.9c1-2.4 1.8-4.8 2.4-7.2.5-1.9.8-3.9.8-5.9 0-1.6-.3-3.2-.9-4.7-.6-1.2-1.3-2.3-2.3-3.1-.9-.8-1.9-1.4-3-1.7-1-.3-2-.5-3.1-.5-2.6 0-5 .8-7.1 2.3-2.4 1.7-4.3 3.8-5.9 6.2-1.9 2.8-3.4 5.9-4.7 9.1-1.5 3.6-2.8 7.3-3.8 11.1-1.1 3.9-2 7.9-2.8 12.1-.8 4.2-1.5 8.2-2.1 12.2s-1.1 7.7-1.4 11.3l-.9 9.4c-.3 2.7-.4 4.8-.5 6.5s-.1 2.6-.1 2.7zm11.6-23c.4 0 .8.4 1.1 1 .4.8.9 1.7 1.6 2.8.8 1.6 1.4 3.3 1.6 5 .3 2.2.5 4.2.7 5.9s.2 3.3.3 4.8.1 2.8.1 3.8c0 1.6-.1 3.1-.2 4.8-.1 1.6-.3 3.1-.6 4.6-.2 1.3-.6 2.4-1.3 3.5-.5.9-1.4 1.4-2.4 1.4-.4 0-.8-.3-1-.6-.4-.8-.7-1.7-.8-2.6-.3-1.9-.5-3.9-.6-5.8-.1-2.6-.2-6-.2-10.3 0-.6.1-1.4.1-2.5s.1-2.2.2-3.4l.4-4.6.3-4.3c0-.8.1-1.7.3-2.5.1-.7.3-1 .4-1zm11.1-46c.7-1.5 1.4-3 2.4-4.4.5-.7 1.6-1.1 3.2-1.1.9 0 1.7.4 2.2 1.1.5 1.1.7 2.2.6 3.4-.2 2-.8 3.8-1.6 5.6-1.2 2.8-2.5 5.5-3.9 8.1-1.5 2.8-3.3 5.8-5.3 9s-3.9 6.5-5.8 9.8c.2-1.6.4-3.3.6-5.2.2-1.9.6-4.1 1.1-6.6.6-2.9 1.4-5.8 2.3-8.6 1.2-3.8 2.6-7.5 4.2-11.1zm27.8 67.4c1.7 0 3.5-.2 5.2-.6 1.7-.4 3.4-.9 5-1.6 1.6-.6 3.1-1.4 4.6-2.3 1.5-.9 2.8-1.8 4.1-2.7 2.9-2.1 5.7-4.5 8.2-7.2l-5.7-5.8c-1.3 1.3-2.7 2.4-4.2 3.5-1.6 1.3-3.4 2.4-5.2 3.4-1.8 1-3.7 1.9-5.7 2.6-1.8.6-3.7 1-5.6 1-.6 0-1.1-.1-1.6-.2s-1-.3-1.4-.6c-.5-.3-.9-.7-1.3-1.2-.5-.6-.9-1.2-1.3-1.9 2.5-.7 4.9-1.6 7.1-2.9 2.1-1.1 4-2.5 5.7-4.2 1.7-1.7 3.1-3.6 4.2-5.7 1.1-1.8 1.7-3.9 1.8-6 0-1.5-.3-3.1-.9-4.5-.5-1.4-1.4-2.5-2.4-3.5-1.1-1-2.3-1.7-3.7-2.2-1.5-.5-3-.8-4.6-.8-1.9 0-3.8.3-5.5 1-1.6.7-3.1 1.6-4.4 2.8-1.4 1.3-2.5 2.7-3.5 4.2-1 1.6-1.8 3.3-2.5 5-.7 1.8-1.3 3.8-1.9 6-.5 1.9-.8 3.8-.9 5.8 0 2.4.3 4.8 1 7.1.7 2.1 1.7 4.1 3.1 5.9 1.4 1.7 3.1 3.1 5.1 4.1 2.2 1.1 4.7 1.6 7.2 1.5zm-5.9-21c0-.5.1-1.3.1-2.1.1-1.2.4-2.3.8-3.4.5-1.4.9-2.6 1.3-3.5s.9-1.8 1.5-2.5c1.4-1.7 3.4-2.6 5.5-2.5.8 0 1.5.5 1.8 1.2.5 1 .7 2.1.7 3.2-.2 1.3-.7 2.5-1.6 3.5-.8 1.2-1.9 2.3-3.1 3.3-1.1.8-2.3 1.5-3.5 2-1.1.5-2.3.8-3.5.8zm51 11.6l-.1-9c-.9.8-2.1 1.8-3.3 2.9-1.3 1.1-2.6 2.2-3.9 3.2-1.2 1-2.5 1.9-3.9 2.7-1 .7-2.3 1-3.5 1.1-.8 0-1.5-.4-1.8-1.2-.3-1-.4-2-.4-3.1 0-1.5.2-3 .6-4.5.4-1.7.7-3.3 1-5 .3-2 .8-4 1.5-6 .7-2.4 1.3-4.3 1.7-5.8l1-4c.3-.9.5-1.8.5-2.7.1-.6-.2-1.3-.6-1.8-.7-.6-1.6-.8-2.5-.7-.7 0-1.5 0-2.2.2-.8.2-1.6.5-2.4.8-.7.3-1.4.8-2 1.3s-1 1.2-1.2 2c-.3 1-1 3.3-2.1 6.8-1.2 4.3-2 7-2.4 8.3-.2.6-.8 3.5-1.6 8.6-.4 2.2-.6 4.3-.6 6.5 0 1.2.1 2.4.4 3.6.3 1 .7 2 1.4 2.8.7.8 1.5 1.3 2.5 1.7 1.3.4 2.6.6 3.9.6 1.9 0 3.7-.3 5.4-.9 2-.6 3.8-1.4 5.6-2.3 1.8-.9 3.5-1.9 5.1-3 1.3-.9 2.7-2 3.9-3.1zm-19.6-46.1c-.1 1.9.5 3.7 1.9 4.9 1.2 1.2 3.1 1.8 5.7 1.8 1.3 0 2.6-.2 3.8-.7 1-.4 1.9-1 2.7-1.8.7-.7 1.2-1.6 1.5-2.5s.5-1.9.5-2.9c0-.9-.2-1.9-.6-2.8-.4-.7-.9-1.4-1.6-1.9-.7-.5-1.6-.9-2.4-1.1-.9-.3-1.9-.4-2.9-.4-1.4 0-2.8.2-4.1.8-1 .4-1.9 1.1-2.6 1.9-1.2 1.3-1.8 3-1.9 4.7zm62.8-2.2c.9.1 1.9.1 2.7-.1H478.5l-32.3 42.5c-1.5 1.4-2.8 3-3.8 4.8-.6 1.2-1 2.5-1.1 3.9 0 1.2.5 2.4 1.5 3.2 1.1.8 2.4 1.2 3.8 1.2s2.8-.3 4.1-.8c1.7-.6 3.2-1.5 4.5-2.7 2.9 1.3 5.5 2.4 7.8 3.3 2.3.8 4.2 1.6 5.8 2.1 1.6.6 2.9 1 3.9 1.2.7.1 1.4.3 2.1.3 2.6 0 5.1-.4 7.6-1.1 2.4-.7 4.7-1.6 7-2.6 2.1-.9 4.1-2 6-3.2 1.4-.9 2.8-1.9 4.2-3 .6-.6.8-1.5.8-2.3 0-.7-.1-1.4-.4-2-.3-.7-.6-1.3-1.1-1.9s-1-1-1.6-1.4c-.6-.3-1.2-.5-1.9-.5s-1.4.3-1.9.7c-1.1.7-2.3 1.4-3.5 2.2-1.3.8-2.7 1.6-4.1 2.2-1.6.7-3.3 1.3-5.1 1.8-2.1.6-4.3.8-6.4.8-.8 0-1.6-.1-2.4-.3-.9-.3-1.9-.6-2.8-.9s-1.9-.7-2.8-1.1l-2.5-1.1c-.7-.4-1.3-.7-1.8-.9-.2-.1-.5-.2-.7-.3l.2-1c.7-.9 1.3-1.8 1.8-2.8.8-1.4 1.9-3.2 3.2-5.4 1.3-2.1 2.9-4.6 4.7-7.4 1.8-2.8 3.9-5.8 6.2-8.9 2.4-3.1 4.9-6.3 7.8-9.7 2.9-3.3 6-6.7 9.4-10 .6-.3 1.3-.8 1.8-1.3.2-.2.4-.5.6-.8.1-.5.1-1 .2-1.5s.1-.9.1-1.4c.1-1.1-.2-2.2-.8-3.2-.7-.8-1.7-1.3-2.7-1.2-.2 0-.4.1-.6.1-.3 0-.9.1-1.7.1-.8 0-2 .1-3.6.1-1.6.1-3.7.1-6.4.1h-5.7c-1.3 0-2.6-.2-3.8-.6l-3.1-1-3-1c-2-.4-4-.6-6-.5-1.2 0-2.4.3-3.6.7-1.5.6-2.8 1.4-3.8 2.6-1.4 1.6-2.5 3.4-3.3 5.4-1.1 2.9-1.9 5.9-2.2 8.9 0 .4-.1.7-.1 1.1-.1.3-.1.7-.1 1 0 .7.1 1.4.4 2 .2.4.7.7 1.2.7.8-.1 1.6-.4 2.2-1 1.1-1 2-2.3 2.5-3.7.5-1.2 1.1-2.4 1.8-3.6.5-.8 1-1.6 1.6-2.3.4-.5.9-.9 1.5-1.2.5-.3 1-.4 1.5-.4.7.1 1.4.2 2.1.4l2.5.9 3.2 1c1.3.4 2.7.7 4.1.8zm40.2 30.9l-.7-.6 3.4-6.5c1.3-2.4 2.7-5 4-7.8 1.4-2.8 2.7-5.7 4-8.6s2.5-5.8 3.5-8.7c.9-2.7 1.7-5.5 2.4-8.3.6-2.4.9-4.8.9-7.3.1-1.3-.1-2.7-.3-4-.1-1.1-.6-2.2-1.2-3.1-.6-.9-1.4-1.6-2.4-2-1.2-.5-2.6-.7-3.9-.7-2.9-.1-5.7.8-8.1 2.5-2.5 1.8-4.6 4.1-6.2 6.8-1.9 3.1-3.4 6.5-4.5 10-1.3 3.9-2.2 7.9-2.8 12L497.9 44c-.6 4.2-1.1 8.3-1.3 12.3-.2 3.9-.4 7.5-.4 10.8-.1 3.3-.1 5.9-.1 7.9 0 1.2 0 2.3.1 3.4.1 1 .3 2 .6 3 .3.8.7 1.5 1.3 2.1.6.6 1.5.8 2.3.8.6.1 1.3-.1 1.8-.4s1-.8 1.3-1.3c.5-.7.9-1.5 1.2-2.3.4-.9.9-2.1 1.6-3.4 1.3-2.7 2.7-5.2 4.3-7.7s3.1-4.7 4.6-6.7c1.5-1.9 2.8-3.6 4-4.9.7-.9 1.6-1.7 2.5-2.4l.9.1c-.2.3-.4.6-.6 1-.3.6-.6 1.3-1 2.2s-.8 1.9-1.3 3c-.5 1.2-.9 2.3-1.3 3.5-.4 1.2-.7 2.3-1 3.5-.3 1.1-.4 2.1-.4 3.2 0 1.4.2 2.9.6 4.3.4 1.5 1 2.9 1.8 4.2.8 1.2 1.8 2.3 3 3.1 1.3.8 2.8 1.2 4.3 1.2 1.1 0 2.2-.2 3.3-.5 1.2-.4 2.4-.8 3.5-1.3 1.2-.6 2.4-1.2 3.5-1.8 1.2-.7 2.2-1.4 3.2-2s1.9-1.2 2.7-1.8l2-1.4-.8-11.7c-1.5 1.8-3.1 3.5-4.8 5.1-.7.7-1.4 1.3-2.2 1.9-.7.6-1.5 1.1-2.3 1.6-.8.5-1.6.9-2.4 1.2-.7.2-1.4.4-2.2.4-.6 0-1-.4-1.4-1.1-.4-.9-.5-1.9-.5-2.9 0-2.1.3-4.3.8-6.3.7-2.5 1.8-4.9 3.1-7.1 1.4-2.2 2.4-4.6 3.2-7 .5-1.9.8-3.9.8-5.9 0-.9-.1-1.7-.4-2.5-.2-.6-.6-1.1-1-1.5-.3-.3-.7-.5-1.2-.7-.4-.1-.8-.2-1.2-.2-1.6.1-3.2.6-4.5 1.6-2.2 1.6-4.3 3.4-6.2 5.3-2.1 2.1-4.1 4.2-6 6.5-1.5 1.8-2.8 3.6-4 5.2zm3.9-27.7c-.5 1.3-1.2 3-1.9 4.8l-2.6 6c-.9 2.2-1.9 4.3-2.8 6.5s-1.8 4.2-2.6 6c.3-3.3.8-6.7 1.5-10.2l.7-4.7.7-5.1c.2-1.8.6-3.5 1-5.2s.9-3.4 1.4-5c1.5-3.7 3.3-7.3 5.3-10.8 1.5-2.5 2.6-3.7 3.4-3.7.6 0 .9 1.1.9 3.3-.2 2.3-.6 4.6-1.2 6.8-1.1 3.8-2.3 7.6-3.8 11.3zm43 54.5c1.8 0 3.5-.2 5.2-.5 1.7-.4 3.4-.9 5-1.6 1.6-.6 3.1-1.4 4.6-2.3 1.5-.9 2.8-1.8 4.1-2.7 2.9-2.2 5.7-4.6 8.2-7.3l-5.7-5.8c-1.3 1.3-2.7 2.4-4.2 3.5-1.6 1.3-3.4 2.4-5.2 3.4s-3.7 1.9-5.7 2.6c-1.8.6-3.7 1-5.6 1-.6 0-1.1-.1-1.6-.2s-1-.3-1.4-.6c-.5-.3-.9-.7-1.3-1.2-.4-.6-.8-1.2-1.2-1.9 2.5-.7 4.9-1.6 7.1-2.9 2.1-1.1 4-2.5 5.7-4.2 1.7-1.7 3.1-3.6 4.2-5.7 1.1-1.8 1.7-3.9 1.8-6 0-1.5-.3-3.1-.9-4.5-.5-1.4-1.4-2.5-2.4-3.5-1.1-1-2.3-1.7-3.7-2.2-1.5-.5-3-.8-4.6-.8-1.9 0-3.8.3-5.5 1s-3.2 1.6-4.5 2.8c-1.4 1.3-2.5 2.7-3.5 4.2-1 1.6-1.8 3.3-2.5 5-.7 1.8-1.3 3.8-1.9 6-.5 1.9-.9 3.8-.9 5.8 0 2.4.3 4.8 1 7.1.7 2.1 1.7 4.1 3.1 5.9 1.4 1.7 3.1 3.1 5.1 4.1 2.3 1 4.7 1.6 7.2 1.5zm-5.9-20.9c0-.6 0-1.4.1-2.1.1-1.2.4-2.3.8-3.4.5-1.4.9-2.6 1.3-3.5s.9-1.8 1.5-2.5c1.4-1.7 3.4-2.6 5.5-2.5.8 0 1.5.5 1.8 1.2.5 1 .7 2.1.7 3.2-.1 1.3-.6 2.5-1.5 3.5-.9 1.2-2 2.3-3.2 3.3-1.1.8-2.3 1.5-3.5 2-1.1.5-2.3.8-3.5.8zM577 75.2c0 1.2.1 2.3.4 3.8.1 1 .4 2 .8 2.9.3.9.9 1.6 1.6 2.1.9.6 1.9.8 2.9.8.8 0 1.7-.2 2.5-.7.9-.7 1.6-1.5 2-2.5l11.5-22.9h.7c-.4 2.4-.7 4.6-.9 6.6-.2 1.9-.3 3.8-.3 5.7.1 4.5.6 7.9 1.7 10.2s2.5 3.5 4.1 3.5 3.1-.2 4.6-.7 2.9-1.1 4.3-1.8c.9-.4 3.3-1.6 7-3.6 2.6-1.4 3.9-2.2 4.1-2.3l2.2-1.7v-9.8c-3.3 2.2-6.1 4-8.4 5.5-1 .7-2 1.3-3 1.8-.7.4-1.4.9-2 1.4-.5.4-1.1.7-1.8.9-.5.2-1 .4-1.5.4-1-.1-1.9-.8-2.1-1.8-.5-1.5-.7-3-.7-4.5 0-1.2.1-2.4.2-3.6.1-1.3.3-2.6.5-3.9s.5-2.8.7-4.5c.3-1.7.5-3 .7-4.1.2-1 .4-1.9.5-2.7.1-.5.2-1.1.2-1.6.1-1.8-.4-3.6-1.3-5.1-.8-1.2-2.1-1.9-3.5-1.9s-2.8.3-4 .9c-1.4.7-2.5 1.8-3.2 3.2l-.9 1.6c-.5.7-.9 1.5-1.4 2.5s-1 2-1.6 3c-.6 1.2-1.2 2.4-1.6 3.6-.4 1.1-.8 2.1-1.3 3.1l-.8 1.6h-.9c0-.4 0-.8.1-1.2.1-.6.2-1.5.3-2.7s.3-2.2.4-3.2c.1-1 .3-1.9.4-2.8s.2-1.8.3-2.5c0-.6.1-1.2.1-1.8.1-1.4-.2-2.7-.9-3.9-.8-1.1-2-1.6-3.3-1.5-1.4 0-2.8.5-3.8 1.4s-1.6 2.1-1.9 3.4c-.4 1.7-.9 3.8-1.3 6.2s-.8 5.2-1.2 8.2-.7 5.8-.9 8.3-.3 4.8-.3 6.7zm47.7 49.5c1.3.3 2.7.5 4.1.6 1.7 0 3.5-.3 5.1-.9 1.5-.5 2.8-1.3 4-2.3 1.2-.9 2.2-2.1 3-3.4.9-1.3 1.6-2.7 2.2-4.1.6-1.5 1.1-3 1.5-4.5s.7-2.9.9-4.4l.5-3.9c.1-.6.2-1.4.3-2.5.4-3.7.7-6.3 1-7.7.1-1.2.7-2.2 1.6-2.9 1.3-.8 3.3-2.2 6.1-4l.6-.4c1.9-1.5 3.7-3.1 5.4-4.8 1.7-1.6 3.1-3.5 4.3-5.6l-2.9-9.8c-4.3 7.1-8.2 11.9-11.7 14.5-.8.6-1.8 1.2-2.7 1.8.5-4.6.8-8.3 1-11.2.2-2.6.6-5.2 1.3-7.8.6-1.9.9-3.9 1.1-5.9.3-5.1.3-8.1-.1-9-.2-.5-.4-.9-.6-1.3-.6-.9-1.6-1.3-2.7-1.2h-2.9c-.3 0-.5-.1-.8-.2l-.6-.2c-.2 0-.4-.2-.5-.3l-.4-.3c-.2-.2-.3-.3-.4-.5-.1-.2-.3-.3-.4-.5-.8-1-2.1-1.4-3.4-1.3-3.4 0-6.8 1.6-10.4 4.8-2.5 2.2-4.5 4.9-6 7.8-1.8 3.6-3.4 7.4-4.6 11.3-1.7 4.9-1.7 9.1.1 12.8.9 2 2.4 3.8 4.3 5.1 1.9 1.4 4.1 2.1 6.4 2.1 3.1 0 6.3-1.6 9.6-4.7l-.9 5.2c-1.9 1.6-3.5 3.1-4.8 4.5-1.4 1.4-3 3.3-5.1 5.6-1 1.2-2 2.5-2.9 3.8-1 1.4-1.7 2.5-2.1 3.2-.4.7-1.2 2.1-2.3 4-1.8 2.9-2.6 6.4-2.5 9.8.1 1.5.5 3 1.2 4.3.6 1.2 1.5 2.2 2.6 2.9s2.3 1.2 3.5 1.5zm6.3-22c1.6-2.7 3.6-5.1 6-7l-.3 2.8-.5 3.8c-.1.9-.3 1.9-.6 2.8-.4 1.6-.8 2.9-1.1 3.8s-.7 1.9-1.1 2.9c-.3.8-.7 1.6-1.1 2.3-.3.6-.7 1.1-1.2 1.5-.4.4-.9.7-1.5.9-.6.2-1.3.3-1.9.3-2 0-2.5-1.4-1.5-4.2 1.3-3.5 2.9-6.8 4.8-9.9zm-2.6-28.5c-1.1-1.9-1.4-4.7-.8-8.5.3-1.7 1.8-5 4.6-9.9 2.6-4.6 5.6-6.9 9-6.9l-3.3 14.7c-.1 2.6-.7 5.2-1.7 7.6-1.3 3.2-3 4.8-5 4.8-1.2 0-2.3-.7-2.8-1.8zm138-57.5c.1-.7 0-1.4-.1-2.3-.1-.5-.4-.9-.8-1.2-.4-.3-.8-.5-1.3-.6-.6-.1-1.2-.1-1.8-.1-.7 0-1.5 0-2.3.1s-1.6.4-2.3.8c-.8.5-1.6 1.3-2.2 2.1-.9 1.2-1.6 2.6-2.2 4-1.2 3-2.3 6.2-3.3 9.4-.9 3.3-1.7 6.5-2.4 9.8-.6 3.3-1.1 6.5-1.5 9.8-.3 3.2-.5 6.4-.5 9.6-.1 4.5.3 8.9 1.2 13.3.6 3.3 1.7 6.5 3.2 9.5 1.1 2.2 2.7 4.2 4.6 5.7 1.6 1.2 3.5 1.9 5.5 1.9 3.1.1 6.3-.5 9.2-1.7 2.9-1.3 5.5-3.3 7.4-5.8 2.4-3.3 4.3-6.9 5.6-10.8 1.8-5.5 3.2-11.1 4-16.8 0 1-.2 2.1-.3 3.3-.1 1.3-.2 2.7-.2 4 0 3.6.2 7.2.8 10.8.5 3.1 1.4 6.1 2.7 8.9 1 2.4 2.7 4.4 4.7 6 2.1 1.5 4.6 2.3 7.1 2.2 2.2 0 4.4-.4 6.4-1.2 2.1-.8 4.1-1.9 5.9-3.3 1.9-1.5 3.7-3.2 5.3-5.1 1.7-2.1 3.3-4.3 4.7-6.7.1 1.2.4 2.3.9 3.4.3.9.9 1.6 1.6 2.3.7.6 1.5 1 2.3 1.3.9.3 1.8.4 2.7.4 2.3-.1 4.6-.8 6.5-2 2.5-1.5 4.7-3.4 6.7-5.5l-.8-9c-.4 1.2-1 2.3-1.7 3.3-.7.9-1.4 1.8-2.3 2.5-.8.7-1.7 1.3-2.6 1.7-.8.4-1.7.6-2.6.6-.8 0-1.6-.1-2.4-.4-.7-.3-1.4-.8-1.9-1.4-.6-.7-1-1.5-1.3-2.4-.4-1.2-.5-2.4-.5-3.6.1-1.2.3-2.4.6-3.6.5-2.4 1.2-4.7 2.1-7 1-2.9 1.6-5.8 1.8-8.8.2-3.1.7-6.3 1.4-9.3.8-3.1 1.4-6.3 1.9-9.4.5-2.8.8-5.7.8-8.6 0-.8-.1-1.6-.4-2.3-.2-.5-.6-1-1.1-1.4-.5-.4-1.1-.7-1.7-.8-.7-.1-1.5-.2-2.2-.2-1 0-2 .1-3 .2-.9.2-1.8.5-2.6.9s-1.4 1-1.9 1.8c-.6.9-.9 2-.9 3.1l-.6 4.9-1.4 11.6-1 8.5-1.5 7.8c-.8 4.2-1.8 8.5-3 12.6-.9 2.9-2 5.8-3.4 8.5-1.1 2.2-2.5 4.2-4.2 5.9-1.3 1.4-3.2 2.2-5.1 2.2-1 0-2-.4-2.7-1.2-.8-1-1.4-2.1-1.7-3.4-.5-1.7-.9-3.6-1-5.4-.2-2.1-.3-4.4-.3-7.1 0-2.6.1-5.5.3-8.5s.5-6.2.9-9.3c.4-3.2.8-6.2 1.2-9.2s.8-5.6 1.2-8l.9-5.8c.2-1.5.3-2.4.3-2.6 0-.6-.1-1.2-.3-1.7s-.5-1-.9-1.3c-.5-.4-1.1-.6-1.7-.8-.9-.2-1.9-.3-2.8-.3-1 0-2.1.1-3.1.4-.9.3-1.7.8-2.4 1.4-.8.7-1.4 1.6-1.8 2.6-.6 1.3-1 2.7-1.3 4.1-1.7 9.2-3.9 18.3-6.6 27.3-.7 2.2-1.4 4.5-2.2 6.7-.8 2.3-1.6 4.4-2.5 6.4-.9 2-1.8 3.9-2.8 5.6-.9 1.6-1.9 3.1-3 4.5-1 1.1-2.1 2.1-3.3 2.9-1 .7-2.3 1.1-3.5 1.1-1.1 0-2.2-.4-3.1-1.2-1-.9-1.7-2-2.2-3.2-.6-1.6-1.1-3.2-1.3-4.8-.3-1.9-.4-3.9-.4-5.9 0-2.8.2-5.6.7-8.4.5-3.1 1.1-6.2 1.8-9.3.8-3.1 1.6-6.2 2.4-9.2.9-3 1.7-5.8 2.4-8.4s1.3-4.9 1.8-6.9c.4-1.5.6-3 .7-4.5zM853 84.4c1.8 0 3.5-.2 5.3-.7 1.7-.4 3.4-.9 5-1.6 1.6-.6 3.1-1.4 4.6-2.3 1.5-.9 2.8-1.8 4.1-2.7 2.9-2.2 5.7-4.6 8.2-7.3l-5.7-5.8c-1.3 1.3-2.7 2.4-4.2 3.5-1.6 1.3-3.4 2.4-5.2 3.4-1.8 1.1-3.6 1.9-5.6 2.6-1.8.6-3.7 1-5.6 1-.6 0-1.1-.1-1.6-.2s-1-.3-1.4-.6c-.5-.3-.9-.7-1.3-1.2-.5-.6-.9-1.2-1.3-1.9 2.5-.7 4.9-1.6 7.1-2.9 2.1-1.1 4-2.5 5.7-4.2 1.6-1.6 3-3.5 4.1-5.6 1.1-1.8 1.7-3.9 1.8-6 0-1.5-.3-3.1-.9-4.5-.5-1.3-1.4-2.4-2.4-3.4-1.1-1-2.3-1.7-3.7-2.2-1.5-.5-3-.8-4.6-.8-1.9 0-3.8.3-5.5 1s-3.2 1.6-4.5 2.8c-1.4 1.3-2.5 2.7-3.5 4.2-1 1.6-1.8 3.3-2.5 5-.7 1.8-1.3 3.8-1.9 6-.5 1.9-.8 3.8-.9 5.8 0 2.4.3 4.8 1 7.1.7 2.1 1.7 4.1 3.1 5.9 1.4 1.7 3.1 3.1 5.1 4.1 2.3 1 4.7 1.6 7.2 1.5zm-5.9-20.9c.1-.6.1-1.4.1-2.1.1-1.2.4-2.3.8-3.4.5-1.4.9-2.6 1.3-3.5s.9-1.8 1.5-2.5c1.4-1.7 3.4-2.6 5.5-2.5.8 0 1.5.5 1.8 1.2.5 1 .7 2.1.7 3.2-.1 1.3-.6 2.5-1.5 3.5-.9 1.2-2 2.3-3.2 3.3-1.1.8-2.3 1.5-3.5 2-1.1.5-2.3.8-3.5.8zm38.5-14.6l-.8-.6c2.1-2.5 4.1-5.1 6.2-7.9 2-2.7 3.9-5.6 5.6-8.6 1.7-2.8 3-5.7 4.1-8.8 1-2.8 1.6-5.7 1.6-8.6.1-1.9-.1-3.7-.3-5.6-.1-1.6-.6-3.2-1.4-4.6-.7-1.3-1.8-2.4-3.1-3.1-1.7-.8-3.5-1.2-5.4-1.1-2.1.1-4.1 1-5.4 2.4-2 1.9-3.6 4-4.8 6.4-1.6 2.9-2.9 6-4 9.1-1.2 3.7-2.2 7.4-2.8 11.2l-1.8 10.2c-.5 3.5-.8 6.7-1.1 9.6-.5 2.6-1.1 6.7-1.7 12.2-.4 3.7-.7 6.9-.9 9.5-.2 3-.4 5.6-.5 8 1.5 1.1 3.1 2.2 4.8 3.3 2.1 1 4.4 1.8 6.7 2.3 2.4.2 4.9.3 7.4.2h1.1c1.1-.5 2.1-.9 3.1-1.4.9-.4 1.7-.9 2.6-1.4.7-.4 1.4-.9 2-1.5 2-.5 4-1 5.8-1.6s3.6-1.3 5.3-2.1 3.3-1.7 4.9-2.8c1.7-1.1 3.3-2.4 4.8-3.8l-3.4-7.3c-1 1.1-2.2 2.1-3.4 3.1-1.1.9-2.2 1.7-3.3 2.4-1 .7-2.1 1.3-3.2 1.9-1.1.6-2.1 1.2-3.2 1.8.8-1.3 1.4-2.6 2-4 .6-1.2 1-2.5 1.3-3.8.3-1.3.5-2.6.6-3.9.1-1.4.2-2.8.2-4.3 0-1.7-.3-3.5-.8-5.1-.5-1.5-1.2-3-2.2-4.3-.9-1.2-2.1-2.3-3.4-3-1.4-.7-3-1.1-4.6-1.1s-3 .7-4.1 1.8c-1.6 1.5-3.1 3.2-4.5 4.9zm4 3.2c1-.1 1.9 0 2.8.4.7.2 1.3.7 1.8 1.2.4.6.7 1.2.9 1.8.1.7.2 1.4.2 2.1 0 1.2-.1 2.5-.2 3.7-.2 1.4-.4 2.8-.7 4.1-.2 1.4-.6 2.7-1.1 4-.5 1.2-1 2.3-1.7 3.4-.6.9-1.3 1.8-2.2 2.4-.8.6-1.7.9-2.7.9-.9 0-1.8.1-2.7.2-.9.2-1.8.2-2.7 0-1-.3-1.9-.5-2.9-.8.1-1 .3-2.1.4-3.3.1-1 .2-2.2.4-3.5.4-3.5.6-5.2.6-5.3-.3-.6.2-2.3 1.5-5.1.6-1.3 1.3-2.5 2.3-3.5.8-.9 1.8-1.5 2.9-2 1-.5 2-.7 3.1-.7zm4.3-40.1c-.1 2.1-.5 4.1-1.1 6-.5 2-1.1 4-1.9 5.9-.7 1.9-1.6 3.8-2.5 5.7s-1.9 3.7-2.9 5.5c-1 1.7-2.1 3.4-3 5.1s-1.8 3.3-2.6 4.8l.8-3.8 1.1-5.2 1.2-6c.5-2.1.9-4.1 1.5-6.2s1.1-4 1.7-5.9c.5-1.7 1-3.3 1.7-4.9.5-1.2 1.1-2.3 1.9-3.4.6-.8 1.2-1.2 1.8-1.2.5 0 .9.2 1.2.5s.5.7.7 1.1.3.8.3 1.2c.1.4.1.7.1.8zm93.9 63.3l-1.6-9.1c-1.7 1.5-3.4 2.8-5 4-.7.5-1.5 1-2.2 1.5s-1.5.9-2.2 1.3c-.7.3-1.4.7-2.1.9-.6.2-1.2.3-1.8.3-.5 0-1-.1-1.4-.5s-.7-.9-.9-1.4c-.3-.7-.4-1.4-.5-2.1-.2-.8-.2-1.6-.2-2.4 0-.7 0-1.4.1-2.1 0-.7.2-1.4.3-2.1.1-.7.2-1.3.4-1.9s.3-1.1.5-1.5c.7-1.9 2.3-5.5 4.9-10.8 1.7-3.4 3.1-6.9 4.3-10.5l3.6-10.8c1.3-3.8 1.9-7.8 2-11.8v-3.2c0-1.7-.1-3.3-.4-4.9-.2-1.4-.7-2.8-1.3-4.1C983.8 3 983 2 982 1.2S979.8.1 978.5.1c-2 0-3.9.7-5.5 1.8-1.9 1.3-3.6 2.9-5 4.8-1.7 2.3-3.1 4.7-4.3 7.3-1.4 2.9-2.4 6-3.2 9.2l-2.3 9.4c-.8 3.3-1.2 6.7-1.2 10.1-2.2.2-4.3.8-6.3 1.6-2.1.9-4 2.2-5.7 3.7-1.8 1.5-3.3 3.3-4.5 5.4-1.1 2-2.2 3.9-3.1 5.7-.9 1.8-1.6 3.7-2.1 5.6s-.7 3.9-.7 5.8c0 1.8.2 3.5.7 5.2.5 1.6 1.2 3.1 2.1 4.5.9 1.3 2.1 2.4 3.5 3.2 1.5.8 3.2 1.2 4.9 1.2 1.4 0 2.7-.3 4-.7 1.4-.5 2.7-1.1 4-1.8s2.6-1.6 3.8-2.6c1.3-1 2.4-2.1 3.5-3.2.5 1.5 1.4 3 2.5 4.3.8 1 1.8 1.8 2.9 2.5.8.5 1.7.9 2.7 1.1.6.2 1.3.3 1.9.3.7 0 1.5-.2 2.3-.4 1-.3 1.8-.6 2.7-1 .9-.5 1.8-.9 2.8-1.5s1.8-1.1 2.7-1.7c2.2-1.4 4.2-3 6.2-4.6zm-30.5-26c.1.3.1.6.1 1.1 0 .6 0 1.5.1 2.4s.1 2 .1 3.2c0 1.1.1 2.7.1 4.5s0 3.2.1 4.1c0 .7.1 1.3.2 2-.6 1.4-1.3 2.7-2.2 4l-1.2 1.5c-.4.5-.8.9-1.3 1.3-.5.3-1 .7-1.5.9-.5.2-1.1.3-1.6.3-.8.1-1.7 0-2.5-.3-.6-.2-1.1-.5-1.5-.9-.3-.3-.6-.7-.7-1.2-.1-.5-.2-.9-.2-1.4 0-1.7.3-3.4.8-5 .5-1.9 1.3-4.1 2.3-6.6 1.5-4.4 4.7-7.9 8.9-9.9zm20.8-30c-.2 1.7-.4 3.3-.6 5-.4 1.7-.9 3.4-1.4 5.2l-1.7 5.3c-.6 1.8-1.1 3.5-1.7 5.2-1.4 3.9-2.9 7.8-4.5 11.7v-2.4-2.9c.1-1.1.1-2.3.2-3.7.1-1.3.2-2.7.3-4.2 0-.7.1-1.9.3-3.6.1-1.7.3-3.6.6-5.7.3-2.2.7-4.4 1.2-6.5l1.5-6.1c.4-1.6 1-3.2 1.9-4.6.5-1 1.5-1.7 2.6-1.8.5 0 1 .4 1.2.9.3 1.1.5 2.2.4 3.3 0 1.2-.1 2.8-.3 4.9zm22 65c1.7.1 3.4-.1 5.1-.6 1.7-.4 3.4-.9 5-1.6 1.6-.6 3.1-1.4 4.6-2.3 1.5-.9 2.8-1.8 4.1-2.7 2.9-2.2 5.7-4.6 8.2-7.3l-5.7-5.8c-1.3 1.3-2.7 2.4-4.2 3.5-1.6 1.3-3.4 2.4-5.2 3.4s-3.6 1.9-5.6 2.6c-1.8.6-3.7 1-5.6 1-.6 0-1.1-.1-1.6-.2s-1-.3-1.4-.6c-.5-.3-.9-.7-1.3-1.2-.5-.6-.9-1.2-1.3-1.9 2.5-.7 4.9-1.6 7.1-2.9 2.1-1.1 4-2.5 5.7-4.2 1.7-1.7 3.1-3.6 4.2-5.7 1.1-1.8 1.7-3.9 1.8-6 0-1.5-.3-3.1-.9-4.5-.5-1.4-1.4-2.5-2.4-3.5-1.1-.9-2.3-1.7-3.7-2.2-1.5-.5-3-.8-4.6-.8-1.9 0-3.8.4-5.5 1.1-1.6.7-3.1 1.6-4.4 2.8-1.4 1.3-2.5 2.7-3.5 4.2-1 1.6-1.8 3.3-2.5 5-.7 1.8-1.3 3.8-1.9 6-.5 1.9-.8 3.8-.9 5.8 0 2.4.3 4.8 1 7.1.7 2.1 1.7 4.1 3.1 5.9 1.4 1.7 3.1 3.1 5.1 4.1 2.3 1 4.7 1.6 7.2 1.5zm-5.9-20.9c0-.5 0-1.3.1-2.1.1-1.2.4-2.3.8-3.4.5-1.4.9-2.6 1.3-3.5s.9-1.8 1.5-2.5c1.4-1.7 3.4-2.6 5.5-2.5.8 0 1.5.5 1.8 1.2.5 1 .7 2.1.7 3.2-.1 1.3-.6 2.5-1.5 3.5-.9 1.2-2 2.3-3.2 3.3-1.1.8-2.3 1.5-3.5 2-1.1.5-2.3.8-3.5.8zm24.3 6.7l.3 1.4c0 1.4.2 2.8.3 4.4.1 1.5.4 2.9.9 4.3.4 1.3 1.2 2.4 2.2 3.3 1.2.9 2.7 1.4 4.2 1.3 1.2-.1 2.3-.6 3.1-1.4 1.2-1.1 2.4-2.4 3.4-3.7 1.3-1.6 2.4-3.3 3.4-5 1.1-1.8 2.1-3.6 2.9-5.4.1 1.1.3 2.2.8 3.2.5 1.1 1.2 2 2 2.8 1 .9 2 1.5 3.2 2 1.3.5 2.8.7 4.2.7 2 0 4-.4 5.9-1.1 2.1-.7 4.1-1.7 6-2.9V63.5c-1.3.9-2.5 1.6-3.7 2.3-1.1.6-2.2 1.2-3.3 1.6-1 .4-2.1.7-3.1.7s-2-.1-2.9-.5c-.7-.3-1.3-.7-1.8-1.3-.4-.5-.7-1.1-.9-1.8-.2-.7-.3-1.4-.3-2.1s.1-1.3.2-2c.1-.6.2-1.1.4-1.7s.3-1.1.5-1.6c.1-.5.9-2.3 2.2-5.5.2-.5.6-1.4 1.4-2.9.4-.8.7-1.6.9-2.4.2-.7.3-1.5.3-2.3 0-1.1-.6-2.1-1.5-2.7-1.2-.7-2.7-1.1-4.1-1-.6 0-1.2.1-1.8.3s-1.1.4-1.6.7c-.4.3-.8.6-1.1 1-.3.4-.5.8-.6 1.2l-12 29.3h-.3l.8-29.1c-.1-.7-.3-1.4-.7-2-.3-.6-1-.9-1.7-.9h-.5l-.4.1-5.6.8c-1 .2-1.6 1.1-1.9 2.8-.3 2.8-.5 5.6-.4 8.4v3.4c.1 1.2.1 2.4.2 3.7 0 1.3.1 2.8.2 4.4s.2 3.5.3 5.7zm52.6 14.2c1.7.1 3.4-.1 5.1-.6 1.7-.4 3.4-.9 5-1.6 1.6-.6 3.1-1.4 4.6-2.3 1.5-.9 2.8-1.8 4.1-2.7 2.9-2.2 5.7-4.6 8.2-7.3l-5.7-5.8c-1.3 1.3-2.7 2.4-4.2 3.5-1.6 1.3-3.4 2.4-5.2 3.4-1.8 1-3.7 1.9-5.6 2.6-1.8.6-3.7 1-5.6 1-.6 0-1.1-.1-1.6-.2s-1-.3-1.4-.6c-.5-.3-.9-.7-1.3-1.2-.5-.6-.9-1.2-1.3-1.9 2.5-.7 4.9-1.6 7.1-2.9 2.1-1.1 4-2.5 5.7-4.2 1.7-1.7 3.1-3.6 4.2-5.7 1.1-1.8 1.7-3.9 1.8-6 0-1.5-.3-3.1-.9-4.5-.5-1.4-1.4-2.5-2.4-3.5-1.1-.9-2.3-1.7-3.7-2.2-1.5-.5-3-.8-4.6-.8-1.9 0-3.8.4-5.5 1.1-1.6.7-3.1 1.6-4.4 2.8-1.4 1.3-2.5 2.7-3.5 4.2-1 1.6-1.8 3.3-2.5 5-.7 1.8-1.3 3.8-1.9 6-.5 1.9-.8 3.8-.9 5.8 0 2.4.3 4.8 1 7.1.7 2.1 1.7 4.1 3.1 5.9 1.4 1.7 3.1 3.1 5.1 4.1 2.3 1 4.7 1.6 7.2 1.5zm-5.9-20.9c0-.5 0-1.3.1-2.1.1-1.2.4-2.3.8-3.4.5-1.4.9-2.6 1.3-3.5s.9-1.8 1.5-2.5c1.4-1.7 3.4-2.6 5.5-2.5.8 0 1.5.5 1.8 1.2.5 1 .7 2.1.7 3.2-.1 1.3-.6 2.5-1.5 3.5-.9 1.2-2 2.3-3.2 3.3-1.1.8-2.3 1.5-3.5 2-1.1.5-2.3.8-3.5.8zm34 20.9c1.1.1 2.3 0 3.2 0 1.2-.3 2.4-.7 3.6-1.1 1.3-.5 2.5-1 3.7-1.6 1.3-.5 2.5-1.1 3.6-1.7 2.7-1.4 5.3-3 8-4.8l-3.9-9.3c-2 1.6-4 3.1-5.9 4.3-.8.6-1.7 1.1-2.5 1.6s-1.7 1-2.5 1.4c-.7.4-1.5.7-2.3 1-.6.2-1.3.3-2 .3-.3 0-.5-.2-.8-.5-.4-.5-.6-.9-.8-1.4-.3-.6-.5-1.3-.6-2s-.2-1.4-.2-2.2v-.6c0-.6.2-1.1.3-1.8s.3-1.3.4-1.8c.2-.5.3-1 .5-1.5.2-.4.3-.8.5-1.2 1.3-2.7 2.8-5.4 4.4-8.2 1.6-2.8 3.2-5.6 4.8-8.5s3.1-5.8 4.6-8.7 2.8-5.8 3.9-8.7 2-5.8 2.7-8.7c.6-2.8 1-5.7 1-8.5 0-1.1-.1-2.2-.3-3.3-.2-1-.6-2-1.1-2.9s-1.2-1.6-2.1-2.1c-1.1-.6-2.2-.8-3.4-.8-1.9 0-3.8.6-5.5 1.6-2 1.2-3.7 2.7-5.2 4.4-1.8 2.1-3.4 4.3-4.8 6.6-1.6 2.6-3 5.3-4.2 8.1-1.5 3.7-2.8 7.6-3.8 11.5l-1.9 7.2-1.3 7.2c-.8 3.8-1.2 7.6-1.3 11.5-.1 3.2.2 6.4.8 9.6.5 2.7 1.3 5.4 2.4 8 .9 2 2.1 3.9 3.6 5.5 1.1 1.3 2.7 2.1 4.4 2.1zm0-34.8c.3-3.4.8-6.9 1.4-10.3l1.2-6 1.9-6.4c.9-3.2 2-6.3 3.3-9.3.8-1.6 1.7-3.1 2.8-4.5.6-.9 1.5-1.5 2.6-1.7.2 0 .3.3.4.9s.1 1.3.1 2.2c-.3 2.9-1 5.8-1.9 8.6-.9 3.1-2.1 6.3-3.4 9.4-1.3 3.1-2.7 6.1-4.2 9.1s-2.9 5.6-4.2 8zm40.8 1l.1-.5c1.1.7 2.3 1.6 3.8 2.6 1.6 1.1 3.1 2.4 4.5 3.8 1.5 1.5 3 2.9 4.3 4.1 1.2 1 2.2 2.2 3.2 3.4l.8-6.2c-1.6-2-3.3-4.1-5.1-6.3-1.7-2.1-3.7-4-5.9-5.5-2.1-1.5-4.5-2.6-6.9-3.5-2.5-.9-5.1-1.3-7.8-1.3-3 0-6 .6-8.8 1.8-2.5 1.2-4.8 2.8-6.6 4.9-1.9 2.1-3.3 4.6-4.2 7.3-1 3.2-1.5 6.6-1.4 10 0 2.3.3 4.6.8 6.9.5 2.2 1.4 4.3 2.6 6.2 1.1 1.8 2.7 3.3 4.5 4.4 2 1.2 4.3 1.8 6.6 1.7 1.8 0 3.5-.3 5.1-.9s3.1-1.5 4.4-2.5c1.4-1 2.6-2.3 3.6-3.7s1.9-3 2.6-4.6c.8-1.6 1.3-3.3 1.7-5.1.4-1.7.6-3.4.6-5.2.1-2.2-.2-4.3-.6-6.4-.4-1.9-1-3.7-1.9-5.4zM1126.5 76c-2 .1-3.9-.9-4.9-2.7-.5-.8-.9-1.8-1.1-2.8-.2-1.2-.3-2.3-.3-3.5 0-2.3.2-4.5.7-6.6.4-1.8 1-3.6 1.9-5.3.8-1.4 1.7-2.8 2.9-3.9.9-.9 2.1-1.5 3.4-1.5.8 0 1.6.3 2.3.8s1.2 1.2 1.6 2c.4 1 .7 2 .9 3 .2 1.3.3 2.5.3 3.8 0 1.9-.2 3.9-.6 5.8-.4 1.9-.9 3.8-1.7 5.6-.7 1.4-1.5 2.7-2.5 3.8-.7.9-1.8 1.4-2.9 1.5zm42.9 0l-.4-.9c2.4-1 4.7-2.3 6.8-3.8 1.8-1.3 3.5-2.9 5-4.6 1.4-1.7 2.6-3.7 3.4-5.8.7-2 1-4.1.9-6.2.1-2.1-.3-4.3-1-6.3-.6-1.6-1.6-3-2.8-4.2-1.2-1.1-2.6-1.9-4.1-2.4-1.6-.5-3.3-.7-5-.7-4.2-.2-8.2 1.6-10.8 4.8-1.4 1.8-2.6 3.8-3.5 5.9-1 2.3-1.8 4.6-2.4 7-.5 2.2-1 4.5-1.3 6.8l-1 6.8c-2.5 4.1-4.8 8-6.8 11.8-.9 1.7-1.7 3.4-2.5 5.1-.8 1.7-1.5 3.4-2.2 5.1-.6 1.6-1.1 3.2-1.5 4.8-.4 1.3-.6 2.7-.6 4.1 0 2 .1 4 .4 6 .2 1.7.7 3.3 1.4 4.9.6 1.3 1.5 2.4 2.7 3.3 1.2.8 2.7 1.3 4.2 1.2 2.3 0 4.5-.9 6.2-2.5 2.2-2 4-4.5 5.3-7.2 1.7-3.6 2.9-7.3 3.7-11.2 1-4.8 1.4-9.7 1.4-14.6v-.8c2.5.4 4.4.7 5.8 1l3.3.6 1.5.3c.3.1.5.1.8.1 1.8 0 3.5-.3 5.2-.8s3.4-1.2 5-2.1c1.6-.8 3.1-1.8 4.4-3 1.2-1 2.4-2.2 3.4-3.5l-.5-9.7c-1.3 1.6-2.7 2.9-4.3 4.2-1.7 1.3-3.5 2.5-5.4 3.4-2.1 1-4.3 1.8-6.6 2.3-2.7.5-5.4.8-8.1.8zm-21.3 27.7c0-.6.1-1.3.1-1.9.2-.9.4-1.9.7-3.1.3-1.1.6-2.4 1-3.8.4-1.3.8-2.7 1.3-4.1s1-2.7 1.5-4c.4-1.2 1-2.3 1.6-3.4-.1.6-.1 1.3-.1 2.1l-.1 2.7c0 1.1-.1 2.4-.2 4-.1.9-.1 2-.1 3.1s0 2.3-.1 3.5c0 1.2-.1 2.4-.2 3.5 0 1.1-.2 2.1-.4 3.1-.2.8-.4 1.5-.8 2.2-.2.5-.7.8-1.2.8s-1-.2-1.4-.6-.7-.9-.9-1.4-.4-1.1-.5-1.6c-.1-.3-.2-.7-.2-1.1zm15.7-32c0-1.7.1-3.4.1-5.1.1-1.8.5-3.7 1-5.5.5-2 1-3.7 1.4-5 .3-1.2.8-2.4 1.5-3.5.5-1 1.2-1.8 2.1-2.4.9-.6 1.9-.9 2.9-.9.8 0 1.6.2 2.2.8.5.5.9 1.2 1.1 1.9.3.8.3 1.6.3 2.4 0 .7-.1 1.5-.3 2.2-.4 1.7-1 3.4-1.8 5-1.4 2.5-2.3 3.8-2.7 3.9-.9 1.3-2 2.4-3.2 3.4-1.4 1.1-3 2-4.6 2.8zm39.8 12.7c1.8 0 3.5-.2 5.3-.7 1.7-.4 3.4-.9 5-1.6 1.6-.6 3.1-1.4 4.6-2.3 1.5-.9 2.8-1.8 4.1-2.7 2.9-2.2 5.7-4.6 8.2-7.3l-5.7-5.8c-1.3 1.3-2.7 2.4-4.2 3.5-1.6 1.3-3.4 2.4-5.2 3.4-1.8 1-3.7 1.9-5.7 2.6-1.8.6-3.7 1-5.6 1-.6 0-1.1-.1-1.6-.2s-1-.3-1.4-.6c-.5-.3-.9-.7-1.3-1.2-.5-.6-.9-1.2-1.3-1.9 2.5-.7 4.9-1.6 7.1-2.9 2.1-1.1 4-2.5 5.7-4.2s3.1-3.6 4.2-5.7c1.1-1.8 1.7-3.9 1.8-6 0-1.5-.3-3.1-.9-4.5-.5-1.4-1.4-2.5-2.4-3.5-1.1-.9-2.3-1.7-3.7-2.2-1.5-.5-3-.8-4.6-.8-1.9 0-3.8.4-5.5 1.1s-3.2 1.7-4.5 2.9c-1.4 1.3-2.5 2.7-3.5 4.2-1 1.6-1.8 3.3-2.5 5-.7 1.8-1.3 3.8-1.9 6-.5 1.9-.8 3.8-.9 5.8 0 2.4.3 4.8 1 7.1.7 2.1 1.7 4.1 3.1 5.9 1.4 1.7 3.1 3.1 5.1 4.1 2.3 1 4.7 1.6 7.2 1.5zm-5.8-20.9c0-.6 0-1.4.1-2.1.1-1.2.4-2.3.8-3.4.5-1.4.9-2.6 1.3-3.5s.9-1.8 1.5-2.5c1.4-1.7 3.4-2.6 5.5-2.5.8 0 1.5.5 1.8 1.2.5 1 .7 2.1.7 3.2-.1 1.3-.6 2.5-1.5 3.5-.9 1.2-2 2.3-3.2 3.3-1.1.8-2.3 1.5-3.5 2-1.1.5-2.3.8-3.5.8zm24.2 11.7c0 1.2.1 2.3.3 3.4.1 1 .4 2 .8 2.9.4.9 1 1.6 1.7 2.1.9.6 1.9.8 2.9.8.4 0 .9-.1 1.4-.3s.9-.6 1.2-1c.4-.5.8-1.2 1.1-1.8.5-.9.9-1.8 1.2-2.8l7.9-21.9h.7c.2 1.9.5 3.7.9 5.5.4 1.7 1 3.4 1.8 4.9.8 1.4 1.9 2.6 3.2 3.5 1.6.9 3.4 1.4 5.3 1.3 1.2-.1 2.4-.2 3.6-.6 1.1-.4 2.3-.9 3.4-1.4s2.1-1.1 3.1-1.7l2.6-1.7.7-10.3c-1.3 1.1-2.6 2-4 2.9-1.3.8-2.6 1.4-3.9 2-1.3.6-2.7.9-4.1.9-.4 0-.9-.1-1.3-.3s-.8-.5-1.1-.9c-.4-.5-.6-1.1-.8-1.7-.2-.8-.3-1.7-.3-2.6 0-.8.1-1.5.2-2.3.1-.9.4-2.1.7-3.5s.6-2.6.7-3.5c.1-.7.2-1.4.2-2.1 0-.6-.1-1.2-.4-1.7-.2-.5-.5-.9-.9-1.3-.4-.3-.9-.6-1.4-.8s-1-.3-1.6-.3c-1.6 0-3.1.4-4.3 1.3-1.3.9-2.4 2-3.3 3.2-1.1 1.5-2.1 3.1-2.8 4.8-.9 1.9-1.6 3.4-2.2 4.6h-.5c-.1-1.7 0-3.5.1-5.2.1-2 .2-3.5.2-4.6 0-1-.1-1.7-.1-2.2 0-.4-.2-.8-.4-1.2-.2-.3-.5-.5-.9-.5-.6-.1-1.2-.1-1.8-.1s-1.1 0-1.7.1c-.4 0-.8.2-1.1.4s-.6.5-.8.9c-.3.4-.5 1-.7 1.5-.4 1.2-.8 2.4-1.1 3.7-.4 1.5-.9 3.4-1.4 5.6s-1 4.3-1.3 6.3c-.4 2-.7 3.9-.9 5.8-.3 1.9-.5 3.7-.6 5.4s-.2 3.2-.2 4.5zM690.8 48.5c0 1.2.3 2.4.6 3.4 1 2.1 2.7 3.7 4.8 4.5 2.3.9 4.8.9 7.1 0 1.1-.4 2.1-1 2.9-1.8.8-.8 1.4-1.7 1.9-2.7.5-1.1.7-2.2.7-3.4s-.2-2.3-.7-3.4c-.4-1.1-1.1-2-1.9-2.8-.8-.8-1.8-1.5-2.9-1.9-2.3-.9-4.8-.9-7.1 0-1 .5-2 1.1-2.8 1.9-.8.8-1.5 1.7-1.9 2.8-.5 1.1-.7 2.2-.7 3.4z"/></svg>