<svg viewBox="0 0 1422.19 325.86"><g id="Layer_2" data-name="Layer 2"><path d="M191.92 4.31a38.76 38.76 0 0 1 13 2 27.91 27.91 0 0 1 9.31 5.3 21.91 21.91 0 0 1 7.47 16.5 22.91 22.91 0 0 1-1.68 8.53 24.34 24.34 0 0 1-5.02 7.78 30.62 30.62 0 0 1-8.54 6.16 40.21 40.21 0 0 1-12.1 3.65q-.13 3.21-.22 5.9 0 1.14-.09 2.29T194 64.5v2.65a39.71 39.71 0 0 1-.73 6.39 38.14 38.14 0 0 1-1.93 6.46 35.94 35.94 0 0 1-3 6 23.21 23.21 0 0 1-4.06 5 18.64 18.64 0 0 1-5.19 3.38 15.54 15.54 0 0 1-6.27 1.25 11.45 11.45 0 0 1-6.44-1.87 17.87 17.87 0 0 1-5-5 32.49 32.49 0 0 1-3.6-7.29 63.68 63.68 0 0 1-2.4-8.63 82.43 82.43 0 0 1-1.34-9.06q-.42-4.56-.42-8.6A68.84 68.84 0 0 1 155 41.67a62.18 62.18 0 0 1 3.65-12.1 51.1 51.1 0 0 1 5.77-10.3 40.1 40.1 0 0 1 7.64-8 33.43 33.43 0 0 1 9.25-5.16 30.81 30.81 0 0 1 10.61-1.8zm-26.43 49.63v4.86q0 3.06.24 6.53.22 3.48.7 7a36.38 36.38 0 0 0 1.43 6.44 15.35 15.35 0 0 0 2.37 4.71 4.37 4.37 0 0 0 3.58 1.83 5.24 5.24 0 0 0 3.82-1.56 12.42 12.42 0 0 0 2.64-4A28.39 28.39 0 0 0 182 74.1q.62-3.15.92-6.32t.4-6.05q.09-2.88.09-4.91v-2.06a61.78 61.78 0 0 1-5.69-2.51 14 14 0 0 1-3.12-2.07 4.45 4.45 0 0 1-1.33-2.1 10.41 10.41 0 0 1-.28-2.57v-1.6a5.59 5.59 0 0 1 .24-1.4 2.5 2.5 0 0 1 .57-1 1.36 1.36 0 0 1 1-.38 1.8 1.8 0 0 1 .81.18q.37.18.94.5 1.44.82 2.61 1.35t2 .85a13.44 13.44 0 0 0 1.74.55v-2.29q0-1.71.27-3.91a37.33 37.33 0 0 1 .82-4.6 17.39 17.39 0 0 1 1.68-4.4 10.21 10.21 0 0 1 2.88-3.31 7.17 7.17 0 0 1 4.45-1.3 9 9 0 0 1 1.63.15 4.4 4.4 0 0 1 1.52.57 3.64 3.64 0 0 1 1.14 1.13 3.25 3.25 0 0 1 .46 1.81 2.62 2.62 0 0 1 0 .42 1.51 1.51 0 0 0 0 .29L195 40.56l-.39 3.52a27.11 27.11 0 0 0 7.39-2.14 18.57 18.57 0 0 0 5.15-3.47 13.19 13.19 0 0 0 3-4.41 12.9 12.9 0 0 0 1-4.94 14.68 14.68 0 0 0-.94-5.06 11.88 11.88 0 0 0-3.27-4.7 18 18 0 0 0-6.23-3.49 30.13 30.13 0 0 0-9.83-1.37 18.74 18.74 0 0 0-8.06 1.7 21.8 21.8 0 0 0-6.43 4.6 29.91 29.91 0 0 0-4.89 6.79 46.21 46.21 0 0 0-3.41 8.26 57.48 57.48 0 0 0-2 9 66.49 66.49 0 0 0-.6 9.09zm66.2 30.48a16 16 0 0 1-7.18-1.52 14.91 14.91 0 0 1-5.13-4.09 17.66 17.66 0 0 1-3.08-5.95 24.26 24.26 0 0 1-1-7.09 22.49 22.49 0 0 1 .92-5.79q.92-3.36 1.9-6a27.7 27.7 0 0 1 2.47-5 19.77 19.77 0 0 1 3.41-4.1 16 16 0 0 1 4.5-2.88 13.74 13.74 0 0 1 5.5-1 13 13 0 0 1 4.58.79 11.19 11.19 0 0 1 3.65 2.21 10 10 0 0 1 2.44 3.45 11.2 11.2 0 0 1 .88 4.52 12.83 12.83 0 0 1-1.78 6 23.93 23.93 0 0 1-4.16 5.67 26.2 26.2 0 0 1-5.66 4.21 30.64 30.64 0 0 1-7.11 2.88 13.68 13.68 0 0 0 1.3 1.93 5.87 5.87 0 0 0 1.3 1.2 4.39 4.39 0 0 0 1.39.6 6.79 6.79 0 0 0 1.57.17 16.7 16.7 0 0 0 5.56-1 36.65 36.65 0 0 0 5.69-2.63 48.35 48.35 0 0 0 5.23-3.37 44.68 44.68 0 0 0 4.12-3.5l5.67 5.76a58.55 58.55 0 0 1-8.22 7.29q-1.89 1.36-4.06 2.67a36.42 36.42 0 0 1-4.57 2.33 31 31 0 0 1-5 1.63 22.41 22.41 0 0 1-5.13.61zm-5.87-20.93a8.94 8.94 0 0 0 3.46-.79 15.69 15.69 0 0 0 3.48-2 16.66 16.66 0 0 0 3.15-3.35 6.46 6.46 0 0 0 1.54-3.48 6.24 6.24 0 0 0-.73-3.18 2.09 2.09 0 0 0-1.72-1.3 6.77 6.77 0 0 0-5.49 2.47 9.17 9.17 0 0 0-1.51 2.5q-.55 1.4-1.28 3.46a13.37 13.37 0 0 0-.82 3.39q-.08 1.33-.08 2.28zm24.26 11.75q0-2.9.35-6.7t.88-8.35q.53-4.55 1.19-8.2t1.27-6.24a6.88 6.88 0 0 1 1.87-3.38A5.13 5.13 0 0 1 259.4 41a3.6 3.6 0 0 1 3.3 1.45 7.13 7.13 0 0 1 .92 3.87 16.08 16.08 0 0 1-.13 1.78q-.13 1.12-.33 2.46t-.42 2.77q-.22 1.43-.42 3.25T262 59.3a10.41 10.41 0 0 0-.13 1.21h.88l.83-1.56a26.9 26.9 0 0 0 1.32-3.1 26.66 26.66 0 0 1 1.6-3.58q.86-1.56 1.6-3t1.36-2.53l.92-1.63a8 8 0 0 1 3.21-3.25 9 9 0 0 1 4-.88 4.06 4.06 0 0 1 3.49 1.85 8.75 8.75 0 0 1 1.3 5.1 11 11 0 0 1-.2 1.63q-.2 1.14-.51 2.72t-.67 4.1q-.37 2.5-.68 4.48t-.51 3.91a35.2 35.2 0 0 0-.2 3.56 12.53 12.53 0 0 0 .68 4.48 2.28 2.28 0 0 0 2.13 1.76 4.33 4.33 0 0 0 1.49-.4 5.71 5.71 0 0 0 1.85-.92 13.77 13.77 0 0 1 2-1.45 21.63 21.63 0 0 0 2.97-1.8q3.52-2.24 8.39-5.49v9.84l-2.2 1.67q-.26.22-4.13 2.29-5.58 3-7 3.6a41.55 41.55 0 0 1-4.26 1.76 15.05 15.05 0 0 1-4.61.7q-2.42 0-4.06-3.49t-1.65-10.22a49.85 49.85 0 0 1 .35-5.69q.35-3.05.88-6.57h-.7l-11.55 22.9a5.71 5.71 0 0 1-2 2.46 4.86 4.86 0 0 1-2.55.66 4.61 4.61 0 0 1-4.59-2.83 9.86 9.86 0 0 1-.79-2.94 28.57 28.57 0 0 1-.18-3.42zm47.67 49.46a12.26 12.26 0 0 1-3.49-1.54 7.61 7.61 0 0 1-2.59-2.88 11.12 11.12 0 0 1-1.21-4.31 17.36 17.36 0 0 1 2.55-9.8q1.67-2.9 2.31-4t2.07-3.23a36.61 36.61 0 0 1 2.92-3.76q3.08-3.47 5.08-5.56t4.77-4.5l.88-5.22q-4.92 4.65-9.58 4.65a10.58 10.58 0 0 1-6.31-2.07 13.17 13.17 0 0 1-4.33-5.14q-2.64-5.49-.13-12.83a78.38 78.38 0 0 1 4.61-11.32 27.15 27.15 0 0 1 6-7.76q5.36-4.79 10.42-4.79a4.07 4.07 0 0 1 3.34 1.29 4.47 4.47 0 0 1 .4.51 2.72 2.72 0 0 0 .37.47c.07.06.2.18.37.35a1.22 1.22 0 0 0 .48.33l.57.2a3.11 3.11 0 0 0 .79.18h2.94a3 3 0 0 1 2.72 1.19 11.38 11.38 0 0 1 .57 1.28q.53 1.37.13 9a28.35 28.35 0 0 1-1.12 5.9 39.2 39.2 0 0 0-1.3 7.81q-.31 4.29-1 11.17a28 28 0 0 0 2.72-1.84Q329 74.59 335.51 64l2.86 9.76a24.06 24.06 0 0 1-4.37 5.6 61.28 61.28 0 0 1-5.36 4.84l-.62.39q-4.22 2.73-6.11 4a4.33 4.33 0 0 0-1.63 2.86q-.44 2.07-1 7.74-.21 1.64-.32 2.52l-.5 3.94a35 35 0 0 1-.88 4.37 35.93 35.93 0 0 1-1.47 4.48 24.17 24.17 0 0 1-2.18 4.08 15.83 15.83 0 0 1-3 3.45 13.64 13.64 0 0 1-4 2.28 14.34 14.34 0 0 1-5.1.88 16 16 0 0 1-4.08-.5zm6.38-22a51 51 0 0 0-4.75 9.86q-1.45 4.17 1.49 4.17a6.05 6.05 0 0 0 1.87-.26 3.92 3.92 0 0 0 1.52-.94 9 9 0 0 0 1.23-1.47 12.77 12.77 0 0 0 1.12-2.29q.59-1.49 1.08-2.92t1.14-3.8a16 16 0 0 0 .58-2.8l.46-3.76.35-2.85a23.78 23.78 0 0 0-6.09 7.08zm-2.64-28.5a3.14 3.14 0 0 0 2.77 1.85q3 0 5-4.79a22.85 22.85 0 0 0 1.71-7.6L314.24 49q-5.1 0-9 6.86-4.18 7.29-4.57 9.89-.8 5.62.83 8.47zm31.2 11.85q0-.22.11-2.67t.48-6.53l.85-9.42q.48-5.35 1.36-11.28T337.55 44q1.19-6.23 2.83-12.14a104.07 104.07 0 0 1 3.75-11.13 50 50 0 0 1 4.73-9.14 23.3 23.3 0 0 1 5.86-6.19 12.05 12.05 0 0 1 7.09-2.28 10.54 10.54 0 0 1 3.14.51 8.54 8.54 0 0 1 3 1.67 9 9 0 0 1 2.26 3.06 11 11 0 0 1 .9 4.69 24.94 24.94 0 0 1-.84 5.94 56.75 56.75 0 0 1-2.35 7.17q-1.52 3.84-3.58 7.94t-4.5 8.22q-2.44 4.1-5.13 8.07t-5.49 7.44l-.09.7a11 11 0 0 1 1.39-.5 4 4 0 0 1 1-.12 4.14 4.14 0 0 1 1 .1 6.55 6.55 0 0 1 .68.21l.64.21a2.88 2.88 0 0 0 .8.1 26.1 26.1 0 0 0 7.69-1 29.51 29.51 0 0 0 5.63-2.3 20.69 20.69 0 0 0 4.66-3.38l-1 10.71a28.46 28.46 0 0 1-6.08 2.44 55.17 55.17 0 0 1-5.84 1.33 55.64 55.64 0 0 1-6.28.62 58.09 58.09 0 0 1 3.06 6 49 49 0 0 1 2.14 6 23.8 23.8 0 0 1 1 6.69q0 .39-.12 1.67t-.39 3.11q-.28 1.84-.78 4.08A40.49 40.49 0 0 1 357 99a31 31 0 0 1-2 4.41 18.07 18.07 0 0 1-2.69 3.77 12.58 12.58 0 0 1-3.54 2.65 9.93 9.93 0 0 1-4.53 1 7.87 7.87 0 0 1-4.19-1.1 10 10 0 0 1-3.06-3 18.17 18.17 0 0 1-2.12-4.34 34 34 0 0 1-1.33-5.24 54.53 54.53 0 0 1-.68-5.63q-.16-2.77-.16-5.45zM344.32 63q-.18 0-.4 1a18.94 18.94 0 0 0-.34 2.52l-.34 4.32-.37 4.6q-.15 1.79-.23 3.4t-.09 2.53q0 6.46.24 10.28a50.73 50.73 0 0 0 .62 5.8 6.78 6.78 0 0 0 .84 2.57 1.26 1.26 0 0 0 1 .59 2.77 2.77 0 0 0 2.41-1.36 10.19 10.19 0 0 0 1.34-3.47 29.62 29.62 0 0 0 .62-4.57q.15-2.48.16-4.77 0-1.54-.09-3.78t-.27-4.84q-.18-2.6-.73-5.87A14.43 14.43 0 0 0 347.1 67q-1-1.65-1.62-2.85T344.32 63zm11.12-46a107 107 0 0 0-4.25 11.1 85.93 85.93 0 0 0-2.29 8.55q-.76 3.73-1.09 6.56t-.63 5.24q2.82-5 5.82-9.83t5.26-9a85.85 85.85 0 0 0 3.86-8.09 17.47 17.47 0 0 0 1.6-5.57 6.78 6.78 0 0 0-.65-3.4 2.34 2.34 0 0 0-2.17-1.07q-2.4 0-3.24 1.05a30.46 30.46 0 0 0-2.22 4.46zm27.77 67.38A16 16 0 0 1 376 82.9a14.91 14.91 0 0 1-5.13-4.09 17.66 17.66 0 0 1-3.08-5.95 24.26 24.26 0 0 1-1-7.09 22.49 22.49 0 0 1 .92-5.79q.92-3.36 1.9-6a27.7 27.7 0 0 1 2.47-5 19.77 19.77 0 0 1 3.48-4.16A16 16 0 0 1 380 42a13.74 13.74 0 0 1 5.51-1 13 13 0 0 1 4.58.79 11.19 11.19 0 0 1 3.67 2.21 10 10 0 0 1 2.44 3.45 11.21 11.21 0 0 1 .88 4.52 12.83 12.83 0 0 1-1.79 6 24 24 0 0 1-4.16 5.67 26.21 26.21 0 0 1-5.66 4.21 30.63 30.63 0 0 1-7.11 2.88 13.68 13.68 0 0 0 1.3 1.93 5.87 5.87 0 0 0 1.3 1.2 4.39 4.39 0 0 0 1.39.6 6.79 6.79 0 0 0 1.57.17 16.7 16.7 0 0 0 5.56-1 36.66 36.66 0 0 0 5.69-2.63 48.31 48.31 0 0 0 5.23-3.37 44.6 44.6 0 0 0 4.17-3.46l5.67 5.76a58.53 58.53 0 0 1-8.24 7.25q-1.89 1.36-4.06 2.67a36.25 36.25 0 0 1-4.57 2.33 31 31 0 0 1-5 1.63 22.42 22.42 0 0 1-5.16.61zm-5.87-20.93a8.94 8.94 0 0 0 3.46-.79 15.69 15.69 0 0 0 3.48-2 16.64 16.64 0 0 0 3.15-3.35 6.46 6.46 0 0 0 1.57-3.49 6.25 6.25 0 0 0-.73-3.18 2.09 2.09 0 0 0-1.79-1.25 6.77 6.77 0 0 0-5.48 2.48 9.17 9.17 0 0 0-1.46 2.49q-.55 1.4-1.28 3.46a13.37 13.37 0 0 0-.82 3.39q-.1 1.33-.09 2.28zm51 11.57a39 39 0 0 1-3.93 3.1 41.86 41.86 0 0 1-5.08 3 38.7 38.7 0 0 1-5.56 2.31 17.39 17.39 0 0 1-5.38.92 10.2 10.2 0 0 1-3.85-.64A6.4 6.4 0 0 1 402 82a6.84 6.84 0 0 1-1.38-2.79 14.71 14.71 0 0 1-.42-3.63 40 40 0 0 1 .62-6.46q1.27-7.64 1.63-8.58.6-1.88 2.4-8.32 1.65-5.22 2.05-6.82a3.59 3.59 0 0 1 1.21-2 8 8 0 0 1 2-1.31 11.12 11.12 0 0 1 2.38-.76 11.51 11.51 0 0 1 2.22-.24 3.39 3.39 0 0 1 2.46.68 2.54 2.54 0 0 1 .65 1.82 11.91 11.91 0 0 1-.45 2.73l-1 4q-.58 2.26-1.71 5.81a44.36 44.36 0 0 0-1.55 6.05q-.41 2.5-1 5a18.25 18.25 0 0 0-.63 4.49 9.12 9.12 0 0 0 .44 3.14 1.74 1.74 0 0 0 1.8 1.16 7.25 7.25 0 0 0 3.52-1.1 31.29 31.29 0 0 0 3.91-2.66q2-1.56 3.87-3.23t3.34-2.86zm-19.66-46.08a7.5 7.5 0 0 1 1.87-4.72 7.91 7.91 0 0 1 2.64-1.91 9.62 9.62 0 0 1 4.11-.78 11.48 11.48 0 0 1 2.9.35 7 7 0 0 1 2.36 1.12 5.17 5.17 0 0 1 1.6 1.93 6.34 6.34 0 0 1 .59 2.84 9 9 0 0 1-.48 2.93 6.82 6.82 0 0 1-1.54 2.53 7.91 7.91 0 0 1-2.66 1.8 9.72 9.72 0 0 1-3.84.69q-3.87 0-5.71-1.84a6.61 6.61 0 0 1-1.84-4.94zm62.79-2.22a19.25 19.25 0 0 1-4.12-.8l-3.21-1-2.54-.92a6.74 6.74 0 0 0-2.08-.36A3.56 3.56 0 0 0 458 24a4.94 4.94 0 0 0-1.52 1.22 14.17 14.17 0 0 0-1.6 2.3 38.77 38.77 0 0 0-1.8 3.6 10 10 0 0 1-2.5 3.71 3.82 3.82 0 0 1-2.2 1 1.22 1.22 0 0 1-1.19-.73 4.62 4.62 0 0 1-.35-2 8.38 8.38 0 0 1 .07-1q.06-.55.15-1.14a34.81 34.81 0 0 1 2.22-8.88 18.15 18.15 0 0 1 3.29-5.35 9.68 9.68 0 0 1 3.76-2.6 11.06 11.06 0 0 1 3.65-.68 23.54 23.54 0 0 1 6 .48l3 1 3.13 1a13.21 13.21 0 0 0 3.79.56h5.75q4 0 6.35-.07t3.6-.14q1.25-.07 1.69-.14a4.61 4.61 0 0 1 .62-.07 3 3 0 0 1 2.66 1.19 5.65 5.65 0 0 1 .81 3.23 11.34 11.34 0 0 1-.09 1.37q-.09.72-.22 1.5a3.71 3.71 0 0 1-.64.81 7.44 7.44 0 0 1-1.82 1.29q-5.1 5-9.38 10.05t-7.78 9.74q-3.49 4.7-6.23 8.88t-4.71 7.43q-2 3.26-3.23 5.39a29.53 29.53 0 0 1-1.78 2.8l-.22 1a7 7 0 0 1 .73.35q.68.36 1.8.87l2.5 1.13q1.38.62 2.84 1.13t2.82.87a9.77 9.77 0 0 0 2.42.35 24.64 24.64 0 0 0 6.37-.75 30.53 30.53 0 0 0 5.12-1.84 34.64 34.64 0 0 0 4.12-2.22q1.87-1.22 3.49-2.15a3.26 3.26 0 0 1 1.93-.71 3.63 3.63 0 0 1 1.87.53 6.18 6.18 0 0 1 1.6 1.38 7 7 0 0 1 1.12 1.89 5.44 5.44 0 0 1 .42 2 3.37 3.37 0 0 1-.79 2.33 49 49 0 0 1-4.24 3 50.68 50.68 0 0 1-6 3.22 47.6 47.6 0 0 1-7 2.58 27.62 27.62 0 0 1-7.56 1.06 10.67 10.67 0 0 1-2.07-.34q-1.45-.34-3.87-1.15t-5.8-2.14q-3.38-1.32-7.82-3.29a15.14 15.14 0 0 1-4.46 2.71 11.86 11.86 0 0 1-4.07.82 6 6 0 0 1-3.75-1.22 3.91 3.91 0 0 1-1.47-3.23 8.86 8.86 0 0 1 1.12-3.9 19 19 0 0 1 3.76-4.78l32.27-42.5H474.37q-1.45.1-2.9-.02zm40.22 30.85q1.8-2.44 4-5.24a72.91 72.91 0 0 1 6-6.46 47.34 47.34 0 0 1 6.15-5.26 8.2 8.2 0 0 1 4.5-1.6 4.11 4.11 0 0 1 1.19.2 3.32 3.32 0 0 1 1.25.74 4.08 4.08 0 0 1 1 1.5 6.61 6.61 0 0 1 .4 2.48 21.26 21.26 0 0 1-.83 5.93 34.23 34.23 0 0 1-3.16 7 32.16 32.16 0 0 0-3.12 7.14 23.87 23.87 0 0 0-.81 6.27 6.56 6.56 0 0 0 .53 2.87q.53 1.08 1.36 1.07a6.41 6.41 0 0 0 2.24-.44 14.59 14.59 0 0 0 2.37-1.15 21.36 21.36 0 0 0 2.33-1.62q1.14-.91 2.15-1.89A50.47 50.47 0 0 0 544 64l.75 11.7-2 1.44q-1.21.87-2.68 1.84t-3.19 2a35.28 35.28 0 0 1-3.45 1.75 27.08 27.08 0 0 1-3.47 1.26 12.09 12.09 0 0 1-3.32.5 7.46 7.46 0 0 1-4.29-1.24 10.18 10.18 0 0 1-3-3.14 15.18 15.18 0 0 1-1.75-4.17 17.09 17.09 0 0 1-.6-4.34 14.75 14.75 0 0 1 .39-3.17q.39-1.75 1-3.53t1.28-3.46q.71-1.69 1.33-3t1-2.19a6.05 6.05 0 0 1 .59-1l-.92-.13a16.54 16.54 0 0 0-2.53 2.43q-1.78 2-4 4.93t-4.64 6.69a74.77 74.77 0 0 0-4.33 7.67q-1 2-1.58 3.41a14.24 14.24 0 0 1-1.21 2.34 4.58 4.58 0 0 1-1.3 1.34 3.26 3.26 0 0 1-1.8.45 3.2 3.2 0 0 1-2.29-.78 5 5 0 0 1-1.27-2.08 12.27 12.27 0 0 1-.57-3q-.13-1.65-.13-3.39 0-3 .07-7.9t.42-10.83q.35-5.94 1.28-12.32l1.85-12.68a74.85 74.85 0 0 1 2.75-12 47.25 47.25 0 0 1 4.45-10A23.08 23.08 0 0 1 513 2.55 13.44 13.44 0 0 1 521.09 0a9.25 9.25 0 0 1 3.91.71 6 6 0 0 1 2.42 2 7.94 7.94 0 0 1 1.25 3.07 20.84 20.84 0 0 1 .35 4 32.59 32.59 0 0 1-.92 7.28 77.45 77.45 0 0 1-2.44 8.3q-1.51 4.31-3.45 8.72t-4 8.57q-2 4.15-4 7.83l-3.4 6.52zm3.9-27.65a102.06 102.06 0 0 0 3.76-11.34 31.19 31.19 0 0 0 1.17-6.81q0-3.34-.94-3.34-1.14 0-3.38 3.73A93 93 0 0 0 510.92 23q-.75 2.42-1.38 5t-1 5.18l-.73 5.08-.7 4.74q-1 5.22-1.48 10.21 1.19-2.77 2.6-6t2.77-6.45l2.58-6q1.21-2.86 2.01-4.84zm43 54.49a16 16 0 0 1-7.18-1.52 14.9 14.9 0 0 1-5.13-4.09 17.67 17.67 0 0 1-3.08-5.95 24.27 24.27 0 0 1-1-7.09 22.49 22.49 0 0 1 .9-5.76q.92-3.36 1.9-6a27.73 27.73 0 0 1 2.47-5 19.79 19.79 0 0 1 3.48-4.16 16 16 0 0 1 4.46-2.84 13.74 13.74 0 0 1 5.48-1 13 13 0 0 1 4.58.79 11.19 11.19 0 0 1 3.67 2.21 10 10 0 0 1 2.44 3.45 11.21 11.21 0 0 1 .88 4.52 12.83 12.83 0 0 1-1.78 6 23.94 23.94 0 0 1-4.16 5.67 26.21 26.21 0 0 1-5.66 4.21 30.64 30.64 0 0 1-7.11 2.88A13.68 13.68 0 0 0 555 72.6a5.87 5.87 0 0 0 1.3 1.2 4.39 4.39 0 0 0 1.39.6 6.8 6.8 0 0 0 1.57.17 16.7 16.7 0 0 0 5.56-1 36.62 36.62 0 0 0 5.73-2.57 48.3 48.3 0 0 0 5.23-3.37 44.62 44.62 0 0 0 4.22-3.5l5.67 5.76a58.53 58.53 0 0 1-8.22 7.29q-1.89 1.36-4.06 2.67a36.38 36.38 0 0 1-4.57 2.33 31 31 0 0 1-5 1.63 22.41 22.41 0 0 1-5.22.61zm-5.87-20.93a8.94 8.94 0 0 0 3.46-.79 15.67 15.67 0 0 0 3.48-2 16.66 16.66 0 0 0 3.15-3.35 6.46 6.46 0 0 0 1.54-3.48 6.25 6.25 0 0 0-.73-3.18 2.09 2.09 0 0 0-1.79-1.25 6.76 6.76 0 0 0-5.49 2.47 9.16 9.16 0 0 0-1.46 2.49q-.55 1.4-1.28 3.46a13.35 13.35 0 0 0-.82 3.39q-.05 1.3-.05 2.25zM577 75.23q0-2.9.35-6.7t.88-8.35q.53-4.55 1.19-8.2t1.27-6.24a6.89 6.89 0 0 1 1.87-3.38 5.13 5.13 0 0 1 3.75-1.36 3.6 3.6 0 0 1 3.3 1.45 7.13 7.13 0 0 1 .92 3.87 16.08 16.08 0 0 1-.13 1.78q-.13 1.12-.33 2.46t-.42 2.77q-.22 1.43-.42 3.25t-.33 2.72a10.41 10.41 0 0 0-.13 1.21h.88l.83-1.56a26.72 26.72 0 0 0 1.32-3.1 26.54 26.54 0 0 1 1.6-3.58q.86-1.56 1.6-3t1.36-2.53l.92-1.63a8 8 0 0 1 3.21-3.25 9 9 0 0 1 4-.88 4.06 4.06 0 0 1 3.51 1.87 8.76 8.76 0 0 1 1.3 5.1 10.89 10.89 0 0 1-.2 1.63q-.2 1.14-.5 2.72t-.68 4.09q-.37 2.5-.68 4.48t-.51 3.91a35.48 35.48 0 0 0-.2 3.56 12.52 12.52 0 0 0 .68 4.48 2.28 2.28 0 0 0 2.13 1.76 4.33 4.33 0 0 0 1.49-.4 5.71 5.71 0 0 0 1.85-.92 13.8 13.8 0 0 1 2-1.45 21.63 21.63 0 0 0 2.96-1.81q3.52-2.24 8.39-5.49v9.84l-2.2 1.67q-.26.22-4.13 2.29-5.58 3-7 3.6a41.5 41.5 0 0 1-4.26 1.76 15 15 0 0 1-4.61.7q-2.42 0-4.06-3.49t-1.65-10.22a50 50 0 0 1 .35-5.69q.35-3.05.88-6.57h-.7L587.1 81.3a5.71 5.71 0 0 1-2 2.46 4.86 4.86 0 0 1-2.55.66 5 5 0 0 1-2.9-.77 5 5 0 0 1-1.65-2.07 9.92 9.92 0 0 1-.79-2.94 28.78 28.78 0 0 1-.21-3.41zm47.67 49.46a12.27 12.27 0 0 1-3.49-1.54 7.61 7.61 0 0 1-2.59-2.88 11.13 11.13 0 0 1-1.21-4.31 17.37 17.37 0 0 1 2.55-9.8q1.67-2.9 2.31-4t2.07-3.23a36.61 36.61 0 0 1 2.92-3.76q3.08-3.47 5.08-5.56t4.77-4.5l.88-5.22q-4.92 4.65-9.58 4.65a10.58 10.58 0 0 1-6.38-2.1 13.17 13.17 0 0 1-4.33-5.14q-2.64-5.49-.13-12.83a78.49 78.49 0 0 1 4.61-11.32 27.16 27.16 0 0 1 6-7.76q5.36-4.79 10.42-4.79a4.07 4.07 0 0 1 3.43 1.29 4.47 4.47 0 0 1 .4.51 2.73 2.73 0 0 0 .37.47l.37.35a1.23 1.23 0 0 0 .48.33l.57.2a3.12 3.12 0 0 0 .79.18h2.94a3 3 0 0 1 2.72 1.19 11.29 11.29 0 0 1 .57 1.28q.53 1.37.13 9a28.34 28.34 0 0 1-1.12 5.9 39.24 39.24 0 0 0-1.3 7.81q-.31 4.29-1 11.17a28 28 0 0 0 2.72-1.84q5.19-3.9 11.73-14.51l2.86 9.76a24 24 0 0 1-4.35 5.62 61.21 61.21 0 0 1-5.36 4.84l-.62.39q-4.22 2.73-6.11 4a4.33 4.33 0 0 0-1.63 2.86q-.44 2.07-1 7.74-.21 1.64-.32 2.52l-.5 3.94a35 35 0 0 1-.88 4.37 35.77 35.77 0 0 1-1.47 4.48 24.1 24.1 0 0 1-2.17 4.08 15.83 15.83 0 0 1-3 3.45 13.63 13.63 0 0 1-4 2.28 14.34 14.34 0 0 1-5.1.88 16 16 0 0 1-4.06-.45zm6.38-22a51.09 51.09 0 0 0-4.75 9.86q-1.45 4.17 1.49 4.17a6 6 0 0 0 1.87-.26 3.92 3.92 0 0 0 1.52-.94 9 9 0 0 0 1.23-1.47 12.7 12.7 0 0 0 1.12-2.29q.59-1.49 1.08-2.92t1.14-3.8a16 16 0 0 0 .58-2.8l.46-3.76.35-2.85a23.77 23.77 0 0 0-6.14 7.09zm-2.64-28.5a3.14 3.14 0 0 0 2.77 1.85q3 0 5-4.79a22.85 22.85 0 0 0 1.71-7.6L641.15 49q-5.1 0-9 6.86-4.17 7.29-4.57 9.89-.8 5.62.83 8.47zm138-57.5a20.85 20.85 0 0 1-.72 4.49q-.73 3-1.82 6.86t-2.37 8.44q-1.27 4.56-2.37 9.25T757.32 55a53.65 53.65 0 0 0-.72 8.42 39.31 39.31 0 0 0 .42 5.92 19.36 19.36 0 0 0 1.3 4.78 8.85 8.85 0 0 0 2.2 3.19 4.56 4.56 0 0 0 3.12 1.16 6.45 6.45 0 0 0 3.5-1.07 14.47 14.47 0 0 0 3.28-2.95 28.48 28.48 0 0 0 3-4.47q1.45-2.59 2.79-5.61t2.54-6.37q1.19-3.33 2.24-6.73A248.5 248.5 0 0 0 787.55 24a21.53 21.53 0 0 1 1.26-4.11 8.26 8.26 0 0 1 1.75-2.64 5.71 5.71 0 0 1 2.37-1.39 11 11 0 0 1 3.12-.4 10.26 10.26 0 0 1 2.75.31 4.69 4.69 0 0 1 1.71.83 2.88 2.88 0 0 1 .9 1.27 5 5 0 0 1 .26 1.67q0 .31-.35 2.57l-.9 5.8q-.55 3.54-1.19 8t-1.19 9.21q-.55 4.72-.9 9.34T796.8 63q0 4 .28 7.14a27.36 27.36 0 0 0 1 5.43 8.75 8.75 0 0 0 1.74 3.43 3.54 3.54 0 0 0 2.71 1.19 7.21 7.21 0 0 0 5.1-2.2 22.16 22.16 0 0 0 4.2-5.87 52.44 52.44 0 0 0 3.41-8.5 115.46 115.46 0 0 0 3-12.61l1.47-7.77 1-8.47 1.4-11.62.6-4.93a6.77 6.77 0 0 1 .88-3.12 5.26 5.26 0 0 1 1.89-1.83 7.4 7.4 0 0 1 2.6-.86 21 21 0 0 1 3-.21 9.87 9.87 0 0 1 2.17.22 4.36 4.36 0 0 1 1.7.77 3.47 3.47 0 0 1 1.1 1.45 6 6 0 0 1 .38 2.32 55.14 55.14 0 0 1-.75 8.59q-.74 4.69-1.89 9.41a53 53 0 0 0-1.42 9.28 30.52 30.52 0 0 1-1.83 8.76 51.43 51.43 0 0 0-2.13 7 22.5 22.5 0 0 0-.57 3.57 11.66 11.66 0 0 0 .48 3.59 7.28 7.28 0 0 0 1.3 2.45 4.7 4.7 0 0 0 1.93 1.4 6.61 6.61 0 0 0 2.39.43 6.44 6.44 0 0 0 2.62-.59 10.46 10.46 0 0 0 2.57-1.65 13.54 13.54 0 0 0 2.26-2.53 15.49 15.49 0 0 0 1.74-3.27l.75 9a29.68 29.68 0 0 1-6.7 5.46 13 13 0 0 1-6.48 2 8.48 8.48 0 0 1-2.72-.43 6.3 6.3 0 0 1-2.26-1.32 7.11 7.11 0 0 1-1.64-2.32 11.85 11.85 0 0 1-.92-3.38 48.66 48.66 0 0 1-4.71 6.73 32.17 32.17 0 0 1-5.34 5.11 23.57 23.57 0 0 1-5.91 3.26 18.17 18.17 0 0 1-6.37 1.15 11.4 11.4 0 0 1-7.07-2.2 16 16 0 0 1-4.73-6 32.6 32.6 0 0 1-2.65-8.88 67.4 67.4 0 0 1-.83-10.85 33.52 33.52 0 0 1 .22-4q.22-1.85.35-3.3a95.53 95.53 0 0 1-4 16.77 37.93 37.93 0 0 1-5.62 10.83 18.58 18.58 0 0 1-7.38 5.82 23.65 23.65 0 0 1-9.21 1.74 9.29 9.29 0 0 1-5.54-1.91 16.22 16.22 0 0 1-4.61-5.68 36.6 36.6 0 0 1-3.21-9.47 64.52 64.52 0 0 1-1.21-13.29 89.33 89.33 0 0 1 .53-9.56q.53-4.9 1.52-9.82t2.44-9.76q1.45-4.83 3.3-9.4a18.91 18.91 0 0 1 2.2-4 8.29 8.29 0 0 1 2.24-2.11 5.75 5.75 0 0 1 2.31-.81 20.89 20.89 0 0 1 2.35-.13 10.57 10.57 0 0 1 1.76.13 3 3 0 0 1 1.34.56 2.62 2.62 0 0 1 .84 1.21 6.39 6.39 0 0 1 .27 2.17zM853 84.42a16 16 0 0 1-7.18-1.52 14.9 14.9 0 0 1-5.13-4.09 17.67 17.67 0 0 1-3.08-5.95 24.27 24.27 0 0 1-1-7.09 22.49 22.49 0 0 1 .92-5.79q.92-3.36 1.9-6a27.73 27.73 0 0 1 2.47-5 19.79 19.79 0 0 1 3.48-4.16 16 16 0 0 1 4.46-2.82 13.74 13.74 0 0 1 5.49-1 13 13 0 0 1 4.58.79 11.19 11.19 0 0 1 3.67 2.21 10 10 0 0 1 2.42 3.41 11.21 11.21 0 0 1 .88 4.52 12.83 12.83 0 0 1-1.78 6 23.94 23.94 0 0 1-4.1 5.64 26.21 26.21 0 0 1-5.66 4.21 30.64 30.64 0 0 1-7.11 2.88 13.68 13.68 0 0 0 1.3 1.93 5.87 5.87 0 0 0 1.3 1.2 4.39 4.39 0 0 0 1.39.6 6.8 6.8 0 0 0 1.57.17 16.7 16.7 0 0 0 5.56-1A36.62 36.62 0 0 0 865 71a48.3 48.3 0 0 0 5.23-3.37 44.62 44.62 0 0 0 4.17-3.46l5.67 5.76a58.53 58.53 0 0 1-8.22 7.29q-1.89 1.36-4.06 2.67a36.38 36.38 0 0 1-4.57 2.33 31 31 0 0 1-5 1.63 22.41 22.41 0 0 1-5.22.57zm-5.87-20.93a8.94 8.94 0 0 0 3.46-.79 15.67 15.67 0 0 0 3.48-2 16.66 16.66 0 0 0 3.15-3.35 6.46 6.46 0 0 0 1.54-3.48 6.25 6.25 0 0 0-.73-3.18 2.09 2.09 0 0 0-1.79-1.25 6.76 6.76 0 0 0-5.49 2.47 9.16 9.16 0 0 0-1.46 2.49q-.55 1.4-1.28 3.46a13.35 13.35 0 0 0-.82 3.39q-.02 1.29-.02 2.24zm38.5-14.57a43.63 43.63 0 0 1 4.5-4.86 6.15 6.15 0 0 1 4.07-1.84 9.29 9.29 0 0 1 4.61 1.13 10.92 10.92 0 0 1 3.43 3 13.85 13.85 0 0 1 2.15 4.3 17.24 17.24 0 0 1 .75 5.09q0 2.26-.18 4.27a27.07 27.07 0 0 1-.64 3.94 24 24 0 0 1-1.28 3.83 26.3 26.3 0 0 1-2.04 3.95q1.58-.93 3.21-1.81t3.23-1.92q1.65-1.06 3.32-2.37a36.88 36.88 0 0 0 3.43-3.08l3.38 7.3a43.57 43.57 0 0 1-4.81 3.84 37.65 37.65 0 0 1-4.92 2.85 41.53 41.53 0 0 1-5.27 2.1q-2.75.88-5.82 1.59a9.86 9.86 0 0 1-2 1.49q-1.3.75-2.57 1.36-1.45.7-3.12 1.36h-1.1a70.12 70.12 0 0 1-7.44-.18 33 33 0 0 1-6.71-2.26q-2.51-1.63-4.84-3.34.13-3.56.53-8 .31-3.91.93-9.54.89-8.3 1.69-12.17.4-4.35 1.07-9.62L875 29.16A72.63 72.63 0 0 1 877.82 18a61.08 61.08 0 0 1 4-9.12 25.36 25.36 0 0 1 4.75-6.42A8 8 0 0 1 892.08 0a10.87 10.87 0 0 1 5.36 1.14 8 8 0 0 1 3.12 3.1A12.73 12.73 0 0 1 902 8.88a42.61 42.61 0 0 1 .35 5.62 25.75 25.75 0 0 1-1.56 8.58 54.48 54.48 0 0 1-4.06 8.83 87.06 87.06 0 0 1-5.6 8.61q-3.1 4.2-6.17 7.93zm4 3.15a7.89 7.89 0 0 0-3.08.65 8.65 8.65 0 0 0-2.86 2 12.91 12.91 0 0 0-2.33 3.5q-2 4.15-1.5 5.09 0 .09-.61 5.28-.24 2-.4 3.49-.22 1.77-.38 3.32 1.45.44 2.9.75a7.45 7.45 0 0 0 2.68 0 17.38 17.38 0 0 1 2.68-.22 4.55 4.55 0 0 0 2.72-.89 8.76 8.76 0 0 0 2.2-2.37 16.91 16.91 0 0 0 1.67-3.39 28.72 28.72 0 0 0 1.14-4 40.58 40.58 0 0 0 .66-4.07 34.29 34.29 0 0 0 .22-3.7 8.89 8.89 0 0 0-.24-2.1 4.2 4.2 0 0 0-.88-1.75 4.55 4.55 0 0 0-1.76-1.22 7.46 7.46 0 0 0-2.85-.36zM893.92 12c0-.12 0-.37-.07-.75a4.82 4.82 0 0 0-.3-1.19 3.57 3.57 0 0 0-.67-1.1 1.51 1.51 0 0 0-1.18-.48q-.87 0-1.81 1.25a16.78 16.78 0 0 0-1.89 3.39 51.2 51.2 0 0 0-1.74 4.88q-.87 2.79-1.7 5.85t-1.49 6.24l-1.25 6-1.07 5.16-.75 3.85q1.18-2.29 2.64-4.76t2.95-5.12q1.48-2.66 2.9-5.45t2.51-5.71a48.75 48.75 0 0 0 1.92-5.93 34.75 34.75 0 0 0 1-6.13zm93.88 63.27a74.24 74.24 0 0 1-6.15 4.57q-1.28.84-2.68 1.66T976.2 83a21.27 21.27 0 0 1-2.65 1 8 8 0 0 1-2.35.4 9.26 9.26 0 0 1-1.87-.28 9.57 9.57 0 0 1-2.7-1.14 12.67 12.67 0 0 1-2.92-2.5 14.54 14.54 0 0 1-2.54-4.34 43.67 43.67 0 0 1-3.46 3.2 26.62 26.62 0 0 1-3.79 2.64 22.45 22.45 0 0 1-4 1.8 12.55 12.55 0 0 1-4 .68 9.82 9.82 0 0 1-4.92-1.23 10.6 10.6 0 0 1-3.47-3.16 14.22 14.22 0 0 1-2.06-4.48 19.6 19.6 0 0 1-.68-5.18 24 24 0 0 1 .72-5.78 27.07 27.07 0 0 1 2.07-5.63q1.39-2.74 3.08-5.73a21.06 21.06 0 0 1 4.48-5.44 21.36 21.36 0 0 1 5.74-3.7 21 21 0 0 1 6.28-1.56 46.42 46.42 0 0 1 1.21-10.06l2.33-9.36a50.67 50.67 0 0 1 3.21-9.23 39.71 39.71 0 0 1 4.31-7.29 20.47 20.47 0 0 1 5-4.81A9.88 9.88 0 0 1 978.69 0a5.73 5.73 0 0 1 3.52 1.08A8 8 0 0 1 984.56 4a14.49 14.49 0 0 1 1.3 4.14 29.33 29.33 0 0 1 .4 4.86v3.22A39.21 39.21 0 0 1 984.28 28l-3.6 10.75a89.33 89.33 0 0 1-4.29 10.51q-3.84 8-4.89 10.8-.23.62-.46 1.51t-.43 1.93q-.21 1-.34 2.13a16.82 16.82 0 0 0-.14 2.11 19.07 19.07 0 0 0 .15 2.44 9.22 9.22 0 0 0 .49 2.07 3.69 3.69 0 0 0 .92 1.44 2 2 0 0 0 1.43.53 5.74 5.74 0 0 0 1.82-.33 14.3 14.3 0 0 0 2.09-.91q1.1-.58 2.22-1.31t2.18-1.49q2.42-1.77 5.05-4zm-30.46-26a17.46 17.46 0 0 0-8.94 9.88q-1.51 3.81-2.31 6.56a18.11 18.11 0 0 0-.79 5 5 5 0 0 0 .2 1.38 3 3 0 0 0 .73 1.24 3.8 3.8 0 0 0 1.49.89 7.61 7.61 0 0 0 2.5.34 3.73 3.73 0 0 0 1.56-.35 7 7 0 0 0 1.47-.92 10.93 10.93 0 0 0 1.34-1.29 14.77 14.77 0 0 0 1.17-1.5 25.54 25.54 0 0 0 2.24-4.03 15.14 15.14 0 0 1-.22-2q-.09-1.35-.13-4.12t-.09-4.54q0-1.77-.07-3.23t-.07-2.39a2.92 2.92 0 0 0-.08-.87zm20.73-30q.27-3.08.27-4.88a8.8 8.8 0 0 0-.42-3.3 1.34 1.34 0 0 0-1.23-.92A3.21 3.21 0 0 0 974.1 12a15.16 15.16 0 0 0-1.87 4.59l-1.54 6.11a52.11 52.11 0 0 0-1.21 6.46q-.38 3.16-.61 5.7t-.33 3.61q-.19 2.18-.31 4.21t-.17 3.7V51.66q2.44-5.85 4.5-11.66.86-2.48 1.7-5.16l1.66-5.34q.82-2.65 1.39-5.24a42.18 42.18 0 0 0 .76-4.92zm22 65.08a16 16 0 0 1-7.18-1.52 14.9 14.9 0 0 1-5.13-4.09 17.67 17.67 0 0 1-3.08-5.95 24.27 24.27 0 0 1-1-7.09 22.49 22.49 0 0 1 .92-5.79q.92-3.36 1.9-6a27.73 27.73 0 0 1 2.47-5 19.79 19.79 0 0 1 3.48-4.16 16 16 0 0 1 4.43-2.75 13.74 13.74 0 0 1 5.49-1.06 13 13 0 0 1 4.58.79 11.19 11.19 0 0 1 3.67 2.22 10 10 0 0 1 2.44 3.45 11.21 11.21 0 0 1 .88 4.52 12.83 12.83 0 0 1-1.78 6 23.94 23.94 0 0 1-4.16 5.67 26.21 26.21 0 0 1-5.66 4.21 30.64 30.64 0 0 1-7.11 2.88 13.68 13.68 0 0 0 1.3 1.93 5.87 5.87 0 0 0 1.3 1.2 4.39 4.39 0 0 0 1.39.6 6.8 6.8 0 0 0 1.57.17 16.7 16.7 0 0 0 5.56-1A36.62 36.62 0 0 0 1012 71a48.3 48.3 0 0 0 5.23-3.37 44.62 44.62 0 0 0 4.17-3.46l5.67 5.76a58.53 58.53 0 0 1-8.22 7.29q-1.89 1.36-4.06 2.67a36.38 36.38 0 0 1-4.57 2.33 31 31 0 0 1-5 1.63 22.41 22.41 0 0 1-5.15.57zm-5.87-20.93a8.94 8.94 0 0 0 3.46-.79 15.67 15.67 0 0 0 3.48-2 16.66 16.66 0 0 0 3.15-3.35 6.46 6.46 0 0 0 1.54-3.48 6.25 6.25 0 0 0-.73-3.18 2.09 2.09 0 0 0-1.79-1.25 6.76 6.76 0 0 0-5.49 2.47 9.16 9.16 0 0 0-1.46 2.49q-.55 1.4-1.28 3.46a13.35 13.35 0 0 0-.82 3.39q-.05 1.36-.05 2.31zm24.27 6.69q-.14-3.3-.27-5.73T1018 60q-.11-2-.15-3.65t0-3.43a54.7 54.7 0 0 1 .44-8.37q.44-2.53 1.94-2.75l5.6-.83.42-.09h.47a2 2 0 0 1 1.74.88 3.64 3.64 0 0 1 .65 2l-.83 29.14h.3l12-29.31a3 3 0 0 1 .57-1.19 4 4 0 0 1 1.14-1 7.18 7.18 0 0 1 1.56-.68 6.17 6.17 0 0 1 1.82-.26 7.22 7.22 0 0 1 4.09 1 3.1 3.1 0 0 1 1.54 2.66 7.59 7.59 0 0 1-.35 2.33 12.24 12.24 0 0 1-.88 2.42q-1.14 2.24-1.41 2.86-2 4.75-2.24 5.49t-.53 1.63a14 14 0 0 0-.37 1.69 12 12 0 0 0-.15 2 8.15 8.15 0 0 0 .26 2.07 4.78 4.78 0 0 0 .92 1.82 4.54 4.54 0 0 0 1.8 1.3 7.62 7.62 0 0 0 2.94.48 8.53 8.53 0 0 0 3.05-.68 24.91 24.91 0 0 0 3.27-1.56q1.8-1 3.69-2.29V74a29.52 29.52 0 0 1-6 2.94 17.68 17.68 0 0 1-5.91 1.1 11.65 11.65 0 0 1-4.24-.73 9.54 9.54 0 0 1-3.16-2 9.21 9.21 0 0 1-2-2.77 7.94 7.94 0 0 1-.77-3.21q-1.27 2.64-2.9 5.41a47.26 47.26 0 0 1-3.36 5 23.85 23.85 0 0 1-3.44 3.67 5.06 5.06 0 0 1-3.11 1.43 6.25 6.25 0 0 1-4.22-1.3 7.79 7.79 0 0 1-2.23-3.27 16.84 16.84 0 0 1-.94-4.31q-.21-2.33-.35-4.44zm52.62 14.24a16 16 0 0 1-7.18-1.52 14.9 14.9 0 0 1-5.13-4.09 17.67 17.67 0 0 1-3.08-5.95 24.27 24.27 0 0 1-1-7.09 22.49 22.49 0 0 1 .92-5.79q.92-3.36 1.9-6a27.73 27.73 0 0 1 2.47-5 19.79 19.79 0 0 1 3.48-4.16 16 16 0 0 1 4.43-2.75 13.74 13.74 0 0 1 5.49-1.06 13 13 0 0 1 4.58.79 11.19 11.19 0 0 1 3.67 2.22 10 10 0 0 1 2.44 3.45 11.21 11.21 0 0 1 .88 4.52 12.83 12.83 0 0 1-1.78 6 23.94 23.94 0 0 1-4.16 5.67 26.21 26.21 0 0 1-5.66 4.21 30.64 30.64 0 0 1-7.11 2.88 13.68 13.68 0 0 0 1.3 1.93 5.87 5.87 0 0 0 1.3 1.2 4.39 4.39 0 0 0 1.39.6 6.8 6.8 0 0 0 1.57.17 16.7 16.7 0 0 0 5.56-1A36.62 36.62 0 0 0 1083 71a48.3 48.3 0 0 0 5.23-3.37 44.62 44.62 0 0 0 4.17-3.46l5.67 5.76a58.53 58.53 0 0 1-8.22 7.29q-1.89 1.36-4.06 2.67a36.38 36.38 0 0 1-4.57 2.33 31 31 0 0 1-5 1.63 22.41 22.41 0 0 1-5.13.57zm-5.87-20.93a8.94 8.94 0 0 0 3.46-.79 15.67 15.67 0 0 0 3.48-2 16.66 16.66 0 0 0 3.15-3.35 6.46 6.46 0 0 0 1.54-3.48 6.25 6.25 0 0 0-.73-3.18 2.09 2.09 0 0 0-1.79-1.25 6.76 6.76 0 0 0-5.49 2.47 9.16 9.16 0 0 0-1.46 2.49q-.55 1.4-1.28 3.46a13.35 13.35 0 0 0-.82 3.39q-.06 1.36-.06 2.31zm34 20.93a6.12 6.12 0 0 1-4.4-2.05 17.94 17.94 0 0 1-3.55-5.51 37.2 37.2 0 0 1-2.36-8 52 52 0 0 1-.85-9.58 69.92 69.92 0 0 1 1.27-11.51l1.27-7.2 1.92-7.19a80.28 80.28 0 0 1 3.85-11.54 75 75 0 0 1 4.19-8.12 44 44 0 0 1 4.75-6.58 22 22 0 0 1 5.19-4.41 10.7 10.7 0 0 1 5.5-1.6 6.57 6.57 0 0 1 3.36.78 5.77 5.77 0 0 1 2.08 2.05 8.85 8.85 0 0 1 1.07 2.89 17.5 17.5 0 0 1 .31 3.29 38 38 0 0 1-1 8.46 63.89 63.89 0 0 1-2.65 8.66q-1.67 4.35-3.86 8.73t-4.57 8.68q-2.38 4.31-4.77 8.49t-4.43 8.16a9.51 9.51 0 0 0-.46 1.15q-.24.71-.46 1.53t-.44 1.75q-.22.93-.35 1.82v.62a10.2 10.2 0 0 0 .24 2.24 12.15 12.15 0 0 0 .6 2 5.8 5.8 0 0 0 .75 1.37q.4.51.75.51a6.5 6.5 0 0 0 2-.35 18.14 18.14 0 0 0 2.34-1q1.24-.6 2.54-1.37t2.52-1.57q2.83-1.86 5.94-4.3l3.88 9.26q-4 2.67-8 4.76-1.72.88-3.55 1.73t-3.68 1.6a30.18 30.18 0 0 1-3.62 1.07 15.07 15.07 0 0 1-3.3.35zm0-34.84q2-3.55 4.21-8t4.21-9.13q2-4.7 3.44-9.37a44.07 44.07 0 0 0 1.92-8.61q0-1.29-.06-2.19t-.4-.91a3.73 3.73 0 0 0-2.6 1.67 22.62 22.62 0 0 0-2.79 4.52 67.37 67.37 0 0 0-3.33 9.27l-1.94 6.42-1.18 6a73.65 73.65 0 0 0-1.42 10.4zm40.83 1a23.58 23.58 0 0 1 1.91 5.38 29.32 29.32 0 0 1 .64 6.39 24.64 24.64 0 0 1-.57 5.23 27 27 0 0 1-1.65 5.1 24.82 24.82 0 0 1-2.64 4.61 18.81 18.81 0 0 1-3.56 3.74 16.85 16.85 0 0 1-4.37 2.5 13.82 13.82 0 0 1-5.05.92 12.36 12.36 0 0 1-6.61-1.69 14.08 14.08 0 0 1-4.5-4.42 19.59 19.59 0 0 1-2.57-6.15 30 30 0 0 1-.81-6.94 30.71 30.71 0 0 1 1.45-10 21.77 21.77 0 0 1 4.15-7.29 19.2 19.2 0 0 1 6.61-4.88 21 21 0 0 1 8.79-1.78 23.2 23.2 0 0 1 7.82 1.3A29.74 29.74 0 0 1 1146 46a29.17 29.17 0 0 1 5.93 5.47q2.75 3.3 5.12 6.28l-.83 6.2a25.55 25.55 0 0 0-3.21-3.43q-2-1.85-4.28-4.09a36.17 36.17 0 0 0-4.46-3.8q-2.2-1.56-3.78-2.61zM1126.53 76a4 4 0 0 0 2.9-1.52 14.33 14.33 0 0 0 2.46-3.82 25 25 0 0 0 1.69-5.58 30.94 30.94 0 0 0 .64-5.82 21.56 21.56 0 0 0-.31-3.76 11.57 11.57 0 0 0-.92-3 5.55 5.55 0 0 0-1.58-2 3.7 3.7 0 0 0-2.33-.75 5 5 0 0 0-3.43 1.54 14.42 14.42 0 0 0-2.86 3.93 23.84 23.84 0 0 0-1.93 5.3 27.87 27.87 0 0 0-.7 6.55 16.4 16.4 0 0 0 .35 3.47 8.94 8.94 0 0 0 1.1 2.83 5.51 5.51 0 0 0 4.92 2.66zm42.87 0a35.52 35.52 0 0 0 8.07-.85 31.25 31.25 0 0 0 6.61-2.3 28 28 0 0 0 5.36-3.38 34.71 34.71 0 0 0 4.33-4.15l.48 9.74a23.8 23.8 0 0 1-3.41 3.54 25.21 25.21 0 0 1-4.37 3 25.65 25.65 0 0 1-5 2.06 18.14 18.14 0 0 1-5.16.77 3.94 3.94 0 0 1-.77-.09L1174 84l-3.26-.64q-2.12-.4-5.76-1v.79a71 71 0 0 1-1.38 14.58 46.73 46.73 0 0 1-3.69 11.19 22 22 0 0 1-5.3 7.15 9.54 9.54 0 0 1-6.2 2.52 6.82 6.82 0 0 1-4.17-1.24 8.66 8.66 0 0 1-2.66-3.34 17.66 17.66 0 0 1-1.41-4.91 40.64 40.64 0 0 1-.42-6 17.21 17.21 0 0 1 .57-4.12 41.2 41.2 0 0 1 1.54-4.81q1-2.52 2.17-5.12t2.48-5.05q3-5.7 6.81-11.75l1-6.81q.51-3.49 1.3-6.85a39.53 39.53 0 0 1 2.43-7 25.09 25.09 0 0 1 3.52-5.91 13.24 13.24 0 0 1 10.79-4.84 16.64 16.64 0 0 1 5 .73 10.55 10.55 0 0 1 4.08 2.37 11.27 11.27 0 0 1 2.76 4.23 17.54 17.54 0 0 1 1 6.35 17.79 17.79 0 0 1-.88 6.25 20.55 20.55 0 0 1-3.4 5.83 29.86 29.86 0 0 1-5 4.62 33.5 33.5 0 0 1-6.82 3.85zm-21.3 27.71a6.67 6.67 0 0 0 .15 1.14 7.24 7.24 0 0 0 .5 1.57 5.06 5.06 0 0 0 .92 1.4 1.85 1.85 0 0 0 1.41.61 1.42 1.42 0 0 0 1.23-.81 7.51 7.51 0 0 0 .79-2.16 21.34 21.34 0 0 0 .44-3.06q.13-1.71.21-3.5t.1-3.5q0-1.71.12-3.06.14-2.36.21-4l.12-2.73q0-1.23.09-2.13a28.86 28.86 0 0 0-1.63 3.36q-.79 1.91-1.49 4t-1.27 4.08q-.57 2.06-1 3.84t-.66 3.07a11.48 11.48 0 0 0-.24 1.86zm15.73-32a23.3 23.3 0 0 0 4.57-2.85 23.6 23.6 0 0 0 3.25-3.36q.57-.08 2.73-3.91a30.28 30.28 0 0 0 1.85-5 12.47 12.47 0 0 0 .29-2.19 6.94 6.94 0 0 0-.26-2.36 4.29 4.29 0 0 0-1.14-1.89 3.1 3.1 0 0 0-2.25-.79 4.82 4.82 0 0 0-2.86.87 7.75 7.75 0 0 0-2.13 2.36 14.77 14.77 0 0 0-1.5 3.53q-.59 2-1.41 5a28 28 0 0 0-1 5.53q-.14 2.53-.14 5.03zm39.8 12.73a16 16 0 0 1-7.18-1.52 14.9 14.9 0 0 1-5.13-4.09 17.67 17.67 0 0 1-3.08-5.95 24.27 24.27 0 0 1-1-7.09 22.49 22.49 0 0 1 .92-5.79q.92-3.36 1.9-6a27.73 27.73 0 0 1 2.47-5 19.79 19.79 0 0 1 3.48-4.16 16 16 0 0 1 4.46-2.86 13.74 13.74 0 0 1 5.49-1.06 13 13 0 0 1 4.58.79 11.19 11.19 0 0 1 3.67 2.22 10 10 0 0 1 2.44 3.45 11.21 11.21 0 0 1 .88 4.52 12.83 12.83 0 0 1-1.78 6 23.94 23.94 0 0 1-4.16 5.67 26.21 26.21 0 0 1-5.66 4.21 30.64 30.64 0 0 1-7.11 2.88 13.68 13.68 0 0 0 1.3 1.93 5.87 5.87 0 0 0 1.3 1.2 4.39 4.39 0 0 0 1.39.6 6.8 6.8 0 0 0 1.57.17 16.7 16.7 0 0 0 5.56-1 36.62 36.62 0 0 0 5.69-2.58 48.3 48.3 0 0 0 5.23-3.37 44.62 44.62 0 0 0 4.17-3.46l5.67 5.76a58.53 58.53 0 0 1-8.22 7.29q-1.89 1.36-4.06 2.67a36.38 36.38 0 0 1-4.57 2.33 31 31 0 0 1-5 1.63 22.41 22.41 0 0 1-5.22.59zm-5.87-20.93a8.94 8.94 0 0 0 3.46-.79 15.67 15.67 0 0 0 3.48-2 16.66 16.66 0 0 0 3.15-3.35 6.46 6.46 0 0 0 1.54-3.48 6.25 6.25 0 0 0-.73-3.18 2.09 2.09 0 0 0-1.79-1.25 6.76 6.76 0 0 0-5.49 2.47 9.16 9.16 0 0 0-1.46 2.49q-.55 1.4-1.28 3.46a13.35 13.35 0 0 0-.82 3.39q-.06 1.27-.06 2.22zM1222 75.23q0-1.93.22-4.5t.59-5.43q.37-2.86.88-5.82t1.3-6.33q.79-3.36 1.36-5.6a31.65 31.65 0 0 1 1.14-3.69 8.64 8.64 0 0 1 .7-1.54 3 3 0 0 1 .81-.9 2.66 2.66 0 0 1 1.14-.44 10.94 10.94 0 0 1 1.69-.11 11.14 11.14 0 0 1 1.78.11 1.41 1.41 0 0 1 .95.53 2.35 2.35 0 0 1 .37 1.21q.07.79.07 2.15 0 1.63-.22 4.61a47.19 47.19 0 0 0-.13 5.23h.48q.88-1.76 2.2-4.61a25.07 25.07 0 0 1 2.77-4.75 15.08 15.08 0 0 1 3.3-3.19 7.23 7.23 0 0 1 4.26-1.3 4.75 4.75 0 0 1 1.63.29 4.21 4.21 0 0 1 1.38.81 3.84 3.84 0 0 1 .95 1.3A4.13 4.13 0 0 1 1252 45a13.8 13.8 0 0 1-.22 2.09q-.22 1.34-.7 3.49t-.7 3.54a15.2 15.2 0 0 0-.22 2.31 9.58 9.58 0 0 0 .31 2.64 4.9 4.9 0 0 0 .81 1.69 2.85 2.85 0 0 0 1.14.9 3.47 3.47 0 0 0 1.34.26 10.59 10.59 0 0 0 4.09-.88 26.55 26.55 0 0 0 3.87-2 36.78 36.78 0 0 0 4-2.9l-.66 10.28-2.59 1.67a32.66 32.66 0 0 1-3.1 1.74 23.06 23.06 0 0 1-3.43 1.36 12.2 12.2 0 0 1-3.62.55 9.47 9.47 0 0 1-5.32-1.34 9.75 9.75 0 0 1-3.21-3.52 17.82 17.82 0 0 1-1.76-4.88q-.57-2.7-.92-5.47h-.7l-7.87 21.93a28.56 28.56 0 0 1-1.16 2.83 9.66 9.66 0 0 1-1.12 1.82 3.31 3.31 0 0 1-1.23 1 3.6 3.6 0 0 1-1.45.29 5 5 0 0 1-2.9-.77 5 5 0 0 1-1.69-2.07 9.92 9.92 0 0 1-.79-2.94 28.78 28.78 0 0 1-.2-3.39zM0 220v-51.37h5v23.18h29.2v-23.18h5v51.44h-5V196.5H5V220zm49.75-39.2a2.67 2.67 0 0 1 .9-2.05 2.87 2.87 0 0 1 2-.83 2.89 2.89 0 0 1 2.81 2.88 2.7 2.7 0 0 1-.86 2.09 2.8 2.8 0 0 1-1.94.79 2.93 2.93 0 0 1-2-.79 2.64 2.64 0 0 1-.91-2.09zm4.83 39.2h-4v-28.8h4zm14-.94a2.76 2.76 0 0 1-2-.86 2.84 2.84 0 0 1-.86-2.09 2.79 2.79 0 0 1 .88-2.11 2.89 2.89 0 0 1 2-.79 2.93 2.93 0 0 1 2 .79 2.73 2.73 0 0 1 .9 2.16 3 3 0 0 1-2.88 3zm-2.16-53.5h4.28V208h-4.24zm36.29 3h5V220h-5zM121 178.78l-2.09-1.58a8.06 8.06 0 0 0 2.27-3.6 9.28 9.28 0 0 0 .18-4.68l2.88-.5a11.47 11.47 0 0 1-.29 5.72 10.71 10.71 0 0 1-2.95 4.64zm12.38 12.46h3.38q.07.65.11 1.69t.11 2.16q.07 1.12.11 2.09t0 1.48a14.3 14.3 0 0 1 4.5-5.8 12 12 0 0 1 7.24-2.27 9.54 9.54 0 0 1 6.48 2.12 8.51 8.51 0 0 1 2.88 5.58 14.5 14.5 0 0 1 4.5-5.54 12 12 0 0 1 7.09-2.16 9.44 9.44 0 0 1 6.8 2.38 8.75 8.75 0 0 1 2.63 6.26V220h-4v-19.4a6.16 6.16 0 0 0-6.48-6 11.14 11.14 0 0 0-4.14.76 10.24 10.24 0 0 0-3.31 2.09 9.5 9.5 0 0 0-2.2 3.17 10.87 10.87 0 0 0-.86 4V220h-4v-19.4a6.57 6.57 0 0 0-1.73-4.18 6.47 6.47 0 0 0-4.68-1.87 11.33 11.33 0 0 0-4.21.76 10.33 10.33 0 0 0-3.35 2.12 9.53 9.53 0 0 0-2.23 3.24 10.43 10.43 0 0 0-.79 4.1V220h-4zm75.6 28.8v-51.41h12.42a21.85 21.85 0 0 1 6.26.9 15.65 15.65 0 0 1 5.34 2.77 13.84 13.84 0 0 1 3.74 4.68 14.83 14.83 0 0 1 1.4 6.7 18.45 18.45 0 0 1-.94 5.8 14 14 0 0 1-2.92 5 14.58 14.58 0 0 1-5.15 3.56 19.2 19.2 0 0 1-7.63 1.37h-7.7V220zm4.9-25.27h7.63a13.17 13.17 0 0 0 5.76-1.12 10.16 10.16 0 0 0 3.64-2.81 10.36 10.36 0 0 0 1.87-3.6 12.93 12.93 0 0 0 .54-3.49 10.39 10.39 0 0 0-.76-3.85 10.17 10.17 0 0 0-2.2-3.38 10.6 10.6 0 0 0-3.67-2.38 13.6 13.6 0 0 0-5.11-.9h-7.7zm50.4 21.82a15.68 15.68 0 0 1-4.9 3 16.11 16.11 0 0 1-5.83 1.08 14.91 14.91 0 0 1-5.94-1.19 15.54 15.54 0 0 1-4.82-3.2 14.89 14.89 0 0 1-3.24-4.75 14.48 14.48 0 0 1-1.19-5.83 14.74 14.74 0 0 1 1.19-5.87 15.17 15.17 0 0 1 8-8.06 14.48 14.48 0 0 1 5.83-1.19 12.56 12.56 0 0 1 8.24 2.88 17 17 0 0 1 5.15 7.34q-2.45.94-5.44 2.12l-6.12 2.45-6.21 2.47-5.76 2.34a10.91 10.91 0 0 0 10.15 6.55 12.27 12.27 0 0 0 4.39-.79 10.41 10.41 0 0 0 3.53-2.16zm-2.45-16.85a9.44 9.44 0 0 0-3.46-3.85 9.14 9.14 0 0 0-5-1.4 10.48 10.48 0 0 0-4.32.9 11.69 11.69 0 0 0-3.53 2.41 11.27 11.27 0 0 0-2.38 3.49 10.43 10.43 0 0 0-.86 4.21 8.34 8.34 0 0 0 .22 2q2.23-.94 4.75-1.94t5-2.05q2.52-1 5-2t4.54-1.77zm11.52-8.5h3.38l.36 7.42a14 14 0 0 1 4.68-5.83 12.35 12.35 0 0 1 7.42-2.23 9.34 9.34 0 0 1 6.73 2.38 8.75 8.75 0 0 1 2.63 6.26V220h-4v-19.4a6.16 6.16 0 0 0-6.48-6 11.62 11.62 0 0 0-4.25.76 10.67 10.67 0 0 0-3.42 2.12 9.72 9.72 0 0 0-2.3 3.24 10 10 0 0 0-.83 4.1V220h-4zM306 205.71a15.1 15.1 0 0 1 4.32-10.76 14.59 14.59 0 0 1 10.44-4.36 13.6 13.6 0 0 1 4.32.65 14.56 14.56 0 0 1 3.42 1.62A12.22 12.22 0 0 1 331 195a8 8 0 0 1 1.44 2.23q0-1.44.11-3t.18-3h3.67v28.3a17 17 0 0 1-.94 5.72 12.28 12.28 0 0 1-2.81 4.54 12.9 12.9 0 0 1-4.75 3 19.27 19.27 0 0 1-6.77 1.08 16 16 0 0 1-7.16-1.51 26.55 26.55 0 0 1-6.23-4.46l2.59-2.74a18 18 0 0 0 5.36 3.82A13.46 13.46 0 0 0 321 230a15.43 15.43 0 0 0 5.15-.76 9.48 9.48 0 0 0 3.49-2.09 8.09 8.09 0 0 0 2-3.24 14.49 14.49 0 0 0 .72-4.21v-1q0-.43.07-1.66v-.68-1-1-.61a12.76 12.76 0 0 1-11.74 6.84 14.77 14.77 0 0 1-10.58-4.32 14.34 14.34 0 0 1-3.13-4.72 15.21 15.21 0 0 1-.98-5.84zm4-.14a11 11 0 0 0 .86 4.39 11 11 0 0 0 5.94 5.9 11.78 11.78 0 0 0 8.86 0 11 11 0 0 0 6.8-10.3 10.85 10.85 0 0 0-.86-4.32 11.16 11.16 0 0 0-2.38-3.53 11 11 0 0 0-3.56-2.38 11.52 11.52 0 0 0-12.42 2.34 10.75 10.75 0 0 0-2.38 3.49 11 11 0 0 0-.86 4.41zm33.41-10.37v-3.89h5v-8.5q0-8.78 4.21-13.21a15.68 15.68 0 0 1 11.2-4.72v3.82a10.7 10.7 0 0 0-8.39 3.85q-3.06 3.71-3.06 10.26v8.5h9.43v3.89h-9.43V220h-4v-24.8zm47.09 21.38a15.68 15.68 0 0 1-4.9 3 16.12 16.12 0 0 1-5.83 1.08 14.91 14.91 0 0 1-5.94-1.19 15.54 15.54 0 0 1-4.82-3.2 14.91 14.91 0 0 1-3.24-4.75 14.48 14.48 0 0 1-1.19-5.83 14.75 14.75 0 0 1 1.19-5.87 15.17 15.17 0 0 1 8-8.06 14.48 14.48 0 0 1 5.83-1.19 12.56 12.56 0 0 1 8.24 2.88 17 17 0 0 1 5.15 7.34q-2.45.94-5.44 2.12l-6.12 2.45-6.23 2.52-5.76 2.34a10.91 10.91 0 0 0 10.15 6.55 12.27 12.27 0 0 0 4.39-.79 10.4 10.4 0 0 0 3.53-2.16zm-2.5-16.84a9.45 9.45 0 0 0-3.46-3.85 9.14 9.14 0 0 0-5-1.4 10.47 10.47 0 0 0-4.32.9 11.68 11.68 0 0 0-3.53 2.41 11.27 11.27 0 0 0-2.38 3.49 10.42 10.42 0 0 0-.86 4.21 8.39 8.39 0 0 0 .22 2q2.23-.94 4.75-1.94t5-2.05q2.52-1 5-2t4.58-1.77zm10.58-18.94a2.67 2.67 0 0 1 .9-2.05 2.87 2.87 0 0 1 2-.83 2.89 2.89 0 0 1 2.81 2.88 2.7 2.7 0 0 1-.86 2.09 2.8 2.8 0 0 1-1.94.79 2.93 2.93 0 0 1-2-.79 2.64 2.64 0 0 1-.91-2.09zm4.83 39.2h-4v-28.8h4zm16.06-6.26l-6.19 15h-3.89q1.44-3.82 2.81-7.49t2.81-7.49zm25.92-8a14.74 14.74 0 0 1 1.19-5.87 15.68 15.68 0 0 1 3.24-4.86 15 15 0 0 1 4.79-3.28 14.48 14.48 0 0 1 5.83-1.19 13.66 13.66 0 0 1 4 .58 13 13 0 0 1 3.35 1.55 11.62 11.62 0 0 1 2.48 2.16 9.71 9.71 0 0 1 1.51 2.34l.29-6h3.67V220h-4v-3-1.51-1.37a8.11 8.11 0 0 1-1.51 2.34 11.93 11.93 0 0 1-2.48 2.05 12.88 12.88 0 0 1-3.35 1.48 14.77 14.77 0 0 1-4.1.54 15.09 15.09 0 0 1-6-1.19 14.68 14.68 0 0 1-4.75-3.2 15.11 15.11 0 0 1-3.13-4.72 14.42 14.42 0 0 1-1.04-5.64zm4-.22a11 11 0 0 0 .86 4.39 11 11 0 0 0 5.94 5.9 11.78 11.78 0 0 0 8.86 0 11 11 0 0 0 6.8-10.3 10.85 10.85 0 0 0-.86-4.32 11.16 11.16 0 0 0-2.38-3.53 11 11 0 0 0-3.56-2.38 11.52 11.52 0 0 0-12.42 2.34 10.75 10.75 0 0 0-2.38 3.49 11 11 0 0 0-.91 4.46zM518.53 194l-2.16 2.81a5.21 5.21 0 0 0-2.27-1.48 9.06 9.06 0 0 0-3.42-.68 6.14 6.14 0 0 0-1.55.22 4.79 4.79 0 0 0-1.51.68 4 4 0 0 0-1.15 1.22 3.42 3.42 0 0 0-.47 1.84 3.48 3.48 0 0 0 1 2.63 9.42 9.42 0 0 0 2.52 1.69q1.51.72 3.28 1.37a18.09 18.09 0 0 1 3.28 1.58 8.35 8.35 0 0 1 2.52 2.41 6.57 6.57 0 0 1 1 3.78 8.34 8.34 0 0 1-2.45 6.08q-2.45 2.48-7 2.48a15.56 15.56 0 0 1-5-.86A9.1 9.1 0 0 1 501 217c.19-.19.43-.46.72-.79l.79-.94.61-.76q.25-.32.32-.32a2.72 2.72 0 0 0 .94.79 13.06 13.06 0 0 0 1.66.83 15.18 15.18 0 0 0 2 .68 8.07 8.07 0 0 0 2.09.29 7.28 7.28 0 0 0 1.84-.25 5.55 5.55 0 0 0 1.8-.83 4.5 4.5 0 0 0 1.33-1.44 4.09 4.09 0 0 0 .5-2.09 3.48 3.48 0 0 0-1-2.63 9.47 9.47 0 0 0-2.52-1.69 31 31 0 0 0-3.31-1.33 16.08 16.08 0 0 1-3.27-1.52 8.15 8.15 0 0 1-2.52-2.45 6.87 6.87 0 0 1-1-3.89 7.6 7.6 0 0 1 .79-3.64 7.65 7.65 0 0 1 4.79-3.85 11.09 11.09 0 0 1 3-.43 12.38 12.38 0 0 1 4.1.79 10.32 10.32 0 0 1 3.87 2.47zm10.94-15.34h4v12.89H542v3.6h-8.57V220h-4v-24.87h-5.76v-3.6h5.76zm43.27 41.76h-3.31l-.43-7.78a13.47 13.47 0 0 1-4.61 5.83 12.46 12.46 0 0 1-7.49 2.23 9.33 9.33 0 0 1-6.73-2.38 8.74 8.74 0 0 1-2.63-6.26v-20.82h4v19.44a6.16 6.16 0 0 0 6.48 6 11.71 11.71 0 0 0 4.21-.76 10.48 10.48 0 0 0 3.42-2.09 10.05 10.05 0 0 0 2.3-3.2 9.67 9.67 0 0 0 .86-4.1v-15.29h4zm7.78-14.76a15.5 15.5 0 0 1 1.15-6 14.51 14.51 0 0 1 3.13-4.75 14.77 14.77 0 0 1 10.55-4.28 13.77 13.77 0 0 1 7.45 2.09 11.3 11.3 0 0 1 4.14 4.61v-32.4h4V220h-4v-3q0-.79.07-1.55t.07-1.48a12.75 12.75 0 0 1-4.46 4.61 13.3 13.3 0 0 1-7.34 1.94 14.77 14.77 0 0 1-6-1.19 14.19 14.19 0 0 1-7.67-8 15.74 15.74 0 0 1-1.09-5.69zm4-.07a11 11 0 0 0 .86 4.39 11 11 0 0 0 5.94 5.9 11.78 11.78 0 0 0 8.86 0 11 11 0 0 0 6.8-10.3 10.85 10.85 0 0 0-.86-4.32 11.16 11.16 0 0 0-2.38-3.53 11 11 0 0 0-3.56-2.38 11.52 11.52 0 0 0-12.42 2.34 10.75 10.75 0 0 0-2.38 3.49 11 11 0 0 0-.9 4.39zm60.12 11a15.68 15.68 0 0 1-4.9 3 16.12 16.12 0 0 1-5.83 1.08 14.91 14.91 0 0 1-5.94-1.19 15.54 15.54 0 0 1-4.82-3.2 14.91 14.91 0 0 1-3.24-4.75 14.48 14.48 0 0 1-1.19-5.83 14.75 14.75 0 0 1 1.19-5.87 15.17 15.17 0 0 1 8-8.06 14.48 14.48 0 0 1 5.83-1.19 12.56 12.56 0 0 1 8.26 2.82 17 17 0 0 1 5.15 7.34q-2.45.94-5.44 2.12l-6.12 2.45-6.23 2.52-5.76 2.34a10.91 10.91 0 0 0 10.15 6.55 12.27 12.27 0 0 0 4.39-.79 10.4 10.4 0 0 0 3.53-2.16zm-2.45-16.85a9.45 9.45 0 0 0-3.46-3.85 9.14 9.14 0 0 0-5-1.4 10.47 10.47 0 0 0-4.32.9 11.68 11.68 0 0 0-3.53 2.41 11.27 11.27 0 0 0-2.38 3.49 10.42 10.42 0 0 0-.86 4.21 8.39 8.39 0 0 0 .22 2q2.23-.94 4.75-1.94t5-2.05q2.52-1 5-2t4.55-1.77zm11.52-8.5h3.38l.36 7.42a14 14 0 0 1 4.68-5.83 12.34 12.34 0 0 1 7.42-2.23 9.34 9.34 0 0 1 6.73 2.38 8.75 8.75 0 0 1 2.63 6.26V220h-4v-19.4a6.16 6.16 0 0 0-6.48-6 11.62 11.62 0 0 0-4.25.76 10.67 10.67 0 0 0-3.42 2.12 9.74 9.74 0 0 0-2.3 3.24 10 10 0 0 0-.83 4.1V220h-4zm36.94-12.6h4v12.89h8.57v3.6h-8.57V220h-4v-24.87h-5.76v-3.6h5.76zm32.62 27.14a14.74 14.74 0 0 1 1.19-5.87 15.68 15.68 0 0 1 3.24-4.86 15 15 0 0 1 4.79-3.28 14.48 14.48 0 0 1 5.83-1.19 13.66 13.66 0 0 1 4 .58 13 13 0 0 1 3.35 1.55 11.62 11.62 0 0 1 2.48 2.16 9.71 9.71 0 0 1 1.51 2.34l.29-6h3.67V220h-4v-3-1.51-1.37a8.11 8.11 0 0 1-1.51 2.34 11.93 11.93 0 0 1-2.48 2.05 12.88 12.88 0 0 1-3.35 1.48 14.77 14.77 0 0 1-4.1.54 15.09 15.09 0 0 1-6-1.19 14.68 14.68 0 0 1-4.75-3.2 15.11 15.11 0 0 1-3.13-4.72 14.42 14.42 0 0 1-1.07-5.64zm4-.22A11 11 0 0 0 728 210a11 11 0 0 0 5.94 5.9 11.78 11.78 0 0 0 8.86 0 11 11 0 0 0 6.8-10.3 10.85 10.85 0 0 0-.86-4.32 11.16 11.16 0 0 0-2.38-3.53 11 11 0 0 0-3.56-2.38 11.52 11.52 0 0 0-12.42 2.34 10.75 10.75 0 0 0-2.38 3.49 11 11 0 0 0-.81 4.37zm38.52-26.93h4v12.89h8.57v3.6h-8.57V220h-4v-24.87h-5.76v-3.6h5.76zm54.86 42a20.39 20.39 0 0 1-7.24-1.26 17.14 17.14 0 0 1-5.8-3.56 16.29 16.29 0 0 1-3.85-5.65 19.49 19.49 0 0 1-1.4-7.6v-33.93h4.9v33.7a15 15 0 0 0 1 5.62 12.3 12.3 0 0 0 2.81 4.28 12.65 12.65 0 0 0 4.25 2.74 14.3 14.3 0 0 0 5.33 1 14.11 14.11 0 0 0 5.26-1 12.44 12.44 0 0 0 7.09-7 14.55 14.55 0 0 0 1-5.62v-33.7h4.9v33.91a19.49 19.49 0 0 1-1.4 7.6 16.07 16.07 0 0 1-3.89 5.65 17.55 17.55 0 0 1-5.83 3.56 20.19 20.19 0 0 1-7.21 1.25zm28.58-29.38h3.38l.36 7.42a14 14 0 0 1 4.68-5.83 12.34 12.34 0 0 1 7.42-2.23 9.34 9.34 0 0 1 6.73 2.38 8.75 8.75 0 0 1 2.63 6.26V220h-4v-19.4a6.16 6.16 0 0 0-6.48-6 11.62 11.62 0 0 0-4.25.76 10.67 10.67 0 0 0-3.42 2.12 9.74 9.74 0 0 0-2.3 3.24 10 10 0 0 0-.83 4.1V220h-4zM883 180.8a2.67 2.67 0 0 1 .9-2.05 2.87 2.87 0 0 1 2-.83 2.89 2.89 0 0 1 2.81 2.88 2.7 2.7 0 0 1-.86 2.09 2.8 2.8 0 0 1-1.94.79 2.93 2.93 0 0 1-2-.79 2.64 2.64 0 0 1-.91-2.09zm4.82 39.2h-4v-28.8h4zm20.3 1.73q-2-3.82-3.82-7.63t-3.53-7.63q-1.73-3.82-3.49-7.63t-3.71-7.63h4.25q2.16 4.32 3.67 7.6t2.63 5.9q1.11 2.63 2.05 4.9t1.94 4.57q1-2.3 1.91-4.57t2-4.9q1.11-2.63 2.63-5.9t3.67-7.6h4.25q-3.89 7.71-7.24 15.26t-7.21 15.3zm43.13-5.18a15.68 15.68 0 0 1-4.9 3 16.11 16.11 0 0 1-5.83 1.08 14.91 14.91 0 0 1-5.94-1.19 15.54 15.54 0 0 1-4.82-3.2 14.89 14.89 0 0 1-3.24-4.75 14.48 14.48 0 0 1-1.19-5.83 14.74 14.74 0 0 1 1.19-5.87 15.17 15.17 0 0 1 8-8.06 14.48 14.48 0 0 1 5.83-1.19 12.56 12.56 0 0 1 8.24 2.88 17 17 0 0 1 5.15 7.34q-2.45.94-5.44 2.12l-6.12 2.45-6.18 2.51-5.76 2.34a10.91 10.91 0 0 0 10.15 6.55 12.27 12.27 0 0 0 4.39-.79 10.41 10.41 0 0 0 3.53-2.16zm-2.45-16.85a9.44 9.44 0 0 0-3.46-3.85 9.14 9.14 0 0 0-5-1.4 10.48 10.48 0 0 0-4.32.9 11.69 11.69 0 0 0-3.53 2.41 11.27 11.27 0 0 0-2.38 3.49 10.43 10.43 0 0 0-.86 4.21 8.34 8.34 0 0 0 .22 2q2.23-.94 4.75-1.94t5-2.05q2.52-1 5-2t4.58-1.73zm26.42-4.18a12.6 12.6 0 0 0-4.14.68 11.43 11.43 0 0 0-3.49 1.91 9.14 9.14 0 0 0-2.41 3 8.49 8.49 0 0 0-.9 3.92v15h-4v-28.8h3.38l.36 7.42a12.75 12.75 0 0 1 2.23-3.35 15.6 15.6 0 0 1 3-2.52 14.64 14.64 0 0 1 3.38-1.62 10.8 10.8 0 0 1 3.35-.58zm21.39-1.52l-2.16 2.81a5.21 5.21 0 0 0-2.27-1.48 9.06 9.06 0 0 0-3.42-.68 6.14 6.14 0 0 0-1.55.22 4.79 4.79 0 0 0-1.51.68 4 4 0 0 0-1.15 1.22 3.42 3.42 0 0 0-.47 1.84 3.48 3.48 0 0 0 1 2.63 9.42 9.42 0 0 0 2.52 1.69q1.51.72 3.28 1.37a18.09 18.09 0 0 1 3.28 1.58 8.35 8.35 0 0 1 2.52 2.41 6.57 6.57 0 0 1 1 3.78 8.34 8.34 0 0 1-2.45 6.08q-2.45 2.48-7 2.48a15.56 15.56 0 0 1-5-.86 9.1 9.1 0 0 1-4.14-2.74c.19-.19.43-.46.72-.79l.79-.94.61-.76q.25-.32.32-.32a2.72 2.72 0 0 0 .94.79 13.06 13.06 0 0 0 1.66.83 15.18 15.18 0 0 0 2 .68 8.07 8.07 0 0 0 2.09.29 7.28 7.28 0 0 0 1.84-.25 5.55 5.55 0 0 0 1.8-.83 4.5 4.5 0 0 0 1.33-1.44 4.09 4.09 0 0 0 .5-2.09 3.48 3.48 0 0 0-1-2.63 9.47 9.47 0 0 0-2.52-1.69 31 31 0 0 0-3.31-1.33 16.08 16.08 0 0 1-3.31-1.55 8.15 8.15 0 0 1-2.52-2.45 6.87 6.87 0 0 1-1-3.89 7.6 7.6 0 0 1 .79-3.64 7.65 7.65 0 0 1 4.79-3.85 11.09 11.09 0 0 1 3-.43 12.38 12.38 0 0 1 4.1.79 10.32 10.32 0 0 1 3.9 2.47zm7.85-13.18a2.67 2.67 0 0 1 .9-2.05 2.87 2.87 0 0 1 2-.83 2.89 2.89 0 0 1 2.81 2.88 2.7 2.7 0 0 1-.86 2.09 2.8 2.8 0 0 1-1.94.79 2.93 2.93 0 0 1-2-.79 2.64 2.64 0 0 1-.92-2.11zm4.82 39.24h-4v-28.8h4zm12-41.4h4v12.89h8.57v3.6h-8.57V220h-4v-24.87h-5.76v-3.6h5.76zm25 55.22h-4.18q.93-1.94 1.69-3.64t1.48-3.42q.72-1.73 1.55-3.64t1.91-4.28q-3.31-6.62-6.48-13.79t-6.48-13.86h4.23q2.16 4.32 3.74 7.78t2.84 6.3q1.26 2.85 2.27 5.29t2 4.75q1-2.3 2-4.75t2.23-5.29q1.26-2.84 2.84-6.3t3.74-7.78h4.25zm39.6-28.22a14.75 14.75 0 0 1 1.19-5.87 15.07 15.07 0 0 1 8.06-8.06 15 15 0 0 1 19.84 8.06 15.15 15.15 0 0 1 1.15 5.87 14.88 14.88 0 0 1-1.15 5.83 14.43 14.43 0 0 1-3.2 4.75 15.66 15.66 0 0 1-4.79 3.2 14.84 14.84 0 0 1-6 1.19 15.49 15.49 0 0 1-5.9-1.12 14.65 14.65 0 0 1-4.79-3.13 14.83 14.83 0 0 1-4.43-10.73zm4 0a10.84 10.84 0 0 0 .86 4.32 11.1 11.1 0 0 0 5.9 5.9 10.85 10.85 0 0 0 4.32.86 11.08 11.08 0 0 0 10.3-6.77 10.84 10.84 0 0 0 .86-4.32 11.1 11.1 0 0 0-11.16-11.16 10.84 10.84 0 0 0-4.32.86 11.13 11.13 0 0 0-6.77 10.3zm30.53-10.44v-3.89h5v-8.5q0-8.78 4.21-13.21a15.68 15.68 0 0 1 11.2-4.72v3.82a10.69 10.69 0 0 0-8.39 3.85q-3.06 3.71-3.06 10.26v8.5h9.43v3.89h-9.43V220h-4v-24.8zm99.59-26.44q-1.8 4.47-3.85 9.65T1212 189l-4.1 10.55-3.74 9.65-3.06 7.92q-1.33 3.46-2 5.26l-11.23-29c-.1-.19-.2-.43-.32-.72a4.08 4.08 0 0 1-.25-.79 2.19 2.19 0 0 0-.14.43c0 .19-.1.36-.14.5l-.14.58q-2.16 5.62-4.25 10.94-.86 2.3-1.84 4.72t-1.91 4.79q-.94 2.38-1.8 4.61t-1.51 4q-5.4-13.54-10.44-26.86t-10.44-26.78h5.54l3 7.6 3.17 8.17q1.59 4.1 3.06 8l2.7 7.2q1.22 3.28 2.05 5.65t1.12 3.38l.58 2.16a4.63 4.63 0 0 1 .29-1l.36-1q.07-.22.47-1.3t1-2.7q.58-1.62 1.33-3.64l1.55-4.1q1.87-4.9 4.1-10.94l-2.88-8.14q-.58-1.58-1.12-3.1t-1-2.81q-.43-1.3-.76-2.2c-.22-.6-.35-1-.4-1.19h4.75q3.38 8.71 6.26 16.49 1.22 3.31 2.52 6.77t2.45 6.59l2.12 5.8q1 2.66 1.55 4.39.14.58.29 1.08t.29 1.08l.58-2.16a28.57 28.57 0 0 1 1.08-3.49q.86-2.41 2.09-5.69t2.74-7.24q1.51-4 3.1-8t3.2-8.1q1.62-4 3-7.49zm-3 37a14.75 14.75 0 0 1 1.19-5.87 15.68 15.68 0 0 1 3.24-4.86 15 15 0 0 1 4.79-3.28 14.48 14.48 0 0 1 5.83-1.19 13.65 13.65 0 0 1 4 .58 13 13 0 0 1 3.35 1.55 11.62 11.62 0 0 1 2.48 2.16 9.69 9.69 0 0 1 1.51 2.34l.29-6h3.67V220h-4v-3-1.51-1.37a8.09 8.09 0 0 1-1.51 2.34 11.91 11.91 0 0 1-2.48 2.05 12.87 12.87 0 0 1-3.35 1.48 14.78 14.78 0 0 1-4.1.54 15.1 15.1 0 0 1-6-1.19 14.68 14.68 0 0 1-4.75-3.2 15.11 15.11 0 0 1-3.13-4.72 14.42 14.42 0 0 1-1.03-5.64zm4-.22a11 11 0 0 0 .86 4.39 11 11 0 0 0 5.94 5.9 11.78 11.78 0 0 0 8.86 0 11 11 0 0 0 6.8-10.3 10.85 10.85 0 0 0-.86-4.32 11.16 11.16 0 0 0-2.38-3.53 11 11 0 0 0-3.56-2.38 11.52 11.52 0 0 0-12.42 2.34 10.75 10.75 0 0 0-2.38 3.49 11 11 0 0 0-.86 4.42zm38.52-26.93h4v12.89h8.48v3.6h-8.57V220h-4v-24.87h-5.76v-3.6h5.76zm41.33 37.94a15.68 15.68 0 0 1-4.9 3 16.12 16.12 0 0 1-5.83 1.08 14.92 14.92 0 0 1-5.94-1.19 15.53 15.53 0 0 1-4.82-3.2 14.89 14.89 0 0 1-3.24-4.75 14.48 14.48 0 0 1-1.19-5.83 14.75 14.75 0 0 1 1.19-5.87 15.17 15.17 0 0 1 8-8.06 14.48 14.48 0 0 1 5.83-1.19 12.56 12.56 0 0 1 8.24 2.88 17 17 0 0 1 5.15 7.34q-2.45.94-5.44 2.12l-6.12 2.45-6.23 2.52-5.76 2.34a10.91 10.91 0 0 0 10.15 6.55 12.27 12.27 0 0 0 4.39-.79 10.41 10.41 0 0 0 3.53-2.16zm-2.45-16.85a9.45 9.45 0 0 0-3.46-3.85 9.14 9.14 0 0 0-5-1.4 10.48 10.48 0 0 0-4.32.9 11.68 11.68 0 0 0-3.53 2.41 11.27 11.27 0 0 0-2.38 3.49 10.42 10.42 0 0 0-.86 4.21 8.34 8.34 0 0 0 .22 2q2.23-.94 4.75-1.94t5-2.05q2.52-1 5-2t4.53-1.75zm26.42-4.18a12.59 12.59 0 0 0-4.14.68 11.43 11.43 0 0 0-3.49 1.91 9.15 9.15 0 0 0-2.41 3 8.5 8.5 0 0 0-.9 3.92v15h-4v-28.8h3.38l.36 7.42a12.73 12.73 0 0 1 2.23-3.35 15.56 15.56 0 0 1 3-2.52 14.64 14.64 0 0 1 3.38-1.62 10.79 10.79 0 0 1 3.35-.58zm10.25 24.46h-4v-55.11h4zm7.85-14.4a14.75 14.75 0 0 1 1.19-5.87 15.08 15.08 0 0 1 8.06-8.06 15 15 0 0 1 19.84 8.06 15.17 15.17 0 0 1 1.15 5.87 14.9 14.9 0 0 1-1.15 5.83 14.45 14.45 0 0 1-3.2 4.75 15.67 15.67 0 0 1-4.79 3.2 14.85 14.85 0 0 1-6 1.19 15.48 15.48 0 0 1-5.9-1.12 14.62 14.62 0 0 1-4.79-3.13 14.83 14.83 0 0 1-4.43-10.73zm4 0a10.84 10.84 0 0 0 .86 4.32 11.1 11.1 0 0 0 5.9 5.9 10.85 10.85 0 0 0 4.32.86 11.08 11.08 0 0 0 10.3-6.77 10.86 10.86 0 0 0 .86-4.32 11.1 11.1 0 0 0-11.16-11.11 10.84 10.84 0 0 0-4.32.86 11.13 11.13 0 0 0-6.77 10.3zm31.89 0a14.75 14.75 0 0 1 1.19-5.87 15.08 15.08 0 0 1 8.06-8.06 15 15 0 0 1 19.84 8.06 15.17 15.17 0 0 1 1.15 5.87 14.9 14.9 0 0 1-1.15 5.83 14.45 14.45 0 0 1-3.2 4.75 15.67 15.67 0 0 1-4.79 3.2 14.85 14.85 0 0 1-6 1.19 15.48 15.48 0 0 1-5.9-1.12 14.62 14.62 0 0 1-4.79-3.13 14.83 14.83 0 0 1-4.43-10.73zm4 0a10.84 10.84 0 0 0 .86 4.32 11.1 11.1 0 0 0 5.9 5.9 10.85 10.85 0 0 0 4.32.86 11.08 11.08 0 0 0 10.3-6.77 10.86 10.86 0 0 0 .86-4.32 11.1 11.1 0 0 0-11.16-11.16 10.84 10.84 0 0 0-4.32.86 11.13 11.13 0 0 0-6.77 10.3zm33.7 11.45a2.85 2.85 0 0 1 .86-2.09 2.76 2.76 0 0 1 2-.86 3 3 0 0 1 2.88 3 2.76 2.76 0 0 1-.9 2.12 2.86 2.86 0 0 1-2 .83 2.89 2.89 0 0 1-2.88-3zM140.83 260.63h5V312h-5zm39 51.41h-4v-55.15h4zm7.85-14.4a14.75 14.75 0 0 1 1.19-5.87 15.07 15.07 0 0 1 8.06-8.06 15 15 0 0 1 19.84 8.06 15.15 15.15 0 0 1 1.15 5.87 14.88 14.88 0 0 1-1.15 5.83 14.43 14.43 0 0 1-3.2 4.75 15.65 15.65 0 0 1-4.79 3.2 14.84 14.84 0 0 1-6 1.19 15.49 15.49 0 0 1-5.9-1.12 14.65 14.65 0 0 1-4.79-3.13 14.83 14.83 0 0 1-4.43-10.73zm4 0a10.84 10.84 0 0 0 .86 4.32 11.1 11.1 0 0 0 5.9 5.9 10.85 10.85 0 0 0 4.32.86A11.08 11.08 0 0 0 213 302a10.84 10.84 0 0 0 .86-4.32 11.1 11.1 0 0 0-11.16-11.16 10.84 10.84 0 0 0-4.32.86 11.13 11.13 0 0 0-6.77 10.3zm43.56 16.13q-2-3.82-3.82-7.63t-3.53-7.63q-1.73-3.82-3.49-7.63t-3.71-7.63h4.25q2.16 4.32 3.67 7.6t2.63 5.9q1.11 2.63 2.05 4.9t1.94 4.57q1-2.3 1.91-4.57t2-4.9q1.11-2.63 2.63-5.9t3.67-7.6h4.25q-3.89 7.71-7.24 15.26t-7.23 15.26zm43.13-5.18a15.68 15.68 0 0 1-4.9 3 16.11 16.11 0 0 1-5.83 1.08 14.91 14.91 0 0 1-5.94-1.19 15.54 15.54 0 0 1-4.82-3.2 14.89 14.89 0 0 1-3.24-4.75 14.48 14.48 0 0 1-1.19-5.83 14.74 14.74 0 0 1 1.19-5.87 15.17 15.17 0 0 1 8-8.06 14.48 14.48 0 0 1 5.83-1.19 12.56 12.56 0 0 1 8.24 2.88 17 17 0 0 1 5.15 7.34q-2.45.94-5.44 2.12l-6.12 2.45-6.23 2.52-5.76 2.34a10.91 10.91 0 0 0 10.15 6.55 12.27 12.27 0 0 0 4.39-.79 10.41 10.41 0 0 0 3.53-2.16zm-2.45-16.85a9.44 9.44 0 0 0-3.46-3.85 9.14 9.14 0 0 0-5-1.4 10.48 10.48 0 0 0-4.32.9 11.69 11.69 0 0 0-3.53 2.41 11.27 11.27 0 0 0-2.38 3.49 10.43 10.43 0 0 0-.86 4.21 8.34 8.34 0 0 0 .22 2q2.23-.94 4.75-1.94t5-2.05q2.52-1 5-2t4.56-1.77zm30.67-21.1h4v12.89h8.57v3.6h-8.57V312h-4v-24.87h-5.76v-3.6h5.76zm15.41 27a14.75 14.75 0 0 1 1.19-5.87 15.07 15.07 0 0 1 8.06-8.06 15 15 0 0 1 19.84 8.06 15.15 15.15 0 0 1 1.15 5.87 14.88 14.88 0 0 1-1.15 5.83 14.43 14.43 0 0 1-3.2 4.75 15.65 15.65 0 0 1-4.79 3.2 14.84 14.84 0 0 1-6 1.19 15.49 15.49 0 0 1-5.9-1.12 14.65 14.65 0 0 1-4.79-3.13 14.83 14.83 0 0 1-4.41-10.72zm4 0a10.84 10.84 0 0 0 .86 4.32 11.1 11.1 0 0 0 5.9 5.9 10.85 10.85 0 0 0 4.32.86 11.08 11.08 0 0 0 10.3-6.77 10.84 10.84 0 0 0 .86-4.32A11.1 11.1 0 0 0 337 286.48a10.84 10.84 0 0 0-4.32.86 11.13 11.13 0 0 0-6.77 10.3zm49.68 0a15.5 15.5 0 0 1 1.15-6 14.51 14.51 0 0 1 3.13-4.75 14.77 14.77 0 0 1 10.55-4.28 13.77 13.77 0 0 1 7.45 2.09 11.3 11.3 0 0 1 4.14 4.61v-32.4h4V312h-4v-3q0-.79.07-1.55t.07-1.48a12.75 12.75 0 0 1-4.46 4.61 13.3 13.3 0 0 1-7.34 1.94 14.77 14.77 0 0 1-6-1.19 14.19 14.19 0 0 1-7.67-8 15.74 15.74 0 0 1-1.15-5.69zm4-.07a11 11 0 0 0 .86 4.39 11 11 0 0 0 5.94 5.9 11.78 11.78 0 0 0 8.86 0 11 11 0 0 0 6.8-10.3 10.85 10.85 0 0 0-.86-4.32 11.16 11.16 0 0 0-2.38-3.53 11 11 0 0 0-3.56-2.38 11.52 11.52 0 0 0-12.42 2.34 10.75 10.75 0 0 0-2.38 3.49 11 11 0 0 0-.96 4.41zm60.12 11a15.68 15.68 0 0 1-4.9 3 16.11 16.11 0 0 1-5.83 1.08 14.91 14.91 0 0 1-5.94-1.19 15.54 15.54 0 0 1-4.82-3.2 14.89 14.89 0 0 1-3.24-4.75 14.48 14.48 0 0 1-1.19-5.83 14.74 14.74 0 0 1 1.19-5.87 15.17 15.17 0 0 1 8-8.06 14.48 14.48 0 0 1 5.83-1.19 12.56 12.56 0 0 1 8.24 2.88 17 17 0 0 1 5.15 7.34q-2.45.94-5.44 2.12l-6.12 2.45-6.23 2.52-5.76 2.34a10.91 10.91 0 0 0 10.15 6.55 12.27 12.27 0 0 0 4.39-.79 10.41 10.41 0 0 0 3.53-2.16zm-2.45-16.85a9.44 9.44 0 0 0-3.46-3.85 9.14 9.14 0 0 0-5-1.4 10.48 10.48 0 0 0-4.32.9 11.69 11.69 0 0 0-3.53 2.41 11.27 11.27 0 0 0-2.38 3.49 10.43 10.43 0 0 0-.86 4.21 8.34 8.34 0 0 0 .22 2q2.23-.94 4.75-1.94t5-2.05q2.52-1 5-2t4.48-1.75zm26.54-5.72l-2.16 2.81a5.21 5.21 0 0 0-2.27-1.48 9.07 9.07 0 0 0-3.42-.68 6.15 6.15 0 0 0-1.55.22 4.81 4.81 0 0 0-1.51.68 4 4 0 0 0-1.15 1.22 3.42 3.42 0 0 0-.47 1.84 3.48 3.48 0 0 0 1 2.63 9.42 9.42 0 0 0 2.52 1.69q1.51.72 3.28 1.37a18.06 18.06 0 0 1 3.28 1.58 8.36 8.36 0 0 1 2.52 2.41 6.57 6.57 0 0 1 1 3.78 8.34 8.34 0 0 1-2.45 6.08q-2.45 2.48-7 2.48a15.56 15.56 0 0 1-5-.86 9.1 9.1 0 0 1-4.14-2.74q.29-.29.72-.79l.79-.94.61-.76c.17-.22.28-.32.32-.32a2.71 2.71 0 0 0 .94.79 13.14 13.14 0 0 0 1.66.83 15.12 15.12 0 0 0 2 .68 8.08 8.08 0 0 0 2.09.29 7.28 7.28 0 0 0 1.84-.25 5.56 5.56 0 0 0 1.8-.83 4.52 4.52 0 0 0 1.33-1.44 4.09 4.09 0 0 0 .5-2.09 3.49 3.49 0 0 0-1-2.63 9.47 9.47 0 0 0-2.52-1.69 30.87 30.87 0 0 0-3.31-1.33 16.06 16.06 0 0 1-3.31-1.55 8.15 8.15 0 0 1-2.52-2.45 6.87 6.87 0 0 1-1-3.89 7.61 7.61 0 0 1 .79-3.64 7.66 7.66 0 0 1 4.79-3.85 11.1 11.1 0 0 1 3-.43 12.38 12.38 0 0 1 4.1.79 10.33 10.33 0 0 1 3.9 2.47zm7.85-13.18a2.67 2.67 0 0 1 .9-2.05 2.87 2.87 0 0 1 2-.83 2.89 2.89 0 0 1 2.81 2.88 2.7 2.7 0 0 1-.86 2.09 2.8 2.8 0 0 1-1.94.79 2.93 2.93 0 0 1-2-.79 2.64 2.64 0 0 1-.91-2.11zm4.82 39.18h-4v-28.8h4zm7.78-14.33a15.1 15.1 0 0 1 4.32-10.76 14.59 14.59 0 0 1 10.44-4.36 13.6 13.6 0 0 1 4.32.65 14.56 14.56 0 0 1 3.42 1.62 12.22 12.22 0 0 1 2.48 2.12 8 8 0 0 1 1.44 2.23q0-1.44.11-3t.18-3h3.67v28.3a17 17 0 0 1-.94 5.72 12.28 12.28 0 0 1-2.78 4.61 12.9 12.9 0 0 1-4.75 3 19.27 19.27 0 0 1-6.77 1.08 16 16 0 0 1-7.16-1.51 26.55 26.55 0 0 1-6.23-4.46l2.59-2.74A18 18 0 0 0 494 321a13.46 13.46 0 0 0 5.29 1.08 15.43 15.43 0 0 0 5.15-.76 9.48 9.48 0 0 0 3.56-2.12 8.09 8.09 0 0 0 2-3.24 14.49 14.49 0 0 0 .72-4.21v-1q0-.43.07-1.66v-.68-1-1-.61a12.76 12.76 0 0 1-11.74 6.84 14.77 14.77 0 0 1-10.58-4.32 14.34 14.34 0 0 1-3.13-4.72 15.21 15.21 0 0 1-1.01-5.89zm4-.14a11 11 0 0 0 .86 4.39 11 11 0 0 0 5.94 5.9 11.78 11.78 0 0 0 8.86 0 11 11 0 0 0 6.8-10.3 10.85 10.85 0 0 0-.86-4.32 11.16 11.16 0 0 0-2.38-3.53 11 11 0 0 0-3.56-2.38 11.52 11.52 0 0 0-12.42 2.34 10.75 10.75 0 0 0-2.38 3.49 11 11 0 0 0-.91 4.45zm36.36-14.33h3.3l.36 7.42a14 14 0 0 1 4.68-5.83 12.35 12.35 0 0 1 7.42-2.23 9.34 9.34 0 0 1 6.73 2.38 8.75 8.75 0 0 1 2.63 6.26V312h-4v-19.4a6.16 6.16 0 0 0-6.48-6 11.62 11.62 0 0 0-4.25.76 10.67 10.67 0 0 0-3.42 2.12 9.72 9.72 0 0 0-2.3 3.24 10 10 0 0 0-.83 4.1V312h-4zm91.68 28.8h-4.75a16.1 16.1 0 0 1-1.4-1.62q-1.33-1.62-3.42-4.28a16.18 16.18 0 0 1-6.08 4.68 20.07 20.07 0 0 1-8.6 1.8 19.52 19.52 0 0 1-6.73-1.12 15.92 15.92 0 0 1-5.29-3.13 14.28 14.28 0 0 1-3.46-4.68 13.79 13.79 0 0 1-1.22-5.83 14 14 0 0 1 1-5.4 14.89 14.89 0 0 1 2.87-4.42 16.44 16.44 0 0 1 4.25-3.28 19 19 0 0 1 5.18-1.91q-1.66-2.23-2.81-3.89a22.7 22.7 0 0 1-1.58-2.52q-1-1.94-1.73-3.74a11 11 0 0 1-.72-4.1 10.16 10.16 0 0 1 1-4.46 10.52 10.52 0 0 1 2.59-3.42 11.51 11.51 0 0 1 3.78-2.16 13.85 13.85 0 0 1 4.61-.76 15.85 15.85 0 0 1 5.83.9 21.51 21.51 0 0 1 4.3 2.04 2.25 2.25 0 0 1-.32.54c-.22.31-.46.65-.72 1l-.72 1a2 2 0 0 0-.32.5 25 25 0 0 0-3-1.4 12.18 12.18 0 0 0-3.46-.76 11.79 11.79 0 0 0-3.46.36 8.78 8.78 0 0 0-3 1.37 7.23 7.23 0 0 0-2.09 2.34 6.55 6.55 0 0 0-.79 3.28 8.2 8.2 0 0 0 .29 2.2A18.65 18.65 0 0 0 587 273a13 13 0 0 0 .61 1.37 4.1 4.1 0 0 0 .36.61l18.14 23.76 6.19-16.2h4.25L609 302.32zm-24.91-25.56a13.27 13.27 0 0 0-4.32.9 12.85 12.85 0 0 0-3.89 2.34 12 12 0 0 0-2.77 3.53 9.56 9.56 0 0 0-1 4.46 10 10 0 0 0 1.08 4.72 10.76 10.76 0 0 0 2.84 3.46 12.33 12.33 0 0 0 4.1 2.12 16.41 16.41 0 0 0 4.86.72 15.84 15.84 0 0 0 3.64-.43 16.93 16.93 0 0 0 3.42-1.19 14.58 14.58 0 0 0 2.88-1.8 9.66 9.66 0 0 0 2.09-2.27q-3-3.82-6.44-8.17t-6.49-8.35zm80.64 11.16a15.47 15.47 0 0 1-1.12 5.9 14.24 14.24 0 0 1-3.13 4.75 14.69 14.69 0 0 1-4.75 3.17 15.25 15.25 0 0 1-6 1.15 13.68 13.68 0 0 1-7.16-1.87 10.37 10.37 0 0 1-4.36-4.61v5.88h-4v-55.08h4v32.4a12.93 12.93 0 0 1 11.59-6.7 15.41 15.41 0 0 1 5.94 1.12 14.24 14.24 0 0 1 4.68 3.1 14.08 14.08 0 0 1 3.1 4.75 16.14 16.14 0 0 1 1.21 6.08zm-4.25 0a12.19 12.19 0 0 0-.79-4.43 10 10 0 0 0-2.27-3.53 11 11 0 0 0-7.88-3.2 11.37 11.37 0 0 0-8 3.2 10.75 10.75 0 0 0-2.38 3.49 11.59 11.59 0 0 0 0 8.78 11.16 11.16 0 0 0 2.38 3.53 11 11 0 0 0 3.56 2.38 11.3 11.3 0 0 0 4.43.86 11 11 0 0 0 4.39-.86 10.75 10.75 0 0 0 3.49-2.38 10.49 10.49 0 0 0 2.27-3.53 11.7 11.7 0 0 0 .8-4.27zm36.94 14.76h-3.31l-.43-7.78a13.47 13.47 0 0 1-4.61 5.83 12.46 12.46 0 0 1-7.49 2.23 9.33 9.33 0 0 1-6.73-2.38 8.74 8.74 0 0 1-2.63-6.26v-20.76h4v19.44a6.16 6.16 0 0 0 6.48 6 11.71 11.71 0 0 0 4.21-.76 10.48 10.48 0 0 0 3.42-2.09 10.05 10.05 0 0 0 2.3-3.2 9.67 9.67 0 0 0 .86-4.1v-15.29h4zm8.93-39.6a2.67 2.67 0 0 1 .9-2.05 2.87 2.87 0 0 1 2-.83 2.89 2.89 0 0 1 2.81 2.88 2.7 2.7 0 0 1-.86 2.09 2.8 2.8 0 0 1-1.94.79 2.93 2.93 0 0 1-2-.79 2.64 2.64 0 0 1-.92-2.05zm4.82 39.24h-4v-28.8h4zm13.9 0h-4v-55.11h4zm7.92-14.4a15.5 15.5 0 0 1 1.15-6 14.51 14.51 0 0 1 3.13-4.75 14.77 14.77 0 0 1 10.55-4.28 13.77 13.77 0 0 1 7.45 2.09 11.3 11.3 0 0 1 4.14 4.61v-32.4h4V312h-4v-3q0-.79.07-1.55t.07-1.48a12.75 12.75 0 0 1-4.46 4.61 13.3 13.3 0 0 1-7.34 1.94 14.77 14.77 0 0 1-6-1.19 14.19 14.19 0 0 1-7.67-8 15.74 15.74 0 0 1-1.1-5.69zm4-.07a11 11 0 0 0 .86 4.39 11 11 0 0 0 5.94 5.9 11.78 11.78 0 0 0 8.86 0 11 11 0 0 0 6.8-10.3 10.85 10.85 0 0 0-.86-4.32 11.16 11.16 0 0 0-2.38-3.53 11 11 0 0 0-3.56-2.38 11.52 11.52 0 0 0-12.42 2.34 10.75 10.75 0 0 0-2.38 3.49 11 11 0 0 0-.91 4.45zm84.46.07a15.49 15.49 0 0 1-1.12 5.9 14.27 14.27 0 0 1-3.13 4.75 14.71 14.71 0 0 1-4.75 3.17 15.26 15.26 0 0 1-6 1.15 13.69 13.69 0 0 1-7.16-1.87 10.36 10.36 0 0 1-4.36-4.61v5.88h-4v-55.08h4v32.4a12.93 12.93 0 0 1 11.59-6.7 15.41 15.41 0 0 1 5.94 1.12 14.25 14.25 0 0 1 4.68 3.1 14.09 14.09 0 0 1 3.1 4.75 16.16 16.16 0 0 1 1.16 6.08zm-4.25 0a12.21 12.21 0 0 0-.79-4.43 10.06 10.06 0 0 0-2.27-3.53 11 11 0 0 0-7.88-3.2 11.38 11.38 0 0 0-8 3.2 10.75 10.75 0 0 0-2.38 3.49 11.6 11.6 0 0 0 0 8.78 11 11 0 0 0 5.94 5.9 11.3 11.3 0 0 0 4.43.86 11 11 0 0 0 4.39-.86 10.74 10.74 0 0 0 3.49-2.38 10.51 10.51 0 0 0 2.27-3.53 11.72 11.72 0 0 0 .75-4.26zm35.85 10.94a15.68 15.68 0 0 1-4.9 3 16.12 16.12 0 0 1-5.83 1.08 14.91 14.91 0 0 1-5.94-1.19 15.54 15.54 0 0 1-4.82-3.2 14.91 14.91 0 0 1-3.24-4.75 14.48 14.48 0 0 1-1.19-5.83 14.75 14.75 0 0 1 1.19-5.87 15.17 15.17 0 0 1 8-8.06 14.48 14.48 0 0 1 5.83-1.19 12.56 12.56 0 0 1 8.24 2.88 17 17 0 0 1 5.15 7.34q-2.45.94-5.44 2.12l-6.12 2.45-6.23 2.52-5.76 2.34a10.91 10.91 0 0 0 10.15 6.55 12.27 12.27 0 0 0 4.39-.79 10.4 10.4 0 0 0 3.53-2.16zm-2.45-16.85a9.45 9.45 0 0 0-3.46-3.85 9.14 9.14 0 0 0-5-1.4 10.47 10.47 0 0 0-4.32.9 11.68 11.68 0 0 0-3.53 2.41 11.27 11.27 0 0 0-2.38 3.49 10.42 10.42 0 0 0-.86 4.21 8.39 8.39 0 0 0 .22 2q2.23-.94 4.75-1.94t5-2.05q2.52-1 5-2t4.53-1.72zm9.36 6a14.74 14.74 0 0 1 1.19-5.87 15.68 15.68 0 0 1 3.24-4.86 15 15 0 0 1 4.79-3.28 14.48 14.48 0 0 1 5.83-1.19 13.66 13.66 0 0 1 4 .58 13 13 0 0 1 3.35 1.55 11.62 11.62 0 0 1 2.48 2.16 9.71 9.71 0 0 1 1.51 2.34l.29-6h3.67V312h-4v-3-1.51-1.37a8.11 8.11 0 0 1-1.51 2.34 11.93 11.93 0 0 1-2.48 2.05 12.88 12.88 0 0 1-3.35 1.48 14.77 14.77 0 0 1-4.1.54 15.09 15.09 0 0 1-6-1.19 14.68 14.68 0 0 1-4.75-3.2 15.11 15.11 0 0 1-3.13-4.72 14.42 14.42 0 0 1-1.08-5.64zm4-.22a11 11 0 0 0 .86 4.39 11 11 0 0 0 5.94 5.9 11.78 11.78 0 0 0 8.86 0 11 11 0 0 0 6.8-10.3 10.85 10.85 0 0 0-.86-4.32 11.16 11.16 0 0 0-2.38-3.53 11 11 0 0 0-3.56-2.38 11.52 11.52 0 0 0-12.42 2.34 10.75 10.75 0 0 0-2.38 3.49 11 11 0 0 0-.95 4.51zm61.2 14.83h-3.31l-.43-7.78a13.47 13.47 0 0 1-4.61 5.83 12.46 12.46 0 0 1-7.49 2.23 9.33 9.33 0 0 1-6.73-2.38 8.74 8.74 0 0 1-2.63-6.26v-20.7h4v19.44a6.16 6.16 0 0 0 6.48 6 11.71 11.71 0 0 0 4.21-.76 10.48 10.48 0 0 0 3.42-2.09 10.05 10.05 0 0 0 2.3-3.2 9.67 9.67 0 0 0 .86-4.1v-15.29h4zm12-41.76h4v12.89H957v3.6h-8.57V312h-4v-24.87h-5.76v-3.6h5.76zM962 272.8a2.67 2.67 0 0 1 .9-2.05 2.87 2.87 0 0 1 2-.83 2.89 2.89 0 0 1 2.81 2.88 2.7 2.7 0 0 1-.86 2.09 2.8 2.8 0 0 1-1.94.79 2.93 2.93 0 0 1-2-.79 2.64 2.64 0 0 1-.91-2.09zm4.8 39.2h-4v-28.8h4zm6.91-24.84v-3.89h5v-8.5q0-8.78 4.21-13.21a15.68 15.68 0 0 1 11.2-4.72v3.82a10.7 10.7 0 0 0-8.39 3.85q-3.06 3.71-3.06 10.26v8.5h9.43v3.89h-9.43V312h-4v-24.8zm49.1 25.2h-3.31l-.43-7.78a13.47 13.47 0 0 1-4.61 5.83 12.46 12.46 0 0 1-7.49 2.23 9.33 9.33 0 0 1-6.73-2.38 8.75 8.75 0 0 1-2.63-6.26v-20.76h4v19.44a6.16 6.16 0 0 0 6.48 6 11.71 11.71 0 0 0 4.21-.76 10.48 10.48 0 0 0 3.42-2.09 10 10 0 0 0 2.3-3.2 9.67 9.67 0 0 0 .86-4.1v-15.29h4zm13.9-.36h-4v-55.11h4zm42.41-22.61l-2.81-6.19h3.53q3.6 8 5.94 13.43t4.07 9.54q.86-2.59 1.84-5t2.12-5.11q1.15-2.66 2.56-5.76t3.13-7.06h4l-13.61 30.53q-2.45-5.18-4.5-10.22t-4.5-10.22l-8.64 20.45q-3.39-7.7-6.66-15.26t-6.59-15.28h4q1.73 4 3.06 7.09t2.41 5.8q1.08 2.66 2 5.08t1.8 5q.57-1.51 1.22-3.1l1.44-3.53 1.8-4.43q.94-2.48 2.39-5.72zm53.13 19.15a15.68 15.68 0 0 1-4.9 3 16.12 16.12 0 0 1-5.83 1.08 14.92 14.92 0 0 1-5.94-1.19 15.53 15.53 0 0 1-4.82-3.2 14.89 14.89 0 0 1-3.24-4.75 14.48 14.48 0 0 1-1.19-5.83 14.74 14.74 0 0 1 1.19-5.87 15.17 15.17 0 0 1 8-8.06 14.48 14.48 0 0 1 5.83-1.19 12.56 12.56 0 0 1 8.24 2.88 17 17 0 0 1 5.15 7.34q-2.45.94-5.44 2.12l-6.12 2.45-6.23 2.52-5.76 2.34a10.91 10.91 0 0 0 10.15 6.55 12.27 12.27 0 0 0 4.39-.79 10.41 10.41 0 0 0 3.53-2.16zm-2.45-16.85a9.45 9.45 0 0 0-3.46-3.85 9.14 9.14 0 0 0-5-1.4 10.48 10.48 0 0 0-4.32.9 11.68 11.68 0 0 0-3.53 2.41 11.27 11.27 0 0 0-2.38 3.49 10.43 10.43 0 0 0-.86 4.21 8.34 8.34 0 0 0 .22 2q2.23-.94 4.75-1.94t5-2.05q2.52-1 5-2t4.58-1.72zm41.9 5.9a15.49 15.49 0 0 1-1.12 5.9 14.26 14.26 0 0 1-3.13 4.75 14.69 14.69 0 0 1-4.75 3.17 15.25 15.25 0 0 1-6 1.15 13.69 13.69 0 0 1-7.16-1.87 10.36 10.36 0 0 1-4.36-4.61v5.88h-4v-55.07h4v32.4a12.93 12.93 0 0 1 11.59-6.7 15.41 15.41 0 0 1 5.94 1.12 14.24 14.24 0 0 1 4.68 3.1 14.08 14.08 0 0 1 3.1 4.75 16.16 16.16 0 0 1 1.22 6.08zm-4.25 0a12.19 12.19 0 0 0-.79-4.43 10 10 0 0 0-2.27-3.53 11 11 0 0 0-7.88-3.2 11.38 11.38 0 0 0-8 3.2 10.75 10.75 0 0 0-2.38 3.49 11.59 11.59 0 0 0 0 8.78 11 11 0 0 0 5.94 5.9 11.29 11.29 0 0 0 4.43.86 11 11 0 0 0 4.39-.86 10.74 10.74 0 0 0 3.49-2.38 10.49 10.49 0 0 0 2.27-3.53 11.7 11.7 0 0 0 .81-4.25zm27.22-11.59l-2.16 2.81a5.21 5.21 0 0 0-2.27-1.48 9.07 9.07 0 0 0-3.42-.68 6.14 6.14 0 0 0-1.55.22 4.81 4.81 0 0 0-1.51.68 4 4 0 0 0-1.15 1.22 3.41 3.41 0 0 0-.47 1.84 3.48 3.48 0 0 0 1 2.63 9.4 9.4 0 0 0 2.52 1.69q1.51.72 3.28 1.37a18.05 18.05 0 0 1 3.28 1.58 8.35 8.35 0 0 1 2.52 2.41 6.57 6.57 0 0 1 1 3.78 8.34 8.34 0 0 1-2.45 6.08q-2.45 2.48-7 2.48a15.56 15.56 0 0 1-5-.86 9.1 9.1 0 0 1-4.14-2.74c.19-.19.43-.46.72-.79l.79-.94.61-.76c.17-.22.28-.32.32-.32a2.72 2.72 0 0 0 .94.79 13.14 13.14 0 0 0 1.66.83 15.08 15.08 0 0 0 2 .68 8.07 8.07 0 0 0 2.09.29 7.29 7.29 0 0 0 1.84-.25 5.56 5.56 0 0 0 1.8-.83 4.52 4.52 0 0 0 1.33-1.44 4.09 4.09 0 0 0 .5-2.09 3.48 3.48 0 0 0-1-2.63 9.46 9.46 0 0 0-2.52-1.69 30.87 30.87 0 0 0-3.31-1.33 16.11 16.11 0 0 1-3.31-1.55 8.16 8.16 0 0 1-2.52-2.45 6.87 6.87 0 0 1-1-3.89 7.6 7.6 0 0 1 .79-3.64 7.65 7.65 0 0 1 4.79-3.85 11.08 11.08 0 0 1 3-.43 12.38 12.38 0 0 1 4.1.79 10.32 10.32 0 0 1 3.9 2.47zm7.85-13.18a2.67 2.67 0 0 1 .9-2.05 2.87 2.87 0 0 1 2-.83 2.89 2.89 0 0 1 2.81 2.88 2.7 2.7 0 0 1-.86 2.09 2.8 2.8 0 0 1-1.94.79 2.93 2.93 0 0 1-2-.79 2.64 2.64 0 0 1-.91-2.11zm4.82 39.24h-4v-28.8h4zm12-41.4h4v12.89h8.57v3.6h-8.57V312h-4v-24.87h-5.76v-3.6h5.76zm41.33 37.94a15.68 15.68 0 0 1-4.9 3 16.12 16.12 0 0 1-5.83 1.08 14.92 14.92 0 0 1-5.94-1.19 15.53 15.53 0 0 1-4.82-3.2 14.89 14.89 0 0 1-3.24-4.75 14.48 14.48 0 0 1-1.19-5.83 14.75 14.75 0 0 1 1.19-5.87 15.17 15.17 0 0 1 8-8.06 14.48 14.48 0 0 1 5.83-1.19 12.56 12.56 0 0 1 8.24 2.88 17 17 0 0 1 5.15 7.34q-2.45.94-5.44 2.12l-6.12 2.45-6.23 2.52-5.76 2.34a10.91 10.91 0 0 0 10.15 6.55 12.27 12.27 0 0 0 4.39-.79 10.41 10.41 0 0 0 3.53-2.16zm-2.45-16.85a9.45 9.45 0 0 0-3.46-3.85 9.14 9.14 0 0 0-5-1.4 10.48 10.48 0 0 0-4.32.9 11.68 11.68 0 0 0-3.53 2.41 11.27 11.27 0 0 0-2.38 3.49 10.42 10.42 0 0 0-.86 4.21 8.34 8.34 0 0 0 .22 2q2.23-.94 4.75-1.94t5-2.05q2.52-1 5-2t4.61-1.78zm26.64-5.76l-2.16 2.81a5.21 5.21 0 0 0-2.27-1.48 9.07 9.07 0 0 0-3.42-.68 6.14 6.14 0 0 0-1.55.22 4.81 4.81 0 0 0-1.51.68 4 4 0 0 0-1.15 1.22 3.41 3.41 0 0 0-.47 1.84 3.48 3.48 0 0 0 1 2.63 9.4 9.4 0 0 0 2.52 1.69q1.51.72 3.28 1.37a18.05 18.05 0 0 1 3.28 1.58 8.35 8.35 0 0 1 2.52 2.41 6.57 6.57 0 0 1 1 3.78 8.34 8.34 0 0 1-2.45 6.08q-2.45 2.48-7 2.48a15.56 15.56 0 0 1-5-.86 9.1 9.1 0 0 1-4.14-2.74c.19-.19.43-.46.72-.79l.79-.94.61-.76c.17-.22.28-.32.32-.32a2.72 2.72 0 0 0 .94.79 13.14 13.14 0 0 0 1.66.83 15.08 15.08 0 0 0 2 .68 8.07 8.07 0 0 0 2.09.29 7.29 7.29 0 0 0 1.84-.25 5.56 5.56 0 0 0 1.8-.83 4.52 4.52 0 0 0 1.33-1.44 4.09 4.09 0 0 0 .5-2.09 3.48 3.48 0 0 0-1-2.63 9.46 9.46 0 0 0-2.52-1.69 30.87 30.87 0 0 0-3.31-1.33 16.11 16.11 0 0 1-3.31-1.55 8.16 8.16 0 0 1-2.52-2.45 6.87 6.87 0 0 1-1-3.89 7.6 7.6 0 0 1 .79-3.64 7.65 7.65 0 0 1 4.79-3.85 11.08 11.08 0 0 1 3-.43 12.38 12.38 0 0 1 4.1.79 10.32 10.32 0 0 1 3.93 2.48zm8.42 23.11a2.85 2.85 0 0 1 .86-2.09 2.76 2.76 0 0 1 2-.86 3 3 0 0 1 2.88 3 2.76 2.76 0 0 1-.9 2.12 2.86 2.86 0 0 1-2 .83 2.89 2.89 0 0 1-2.88-3zM690.82 48.53a8.85 8.85 0 0 1 .68-3.37 7.34 7.34 0 0 1 1.92-2.78 10.26 10.26 0 0 1 2.85-1.89 9.17 9.17 0 0 1 7.07 0 8.44 8.44 0 0 1 2.91 1.89 9.42 9.42 0 0 1 1.92 2.78 8.06 8.06 0 0 1 .74 3.37 7.87 7.87 0 0 1-.74 3.37 8.47 8.47 0 0 1-1.92 2.72 8.58 8.58 0 0 1-2.91 1.83 9.94 9.94 0 0 1-7.07 0 8.69 8.69 0 0 1-4.76-4.45 9.63 9.63 0 0 1-.69-3.47z" fill="#fff" id="Layer_1-2" data-name="Layer 1"/></g></svg>