<svg id="Layer_1" viewBox="0 0 1470.9 395.8"><g id="Layer_1-2" fill="#FFFEFA"><path d="M90.3 91.2V18H111c3.7 0 7.4.5 11 1.6 3.1 1 6 2.5 8.4 4.6 2.3 2 4.2 4.6 5.4 7.4 1.3 3.1 2 6.5 1.9 9.9 0 3-.4 5.9-1.3 8.8-.9 2.9-2.3 5.6-4.3 7.8-2.1 2.4-4.7 4.3-7.7 5.6-3.7 1.5-7.7 2.3-11.6 2.2h-10.2v25.2l-12.3.1zm12.3-36.7h9.8c2.2.1 4.3-.4 6.3-1.3 1.6-.8 2.9-1.9 4-3.3 1-1.2 1.7-2.6 2.1-4.1.4-1.3.6-2.6.6-3.9s-.2-2.5-.6-3.8c-.4-1.5-1.1-2.9-2-4.1-1.1-1.4-2.4-2.5-4-3.2-2-.9-4.2-1.4-6.4-1.3h-9.9l.1 25zM178.5 86.3c-2.2 1.9-4.8 3.5-7.5 4.4-2.9 1.1-5.9 1.6-9 1.6s-6.1-.6-8.9-1.8c-2.7-1.1-5.2-2.8-7.2-4.8-2.1-2.1-3.7-4.5-4.9-7.1-2.4-5.5-2.4-11.8 0-17.4 1.2-2.7 2.8-5.1 4.9-7.1 2-2 4.5-3.7 7.1-4.8 2.7-1.2 5.6-1.8 8.6-1.8 4.6-.1 9.1 1.5 12.7 4.4 3.7 3 6.4 7 7.8 11.5-2 .7-4.3 1.6-7 2.7l-8.3 3.3c-2.9 1.1-5.8 2.3-8.6 3.5-2.9 1.2-5.5 2.2-7.9 3.2 1.1 2 2.7 3.8 4.7 5 2 1.3 4.4 1.9 6.8 1.9 1.8 0 3.6-.4 5.3-1 1.6-.5 3.1-1.4 4.4-2.6l7 6.9zM170 61.2c-.8-1.5-2.1-2.6-3.6-3.3s-3.1-1-4.7-1c-1.8 0-3.5.3-5.1 1-1.5.7-2.9 1.6-4.1 2.8-1.1 1.2-2.1 2.5-2.7 4-.7 1.5-1 3.1-1 4.7v.4l5.4-2.2 5.7-2.4c1.9-.8 3.7-1.6 5.5-2.3 1.6-.6 3.2-1.2 4.6-1.7zM189.9 48.5h8.4c.1 2.4.3 4.4.4 5.9.2 1.5.3 3.2.4 5.1 1.4-3.4 3.6-6.4 6.5-8.7 3-2.3 6.8-3.4 10.5-3.3 4.3 0 7.8 1.2 10.4 3.6 2.6 2.4 4.1 5.8 4.1 9.3v30.9h-9.5V64.8c-.1-2-.9-3.9-2.2-5.4s-3.4-2.3-6.2-2.5c-1.8 0-3.7.3-5.4 1-1.6.7-3 1.6-4.2 2.9-1.2 1.2-2.1 2.7-2.7 4.3-.7 1.7-1 3.6-1 5.4v20.6h-9.6l.1-42.6zM240.2 70.1c0-3.1.6-6.1 1.7-9 1.1-2.7 2.7-5.1 4.7-7.2 4-4.2 9.6-6.5 15.4-6.5 2 0 4.1.3 6 .9 1.5.5 3 1.2 4.4 2 1 .6 1.9 1.3 2.7 2.1l1.1 1.2c0-.8.1-1.6.2-2.4.1-.9.2-1.8.2-2.7h9.2V89c.1 3.3-.5 6.6-1.7 9.7-1 2.7-2.7 5.1-4.8 7.1-2.1 2-4.6 3.4-7.3 4.4-3 1-6.2 1.5-9.4 1.5-2.3 0-4.6-.2-6.9-.8-1.8-.5-3.6-1.2-5.3-2.1-1.5-.8-3-1.8-4.3-2.9s-2.6-2.1-3.8-3.2l6.2-6.5c1.8 1.7 3.8 3.2 6 4.5 2.4 1.3 5.1 1.9 7.8 1.9 4.1 0 7.5-1 9.9-3 2.5-2.1 3.9-5.3 3.7-8.5v-1.2c0-.5 0-.9.1-1.3 0-.5.1-1.1.2-1.6.1-.4.2-.8.2-1.2-.6.7-1.3 1.4-2.2 2.2-.9.9-1.9 1.6-3 2.2-1.3.7-2.7 1.3-4.1 1.7-1.7.5-3.5.7-5.3.7-3 0-6-.5-8.8-1.7-2.6-1.1-5-2.7-6.9-4.7s-3.5-4.4-4.5-7c-.9-3.1-1.4-6.1-1.4-9.1zm9.6-.4c0 1.8.3 3.6 1 5.2.6 1.6 1.5 3 2.7 4.2s2.6 2.1 4.2 2.8c1.7.7 3.5 1 5.3 1s3.7-.3 5.4-1c1.6-.6 3-1.6 4.2-2.8 1.2-1.2 2.1-2.7 2.6-4.3.7-1.6 1-3.4 1-5.1s-.3-3.5-1-5.1c-.6-1.5-1.5-2.9-2.7-4.1-1.2-1.2-2.7-2.1-4.2-2.7-1.7-.7-3.5-1-5.4-1-1.8 0-3.6.3-5.3 1-3.1 1.2-5.6 3.7-6.9 6.8-.6 1.7-.9 3.4-.9 5.1zM294.9 57.9v-9.4h7.3v-9c0-9 2.1-15.6 6.2-19.8s10.2-6.5 18.1-6.8V22c-5.2.3-9 2-11.2 5-2.3 3-3.4 7.3-3.4 12.9v8.6h13.2v9.4h-13.2v33.3h-9.6V57.9h-7.4zM368.6 86.3c-2.2 1.9-4.8 3.5-7.5 4.4-2.9 1.1-5.9 1.6-9 1.6-3 0-6.1-.6-8.9-1.8-2.7-1.1-5.2-2.8-7.2-4.8-2.1-2-3.8-4.5-4.9-7.1-2.4-5.5-2.4-11.8 0-17.4 1.2-2.7 2.8-5.1 4.9-7.1 2-2 4.5-3.7 7.1-4.8 2.7-1.2 5.6-1.8 8.6-1.8 4.6-.1 9.1 1.5 12.7 4.4 3.7 3 6.4 7 7.8 11.5-2 .7-4.3 1.6-7 2.7l-8.3 3.3c-2.9 1.1-5.8 2.3-8.6 3.5-2.9 1.2-5.5 2.2-7.9 3.2 1.1 2 2.7 3.8 4.7 5 2 1.3 4.4 1.9 6.8 1.9 1.8 0 3.6-.4 5.3-1 1.6-.5 3.1-1.4 4.4-2.6l7 6.9zm-8.4-25.1c-.8-1.5-2.1-2.6-3.6-3.3s-3.1-1-4.7-1c-1.8 0-3.5.3-5.1 1-1.5.7-2.9 1.6-4.1 2.8-1.1 1.2-2.1 2.5-2.7 4-.7 1.5-1 3.1-1 4.7v.4l5.4-2.2 5.7-2.4c1.9-.8 3.7-1.6 5.5-2.3 1.5-.6 3.1-1.2 4.6-1.7zM378.9 32c0-1.7.7-3.2 1.9-4.3 1.1-1.1 2.6-1.7 4.2-1.7 1.5 0 2.9.7 4 1.7 1.2 1.1 1.9 2.7 1.9 4.3.1 1.7-.6 3.3-1.9 4.4-1.1 1-2.5 1.6-4 1.7-1.5 0-3-.6-4.1-1.7-1.3-1.1-2-2.8-2-4.4zm10.8 59.2H380V48.5h9.6l.1 42.7zM438.4 18h42.4L441 79.4h40.4v11.8h-61.9c.4-.6 1.3-1.9 2.6-3.9s2.9-4.5 4.8-7.4 3.9-6.2 6.2-9.7c2.3-3.6 4.6-7.2 6.9-10.9s4.6-7.3 6.9-10.8 4.4-6.8 6.2-9.6l4.8-7.3c1.3-2 2.2-3.3 2.6-3.8h-27.2c-1.1 0-2.2-.2-3.2-.4-1-.3-2-.8-2.9-1.4-.8-.6-1.5-1.3-2.1-2.1-.5-.8-.8-1.8-.8-2.8v-6.7h10.9v1.3c0 1.3.2 2.1.7 2.2.8.1 1.6.1 2.5.1zM489.6 12.8h9.6v46.1c1.3-3.2 3.5-6.1 6.2-8.2 3-2.2 6.6-3.3 10.3-3.2 4.4 0 7.9 1.2 10.5 3.5 2.6 2.4 4.1 5.8 4.1 9.3v30.9H521V64.8c-.1-2-.9-3.9-2.2-5.4s-3.4-2.3-6.2-2.5c-1.8 0-3.7.3-5.4 1-1.6.7-3 1.6-4.2 2.9-1.2 1.2-2.1 2.7-2.7 4.3-.7 1.7-1 3.6-1 5.4v20.6h-9.6l-.1-78.3zM579.2 86.3c-2.2 1.9-4.8 3.5-7.5 4.4-2.9 1.1-5.9 1.6-9 1.6-3 0-6.1-.6-8.9-1.8-2.7-1.1-5.2-2.8-7.2-4.8-2.1-2.1-3.7-4.5-4.9-7.1-2.4-5.5-2.4-11.8 0-17.4 1.2-2.7 2.8-5.1 4.9-7.1 2-2 4.5-3.7 7.1-4.8 2.7-1.2 5.6-1.8 8.6-1.8 4.6-.1 9.1 1.5 12.7 4.4 3.7 3 6.4 7 7.8 11.5-2 .7-4.3 1.6-7 2.7l-8.3 3.3c-2.9 1.1-5.8 2.3-8.6 3.5-2.9 1.2-5.5 2.2-7.9 3.2 1.1 2 2.7 3.8 4.7 5 2 1.3 4.4 1.9 6.8 1.9 1.8 0 3.6-.4 5.3-1 1.6-.5 3.1-1.4 4.4-2.6l7 6.9zm-8.4-25.1c-.8-1.5-2.1-2.6-3.6-3.3s-3.1-1-4.7-1c-1.8 0-3.5.3-5.1 1-1.5.7-2.9 1.6-4.1 2.8-1.1 1.2-2.1 2.5-2.7 4-.7 1.5-1 3.1-1 4.7v.4l5.4-2.2 5.7-2.4c1.9-.8 3.7-1.6 5.4-2.2 1.7-.7 3.3-1.3 4.7-1.8zM590.6 48.5h8.4c.1 2.4.3 4.4.5 5.9s.3 3.2.5 5.1c1.4-3.4 3.6-6.4 6.5-8.7 3-2.3 6.7-3.4 10.5-3.3 4.3 0 7.8 1.2 10.4 3.6 2.6 2.4 4.1 5.8 4.1 9.3v30.9H622V64.8c-.1-2-.9-3.9-2.2-5.4s-3.4-2.3-6.2-2.5c-1.8 0-3.7.3-5.4 1-1.6.7-3 1.6-4.2 2.9-1.2 1.2-2.1 2.7-2.7 4.3-.7 1.7-1 3.6-1 5.4v20.6h-9.6l-.1-42.6zM640.9 70.1c0-3.1.6-6.1 1.7-9 1.1-2.7 2.7-5.1 4.7-7.2 4-4.2 9.6-6.5 15.4-6.5 2 0 4.1.3 6 .9 1.5.5 3 1.2 4.4 2 1 .6 1.9 1.3 2.7 2.1l1.2 1.2c0-.8.1-1.6.2-2.4.1-.9.2-1.8.2-2.7h9.2V89c.1 3.3-.5 6.6-1.7 9.7-1 2.7-2.7 5.1-4.8 7.1s-4.6 3.4-7.3 4.4c-3 1-6.2 1.5-9.4 1.5-2.3 0-4.6-.2-6.9-.8-1.8-.5-3.6-1.2-5.3-2.1-1.5-.8-3-1.8-4.3-2.9s-2.6-2.1-3.8-3.2l6.2-6.5c1.8 1.7 3.8 3.2 6 4.5 2.4 1.3 5.1 1.9 7.8 1.9 4.1 0 7.5-1 9.9-3 2.5-2.1 3.9-5.3 3.7-8.5v-1.2c0-.5 0-.9.1-1.3 0-.5.1-1.1.2-1.6.1-.4.2-.8.2-1.2-.6.7-1.3 1.4-2.2 2.2-.9.9-1.9 1.6-3 2.2-1.3.7-2.7 1.3-4.1 1.7-1.7.5-3.5.7-5.3.7-3 0-6-.6-8.8-1.7-2.6-1.1-5-2.7-6.9-4.7s-3.5-4.4-4.5-7c-.9-3.1-1.5-6.1-1.5-9.1zm9.7-.4c0 1.8.3 3.6 1 5.2.6 1.6 1.5 3 2.7 4.2s2.6 2.1 4.2 2.8c1.7.7 3.5 1 5.3 1s3.7-.3 5.4-1c1.6-.6 3-1.6 4.2-2.8 1.2-1.2 2.1-2.7 2.6-4.3.7-1.6 1-3.4 1-5.1s-.3-3.5-1-5.1c-.6-1.5-1.5-2.9-2.7-4.1-1.2-1.2-2.7-2.1-4.2-2.7-1.7-.7-3.5-1-5.4-1-1.8 0-3.6.3-5.3 1-3.1 1.2-5.6 3.7-6.9 6.8-.6 1.7-1 3.4-.9 5.1zM722.7 60.6c0-2 .4-3.9 1.1-5.7.7-1.8 1.7-3.4 3.1-4.7 1.3-1.3 2.9-2.4 4.6-3.2 1.8-.8 3.7-1.2 5.7-1.2s3.9.4 5.7 1.2c1.8.7 3.3 1.8 4.7 3.2 1.3 1.4 2.4 3 3.1 4.7.8 1.8 1.2 3.8 1.2 5.7 0 2-.4 3.9-1.2 5.7-.7 1.7-1.8 3.3-3.1 4.6-1.3 1.3-2.9 2.4-4.7 3.1s-3.8 1.1-5.7 1.1-3.9-.4-5.7-1.1c-3.5-1.4-6.2-4.2-7.7-7.6-.7-1.9-1.1-3.9-1.1-5.8zM873.1 18.4c-2.4 6.4-4.9 12.9-7.5 19.7s-5.2 13.5-7.8 20.2-5.1 13.1-7.4 19.2c-2.4 6.1-4.5 11.8-6.4 16.9l-16.5-40.8c-.3-.6-.4-1-.5-1.2s-.2-.6-.3-1.2c-.1.3-.1.5-.2.8 0 .2-.1.5-.2.7-.1.3-.2.5-.3.8-2.4 5.3-4.7 10.4-6.9 15.5-.9 2.1-1.9 4.4-3 6.7l-3.1 6.8-2.9 6.5c-.9 2.1-1.8 3.9-2.5 5.6-4.8-12.8-9.7-25.5-14.6-38.1-4.9-12.6-9.7-25.3-14.5-38.1h14c3 8.5 5.9 16.5 8.7 24s4.9 14.2 6.5 20c.1.5.3 1.1.4 1.8.1.7.3 1.3.4 1.8 0-.6.2-1.2.5-1.8.3-.8.5-1.4.7-1.8.2-.6.4-1.3.7-1.9l1.4-3.2c.5-1.2 1.1-2.5 1.8-4s1.3-2.9 2-4.4c1.6-3.4 3.3-7.2 5.2-11.2-.9-2.8-1.8-5.5-2.6-8-.7-2.1-1.5-4.3-2.2-6.5s-1.2-3.8-1.6-5h11.8c2.9 7.4 5.5 14.2 7.8 20.4l3 7.8c1 2.6 1.9 5 2.7 7.1l2.1 5.6c.6 1.5.9 2.6 1.2 3.1.3.6.4 1.2.5 1.8l.3 1.8c.1-.6.3-1.2.3-1.8s.2-1.2.3-1.7c.7-3.3 1.7-6.5 2.8-9.7 1.2-3.4 2.5-7 3.9-10.8s2.9-7.6 4.5-11.5 3.1-7.9 4.6-11.9h12.9zM907.8 86.3c-2.2 1.9-4.8 3.5-7.5 4.4-2.9 1.1-5.9 1.6-9 1.6-3 0-6.1-.6-8.9-1.8-2.7-1.1-5.2-2.8-7.2-4.8-2.1-2.1-3.7-4.5-4.9-7.1-2.4-5.5-2.4-11.8 0-17.4 1.2-2.7 2.8-5.1 4.9-7.1 2-2 4.5-3.7 7.1-4.8 2.7-1.2 5.6-1.8 8.6-1.8 4.6-.1 9.1 1.5 12.7 4.4 3.7 3 6.4 7 7.8 11.5-2 .7-4.3 1.6-7 2.7l-8.3 3.3c-2.9 1.1-5.8 2.3-8.6 3.5-2.9 1.2-5.5 2.2-7.9 3.2 1.1 2 2.7 3.8 4.7 5 2 1.3 4.4 1.9 6.8 1.9 1.8 0 3.6-.4 5.3-1 1.6-.5 3.1-1.4 4.4-2.6l7 6.9zm-8.4-25.1c-.8-1.5-2.1-2.6-3.6-3.3s-3.1-1-4.7-1c-1.8 0-3.5.4-5.1 1-1.5.7-2.9 1.6-4.1 2.8-1.1 1.2-2.1 2.5-2.7 4-.7 1.5-1 3.1-1 4.7v.4l5.4-2.2 5.7-2.4c1.9-.8 3.7-1.6 5.5-2.3 1.6-.6 3.2-1.2 4.6-1.7zM965 70c0 3-.5 6-1.6 8.9-1 2.6-2.6 5.1-4.6 7.1s-4.4 3.6-7.1 4.7c-2.9 1.1-5.9 1.7-9 1.7-3 .1-6-.6-8.7-1.9-2-.9-3.8-2.2-5.2-4v.8c0 .3.1.6 0 .8v3.2h-9.6V12.8h9.6V54c.6-.8 1.3-1.5 2.1-2.2.9-.8 2-1.5 3.1-2.1 1.3-.7 2.7-1.2 4.1-1.6 1.6-.5 3.3-.7 5-.7 3 0 6 .5 8.9 1.6 2.6 1 4.9 2.5 6.9 4.5 2 2.1 3.5 4.5 4.5 7.1 1.1 3 1.6 6.2 1.6 9.4zm-10.5-.2c.1-3.4-1-6.7-3.3-9.3-2.2-2.4-5.2-3.7-9.1-3.7-1.8 0-3.6.3-5.3 1-1.6.6-3 1.5-4.2 2.7-2.4 2.4-3.8 5.7-3.8 9.2 0 1.8.3 3.6 1 5.2 1.3 3.2 3.8 5.7 6.9 6.9 1.7.7 3.5 1 5.3 1s3.6-.3 5.2-1c1.5-.6 2.8-1.6 3.9-2.8 1.1-1.2 1.9-2.6 2.4-4.2.8-1.5 1.1-3.3 1-5zM995.6 69.9c0-3.1.5-6.2 1.6-9.1 1-2.6 2.6-5.1 4.6-7.1s4.3-3.6 6.9-4.6c2.8-1.1 5.7-1.7 8.7-1.7 1.9 0 3.8.2 5.6.7 1.4.4 2.8 1 4.1 1.7 1 .6 2 1.3 2.8 2.2.7.8 1.3 1.4 1.7 2V12.8h9.6v78.4h-9.6v-2.8c0-.4 0-.7.1-1.1.1-.3.1-.6.1-.9-.7.7-1.4 1.4-2.2 2-1 .8-2 1.4-3.1 2-1.3.6-2.7 1.1-4.1 1.5-1.7.4-3.4.6-5.2.6-3.2 0-6.3-.5-9.2-1.8-2.6-1.1-4.9-2.7-6.8-4.8-1.9-2.1-3.4-4.6-4.3-7.2-.9-2.9-1.3-5.8-1.3-8.8zm9.6-.2c0 1.8.3 3.6 1 5.2.6 1.6 1.5 3 2.7 4.2s2.6 2.1 4.2 2.8c1.7.7 3.5 1 5.3 1s3.7-.3 5.4-1c1.6-.6 3-1.6 4.2-2.8 1.2-1.2 2.1-2.6 2.7-4.2.7-1.6 1-3.4 1-5.1s-.3-3.5-1-5.1c-.6-1.5-1.5-2.9-2.7-4.1-1.2-1.2-2.7-2.1-4.2-2.7-1.7-.7-3.5-1-5.4-1-1.8 0-3.6.3-5.3 1-3.1 1.2-5.6 3.7-6.9 6.8-.6 1.6-1 3.3-1 5zM1090.2 86.3c-2.2 1.9-4.8 3.5-7.5 4.4-2.9 1.1-5.9 1.6-9 1.6-3 0-6.1-.6-8.9-1.8-2.7-1.1-5.2-2.8-7.2-4.8-2.1-2.1-3.7-4.5-4.9-7.1-2.4-5.5-2.4-11.8 0-17.4 1.2-2.7 2.8-5.1 4.9-7.1 2-2 4.5-3.7 7.1-4.8 2.7-1.2 5.6-1.8 8.6-1.8 4.6-.1 9.1 1.5 12.7 4.4 3.7 3 6.4 7 7.8 11.5-2 .7-4.3 1.6-7 2.7l-8.3 3.3c-2.9 1.1-5.8 2.3-8.6 3.5-2.9 1.2-5.5 2.2-7.9 3.2 1.1 2 2.7 3.8 4.7 5 2 1.3 4.4 1.9 6.8 1.9 1.8 0 3.6-.4 5.3-1 1.6-.5 3.1-1.4 4.4-2.6l7 6.9zm-8.4-25.1c-.8-1.5-2.1-2.6-3.6-3.3s-3.1-1-4.7-1c-1.8 0-3.5.3-5.1 1-1.5.7-2.9 1.6-4.1 2.8-1.1 1.2-2.1 2.5-2.7 4-.7 1.5-1 3.1-1 4.7v.4l5.4-2.2 5.7-2.4c1.9-.8 3.7-1.6 5.5-2.3 1.6-.6 3.2-1.2 4.6-1.7zM1118.1 93.7c-4-7.6-7.8-15.1-11.4-22.5s-7.3-15-11.1-22.6h10.4c2.5 5 4.5 8.9 6 12 1.5 3 2.6 5.5 3.4 7.3.8 1.9 1.4 3.4 1.8 4.5s.7 2.3 1.1 3.5l1.2-3.5c.4-1.1 1-2.6 1.8-4.5s1.9-4.3 3.4-7.3c1.4-3 3.4-7 6-12h10.3c-3.8 7.6-7.6 15.2-11.2 22.6-4 7.4-7.8 14.9-11.7 22.5zM1182.4 86.3c-2.2 1.9-4.8 3.5-7.5 4.4-2.9 1.1-5.9 1.6-9 1.6-3 0-6.1-.6-8.9-1.8-2.7-1.1-5.2-2.8-7.2-4.8-2.1-2.1-3.7-4.5-4.9-7.1-2.4-5.5-2.4-11.8 0-17.4 1.2-2.7 2.8-5.1 4.9-7.1 2-2 4.5-3.7 7.1-4.8 2.7-1.2 5.6-1.8 8.6-1.8 4.6-.1 9.1 1.5 12.7 4.4 3.7 3 6.4 7 7.8 11.5-2 .7-4.3 1.6-7 2.7l-8.3 3.3c-2.9 1.1-5.8 2.3-8.6 3.5-2.9 1.2-5.5 2.2-7.9 3.2 1.1 2 2.7 3.8 4.7 5 2 1.3 4.4 1.9 6.8 1.9 1.8 0 3.6-.4 5.3-1 1.6-.5 3.1-1.4 4.4-2.6l7 6.9zm-8.4-25.1c-.8-1.5-2.1-2.6-3.6-3.3s-3.1-1-4.7-1c-1.8 0-3.5.3-5.1 1-1.5.7-2.9 1.6-4.1 2.8-1.1 1.2-2.1 2.5-2.7 4-.7 1.5-1 3.1-1 4.7v.4l5.4-2.2 5.7-2.4c1.9-.8 3.7-1.6 5.5-2.3 1.6-.6 3.2-1.2 4.6-1.7zM1203.4 91.2h-9.5V12.8h9.5v78.4zM1213 69.8c0-5.9 2.4-11.6 6.6-15.8 2.1-2 4.6-3.6 7.3-4.8 5.7-2.3 12.1-2.3 17.8 0 2.7 1.1 5.1 2.7 7.1 4.8 4.1 4.2 6.4 9.9 6.4 15.8 0 3-.5 6-1.7 8.7-1.1 2.7-2.7 5.1-4.7 7.2s-4.5 3.7-7.1 4.8c-2.8 1.2-5.9 1.8-9 1.8-3 0-6-.5-8.8-1.6-2.7-1-5.1-2.6-7.2-4.6s-3.7-4.5-4.9-7.1c-1.2-2.9-1.8-6-1.8-9.2zm9.5.1c0 7.2 5.9 13 13.1 12.9 3.4 0 6.6-1.4 9.1-3.7 1.2-1.2 2.1-2.6 2.8-4.1 1.4-3.2 1.4-6.9 0-10.1-1.4-3.1-3.8-5.6-6.9-6.9-3.2-1.4-6.9-1.4-10.1 0-1.5.7-2.9 1.6-4.1 2.8-2.5 2.3-3.9 5.7-3.9 9.1zM1313.5 70c0 3-.5 6-1.6 8.9-1 2.6-2.6 5.1-4.6 7.1s-4.4 3.6-7.1 4.7c-2.9 1.1-5.9 1.7-9 1.7-3 .1-6-.6-8.7-1.9-2-.9-3.8-2.2-5.2-4 0 .3 0 .5.1.8V111.7h-9.6V48.5h9.2c0 .9.1 1.9.2 2.8.1.9.2 1.7.2 2.6.6-.8 1.3-1.5 2.1-2.2.9-.8 2-1.5 3.1-2.1 1.3-.7 2.7-1.2 4.1-1.6 1.6-.5 3.3-.7 5-.7 3 0 6.1.5 8.9 1.6 2.6 1 4.9 2.5 6.9 4.5 2 2.1 3.5 4.5 4.5 7.1 1 3.1 1.6 6.3 1.5 9.5zm-10.4-.2c.1-3.4-1-6.7-3.3-9.3-2.2-2.4-5.2-3.7-9.1-3.7-1.8 0-3.6.3-5.3 1-1.6.6-3 1.5-4.2 2.7-2.4 2.4-3.8 5.7-3.8 9.2 0 1.8.3 3.6 1 5.2 1.3 3.2 3.8 5.7 6.9 6.9 1.7.7 3.5 1 5.3 1s3.6-.3 5.2-1c1.5-.6 2.8-1.6 3.9-2.8 1.1-1.2 1.9-2.6 2.4-4.2.7-1.5 1-3.3 1-5zM1359.9 86.3c-2.2 1.9-4.8 3.5-7.5 4.4-2.9 1.1-5.9 1.6-9 1.6-3 0-6.1-.6-8.9-1.8-2.7-1.1-5.2-2.8-7.2-4.8-2.1-2.1-3.7-4.5-4.9-7.1-2.4-5.5-2.4-11.8 0-17.4 1.2-2.7 2.8-5.1 4.9-7.1 2-2 4.5-3.7 7.1-4.8 2.7-1.2 5.6-1.8 8.6-1.8 4.6-.1 9.1 1.5 12.7 4.4 3.7 3 6.4 7 7.8 11.5-2 .7-4.3 1.6-7 2.7l-8.3 3.3c-2.9 1.1-5.8 2.3-8.6 3.5-2.9 1.2-5.5 2.2-7.9 3.2 1.1 2 2.7 3.8 4.7 5 2 1.3 4.4 1.9 6.8 1.9 1.8 0 3.6-.4 5.3-1 1.6-.5 3.1-1.4 4.4-2.6l7 6.9zm-8.5-25.1c-.8-1.5-2.1-2.6-3.6-3.3s-3.1-1-4.7-1c-1.8 0-3.5.3-5.1 1-1.5.7-2.9 1.6-4.1 2.8-1.1 1.2-2.1 2.5-2.7 4-.7 1.5-1 3.1-1 4.7v.4l5.4-2.2 5.7-2.4c1.9-.8 3.7-1.6 5.5-2.3 1.7-.6 3.2-1.2 4.6-1.7zM1395.2 59.9c-1.8 0-3.6.2-5.4.7-1.6.4-3.2 1.2-4.5 2.2s-2.4 2.2-3.2 3.6c-.8 1.6-1.3 3.3-1.2 5.1v19.8h-9.6V48.5h8.4c.1 2.4.3 4.4.4 5.9.2 1.5.3 3.2.4 5.1.9-1.9 2.1-3.6 3.5-5s2.9-2.7 4.6-3.8c1.5-1 3-1.8 4.7-2.4 1.2-.5 2.6-.8 3.9-.8l-2 12.4zM0 174h4.8v50H0v-50zM15.3 166l-2-1.5c1-.9 1.8-2.2 2.2-3.5.4-1.5.5-3 .2-4.6l2.8-.5c.4 1.8.3 3.8-.3 5.6-.6 1.7-1.6 3.3-2.9 4.5zM29.8 196H33c0 .4.1 1 .1 1.6s.1 1.4.1 2.1.1 1.4.1 2v1.4c1-2.2 2.5-4.2 4.5-5.6 2-1.5 4.5-2.2 7-2.2 2.3-.1 4.5.6 6.3 2.1 1.6 1.4 2.6 3.3 2.8 5.4 1-2.1 2.5-4 4.4-5.4 2-1.4 4.4-2.1 6.9-2.1 2.4-.1 4.8.7 6.6 2.3 1.6 1.6 2.6 3.8 2.6 6.1v20.2h-3.8V205c-.1-3.3-2.8-5.9-6.1-5.9h-.2c-1.4 0-2.7.2-4 .7-1.2.5-2.3 1.1-3.2 2s-1.6 1.9-2.1 3.1c-.5 1.2-.8 2.6-.8 3.9v15h-3.9v-18.9c-.1-1.5-.7-2.9-1.7-4.1-1.2-1.2-2.8-1.9-4.5-1.8-1.4 0-2.8.2-4.1.7-1.2.5-2.3 1.2-3.2 2.1-.9.9-1.7 2-2.2 3.1-.5 1.3-.8 2.6-.8 4v14.8h-3.9l-.1-27.7zM103.2 224v-50h12.1c2.1 0 4.1.3 6.1.9 1.9.6 3.7 1.5 5.2 2.7s2.8 2.8 3.6 4.6c1 2 1.4 4.3 1.4 6.5 0 1.9-.3 3.8-.9 5.6-.6 1.8-1.6 3.5-2.8 4.9-1.4 1.5-3.1 2.7-5 3.5-2.4.9-4.9 1.4-7.4 1.3H108v20h-4.8zm4.8-24.5h7.4c1.9.1 3.8-.3 5.6-1.1 1.4-.6 2.6-1.6 3.5-2.7.8-1 1.5-2.2 1.8-3.5.3-1.1.5-2.2.5-3.4 0-1.3-.3-2.6-.7-3.8-.5-1.2-1.2-2.3-2.1-3.3-1-1-2.2-1.8-3.6-2.3-1.6-.6-3.3-.9-5-.9H108v21zM157 220.7c-1.4 1.2-3 2.2-4.8 2.9s-3.7 1.1-5.7 1.1-3.9-.4-5.8-1.2c-1.7-.7-3.3-1.8-4.7-3.1-1.3-1.3-2.4-2.9-3.1-4.6-.8-1.8-1.2-3.7-1.1-5.7 0-2 .4-3.9 1.1-5.7 1.5-3.5 4.3-6.3 7.8-7.8 1.8-.8 3.7-1.2 5.7-1.2 2.9-.1 5.8.9 8 2.8 2.3 1.9 4 4.4 5 7.1-1.6.6-3.3 1.3-5.3 2.1l-6 2.4-6.1 2.4-5.6 2.3c1.7 3.9 5.6 6.4 9.9 6.4 1.5 0 2.9-.3 4.3-.8 1.3-.5 2.4-1.2 3.4-2.1l3 2.7zm-2.4-16.4c-.8-1.5-1.9-2.8-3.4-3.7-1.4-.9-3.1-1.4-4.8-1.4-1.4 0-2.9.3-4.2.9-1.3.6-2.4 1.4-3.4 2.4s-1.8 2.1-2.3 3.4c-.6 1.3-.8 2.7-.8 4.1 0 .7.1 1.3.2 2 1.4-.6 3-1.2 4.6-1.9s3.3-1.3 4.9-2c1.6-.7 3.2-1.3 4.8-2s3.1-1.3 4.4-1.8zM165.8 196h3.3l.4 7.2c1-2.3 2.5-4.2 4.5-5.6 2.1-1.5 4.6-2.2 7.2-2.2 2.4-.1 4.8.7 6.5 2.3 1.6 1.6 2.6 3.8 2.6 6.1V224h-3.9v-18.9c-.1-3.3-2.8-5.9-6.1-5.9h-.2c-1.4 0-2.8.2-4.1.7-1.2.5-2.4 1.2-3.3 2.1-1 .9-1.7 2-2.2 3.1-.5 1.3-.8 2.6-.8 4v14.8h-3.9V196zM197.6 210.1c0-3.9 1.5-7.7 4.2-10.5 2.7-2.7 6.4-4.3 10.2-4.2 1.4 0 2.8.2 4.2.6 1.2.4 2.3.9 3.3 1.6.9.6 1.7 1.3 2.4 2.1.6.6 1.1 1.4 1.4 2.2 0-.9 0-1.9.1-2.9s.1-2 .2-2.9h3.6v27.5c0 1.9-.3 3.8-.9 5.6-.6 1.7-1.5 3.2-2.7 4.4-1.3 1.3-2.9 2.3-4.6 2.9-2.1.7-4.3 1.1-6.6 1-2.4.1-4.8-.4-7-1.5s-4.3-2.6-6.1-4.3l2.5-2.7c1.5 1.6 3.3 2.8 5.2 3.8 1.6.7 3.4 1 5.1 1 1.7 0 3.4-.2 5-.7 1.3-.4 2.4-1.1 3.4-2 .9-.9 1.6-2 2-3.1.4-1.3.7-2.7.7-4.1v-1c0-.3 0-.8.1-1.6v-.7-1-1-.6c-2.2 4.2-6.6 6.8-11.3 6.7-3.9 0-7.6-1.5-10.3-4.2-1.3-1.3-2.3-2.9-3-4.6-.7-1.9-1.1-3.8-1.1-5.8zm3.9-.1c0 4.4 2.6 8.3 6.6 10 2.8 1.1 5.8 1.1 8.6 0 4-1.7 6.7-5.6 6.6-10 0-1.4-.3-2.9-.8-4.2s-1.3-2.4-2.3-3.4-2.2-1.8-3.5-2.3c-4.1-1.7-8.9-.8-12.1 2.3-1 1-1.8 2.1-2.3 3.4-.6 1.2-.9 2.7-.8 4.2zM233.9 199.9v-3.8h4.8v-8.3c0-5.7 1.4-10 4.1-12.9 2.9-2.9 6.8-4.6 10.9-4.6v3.7c-3.1 0-6.1 1.3-8.1 3.8-2 2.4-3 5.7-3 10v8.3h9.2v3.8h-9.2V224h-3.9v-24.2l-4.8.1zM279.7 220.7c-1.4 1.2-3 2.2-4.8 2.9s-3.7 1.1-5.7 1.1-3.9-.4-5.8-1.2c-1.7-.7-3.3-1.8-4.7-3.1-1.3-1.3-2.4-2.9-3.1-4.6-.8-1.8-1.2-3.7-1.1-5.7 0-2 .4-3.9 1.1-5.7 1.5-3.5 4.3-6.3 7.8-7.8 1.8-.8 3.7-1.2 5.7-1.2 2.9-.1 5.8.9 8 2.8 2.3 1.9 4 4.4 5 7.1-1.6.6-3.3 1.3-5.3 2.1l-6 2.4-6.1 2.4-5.6 2.3c1.7 3.9 5.6 6.4 9.9 6.4 1.5 0 2.9-.3 4.3-.8 1.3-.5 2.4-1.2 3.4-2.1l3 2.7zm-2.4-16.4c-.8-1.5-1.9-2.8-3.4-3.7-1.4-.9-3.1-1.4-4.8-1.4-1.4 0-2.9.3-4.2.9-1.3.6-2.4 1.4-3.4 2.4s-1.8 2.1-2.3 3.4c-.6 1.3-.8 2.7-.8 4.1 0 .7.1 1.3.2 2 1.4-.6 3-1.2 4.6-1.9s3.3-1.3 4.9-2 3.2-1.3 4.8-2 3.1-1.3 4.4-1.8zM287.6 185.9c0-.8.3-1.5.9-2 .5-.5 1.2-.8 1.9-.8 1.5 0 2.7 1.3 2.7 2.8 0 .8-.3 1.5-.8 2s-1.2.8-1.9.8-1.4-.3-1.9-.8c-.6-.5-.9-1.3-.9-2zm4.7 38.1h-3.9v-28h3.9v28zM307.9 217.9l-6 14.6h-3.8c.9-2.5 1.8-4.9 2.7-7.3.9-2.4 1.8-4.8 2.7-7.3h4.4zM333.1 210.2c0-2 .4-3.9 1.1-5.7s1.8-3.4 3.1-4.7c1.3-1.4 2.9-2.4 4.6-3.2 1.8-.8 3.7-1.2 5.7-1.1 1.3 0 2.6.2 3.9.6 1.2.3 2.2.8 3.3 1.5.9.6 1.7 1.3 2.4 2.1.6.7 1.1 1.4 1.5 2.3l.3-5.8h3.6v28h-3.9v-2.9-1.5-1.3c-.4.8-.9 1.6-1.5 2.3-.7.8-1.5 1.4-2.4 2-1 .6-2.1 1.1-3.2 1.4-1.3.4-2.6.5-4 .5-2 0-4-.4-5.8-1.2-1.7-.7-3.3-1.8-4.6-3.1-1.3-1.3-2.3-2.9-3-4.6-.7-1.8-1.1-3.7-1.1-5.6zm3.9-.3c0 1.5.3 2.9.8 4.3 1.1 2.6 3.2 4.7 5.8 5.7 2.8 1.1 5.8 1.1 8.6 0 4-1.7 6.7-5.6 6.6-10 0-1.4-.3-2.9-.8-4.2s-1.3-2.4-2.3-3.4-2.2-1.8-3.5-2.3c-4.1-1.7-8.9-.8-12.1 2.3-1 1-1.8 2.1-2.3 3.4-.6 1.3-.8 2.8-.8 4.2zM404.2 198.7l-2.1 2.7c-.6-.7-1.4-1.2-2.2-1.4-1.1-.4-2.2-.7-3.3-.7-.5 0-1 .1-1.5.2s-1 .4-1.5.7-.8.7-1.1 1.2c-.3.5-.5 1.2-.5 1.8 0 1 .3 1.9 1 2.6.7.7 1.5 1.2 2.5 1.6 1 .5 2 .9 3.2 1.3 1.1.4 2.2.9 3.2 1.5s1.8 1.4 2.5 2.4c.7 1.1 1 2.4 1 3.7 0 2.2-.8 4.4-2.4 5.9a8.94 8.94 0 0 1-6.8 2.4c-1.7 0-3.3-.3-4.9-.8s-2.9-1.4-4-2.7c.2-.2.4-.4.7-.8l.8-.9.6-.7.3-.3c.2.3.6.6.9.8.5.3 1.1.6 1.6.8.6.3 1.3.5 2 .7s1.3.3 2 .3c.6 0 1.2-.1 1.8-.2.6-.2 1.2-.4 1.8-.8.5-.4 1-.8 1.3-1.4.3-.6.5-1.3.5-2 0-1-.3-1.9-1-2.6-.7-.7-1.5-1.2-2.5-1.6-1-.5-2.1-.9-3.2-1.3s-2.2-.9-3.2-1.5-1.8-1.4-2.5-2.4c-.7-1.1-1.1-2.4-1-3.8 0-1.2.2-2.4.8-3.5 1-1.8 2.6-3.2 4.6-3.7.9-.3 1.9-.4 2.9-.4 1.4 0 2.7.3 4 .8 1.4.2 2.7 1 3.7 2.1zM414.9 183.8h3.9v12.5h8.3v3.5h-8.3V224h-3.9v-24.2h-5.6v-3.5h5.6v-12.5zM457 224.4h-3.2l-.4-7.6c-.9 2.3-2.5 4.2-4.5 5.7-2.1 1.5-4.7 2.2-7.3 2.2-2.4.1-4.8-.7-6.5-2.3-1.6-1.6-2.6-3.8-2.6-6.1v-20.2h3.9V215c.1 3.3 2.8 5.9 6.1 5.9h.2c1.4 0 2.8-.2 4.1-.7 1.2-.4 2.4-1.1 3.3-2s1.7-1.9 2.2-3.1c.6-1.3.9-2.6.8-4v-14.9h3.9v28.2zM464.5 210c0-2 .4-4 1.1-5.9.7-1.7 1.7-3.3 3-4.6 2.7-2.7 6.4-4.2 10.3-4.2 2.6 0 5.1.7 7.2 2 1.7 1.1 3.1 2.6 4 4.5v-31.5h3.9v53.6h-3.8V221c0-.5 0-1 .1-1.5s.1-1 .1-1.4c-1 1.8-2.5 3.4-4.3 4.5-2.1 1.3-4.6 2-7.1 1.9-2 0-4-.4-5.8-1.2-3.4-1.5-6.1-4.3-7.5-7.7-.8-1.7-1.2-3.6-1.2-5.6zm3.9-.1c0 4.4 2.6 8.3 6.6 10 2.8 1.1 5.8 1.1 8.6 0 4-1.7 6.7-5.6 6.6-10 0-1.4-.3-2.9-.8-4.2s-1.3-2.4-2.3-3.4-2.2-1.8-3.5-2.3c-4.1-1.7-8.9-.8-12.1 2.3-1 1-1.8 2.1-2.3 3.4-.6 1.3-.9 2.8-.8 4.2zM526.8 220.7c-1.4 1.2-3 2.2-4.8 2.9s-3.7 1.1-5.7 1.1-3.9-.4-5.8-1.2c-1.7-.7-3.3-1.8-4.7-3.1-1.3-1.3-2.4-2.9-3.1-4.6-.8-1.8-1.2-3.7-1.1-5.7 0-2 .4-3.9 1.1-5.7 1.5-3.5 4.3-6.3 7.8-7.8 1.8-.8 3.7-1.2 5.7-1.2 2.9-.1 5.8.9 8 2.8 2.3 1.9 4 4.4 5 7.1-1.6.6-3.3 1.3-5.3 2.1l-6 2.4-6 2.5-5.6 2.3c1.7 3.9 5.6 6.4 9.9 6.4 1.5 0 2.9-.3 4.3-.8 1.3-.5 2.4-1.2 3.4-2.1l2.9 2.6zm-2.4-16.4c-.8-1.5-1.9-2.8-3.4-3.7-1.4-.9-3.1-1.4-4.8-1.4-1.4 0-2.9.3-4.2.9-1.3.6-2.4 1.4-3.4 2.4s-1.8 2.1-2.3 3.4c-.6 1.3-.8 2.7-.8 4.1 0 .7.1 1.3.2 2 1.4-.6 3-1.2 4.6-1.9s3.3-1.3 4.9-2c1.6-.7 3.2-1.3 4.8-2s3.1-1.3 4.4-1.8zM535.6 196h3.3l.3 7.2c1-2.3 2.5-4.2 4.5-5.7 2.1-1.5 4.6-2.2 7.2-2.2 2.4-.1 4.8.7 6.5 2.3 1.6 1.6 2.6 3.8 2.6 6.1v20.2h-3.8V205c-.1-3.3-2.8-5.9-6.1-5.9h-.2c-1.4 0-2.8.2-4.1.7-1.2.5-2.4 1.2-3.3 2.1-1 .9-1.7 2-2.2 3.1-.5 1.3-.8 2.6-.8 4v14.8h-3.8l-.1-27.8zM571.5 183.8h3.8v12.5h8.3v3.5h-8.3V224h-3.8v-24.2h-5.6v-3.5h5.6v-12.5zM603.2 210.2c0-2 .4-3.9 1.2-5.7.7-1.8 1.8-3.4 3.2-4.7 1.3-1.4 2.9-2.4 4.7-3.2s3.7-1.2 5.7-1.1c1.3 0 2.6.2 3.9.6 1.2.3 2.2.8 3.3 1.5.9.6 1.7 1.3 2.4 2.1.6.7 1.1 1.4 1.5 2.3l.3-5.8h3.6v28h-3.8v-2.9-1.5-1.3c-.4.8-.9 1.6-1.5 2.3-.7.8-1.5 1.4-2.4 2-1 .6-2.1 1.1-3.2 1.4-1.3.4-2.6.5-4 .5-2 0-4-.4-5.8-1.2-1.7-.7-3.3-1.8-4.6-3.1s-2.3-2.9-3-4.6c-1.1-1.8-1.5-3.7-1.5-5.6zm3.9-.3c0 1.5.3 2.9.8 4.3 1.1 2.6 3.2 4.7 5.8 5.7 2.8 1.1 5.8 1.1 8.6 0 4-1.7 6.7-5.6 6.6-10 0-1.4-.3-2.9-.8-4.2s-1.3-2.4-2.3-3.4-2.2-1.8-3.5-2.3c-4.1-1.7-8.9-.8-12.1 2.3-1 1-1.8 2.1-2.3 3.4-.5 1.3-.8 2.8-.8 4.2zM644.5 183.8h3.8v12.5h8.3v3.5h-8.3V224h-3.8v-24.2H639v-3.5h5.6l-.1-12.5zM697.9 224.6c-2.4 0-4.8-.4-7-1.2-2.1-.8-4-1.9-5.6-3.5-1.6-1.5-2.9-3.4-3.8-5.5-.9-2.3-1.4-4.9-1.4-7.4v-33h4.8v32.8c0 1.9.3 3.7 1 5.5.6 1.6 1.5 3 2.7 4.2s2.6 2.1 4.1 2.7c1.7.6 3.4 1 5.2.9 1.7 0 3.5-.3 5.1-.9 3.2-1.2 5.7-3.7 6.9-6.8.7-1.7 1-3.6 1-5.5v-32.8h4.8v33c0 2.5-.4 5-1.4 7.4-.8 2.1-2.1 4-3.8 5.5-1.6 1.5-3.6 2.7-5.7 3.5-2.1.7-4.5 1.1-6.9 1.1zM725.7 196h3.3l.3 7.2c1-2.3 2.5-4.2 4.5-5.7 2.1-1.5 4.6-2.2 7.2-2.2 2.4-.1 4.8.7 6.5 2.3 1.6 1.6 2.6 3.8 2.6 6.1v20.2h-3.8V205c-.1-3.3-2.8-5.9-6.1-5.9h-.2c-1.4 0-2.8.2-4.1.7-1.2.5-2.4 1.2-3.3 2.1-1 .9-1.7 2-2.2 3.1-.5 1.3-.8 2.6-.8 4v14.8h-3.8l-.1-27.8zM758.6 185.9c0-.8.3-1.5.9-2 .5-.5 1.2-.8 1.9-.8 1.5 0 2.7 1.3 2.7 2.8 0 .8-.3 1.5-.8 2s-1.2.8-1.9.8-1.4-.3-1.9-.8c-.6-.5-.9-1.3-.9-2zm4.7 38.1h-3.8v-28h3.8v28zM783 225.7c-1.3-2.5-2.6-4.9-3.7-7.4s-2.3-4.9-3.4-7.4-2.3-4.9-3.4-7.4-2.3-4.9-3.6-7.4h4.1c1.4 2.8 2.6 5.3 3.6 7.4 1 2.1 1.8 4 2.5 5.7s1.4 3.3 2 4.8 1.2 2.9 1.9 4.4c.7-1.5 1.3-3 1.9-4.4.6-1.5 1.2-3.1 2-4.8.7-1.7 1.6-3.6 2.5-5.7s2.2-4.6 3.6-7.4h4.1c-2.5 5-4.9 9.9-7 14.8-2.1 4.9-4.5 9.8-7.1 14.8zM824.9 220.7c-1.4 1.2-3 2.2-4.8 2.9s-3.7 1.1-5.7 1.1-4-.4-5.8-1.2c-1.7-.7-3.3-1.8-4.7-3.1-1.3-1.3-2.4-2.9-3.2-4.6-.8-1.8-1.2-3.7-1.2-5.7s.4-3.9 1.2-5.7c1.5-3.5 4.3-6.3 7.8-7.8 1.8-.8 3.7-1.2 5.7-1.2 2.9-.1 5.8.9 8 2.8 2.3 1.9 4 4.4 5 7.1-1.6.6-3.3 1.3-5.3 2.1l-6 2.4-6 2.4-5.6 2.3c1.7 3.9 5.6 6.4 9.9 6.4 1.5 0 2.9-.3 4.3-.8 1.3-.5 2.4-1.2 3.4-2.1l3 2.7zm-2.3-16.4c-.8-1.5-1.9-2.8-3.4-3.7-1.4-.9-3.1-1.4-4.8-1.4-1.4 0-2.9.3-4.2.9-1.3.6-2.4 1.4-3.4 2.4s-1.8 2.1-2.3 3.4c-.6 1.3-.8 2.7-.8 4.1 0 .7.1 1.3.2 2 1.4-.6 3-1.2 4.6-1.9s3.3-1.3 4.9-2c1.6-.7 3.2-1.3 4.8-2 1.5-.8 3-1.3 4.4-1.8zM848.2 200.2c-1.4 0-2.7.2-4 .7-1.2.4-2.4 1-3.4 1.9-1 .8-1.8 1.8-2.3 2.9-.6 1.2-.9 2.5-.9 3.8v14.6h-3.8v-28h3.2l.3 7.2c.5-1.2 1.3-2.3 2.2-3.2s1.8-1.8 2.9-2.4c1-.7 2.1-1.2 3.3-1.6 1-.4 2.1-.5 3.2-.6l-.7 4.7zM869 198.7l-2.1 2.7c-.6-.7-1.4-1.2-2.2-1.4-1.1-.4-2.2-.7-3.3-.7-.5 0-1 .1-1.5.2s-1 .4-1.5.7-.8.7-1.1 1.2-.5 1.2-.5 1.8c0 1 .3 1.9 1 2.6.7.7 1.5 1.2 2.5 1.6 1 .5 2 .9 3.2 1.3 1.1.4 2.2.9 3.2 1.5s1.8 1.4 2.5 2.4c.7 1.1 1 2.4 1 3.7 0 2.2-.8 4.4-2.4 5.9a8.94 8.94 0 0 1-6.8 2.4c-1.7 0-3.3-.3-4.9-.8-1.6-.5-2.9-1.4-4-2.7.2-.2.4-.4.7-.8l.8-.9.6-.7.3-.3c.2.3.6.6.9.8.5.3 1.1.6 1.6.8.6.3 1.3.5 2 .7s1.3.3 2 .3c.6 0 1.2-.1 1.8-.2.6-.2 1.2-.4 1.8-.8.5-.4 1-.8 1.3-1.4.3-.6.5-1.3.5-2 0-1-.3-1.9-1-2.6-.7-.7-1.5-1.2-2.5-1.6-1-.5-2.1-.9-3.2-1.3s-2.2-.9-3.2-1.5-1.8-1.4-2.5-2.4c-.7-1.1-1.1-2.4-1-3.8 0-1.2.2-2.4.8-3.5 1-1.8 2.6-3.2 4.7-3.7.9-.3 1.9-.4 2.9-.4 1.4 0 2.7.3 4 .8 1.3.2 2.5 1 3.6 2.1zM876.7 185.9c0-.8.3-1.5.9-2 .5-.5 1.2-.8 1.9-.8 1.5 0 2.7 1.3 2.7 2.8 0 .8-.3 1.5-.8 2s-1.2.8-1.9.8-1.4-.3-1.9-.8c-.6-.5-.9-1.3-.9-2zm4.7 38.1h-3.9v-28h3.8l.1 28zM893 183.8h3.8v12.5h8.3v3.5h-8.3V224H893v-24.2h-5.6v-3.5h5.6v-12.5zM917.3 237.5h-4.1c.6-1.3 1.2-2.4 1.7-3.5s1-2.2 1.4-3.3c.5-1.1 1-2.3 1.5-3.5s1.2-2.6 1.9-4.2c-2.1-4.3-4.2-8.8-6.3-13.4s-4.2-9.1-6.3-13.5h4.1c1.4 2.8 2.6 5.3 3.6 7.6 1 2.2 1.9 4.3 2.8 6.1.8 1.8 1.6 3.6 2.2 5.1.7 1.6 1.3 3.1 2 4.6.7-1.5 1.3-3 1.9-4.6.6-1.6 1.3-3.3 2.2-5.1.8-1.8 1.7-3.9 2.8-6.1 1-2.2 2.2-4.8 3.6-7.6h4.1l-19.1 41.4zM955.8 210c0-2 .4-3.9 1.2-5.7 1.5-3.5 4.3-6.4 7.8-7.8 7.4-3.2 15.9.2 19.1 7.5 0 .1.1.2.1.3.7 1.8 1.1 3.8 1.1 5.7s-.4 3.9-1.1 5.7c-.7 1.7-1.8 3.3-3.1 4.6s-2.9 2.4-4.7 3.1c-1.8.8-3.8 1.2-5.8 1.2s-3.9-.3-5.7-1.1c-1.7-.7-3.3-1.7-4.7-3-2.7-2.7-4.2-6.5-4.2-10.5zm3.9 0c0 1.4.3 2.9.8 4.2 1.1 2.6 3.2 4.6 5.7 5.7 1.3.6 2.8.9 4.2.8 4.4 0 8.3-2.6 10-6.6.6-1.3.9-2.8.8-4.2 0-6-4.8-10.8-10.7-10.9h-.1c-1.4 0-2.9.3-4.2.8-4 1.9-6.5 5.9-6.5 10.2zM989.4 199.9v-3.8h4.8v-8.3c0-5.7 1.4-10 4.1-12.9 2.9-2.9 6.8-4.6 10.9-4.6v3.7c-3.1 0-6.1 1.3-8.2 3.8-2 2.4-3 5.7-3 10v8.3h9.2v3.8H998V224h-3.8v-24.2l-4.8.1zM1086.2 174.2c-1.2 2.9-2.4 6-3.8 9.4-1.3 3.4-2.7 6.8-4 10.2l-4 10.2-3.6 9.4-3 7.7c-.9 2.2-1.5 3.9-1.9 5.1L1055 198c-.1-.2-.2-.4-.3-.7-.1-.2-.2-.5-.2-.8-.1.1-.1.3-.1.4 0 .2-.1.4-.1.5l-.1.6c-1.4 3.6-2.8 7.2-4.1 10.6-.6 1.5-1.2 3-1.8 4.6s-1.3 3.1-1.9 4.7l-1.8 4.5c-.6 1.4-1 2.8-1.5 3.9-3.5-8.8-6.9-17.5-10.2-26.1-3.3-8.6-6.7-17.3-10.2-26h5.4l2.9 7.4c1 2.7 2.1 5.3 3.1 7.9l3 7.8 2.6 7c.8 2.1 1.5 4 2 5.5s.9 2.6 1.1 3.3l.6 2.1c.1-.3.1-.7.3-1l.3-1c0-.1.2-.6.5-1.3s.6-1.6.9-2.6c.4-1.1.8-2.2 1.3-3.5s1-2.6 1.5-4c1.2-3.2 2.5-6.7 4-10.6l-2.8-7.9c-.4-1-.7-2-1.1-3-.3-1-.7-1.9-.9-2.7-.3-.8-.5-1.6-.7-2.1-.2-.6-.3-1-.4-1.1h4.6c2.2 5.6 4.2 11 6.1 16 .8 2.1 1.6 4.3 2.4 6.6.8 2.2 1.6 4.4 2.4 6.4l2.1 5.6c.6 1.7 1.1 3.2 1.5 4.3.1.4.2.7.3 1 .1.3.2.6.3 1.1l.6-2.1c.3-1.2.6-2.3 1-3.4.6-1.6 1.2-3.4 2-5.5s1.7-4.5 2.7-7l3-7.8c1-2.6 2.1-5.3 3.1-7.9 1-2.6 2-5 2.9-7.3l4.9-.2zM1083.3 210.2c0-2 .4-3.9 1.2-5.7.7-1.8 1.8-3.4 3.2-4.7 1.3-1.4 2.9-2.4 4.7-3.2 1.8-.8 3.7-1.2 5.7-1.1 1.3 0 2.6.2 3.9.6 1.1.3 2.2.8 3.2 1.5.9.6 1.7 1.3 2.4 2.1.6.7 1.1 1.4 1.5 2.3l.3-5.8h3.6v28h-3.8v-2.9-1.5-1.3c-.4.8-.9 1.6-1.5 2.3-.7.8-1.5 1.4-2.4 2-1 .6-2.1 1.1-3.3 1.4-1.3.4-2.6.5-4 .5-2 0-4-.4-5.8-1.2-1.7-.7-3.3-1.8-4.6-3.1-1.3-1.3-2.3-2.9-3-4.6-.9-1.8-1.3-3.7-1.3-5.6zm3.9-.3c0 4.4 2.6 8.3 6.6 10 2.8 1.1 5.8 1.1 8.6 0 1.3-.5 2.5-1.3 3.5-2.3 2-2 3.2-4.8 3.2-7.7 0-1.4-.3-2.9-.8-4.2s-1.3-2.4-2.3-3.4-2.2-1.8-3.5-2.3c-4.1-1.7-8.9-.8-12.1 2.3-1 1-1.8 2.1-2.3 3.4-.7 1.3-1 2.8-.9 4.2zM1124.6 183.8h3.8v12.5h8.3v3.5h-8.3V224h-3.8v-24.2h-5.6v-3.5h5.6v-12.5zM1164.8 220.7c-1.4 1.2-3 2.2-4.8 2.9s-3.7 1.1-5.7 1.1-4-.4-5.8-1.2c-1.7-.7-3.3-1.8-4.7-3.1-1.3-1.3-2.4-2.9-3.2-4.6-.8-1.8-1.2-3.7-1.2-5.7s.4-3.9 1.2-5.7c1.5-3.5 4.3-6.3 7.8-7.8 1.8-.8 3.7-1.2 5.7-1.2 2.9-.1 5.8.9 8 2.8 2.3 1.9 4 4.4 5 7.1-1.6.6-3.4 1.3-5.3 2.1l-6 2.4-6.1 2.4-5.6 2.3c1.7 3.9 5.6 6.4 9.9 6.4 1.5 0 2.9-.3 4.3-.8 1.3-.5 2.4-1.2 3.4-2.1l3.1 2.7zm-2.4-16.4c-.8-1.5-1.9-2.8-3.4-3.7-1.4-.9-3.1-1.4-4.8-1.4-1.4 0-2.9.3-4.2.9-1.3.6-2.4 1.4-3.4 2.4s-1.8 2.1-2.3 3.4c-.6 1.3-.8 2.7-.8 4.1 0 .7.1 1.3.2 2 1.4-.6 3-1.2 4.6-1.9s3.3-1.3 4.9-2 3.2-1.3 4.8-2 3-1.3 4.4-1.8zM1188.1 200.2c-1.4 0-2.7.2-4 .7-1.2.4-2.4 1-3.4 1.9-1 .8-1.8 1.8-2.3 2.9-.6 1.2-.9 2.5-.9 3.8v14.6h-3.8v-28h3.3l.3 7.2c.5-1.2 1.3-2.3 2.2-3.2.9-.9 1.8-1.8 2.9-2.4 1-.7 2.1-1.2 3.3-1.6 1-.4 2.1-.5 3.2-.6l-.8 4.7zM1198.1 224h-3.8v-53.6h3.8V224zM1205.7 210c0-2 .4-3.9 1.2-5.7 1.5-3.5 4.3-6.4 7.8-7.8 7.4-3.2 15.9.1 19.1 7.5 0 .1.1.2.1.3.7 1.8 1.1 3.8 1.1 5.7s-.4 3.9-1.1 5.7c-.7 1.7-1.8 3.3-3.1 4.6-1.3 1.3-2.9 2.4-4.7 3.1-1.8.8-3.8 1.2-5.8 1.2s-3.9-.3-5.7-1.1c-1.7-.7-3.3-1.7-4.7-3-2.7-2.7-4.2-6.5-4.2-10.5zm3.9 0c0 1.4.3 2.9.8 4.2 1.1 2.6 3.2 4.6 5.7 5.7 1.3.6 2.8.9 4.2.8 4.4 0 8.3-2.6 10-6.6.6-1.3.9-2.8.8-4.2 0-6-4.8-10.8-10.7-10.9h-.1c-1.4 0-2.9.3-4.2.8-4 1.9-6.5 5.9-6.5 10.2zM1240.6 210c0-2 .4-3.9 1.2-5.7 1.5-3.5 4.3-6.4 7.8-7.8 7.4-3.2 15.9.1 19.1 7.5 0 .1.1.2.1.3.7 1.8 1.1 3.8 1.1 5.7s-.4 3.9-1.1 5.7c-.7 1.7-1.8 3.3-3.1 4.6-1.3 1.3-2.9 2.4-4.7 3.1-1.8.8-3.8 1.2-5.8 1.2s-3.9-.3-5.7-1.1c-1.7-.7-3.3-1.7-4.7-3-2.7-2.7-4.3-6.5-4.2-10.5zm3.8 0c0 1.4.3 2.9.8 4.2 1.1 2.6 3.2 4.6 5.7 5.7 1.3.6 2.8.9 4.2.8 4.4 0 8.3-2.6 10-6.6.6-1.3.9-2.8.8-4.2 0-6-4.8-10.8-10.7-10.9h-.1c-1.4 0-2.9.3-4.2.8-3.9 1.9-6.5 5.9-6.5 10.2zM1277.2 221.2c0-.8.3-1.5.8-2s1.2-.9 2-.8c1.5.1 2.8 1.3 2.8 2.9 0 .8-.3 1.5-.9 2.1-.5.5-1.2.8-1.9.8-1.5-.2-2.8-1.4-2.8-3zM1311.6 174h4.8v50h-4.8v-50zM1345.6 170.4h3.8v32.4c.9-2.1 2.4-4 4.3-5.3 2.1-1.4 4.6-2.2 7.1-2.1 2.4-.1 4.8.7 6.7 2.3 1.7 1.6 2.6 3.8 2.6 6.1V224h-3.8v-18.9c-.1-3.3-2.8-5.9-6.1-5.9h-.2c-1.4 0-2.8.2-4.1.7-1.2.5-2.4 1.2-3.3 2.1-1 .9-1.7 2-2.2 3.1-.5 1.3-.8 2.6-.8 4v14.8h-3.8l-.2-53.5zM1377.3 210.2c0-2 .4-3.9 1.2-5.7.7-1.8 1.8-3.4 3.2-4.7 1.3-1.4 2.9-2.4 4.7-3.2 1.8-.8 3.7-1.2 5.7-1.1 1.3 0 2.6.2 3.9.6 1.1.3 2.2.8 3.2 1.5.9.6 1.7 1.3 2.4 2.1.6.7 1.1 1.4 1.5 2.3l.3-5.8h3.6v28h-3.8v-2.9-1.5-1.3c-.4.8-.9 1.6-1.5 2.3-.7.8-1.5 1.4-2.4 2-1 .6-2.1 1.1-3.3 1.4-1.3.4-2.6.5-4 .5-2 0-4-.4-5.8-1.2-1.7-.7-3.3-1.8-4.6-3.1-1.3-1.3-2.3-2.9-3-4.6-.9-1.8-1.3-3.7-1.3-5.6zm3.9-.3c0 4.4 2.6 8.3 6.6 10 2.8 1.1 5.8 1.1 8.6 0 1.3-.5 2.5-1.3 3.5-2.3 2-2 3.2-4.8 3.2-7.7 0-1.4-.3-2.9-.8-4.2s-1.3-2.4-2.3-3.4-2.2-1.8-3.5-2.3c-4.1-1.7-8.9-.8-12.1 2.3-1 1-1.8 2.1-2.3 3.4-.7 1.3-1 2.8-.9 4.2zM1426.7 225.7c-1.3-2.5-2.6-4.9-3.7-7.4s-2.3-4.9-3.4-7.4-2.3-4.9-3.4-7.4-2.3-4.9-3.6-7.4h4.1c1.4 2.8 2.6 5.3 3.6 7.4s1.8 4 2.6 5.7c.7 1.7 1.4 3.3 2 4.8s1.2 2.9 1.9 4.4c.7-1.5 1.3-3 1.8-4.4.6-1.5 1.2-3.1 2-4.8.7-1.7 1.6-3.6 2.6-5.7s2.2-4.6 3.6-7.4h4.1c-2.5 5-4.9 9.9-7 14.8-2.3 4.9-4.7 9.8-7.2 14.8zM1468.6 220.7c-1.4 1.2-3 2.2-4.8 2.9s-3.7 1.1-5.7 1.1-4-.4-5.8-1.2c-1.7-.7-3.3-1.8-4.7-3.1-1.3-1.3-2.4-2.9-3.2-4.6-.8-1.8-1.2-3.7-1.2-5.7s.4-3.9 1.2-5.7c1.5-3.5 4.3-6.3 7.8-7.8 1.8-.8 3.7-1.2 5.7-1.2 2.9-.1 5.8.9 8 2.8 2.3 1.9 4 4.4 5 7.1-1.6.6-3.3 1.3-5.3 2.1l-6 2.4-6.1 2.4-5.6 2.3c1.7 3.9 5.6 6.4 9.9 6.4 1.5 0 2.9-.3 4.3-.8 1.3-.5 2.4-1.2 3.4-2.1l3.1 2.7zm-2.4-16.4c-.8-1.5-1.9-2.8-3.4-3.7-1.4-.9-3.1-1.4-4.8-1.4-1.4 0-2.9.3-4.2.9-1.3.6-2.4 1.4-3.4 2.4s-1.8 2.1-2.3 3.4c-.6 1.3-.8 2.7-.8 4.1 0 .7.1 1.3.2 2 1.4-.6 3-1.2 4.6-1.9s3.3-1.3 4.9-2 3.2-1.3 4.8-2 3-1.3 4.4-1.8zM117.6 301.1c0 2-.3 3.9-1.1 5.7-.7 1.7-1.7 3.3-3 4.6-1.3 1.3-2.9 2.4-4.6 3.1-1.8.8-3.8 1.1-5.8 1.1-2.5.1-4.9-.6-7-1.8-1.8-1-3.3-2.6-4.2-4.5V315H88v-53.6h3.8v31.5c2.3-4.1 6.6-6.6 11.3-6.5 2 0 3.9.3 5.8 1.1 1.7.7 3.2 1.7 4.6 3 1.3 1.3 2.3 2.9 3 4.6.7 2 1.1 4 1.1 6zm-4.2 0c0-1.5-.2-2.9-.8-4.3-.5-1.3-1.2-2.5-2.2-3.4-2-2-4.8-3.1-7.7-3.1-2.9 0-5.7 1.1-7.8 3.1-1 1-1.8 2.1-2.3 3.4-1.1 2.7-1.1 5.8 0 8.5 1.1 2.6 3.2 4.7 5.8 5.7 1.4.6 2.8.9 4.3.8 1.5 0 2.9-.3 4.3-.8 1.3-.5 2.4-1.3 3.4-2.3s1.7-2.1 2.2-3.4c.6-1.3.8-2.7.8-4.2zM148.3 311.8c-1.4 1.2-3 2.2-4.8 2.9-1.8.7-3.7 1.1-5.7 1-2 0-3.9-.4-5.8-1.2-1.7-.7-3.3-1.8-4.7-3.1-1.3-1.3-2.4-2.9-3.2-4.6-.8-1.8-1.2-3.7-1.2-5.7s.4-3.9 1.2-5.7c1.5-3.5 4.3-6.3 7.8-7.8 1.8-.8 3.7-1.2 5.7-1.2 2.9-.1 5.8.9 8 2.8 2.3 1.9 4 4.4 5 7.1-1.6.6-3.3 1.3-5.3 2.1l-6 2.4-6.1 2.5-5.6 2.3c1.7 3.9 5.6 6.4 9.9 6.4 1.5 0 2.9-.3 4.3-.8 1.3-.5 2.4-1.2 3.4-2.1l3.1 2.7zm-2.4-16.4c-.8-1.5-1.9-2.8-3.4-3.7-1.4-.9-3.1-1.4-4.8-1.4-1.4 0-2.9.3-4.2.9s-2.4 1.4-3.4 2.3c-1 1-1.8 2.1-2.3 3.4-.6 1.3-.8 2.7-.8 4.1 0 .7.1 1.3.2 2 1.4-.6 3-1.2 4.6-1.9 1.6-.7 3.3-1.3 4.9-2 1.6-.7 3.2-1.3 4.8-2s3.1-1.2 4.4-1.7zM180.2 311.8c-1.4 1.2-3 2.2-4.8 2.9-1.8.7-3.7 1.1-5.7 1-2 0-3.9-.4-5.8-1.2-1.7-.7-3.3-1.8-4.7-3.1-1.3-1.3-2.4-2.9-3.1-4.6-.8-1.8-1.2-3.7-1.1-5.7 0-2 .4-3.9 1.1-5.7 1.5-3.5 4.3-6.3 7.8-7.8 1.8-.8 3.7-1.2 5.7-1.2 2.9-.1 5.8.9 8 2.8 2.3 1.9 4 4.4 5 7.1-1.6.6-3.3 1.3-5.3 2.1l-6 2.4-6.1 2.5-5.6 2.3c1.7 3.9 5.6 6.4 9.9 6.4 1.5 0 2.9-.3 4.3-.8 1.3-.5 2.4-1.2 3.4-2.1l3 2.7zm-2.4-16.4c-.8-1.5-1.9-2.8-3.4-3.7-1.4-.9-3.1-1.4-4.8-1.4-1.4 0-2.9.3-4.2.9s-2.4 1.4-3.4 2.3c-1 1-1.8 2.1-2.3 3.4-.6 1.3-.8 2.7-.8 4.1 0 .7.1 1.3.2 2 1.4-.6 3-1.2 4.6-1.9 1.6-.7 3.3-1.3 4.9-2 1.6-.7 3.2-1.3 4.8-2 1.6-.7 3.1-1.2 4.4-1.7zM189 287.1h3.3l.4 7.2c1-2.3 2.5-4.2 4.6-5.7s4.6-2.2 7.2-2.2c2.4-.1 4.8.7 6.5 2.3 1.6 1.6 2.6 3.8 2.6 6.1V315h-3.9v-18.9c-.1-3.3-2.8-5.9-6.1-5.9h-.2c-1.4 0-2.8.2-4.1.7-1.2.5-2.4 1.2-3.3 2.1-1 .9-1.7 2-2.2 3.1-.5 1.3-.8 2.6-.8 4v14.8h-4v-27.8zM254.6 291.3c-1.4 0-2.7.2-4 .7-1.2.4-2.4 1-3.4 1.9-1 .8-1.8 1.8-2.3 2.9-.6 1.2-.9 2.5-.9 3.8v14.6h-3.9v-28h3.3l.4 7.2c.5-1.2 1.3-2.3 2.2-3.2s1.8-1.8 2.9-2.4c1-.7 2.1-1.2 3.3-1.6 1-.4 2.1-.5 3.2-.6l-.8 4.7zM282.8 311.8c-1.4 1.2-3 2.2-4.8 2.8-1.8.7-3.7 1.1-5.7 1-2 0-3.9-.4-5.8-1.2-1.7-.7-3.3-1.8-4.7-3.1-1.3-1.3-2.4-2.9-3.1-4.6-.8-1.8-1.2-3.7-1.1-5.7 0-2 .4-3.9 1.1-5.7 1.5-3.5 4.3-6.3 7.8-7.8 1.8-.8 3.7-1.2 5.7-1.2 2.9-.1 5.8.9 8 2.8 2.3 1.9 4 4.4 5 7.1-1.6.6-3.3 1.3-5.3 2.1l-6 2.4-6.1 2.5-5.6 2.3c1.7 3.9 5.6 6.4 9.9 6.4 1.5 0 2.9-.3 4.3-.8 1.3-.5 2.4-1.2 3.4-2.1l3 2.8zm-2.4-16.4c-.7-1.6-1.9-2.9-3.4-3.8-1.4-.9-3.1-1.4-4.8-1.4-1.4 0-2.9.3-4.2.9-1.3.6-2.4 1.4-3.4 2.4s-1.8 2.1-2.3 3.4c-.6 1.3-.8 2.7-.8 4.1 0 .7.1 1.3.2 2 1.4-.6 3-1.2 4.6-1.9 1.6-.7 3.3-1.3 4.9-2s3.2-1.3 4.8-2c1.5-.7 3-1.3 4.4-1.7zM289.5 301.3c0-2 .4-3.9 1.1-5.7.7-1.8 1.8-3.4 3.1-4.7 1.3-1.4 2.9-2.4 4.6-3.2 1.8-.8 3.7-1.2 5.7-1.1 1.3 0 2.6.2 3.9.6 1.2.3 2.2.8 3.3 1.5.9.6 1.7 1.3 2.4 2.1.6.7 1.1 1.4 1.5 2.3l.3-5.8h3.5v28H315v-2.9-1.5-1.3c-.4.8-.9 1.6-1.5 2.3-.7.8-1.5 1.4-2.4 2-1 .6-2.1 1.1-3.2 1.4-1.3.4-2.6.5-4 .5-2 0-4-.4-5.8-1.2-1.7-.7-3.3-1.8-4.6-3.1-1.3-1.3-2.3-2.9-3-4.6-.7-1.8-1-3.7-1-5.6zm3.8-.2c0 1.5.3 2.9.8 4.3 1.1 2.6 3.2 4.7 5.8 5.7 2.8 1.1 5.8 1.1 8.6 0 4-1.7 6.7-5.6 6.6-10 0-1.4-.3-2.9-.8-4.2-.5-1.3-1.3-2.4-2.3-3.4s-2.2-1.8-3.5-2.3c-4.1-1.7-8.9-.8-12.1 2.3-1 1-1.8 2.1-2.3 3.4-.5 1.2-.8 2.7-.8 4.2zM332.6 315.1h-3.9v-53.6h3.9v53.6zM346.2 315.1h-3.9v-53.6h3.9v53.6zM362.4 328.6h-4.1c.6-1.3 1.2-2.4 1.6-3.5.5-1.1 1-2.2 1.4-3.3.5-1.1 1-2.3 1.5-3.5s1.1-2.6 1.9-4.2c-2.1-4.3-4.2-8.8-6.3-13.4-2.1-4.6-4.2-9.1-6.3-13.5h4.1c1.4 2.8 2.6 5.3 3.6 7.6 1 2.2 2 4.3 2.8 6.1.8 1.8 1.6 3.6 2.2 5.1.7 1.6 1.3 3.1 2 4.6.7-1.5 1.3-3 1.9-4.6s1.3-3.3 2.2-5.1c.8-1.8 1.7-3.9 2.8-6.1 1-2.2 2.2-4.8 3.6-7.6h4.1l-19 41.4zM432.5 301.1c0 2-.3 3.9-1.1 5.7-.7 1.7-1.7 3.3-3 4.6-1.3 1.3-2.9 2.4-4.6 3.1-1.8.8-3.8 1.1-5.8 1.1-2.5.1-4.9-.6-7-1.8-1.8-1-3.3-2.6-4.2-4.5v19.3h-3.9v-41.5h3.7v5.9c2.3-4.1 6.6-6.6 11.3-6.5 2 0 3.9.3 5.8 1.1 1.7.7 3.2 1.7 4.5 3s2.3 2.9 3 4.6c.8 1.9 1.2 3.9 1.3 5.9zm-4.1 0c0-1.5-.2-2.9-.8-4.3-.5-1.3-1.2-2.5-2.2-3.4-2-2-4.8-3.1-7.7-3.1-2.9 0-5.7 1.1-7.8 3.1-1 1-1.8 2.1-2.3 3.4-1.1 2.7-1.1 5.8 0 8.5 1.1 2.6 3.2 4.7 5.8 5.7 1.4.6 2.8.9 4.3.8 1.5 0 2.9-.3 4.3-.8 1.3-.5 2.4-1.3 3.4-2.3s1.7-2.1 2.2-3.4c.5-1.3.8-2.7.8-4.2zM438 301.3c0-2 .4-3.9 1.1-5.7.7-1.8 1.8-3.4 3.1-4.7 1.3-1.4 2.9-2.4 4.6-3.2 1.8-.8 3.7-1.2 5.7-1.1 1.3 0 2.6.2 3.9.6 1.2.3 2.2.8 3.3 1.5.9.6 1.7 1.3 2.4 2.1.6.7 1.1 1.4 1.5 2.3l.3-5.8h3.6v28h-3.9v-2.9-1.5-1.3c-.4.8-.9 1.6-1.5 2.3-.7.8-1.5 1.4-2.4 2-1 .6-2.1 1.1-3.2 1.4-1.3.4-2.6.5-4 .5-2 0-4-.4-5.8-1.2-1.7-.7-3.3-1.8-4.6-3.1-1.3-1.3-2.3-2.9-3-4.6-.7-1.8-1.1-3.7-1.1-5.6zm3.9-.2c0 1.5.3 2.9.8 4.3 1.1 2.6 3.2 4.7 5.8 5.7 2.8 1.1 5.8 1.1 8.6 0 4-1.7 6.7-5.6 6.6-10 0-1.4-.3-2.9-.8-4.2-.5-1.3-1.3-2.4-2.3-3.4s-2.2-1.8-3.5-2.3c-4.1-1.7-8.9-.8-12.1 2.3-1 1-1.8 2.1-2.3 3.4-.6 1.2-.8 2.7-.8 4.2zM491.9 289.8l-2.1 2.7c-.6-.7-1.4-1.2-2.2-1.4-1.1-.4-2.2-.7-3.3-.7-.5 0-1 .1-1.5.2s-1 .4-1.5.7c-.5.3-.8.7-1.1 1.2-.3.5-.5 1.2-.5 1.8 0 1 .3 1.9 1 2.5.7.7 1.5 1.2 2.5 1.6 1 .5 2 .9 3.2 1.3 1.1.4 2.2.9 3.2 1.5s1.8 1.4 2.5 2.4c.7 1.1 1 2.4 1 3.7 0 2.2-.8 4.4-2.4 5.9a8.94 8.94 0 0 1-6.8 2.4c-1.7 0-3.3-.3-4.9-.8s-2.9-1.4-4-2.7c.2-.2.4-.4.7-.8l.8-.9.6-.7.3-.3c.2.3.6.6.9.8.5.3 1.1.6 1.6.8.6.3 1.3.5 2 .7s1.3.3 2 .3c.6 0 1.2-.1 1.8-.2.6-.2 1.2-.4 1.8-.8.5-.4 1-.8 1.3-1.4s.5-1.3.5-2c0-1-.3-1.9-1-2.6s-1.5-1.2-2.5-1.6c-1-.5-2.1-.9-3.2-1.3s-2.2-.9-3.2-1.5-1.8-1.4-2.5-2.4c-.7-1.1-1.1-2.4-1-3.8 0-1.2.2-2.4.8-3.5 1-1.8 2.6-3.2 4.6-3.7.9-.3 1.9-.4 2.9-.4 1.4 0 2.7.3 4 .8 1.4.3 2.7 1.1 3.7 2.2zM515.2 289.8l-2.1 2.7c-.6-.7-1.4-1.2-2.2-1.4-1.1-.4-2.2-.7-3.3-.7-.5 0-1 .1-1.5.2s-1 .4-1.5.7c-.5.3-.8.7-1.1 1.2-.3.5-.5 1.2-.5 1.8 0 1 .3 1.9 1 2.5.7.7 1.5 1.2 2.5 1.6 1 .5 2 .9 3.2 1.3 1.1.4 2.2.9 3.2 1.5s1.8 1.4 2.5 2.4c.7 1.1 1 2.4 1 3.7 0 2.2-.8 4.4-2.4 5.9a8.94 8.94 0 0 1-6.8 2.4c-1.7 0-3.3-.3-4.9-.8s-2.9-1.4-4-2.7c.2-.2.4-.4.7-.8l.8-.9.6-.7.3-.3c.2.3.6.6.9.8.5.3 1.1.6 1.6.8.6.3 1.3.5 2 .7s1.3.3 2 .3c.6 0 1.2-.1 1.8-.2.6-.2 1.2-.4 1.8-.8.5-.4 1-.8 1.3-1.4s.5-1.3.5-2c0-1-.3-1.9-1-2.6s-1.5-1.2-2.5-1.6c-1-.5-2.1-.9-3.2-1.3s-2.2-.9-3.2-1.5-1.8-1.4-2.5-2.4c-.7-1.1-1.1-2.4-1-3.8 0-1.2.2-2.4.8-3.5 1-1.8 2.6-3.2 4.6-3.7.9-.3 1.9-.4 2.9-.4 1.4 0 2.7.3 4 .8 1.3.3 2.6 1.1 3.7 2.2zM522.8 277c0-.8.3-1.5.9-2 .5-.5 1.2-.8 1.9-.8 1.5 0 2.7 1.3 2.7 2.8 0 .8-.3 1.5-.8 2s-1.2.8-1.9.8-1.4-.3-1.9-.8c-.6-.5-.9-1.3-.9-2zm4.7 38.1h-3.8v-28h3.8v28zM535 301.1c0-2 .4-3.9 1.2-5.7 1.5-3.5 4.3-6.3 7.8-7.8 5.5-2.4 12-1.1 16.2 3.1 2.7 2.8 4.2 6.5 4.2 10.4 0 1.9-.4 3.9-1.1 5.7-.7 1.7-1.8 3.3-3.1 4.6-1.3 1.3-2.9 2.4-4.7 3.1-1.8.8-3.8 1.2-5.8 1.2s-3.9-.3-5.7-1.1c-1.7-.7-3.3-1.7-4.7-3-2.8-2.7-4.4-6.5-4.3-10.5zm3.8 0c0 1.4.3 2.9.8 4.2 1.1 2.6 3.2 4.6 5.7 5.7 1.3.6 2.8.9 4.2.8 4.4 0 8.3-2.6 10-6.6.6-1.3.9-2.8.8-4.2 0-6-4.8-10.8-10.7-10.9h-.1c-1.4 0-2.9.3-4.2.8-3.9 1.9-6.5 5.9-6.5 10.2zM571.9 287.1h3.3l.3 7.2c1-2.3 2.5-4.2 4.5-5.7 2.1-1.5 4.6-2.2 7.2-2.2 2.4-.1 4.8.7 6.5 2.3 1.6 1.6 2.6 3.8 2.6 6.1V315h-3.8v-18.9c-.1-3.3-2.8-5.9-6.1-5.9h-.2c-1.4 0-2.8.2-4.1.7-1.2.5-2.4 1.2-3.3 2.1-1 .9-1.7 2-2.2 3.1-.5 1.3-.8 2.6-.8 4v14.8H572l-.1-27.8zM603.6 301.3c0-2 .4-3.9 1.2-5.7.7-1.8 1.8-3.4 3.2-4.7 1.3-1.4 2.9-2.4 4.7-3.2 1.8-.8 3.7-1.2 5.7-1.1 1.3 0 2.6.2 3.9.6 1.2.3 2.2.8 3.3 1.5.9.6 1.7 1.3 2.4 2.1.6.7 1.1 1.4 1.5 2.3l.3-5.8h3.6v28h-3.8v-2.9-1.5-1.3c-.4.8-.9 1.6-1.5 2.3-.7.8-1.5 1.4-2.4 2-1 .6-2.1 1.1-3.2 1.4-1.3.4-2.6.5-4 .5-2 0-4-.4-5.8-1.2-1.7-.7-3.3-1.8-4.6-3.1-1.3-1.3-2.3-2.9-3-4.6-1.1-1.8-1.5-3.7-1.5-5.6zm3.9-.2c0 1.5.3 2.9.8 4.3 1.1 2.6 3.2 4.7 5.8 5.7 2.8 1.1 5.8 1.1 8.6 0 4-1.7 6.7-5.6 6.6-10 0-1.4-.3-2.9-.8-4.2-.5-1.3-1.3-2.4-2.3-3.4s-2.2-1.8-3.5-2.3c-4.1-1.7-8.9-.8-12.1 2.3-1 1-1.8 2.1-2.3 3.4-.6 1.2-.8 2.7-.8 4.2zM644.9 274.9h3.8v12.5h8.3v3.5h-8.3v24.2h-3.8v-24.2h-5.6v-3.5h5.6v-12.5zM685.1 311.8c-1.4 1.2-3 2.2-4.8 2.9-1.8.7-3.7 1.1-5.7 1-2 0-3.9-.4-5.8-1.2-1.7-.7-3.3-1.8-4.7-3.1-1.3-1.3-2.4-2.9-3.2-4.6-.8-1.8-1.2-3.7-1.2-5.7s.4-3.9 1.2-5.7c1.5-3.5 4.3-6.3 7.8-7.8 1.8-.8 3.7-1.2 5.7-1.2 2.9-.1 5.8.9 8 2.8 2.3 1.9 4 4.4 5 7.1-1.6.6-3.3 1.3-5.3 2.1l-6 2.4-6.1 2.5-5.6 2.3c1.7 3.9 5.6 6.4 9.9 6.4 1.5 0 2.9-.3 4.3-.8 1.3-.5 2.4-1.2 3.4-2.1l3.1 2.7zm-2.4-16.4c-.8-1.5-1.9-2.8-3.4-3.7-1.4-.9-3.1-1.4-4.8-1.4-1.4 0-2.9.3-4.2.9s-2.4 1.4-3.4 2.3c-1 1-1.8 2.1-2.3 3.4-.6 1.3-.8 2.7-.8 4.1 0 .7.1 1.3.2 2 1.4-.6 3-1.2 4.6-1.9 1.6-.7 3.3-1.3 4.9-2 1.6-.7 3.2-1.3 4.8-2 1.6-.7 3.1-1.2 4.4-1.7zM709 301.3c0-2 .4-3.9 1.2-5.7.7-1.8 1.8-3.4 3.2-4.7 1.3-1.4 2.9-2.4 4.7-3.2 1.8-.8 3.7-1.2 5.7-1.1 1.3 0 2.6.2 3.9.6 1.2.3 2.2.8 3.3 1.5.9.6 1.7 1.3 2.4 2.1.6.7 1.1 1.4 1.5 2.3l.3-5.8h3.6v28H735v-2.9-1.5-1.3c-.4.8-.9 1.6-1.5 2.3-.7.8-1.5 1.4-2.4 2-1 .6-2.1 1.1-3.2 1.4-1.3.4-2.6.5-4 .5-2 0-4-.4-5.8-1.2-1.7-.7-3.3-1.8-4.6-3.1-1.3-1.3-2.3-2.9-3-4.6-1.1-1.8-1.5-3.7-1.5-5.6zm3.9-.2c0 1.5.3 2.9.8 4.3 1.1 2.6 3.2 4.7 5.8 5.7 2.8 1.1 5.8 1.1 8.6 0 1.3-.5 2.5-1.3 3.5-2.3 2-2 3.2-4.8 3.2-7.7 0-1.4-.3-2.9-.8-4.2-.5-1.3-1.3-2.4-2.3-3.4s-2.2-1.8-3.5-2.3c-4.1-1.7-8.9-.8-12.1 2.3-1 1-1.8 2.1-2.3 3.4-.6 1.2-.9 2.7-.9 4.2zM777.8 301.1c0 2-.3 3.9-1.1 5.7-.7 1.7-1.7 3.3-3 4.6-1.3 1.3-2.9 2.4-4.7 3.1-1.8.8-3.8 1.1-5.8 1.1-2.5.1-4.9-.6-7-1.8-1.8-1-3.3-2.6-4.2-4.5V315h-3.8v-53.7h3.8v31.5c2.3-4.1 6.6-6.6 11.3-6.5 2 0 3.9.3 5.8 1.1 1.7.7 3.2 1.7 4.5 3s2.3 2.9 3 4.6c.7 2.1 1.2 4.1 1.2 6.1zm-4.1 0c0-1.5-.2-2.9-.8-4.3-.5-1.3-1.2-2.5-2.2-3.4-2-2-4.8-3.1-7.7-3.1s-5.7 1.1-7.8 3.1c-1 1-1.8 2.1-2.3 3.4-1.1 2.7-1.1 5.8 0 8.5 1.1 2.6 3.2 4.7 5.8 5.7 1.4.6 2.8.9 4.3.8 1.5 0 2.9-.3 4.3-.8 1.3-.5 2.4-1.3 3.4-2.3s1.7-2.1 2.2-3.4c.5-1.3.8-2.7.8-4.2zM783.3 301.1c0-2 .4-3.9 1.2-5.7 1.5-3.5 4.3-6.4 7.8-7.8 5.5-2.4 12-1.1 16.2 3.1 2.7 2.8 4.2 6.5 4.2 10.4 0 1.9-.4 3.9-1.1 5.7-.7 1.7-1.8 3.3-3.1 4.6-1.3 1.3-2.9 2.4-4.7 3.1-1.8.8-3.8 1.2-5.8 1.2s-3.9-.3-5.7-1.1c-1.7-.7-3.3-1.7-4.7-3-2.8-2.7-4.3-6.5-4.3-10.5zm3.9 0c0 1.4.3 2.9.8 4.2 1.1 2.6 3.2 4.6 5.7 5.7 1.3.6 2.8.9 4.2.8 4.4 0 8.3-2.6 10-6.6.6-1.3.9-2.8.8-4.2 0-6-4.8-10.8-10.7-10.8h-.1c-1.4 0-2.9.3-4.2.8-3.9 1.8-6.5 5.8-6.5 10.1zM844.4 315.5h-3.2l-.4-7.6c-.9 2.3-2.5 4.2-4.5 5.7-2.1 1.5-4.7 2.2-7.3 2.2-2.4.1-4.8-.7-6.5-2.3-1.6-1.6-2.6-3.8-2.5-6.1v-20.2h3.8v18.9c.1 3.3 2.8 5.9 6.1 5.9h.2c1.4 0 2.8-.2 4.1-.7 1.2-.4 2.4-1.1 3.3-2 .9-.9 1.7-1.9 2.2-3.1.6-1.3.9-2.6.8-4v-14.9h3.8l.1 28.2zM856.1 274.9h3.9v12.5h8.3v3.5H860v24.2h-3.8v-24.2h-5.6v-3.5h5.6l-.1-12.5zM904.2 293.1l-2.7-6h3.4c2.3 5.2 4.3 9.5 5.8 13.1 1.5 3.5 2.9 6.6 4 9.3.6-1.7 1.2-3.3 1.8-4.9s1.3-3.3 2.1-5c.7-1.7 1.6-3.6 2.5-5.6s1.9-4.3 3-6.9h3.8l-13.2 29.7c-1.6-3.3-3-6.6-4.4-9.9s-2.8-6.6-4.4-9.9l-8.4 19.9c-2.2-5-4.4-9.9-6.5-14.8s-4.3-9.8-6.4-14.8h3.8c1.1 2.6 2.1 4.9 3 6.9s1.7 3.9 2.3 5.6c.7 1.7 1.4 3.4 2 4.9s1.2 3.2 1.8 4.9l1.2-3 1.4-3.4 1.8-4.3c.6-1.8 1.4-3.7 2.3-5.8zM955.9 311.8c-1.4 1.2-3 2.2-4.8 2.9-1.8.7-3.7 1.1-5.7 1-2 0-4-.4-5.8-1.2-1.7-.7-3.3-1.8-4.7-3.1-1.3-1.3-2.4-2.9-3.2-4.6-.8-1.8-1.2-3.7-1.2-5.7s.4-3.9 1.2-5.7c1.5-3.5 4.3-6.3 7.8-7.8 1.8-.8 3.7-1.2 5.7-1.2 2.9-.1 5.8.9 8 2.8 2.3 1.9 4 4.4 5 7.1-1.6.6-3.3 1.3-5.3 2.1l-6 2.4-6 2.5-5.6 2.3c1.7 3.9 5.6 6.4 9.9 6.4 1.5 0 2.9-.3 4.3-.8 1.3-.5 2.4-1.2 3.4-2.1l3 2.7zm-2.4-16.4c-.8-1.5-1.9-2.8-3.4-3.7-1.4-.9-3.1-1.4-4.8-1.4-1.4 0-2.9.3-4.2.9s-2.4 1.4-3.4 2.3c-1 1-1.8 2.1-2.3 3.4-.6 1.3-.8 2.7-.8 4.1 0 .7.1 1.3.2 2 1.4-.6 3-1.2 4.6-1.9 1.6-.7 3.3-1.3 4.9-2 1.6-.7 3.2-1.3 4.8-2 1.6-.7 3-1.2 4.4-1.7zM994.2 301.1c0 2-.3 3.9-1.1 5.7-.7 1.7-1.7 3.3-3 4.6-1.3 1.3-2.9 2.4-4.6 3.1-1.8.8-3.8 1.1-5.8 1.1-2.5.1-4.9-.6-7-1.8-1.8-1-3.3-2.6-4.2-4.5V315h-3.8v-53.6h3.8v31.5c2.3-4.1 6.6-6.6 11.3-6.5 2 0 3.9.3 5.8 1.1 1.7.7 3.2 1.7 4.5 3s2.3 2.9 3 4.6c.7 2 1.1 4 1.1 6zm-4.1 0c0-1.5-.2-2.9-.8-4.3-.5-1.3-1.2-2.5-2.2-3.4-2-2-4.8-3.1-7.7-3.1s-5.7 1.1-7.8 3.1c-1 1-1.8 2.1-2.3 3.4-1.1 2.7-1.1 5.8 0 8.5 1.1 2.6 3.2 4.7 5.8 5.7 1.4.6 2.8.9 4.3.8 1.5 0 2.9-.3 4.3-.8 1.3-.5 2.4-1.3 3.4-2.3s1.7-2.1 2.2-3.4c.5-1.3.8-2.7.8-4.2zM1017 301.1c0-2 .4-4 1.1-5.9.7-1.7 1.7-3.3 3-4.6 2.7-2.7 6.4-4.2 10.2-4.2 2.6 0 5.1.7 7.2 2 1.7 1.1 3.1 2.6 4 4.5v-31.5h3.8V315h-3.8v-2.9c0-.5 0-1 .1-1.5 0-.5.1-1 .1-1.4-1 1.8-2.5 3.4-4.3 4.5-2.1 1.3-4.6 2-7.1 1.9-2 0-4-.4-5.8-1.2-3.4-1.5-6.1-4.3-7.5-7.7-.7-1.7-1-3.6-1-5.6zm3.8 0c0 1.5.3 2.9.8 4.3 1.1 2.6 3.2 4.7 5.8 5.7 2.8 1.1 5.8 1.1 8.6 0 1.3-.5 2.5-1.3 3.5-2.3 2-2 3.2-4.8 3.2-7.7 0-1.4-.3-2.9-.8-4.2-.5-1.3-1.3-2.4-2.3-3.4s-2.2-1.8-3.5-2.3c-4.1-1.7-8.9-.8-12.1 2.3-1 1-1.8 2.1-2.3 3.4-.6 1.3-.8 2.7-.9 4.2zM1079.3 311.8c-1.4 1.2-3 2.2-4.8 2.9-1.8.7-3.7 1.1-5.7 1-2 0-4-.4-5.8-1.2-1.7-.7-3.3-1.8-4.7-3.1-1.3-1.3-2.4-2.9-3.2-4.6-.8-1.8-1.2-3.7-1.2-5.7s.4-3.9 1.2-5.7c1.5-3.5 4.3-6.3 7.8-7.8 1.8-.8 3.7-1.2 5.7-1.2 2.9-.1 5.8.9 8 2.8 2.3 1.9 4 4.4 5 7.1-1.6.6-3.3 1.3-5.3 2.1l-6 2.4-6.1 2.5-5.6 2.3c1.7 3.9 5.6 6.4 9.9 6.4 1.5 0 2.9-.3 4.3-.8 1.3-.5 2.4-1.2 3.4-2.1l3.1 2.7zm-2.3-16.4c-.8-1.5-1.9-2.8-3.4-3.7-1.4-.9-3.1-1.4-4.8-1.4-1.4 0-2.9.3-4.2.9-1.3.6-2.4 1.4-3.4 2.3-1 1-1.8 2.1-2.3 3.4-.6 1.3-.8 2.7-.8 4.1 0 .7.1 1.3.2 2 1.4-.6 3-1.2 4.6-1.9 1.6-.7 3.3-1.3 4.9-2s3.2-1.3 4.8-2 3-1.2 4.4-1.7zM1097.9 316.8c-1.3-2.5-2.6-4.9-3.7-7.4s-2.3-4.9-3.4-7.4-2.3-4.9-3.4-7.4-2.3-4.9-3.6-7.4h4.1c1.4 2.8 2.6 5.3 3.6 7.4s1.8 4 2.6 5.7c.7 1.7 1.4 3.3 2 4.8s1.2 3 1.9 4.5c.7-1.5 1.3-3 1.8-4.5.6-1.5 1.2-3.1 2-4.8.7-1.7 1.6-3.6 2.6-5.7s2.2-4.6 3.6-7.4h4.1c-2.5 5-4.9 9.9-7 14.8s-4.6 9.8-7.2 14.8zM1139.8 311.8c-1.4 1.2-3 2.2-4.8 2.9-1.8.7-3.7 1.1-5.7 1-2 0-4-.4-5.8-1.2-1.7-.7-3.3-1.8-4.7-3.1-1.3-1.3-2.4-2.9-3.2-4.6-.8-1.8-1.2-3.7-1.2-5.7s.4-3.9 1.2-5.7c1.5-3.5 4.3-6.3 7.8-7.8 1.8-.8 3.7-1.2 5.7-1.2 2.9-.1 5.8.9 8 2.8 2.3 1.9 4 4.4 5 7.1-1.6.6-3.3 1.3-5.3 2.1l-6 2.4-6.1 2.5-5.6 2.3c1.7 3.9 5.6 6.4 9.9 6.4 1.5 0 2.9-.3 4.3-.8 1.3-.5 2.4-1.2 3.4-2.1l3.1 2.7zm-2.4-16.4c-.8-1.5-1.9-2.8-3.4-3.7-1.4-.9-3.1-1.4-4.8-1.4-1.4 0-2.9.3-4.2.9-1.3.6-2.4 1.4-3.4 2.3-1 1-1.8 2.1-2.3 3.4-.6 1.3-.8 2.7-.8 4.1 0 .7.1 1.3.2 2 1.4-.6 3-1.2 4.6-1.9 1.6-.7 3.3-1.3 4.9-2s3.2-1.3 4.8-2 3.1-1.2 4.4-1.7zM1152.6 315.1h-3.8v-53.6h3.8v53.6zM1160.2 301.1c0-2 .4-3.9 1.2-5.7 1.5-3.5 4.3-6.4 7.8-7.8 7.4-3.2 15.9.1 19.1 7.5 0 .1.1.2.1.3.7 1.8 1.1 3.8 1.1 5.7 0 1.9-.4 3.9-1.1 5.7-.7 1.7-1.8 3.3-3.1 4.6-1.3 1.3-2.9 2.4-4.7 3.1-1.8.8-3.8 1.2-5.8 1.2s-3.9-.3-5.7-1.1c-1.7-.7-3.3-1.7-4.7-3-2.7-2.7-4.2-6.5-4.2-10.5zm3.8 0c0 1.4.3 2.9.8 4.2 1.1 2.6 3.2 4.6 5.7 5.7 1.3.6 2.8.9 4.2.8 4.4 0 8.3-2.6 10-6.6.6-1.3.9-2.8.8-4.2 0-6-4.8-10.8-10.7-10.9h-.1c-1.4 0-2.9.3-4.2.8-3.9 1.9-6.5 5.9-6.5 10.2zM1226.7 301.1c0 2-.3 3.9-1.1 5.7-.7 1.7-1.7 3.3-3 4.6-1.3 1.3-2.9 2.4-4.6 3.1-1.8.8-3.8 1.1-5.8 1.1-2.5.1-4.9-.6-7-1.8-1.8-1-3.3-2.6-4.2-4.5v19.3h-3.8v-41.5h3.7v5.9c2.3-4.1 6.6-6.6 11.3-6.5 2 0 4 .3 5.9 1.1 1.7.7 3.2 1.7 4.6 3 1.3 1.3 2.3 2.9 3 4.6.6 1.9 1 3.9 1 5.9zm-4.1 0c0-1.5-.2-2.9-.8-4.3-.5-1.3-1.2-2.5-2.2-3.4-2-2-4.8-3.1-7.7-3.1-2.9 0-5.7 1.1-7.8 3.1-1 1-1.8 2.1-2.3 3.4-2.4 5.5.2 11.9 5.6 14.2 0 0 .1 0 .1.1 1.4.6 2.8.9 4.3.8 1.5 0 2.9-.3 4.3-.8 1.3-.5 2.4-1.3 3.4-2.3s1.7-2.1 2.2-3.4c.6-1.4.9-2.8.9-4.3zM1234.3 287.1h3.3c0 .4.1 1 .1 1.6s.1 1.4.1 2.1.1 1.4.1 2v1.4c.9-2.2 2.5-4.2 4.4-5.6 2-1.5 4.5-2.2 7-2.2 2.3-.1 4.5.6 6.3 2.1 1.6 1.4 2.6 3.3 2.8 5.4 1-2.1 2.5-4 4.4-5.4 2-1.4 4.4-2.1 6.9-2.1 2.4-.1 4.8.7 6.6 2.3 1.6 1.6 2.6 3.8 2.6 6.1V315h-3.8v-18.9c-.1-3.3-2.8-5.9-6.1-5.9h-.2c-1.4 0-2.7.2-4 .7-1.2.5-2.3 1.1-3.2 2-.9.9-1.6 1.9-2.1 3.1s-.8 2.6-.8 3.9v15h-3.8V296c-.1-1.5-.7-2.9-1.7-4.1-1.2-1.2-2.8-1.9-4.6-1.8-1.4 0-2.8.2-4.1.7-1.2.5-2.3 1.2-3.2 2.1-.9.9-1.7 2-2.2 3.1-.5 1.3-.8 2.6-.8 4v14.8h-3.8l-.2-27.7zM1311.3 311.8c-1.4 1.2-3 2.2-4.8 2.9-1.8.7-3.7 1.1-5.7 1-2 0-4-.4-5.8-1.2-1.7-.7-3.3-1.8-4.7-3.1-1.3-1.3-2.4-2.9-3.2-4.6-.8-1.8-1.2-3.7-1.2-5.7s.4-3.9 1.2-5.7c1.5-3.5 4.3-6.3 7.8-7.8 1.8-.8 3.7-1.2 5.7-1.2 2.9-.1 5.8.9 8 2.8 2.3 1.9 4 4.4 5 7.1-1.6.6-3.3 1.3-5.3 2.1l-6 2.4-6.1 2.5-5.6 2.3c1.7 3.9 5.6 6.4 9.9 6.4 1.5 0 2.9-.3 4.3-.8 1.3-.5 2.4-1.2 3.4-2.1l3.1 2.7zm-2.4-16.4c-.8-1.5-1.9-2.8-3.4-3.7-1.4-.9-3.1-1.4-4.8-1.4-1.4 0-2.9.3-4.2.9-1.3.6-2.4 1.4-3.4 2.3-1 1-1.8 2.1-2.3 3.4-.6 1.3-.8 2.7-.8 4.1 0 .7.1 1.3.2 2 1.4-.6 3-1.2 4.6-1.9 1.6-.7 3.3-1.3 4.9-2s3.2-1.3 4.8-2 3.1-1.2 4.4-1.7zM1320.1 287.1h3.3l.3 7.2c1-2.3 2.5-4.2 4.6-5.7s4.6-2.2 7.2-2.2c2.4-.1 4.8.7 6.5 2.3 1.6 1.6 2.6 3.8 2.6 6.1V315h-3.8v-18.9c-.1-3.3-2.8-5.9-6.1-5.9h-.2c-1.4 0-2.8.2-4.1.7-1.2.5-2.4 1.2-3.3 2.1-1 .9-1.7 2-2.2 3.1-.5 1.3-.8 2.6-.8 4v14.8h-3.8l-.2-27.8zM1356.1 274.9h3.8v12.5h8.3v3.5h-8.3v24.2h-3.8v-24.2h-5.6v-3.5h5.6v-12.5zM1372.2 312.3c0-.8.3-1.5.8-2s1.2-.9 2-.8c1.5.1 2.8 1.3 2.8 2.9 0 .8-.3 1.5-.9 2.1-.5.5-1.2.8-1.9.8-1.6-.1-2.8-1.4-2.8-3z"/></g></svg>