<svg id="Layer_1" viewBox="0 0 810.6 810.6" enable-background="new 0 0 810.6 810.6"><filter id="outer_glow_18"><feGaussianBlur result="coloredBlur" stdDeviation="18"/><feMerge><feMergeNode in="coloredBlur"/><feMergeNode in="SourceGraphic"/></feMerge></filter><g filter="url(#outer_glow_18)" fill="#7BFEFE"><path d="M686.1 594c-8.4 12.6-17.8 24.7-27.9 36.1-.2.2-.4.5-.6.7-22.1 24.2-48 45.5-77.5 62.9l-2.3 1c-2.8 1.1-5.6 2.8-8.5 5.1-2.3 1.2-4.5 2.4-6.8 3.6-32.9 16.9-67.2 27.8-101.8 33.3-9.7 1.5-19.4 2.6-29 3.3-130.9 9.2-260.8-58.8-324.6-182.8-59.4-115.7-45.7-249.8 24.2-349.3 7.2-10.2 15-20.1 23.3-29.5l.1-.1c20.5-22.7 44.5-42.9 71.4-59.7l3.2-1.5c2.9-1.2 5.9-3.2 9-5.7 6.2-3.5 12.6-6.8 19.1-10 33.2-16.2 67.8-26.4 102.5-31.1 4.8-.7 9.6-1.2 14.4-1.7C510.2 56 646 127.2 709.4 257.3 764 369.6 751 497.2 686.1 594z"/><path d="M131.2 207.1c7.2-10 14.9-19.5 23.2-28.7-8.4 9.4-16.1 19.3-23.3 29.5 0-.3.1-.5.1-.8zM226 118.5c4-2.5 8-4.9 12.2-7.2-3.1 2.5-6 4.5-9 5.7l-3.2 1.5zM562.3 703.4c2.3-1.2 4.6-2.4 6.8-3.6-.5.4-1.1.9-1.7 1.3-4.6 2.5-9.4 5-14.2 7.3-37.7 18.4-77.2 29.1-116.7 32.8l-5.1-1.2c9.7-.7 19.4-1.8 29-3.3 34.7-5.5 69.1-16.4 101.9-33.3zM657.6 630.7c-14 15.7-29.6 30.2-46.8 43.3-7.5 5.7-15.2 11.1-23.3 16.3l-5.6 2.5-1.9.9c29.5-17.4 55.5-38.7 77.6-63z"/></g><path fill="#7BFEFE" d="M628.6 564.7l-47.2 21.2c-11.1 5.2-15.8 18.5-10.6 29.6l1.7 3.7c5.3 11 .5 24.4-10.6 29.6l-14.6 6.7h-.1c-11.1 5.2-15.8 18.5-10.6 29.6l1.7 3.7c5.3 11 .5 24.4-10.6 29.6l-.4.2c-108.7 41.5-228.7 24.4-319.2-39.5-.5-.4-1.1-.8-1.6-1.2-43.5-31.5-80.1-73.9-105.2-125.6-19.5-40-30.4-82-33.3-123.9 0-.6-.1-1.2-.1-1.8v-.8c-.1-1.3-.2-2.5-.2-3.8-6.5-125.6 58.2-249 174.2-313.1 9.5-.9 18.4 4.2 22.4 12.8l1.7 3.7c5.1 11.2 18.4 16 29.5 10.9l52.9-24.7c11.1-5.1 24.4-.2 29.5 10.9l1.7 3.7c5.3 11 .5 24.4-10.6 29.6l-31 14.5c-11.1 5.2-15.8 18.5-10.6 29.6l.9 1.9c5.1 11.2 18.4 16 29.5 10.9l113-52.6c11.2-5.1 24.4-.3 29.8 10.6l1.7 3.7c5.3 11.1.5 24.4-10.6 29.6L270.8 307.2c-11 5.2-15.6 18.2-10.7 29.3 5 11.2 18.2 16.1 29.5 11.1l76.6-35.7 29.1-13.7c11.1-5.1 24.4-.2 29.5 10.9l1.7 3.7c5.3 11 .5 24.4-10.6 29.6l-29.1 13.7-43.8 20.4c-11.1 5.2-15.8 18.5-10.6 29.6l1.7 3.7c5.1 11.2 18.4 16 29.5 10.9l122.2-57.1c11-5.1 24.3-.2 29.4 10.9l1.7 3.7c5.3 11 .5 24.4-10.6 29.6L271.1 517.4c-11.1 5.2-15.8 18.5-10.6 29.6l1.7 3.7c5 11.2 18.3 16 29.4 10.9l147.7-68.8c11-5.1 24.3-.3 29.4 10.9l1.7 3.7c5.3 11 .5 24.4-10.6 29.6l-34.6 16.1c-11.1 5.2-15.8 18.5-10.6 29.6l1.7 3.7c5.1 11.2 18.4 16 29.5 10.9l43.8-20.6 118.5-56.2c11-5.1 24.3-.2 29.4 10.9l1.7 3.7c5.3 11 .5 24.4-10.6 29.6z"/><path fill="#5CDFE5" d="M699.2 531l-45.5 21.2c-11.1 5.2-15.8 18.5-10.6 29.6l1.8 3.7c5.3 11 .5 24.4-10.6 29.6l-14.6 6.7c-11.1 5.2-15.8 18.5-10.6 29.6l1.8 3.6c2.6 5.7 2.7 12 .6 17.6-.2.5-.4 1-.7 1.5-7.5 5.7-15.2 11.1-23.3 16.3l-5.6 2.5-4.2 1.9c-3.3 1.3-6.7 3.5-10.2 6.4-4.6 2.5-9.4 5-14.2 7.3-37.7 18.4-77.2 29.1-116.7 32.8-58.6-13.3-115.3-47.6-164.8-80L121.4 339c4.6-39 4.8-86.3 9.8-131.9 31.6-43.8 74.1-80.6 126-105.8 33.2-16.2 67.8-26.4 102.5-31.1 1.3.8 1.7 2.5 2.3 3.8l1.7 3.7c5.1 11.2 18.4 16 29.5 10.9l23.5-9.5c11.1-5.1 24.4-.2 29.5 10.9l1.7 3.8c5.3 11 .5 24.4-10.6 29.6l-29.6 13.3c-11.1 5.1-15.7 18.4-10.6 29.5l.9 1.9c5.1 11.2 18.4 16 29.5 10.9l119.8-56.9c11-5.2 24.3-.3 29.4 10.8l1.7 3.7c5.3 11 .5 24.4-10.6 29.6l-199.4 93.2c-11 5.2-15.6 18.2-10.7 29.3 5 11.2 18.2 16.1 29.5 11.1l76.6-35.7 55-25.7c11.1-5.1 24.4-.2 29.5 10.9l1.7 3.7c5.3 11 .5 24.4-10.6 29.6l-55 25.7-43.8 20.4c-11.1 5.2-15.8 18.5-10.6 29.6l1.7 3.7c5.1 11.1 18.4 15.9 29.5 10.8l148.7-71.4c11-5.2 24.4-.4 29.4 10.9l1.7 3.7c5.3 11 .5 24.4-10.6 29.6l-261.8 124c-11.1 5.2-15.8 18.5-10.6 29.6l1.7 3.7c5.1 11.2 18.4 16 29.5 10.9l133.9-61.5c11.1-5.1 24.4-.2 29.5 10.9l1.7 3.7c5.3 11 .5 24.4-10.6 29.6l-68.1 32.7c-11.1 5.2-15.8 18.5-10.6 29.6l1.7 3.7c5.1 11.1 18.4 15.9 29.5 10.8l20.3-9 162.2-77.6c11-5.1 24.3-.2 29.4 10.9l1.7 3.7c5.3 11.1.5 24.5-10.6 29.7z"/><path fill="#52C5D8" d="M628.6 564.7l-47.2 21.2c-11.1 5.2-15.8 18.5-10.6 29.6l1.7 3.7c5.3 11 .5 24.4-10.6 29.6l-14.6 6.7h-.1c-11.1 5.2-15.8 18.5-10.6 29.6l1.7 3.7c5.3 11 .5 24.4-10.6 29.6l-.4.2c-108.7 41.5-228.7 24.4-319.2-39.5-.5-.4-1.1-.8-1.6-1.2-42.4-30.3-78.2-70.9-103.2-120.6l-9-19.4C79 502.3 70.4 465.4 67.9 428.5c0-.6-.1-1.2-.1-1.8v-.8c-.1-1.3-.2-2.5-.2-3.8-6.4-125.7 58.3-249.1 174.3-313.2 9.5-.9 18.4 4.2 22.4 12.8l1.7 3.7c5.1 11.2 18.4 16 29.5 10.9l52.9-24.7c11.1-5.1 24.4-.2 29.5 10.9l1.7 3.7c5.3 11 .5 24.4-10.6 29.6l-31 14.5c-11.1 5.2-15.8 18.5-10.6 29.6l.9 1.9c5.1 11.2 18.4 16 29.5 10.9l113-52.6c11.2-5.1 24.4-.3 29.8 10.6l1.7 3.7c5.3 11.1.5 24.4-10.6 29.6L270.8 307.2c-11 5.2-15.6 18.2-10.7 29.3 5 11.2 18.2 16.1 29.5 11.1l76.6-35.7 29.1-13.7c11.1-5.1 24.4-.2 29.5 10.9l1.7 3.7c5.3 11 .5 24.4-10.6 29.6l-29.1 13.7-43.8 20.4c-11.1 5.2-15.8 18.5-10.6 29.6l1.7 3.7c5.1 11.2 18.4 16 29.5 10.9l122.2-57.1c11-5.1 24.3-.2 29.4 10.9l1.7 3.7c5.3 11 .5 24.4-10.6 29.6L271.1 517.4c-11.1 5.2-15.8 18.5-10.6 29.6l1.7 3.7c5 11.2 18.3 16 29.4 10.9l147.7-68.8c11-5.1 24.3-.3 29.4 10.9l1.7 3.7c5.3 11 .5 24.4-10.6 29.6l-34.6 16.1c-11.1 5.2-15.8 18.5-10.6 29.6l1.7 3.7c5.1 11.2 18.4 16 29.5 10.9l43.8-20.6 118.5-56.2c11-5.1 24.3-.2 29.4 10.9l1.7 3.7c5.3 11 .5 24.4-10.6 29.6z"/><g filter="url(#outer_glow_18)" fill="#7BFEFE"><path d="M225 119l1-.5c-27 16.8-50.9 37-71.4 59.7 12.7-14.3 26.7-27.7 42-39.8 7.4-5.9 15-11.4 22.9-16.8l5.5-2.6zM369.2 67.5c1.6.3 3.3.7 4.9 1-4.8.5-9.6 1-14.4 1.7-34.7 4.7-69.3 14.9-102.5 31.1-6.5 3.2-12.9 6.5-19.1 10 .4-.3.7-.6 1.1-.9 4.5-2.6 9.3-5.2 14-7.6 37.3-19.2 76.6-30.8 116-35.3zM577.7 694.7l2.3-1c-3.6 2.1-7.2 4.1-10.9 6.1 3-2.3 5.8-4 8.6-5.1zM686.1 594c0 .3 0 .6-.1 1-8.5 12.2-17.7 24-27.8 35.1 10.1-11.5 19.5-23.6 27.9-36.1z"/></g></svg>