<svg id="Layer_1" viewBox="0 0 700.9 510" enable-background="new 0 0 700.9 510"><filter id="outer_glow_18"><feGaussianBlur result="coloredBlur" stdDeviation="18"/><feMerge><feMergeNode in="coloredBlur"/><feMergeNode in="SourceGraphic"/></feMerge></filter><circle fill="#EFEAD7" cx="237.3" cy="253" r="203" filter="url(#outer_glow_18)"/><circle fill="#EFEAD7" cx="237.3" cy="253" r="203"/><path fill="#F9F6ED" d="M310.3 306.9h-12.2c-7.3 0-13.1-6.6-13.1-14.7s5.9-14.6 13.2-14.6l42.3.1c7.3 0 13.2-6.5 13.2-14.6s-5.9-14.7-13.1-14.7l-64.5-.1c-7.3 0-13.1-6.6-13.1-14.7s5.9-14.6 13.2-14.6l34.4.1c7.3 0 13.2-6.5 13.2-14.6s-5.9-14.6-13.1-14.7l-36.1-.1c-7.3 0-13.1-6.6-13.1-14.7s5.9-14.7 13.1-14.7l311.6.4c7.3 0 13.1 6.6 13.1 14.7s-5.9 14.6-13.2 14.6h-19.7c-7.3 0-13.2 6.5-13.2 14.6s5.9 14.7 13.2 14.7l87.4.1c7.3 0 13.1 6.6 13.1 14.7s-5.9 14.6-13.2 14.6l-95.9-.1c-7.3 0-13.2 6.5-13.2 14.6s5.9 14.6 13.1 14.7l42.3.1c7.3 0 13.1 6.6 13.1 14.7s-5.9 14.6-13.2 14.6l-48.8-.1-240.8-.3z" opacity=".1"/><path fill="#FCF8ED" d="M317.8 188.3l-41.5-.1c-8.4 0-15.1-6.8-15.1-15.1S268 158 276.3 158l140.5.2c24.5 46.5 30.1 100.8 15.5 151.3l-114.7-.1h-14c-8.4 0-15.1-6.8-15.1-15.1s6.8-15.1 15.1-15.1l48.6.1c8.4 0 15.1-6.8 15.1-15.1 0-8.4-6.8-15.1-15.1-15.1L278 249c-8.4 0-15.1-6.8-15.1-15.1 0-8.4 6.8-15.1 15.1-15.1l39.6.1c8.4 0 15.1-6.8 15.1-15.1s-6.8-15.1-15.1-15.1l.2-.4z"/><path fill="#F9F6ED" d="M194.8 345c-5.1 0-9.2 5.5-9.2 12.2 0 6.7 4.1 12.2 9.2 12.2l46-.1c5.1 0 9.2 5.4 9.2 12.2 0 6.7-4.1 12.2-9.2 12.2H214c-5.1 0-9.2 5.5-9.2 12.2s4.1 12.2 9.2 12.2l272.6-.4c5.1 0 9.2-5.5 9.2-12.2s-4.1-12.2-9.2-12.2l-66.9.1c-5.1 0-9.2-5.4-9.2-12.2 0-6.7 4.1-12.2 9.2-12.2l40.4-.1c5.1 0 9.2-5.5 9.2-12.2s-4.1-12.2-9.2-12.2l-265.3.5z" opacity=".1"/><path fill="#FCF8ED" d="M197.8 345l220.6-.3c-14.8 29.1-36.3 54.2-62.8 73.2l-132.5.2c-6.7.2-12.3-5.1-12.5-11.8s5.1-12.3 11.8-12.5H258.8c6.7.2 12.3-5.1 12.5-11.8s-5.1-12.3-11.8-12.5h-.7l-60.9.1c-6.7.2-12.3-5.1-12.5-11.8s5.1-12.3 11.8-12.5c.2-.2.4-.2.6-.3z"/></svg>