<svg id="Layer_1" viewBox="0 0 434.8 424.1" enable-background="new 0 0 434.8 424.1"><filter id="outer_glow_18"><feGaussianBlur result="coloredBlur" stdDeviation="18"/><feMerge><feMergeNode in="coloredBlur"/><feMergeNode in="SourceGraphic"/></feMerge></filter><ellipse transform="rotate(-9.05 221.916 211.146)" fill="#5A71B5" cx="222" cy="211.2" rx="163.3" ry="163.3" class="glow" filter="url(#outer_glow_18)"/><path fill="#A1A8D6" d="M368.2 283.4c-22.4 45.3-64.3 77.8-113.6 88 .2-2-.3-4.1-1.3-5.9l-.9-1.7c-2.8-5.2-.9-11.7 4.3-14.6l7-3.7c5.2-2.8 7.2-9.4 4.3-14.6l-.9-1.7c-2.8-5.2-.9-11.7 4.3-14.6l21.5-11.4c5.2-2.8 7.1-9.4 4.3-14.6l-.9-1.7c-2.7-5.3-9.3-7.2-14.5-4.5l-54.1 28.9-20.6 11h-.1c-.3.1-.6.3-.8.4h-.2c-.2.1-.4.1-.6.2l-.5.2h-.4c-.5.1-1.1.2-1.6.3-.3 0-.6.1-.8.1h-1.6c-.3-.1-.6-.1-.9-.1l-.6-.4h-.1l-.6-.3-.2-.1-.6-.3c-.2-.2-.5-.2-.8-.3-.2-.2-.4-.4-.7-.5-.2-.1-.3-.3-.6-.4l-.2-.2c-.1-.1-.3-.4-.5-.5l-.2-.2c-.1-.1-.1-.2-.2-.3-.3-.4-.6-.7-.9-1-.1-.2-.2-.4-.4-.6l-.3-.6-.9-1.7c-2.8-5.2-.9-11.7 4.3-14.6l16.3-8.7c.3-.1.5-.3.8-.5h.1c.3-.1.5-.3.7-.5.2-.1.5-.4.7-.5l.6-.6.5-.6c.2-.2.3-.3.4-.6l.1-.2c.2-.2.3-.4.4-.7.2-.2.3-.4.3-.8.2-.3.2-.5.3-.9.1-.4.1-.5.3-.7.1-.2.1-.5.2-.7.1-.2.1-.3 0-.5.1-.4.1-.9.1-1.3v-.7-.2c0-.2-.1-.5-.1-.7v-.1c0-.3-.1-.5-.2-.8-.1-.5-.3-.9-.5-1.4-.1-.4-.4-.9-.5-1.3 0-.1-.1-.2-.1-.4l-.9-1.7c-2.7-5.3-9.3-7.2-14.5-4.5l-69.5 37.1c-5.3 2.6-11.7.6-14.4-4.7l-.9-1.7c-2.8-5.2-.9-11.7 4.3-14.6l110.6-59.1c5.2-2.8 7.1-9.4 4.3-14.6l-.9-1.7c-2.7-5.3-9.3-7.2-14.5-4.5l-57.4 30.7c-5.2 2.7-11.7.8-14.5-4.5l-.9-1.6c-2.8-5.2-.9-11.7 4.3-14.6l20.6-11 13.9-7.1c5.2-2.8 7.2-9.4 4.3-14.6l-.9-1.7c-2.7-5.2-9.3-7.2-14.5-4.5l-13.7 7.3-35.8 19.6c-5.4 2.6-11.8.4-14.4-5-2.5-5.1-.6-11.3 4.4-14l103.8-55.4c5.2-2.8 7.2-9.4 4.3-14.6l-.9-1.7c-2.7-5.2-9.3-7.2-14.5-4.5L155 139.2c-5.3 2.7-11.7.8-14.5-4.5l-.5-.9c-2.8-5.2-1-11.7 4.3-14.5h.1l14.6-7.8c5.2-2.8 7.1-9.3 4.4-14.5l-.9-1.7c-2.7-5.2-9.3-7.2-14.5-4.5l-24.9 13.3c-5.2 2.7-11.7.8-14.5-4.5l-.9-1.6c-.4-.7-.9-1.2-1.3-1.8 44.9-45.6 113-60.2 173.3-37.4 1.2.4 2.3.9 3.5 1.4 9.5 3.9 18.7 8.6 27.2 14.2.8.4 1.6 1 2.5 1.6 5.5 3.7 10.9 7.9 16.1 12.2 5.8 5.1 11.3 10.7 16.4 16.4 42.9 49.7 52 120.1 23 179.1l-.2-.3z"/><path fill="#5A71B5" d="M368.2 283.4c-4.5 1.1-9.4-1-11.5-5.1l-1.4-2.4c-2.6-5.1-.7-11.2 4.3-13.7l8.9-4.7c5-2.6 6.9-8.9 4.3-13.7l-1-1.9c-2.6-5-8.9-6.9-13.7-4.3l-11.3 5.8c-5 2.6-11.2.7-13.7-4.3l-1.4-2.4c-2.6-5-8.9-6.9-13.7-4.3l-36 19c-1 .6-2 .8-3.1 1-4.4.7-8.7-1.4-10.6-5.4l-1.4-2.4c-2.6-5.1-.7-11.2 4.3-13.7l11.3-5.9c5-2.6 6.9-8.9 4.3-13.7l-1-1.8c-2.6-5-.8-11.2 4.3-13.8h.1l31.6-16.7c5-2.6 6.9-8.9 4.4-13.8l-1-1.9c-2.6-5-8.9-6.9-13.7-4.3L289 170.4v-.1l-7.2 3.8c-2.9 1.4-6.3 1.5-9.3 0-.6-.3-1.3-.7-2-1.2-1.1-.8-1.9-2-2.6-3.2l-1-1.9c-2.6-5-8.9-6.9-13.7-4.3l-17.7 9.3c-5.1 2.6-11.2.7-13.7-4.3l-1.4-2.4c-2.6-5.1-.7-11.2 4.3-13.7l53.7-28 17-8.9 5.1-2.6c5-2.6 6.9-8.9 4.3-13.7l-.8-1.3c-.4-.7-.9-1.2-1.3-1.9-3-3.7-8.3-4.7-12.6-2.5L279 99.2c-5.1 2.6-11.2.7-13.7-4.3l-1.4-2.4c-2.6-5.1-.7-11.2 4.3-13.7l1-.5c5-2.6 6.9-8.9 4.3-13.7l-1-1.9c-2.6-5-8.9-6.9-13.7-4.3L242.5 67l-1.9 1c-5 2.6-11.2.7-13.7-4.3l-1.4-2.4c-2.2-4.2-1.2-9.3 2.5-12.5 17.7.7 35 4.3 51.5 10.5 1.2.4 2.3.9 3.5 1.4 9.5 3.9 18.7 8.6 27.2 14.2.8.4 1.6 1 2.5 1.6 5.5 3.7 10.9 7.9 16.1 12.2 5.8 5.1 11.3 10.7 16.4 16.4 42.9 49 51.9 119.6 23 178.3z"/><path fill="#5A71B5" d="M293.3 302.8l-21.4 11.4c-5.2 2.8-7.2 9.4-4.3 14.6l.9 1.7c2.8 5.2.9 11.7-4.3 14.6l-6.9 3.7c-5.2 2.8-7.2 9.4-4.3 14.6l.9 1.7c1 1.8 1.5 3.9 1.3 5.9-88.5 18.2-175-38.8-193.2-127.3-11.1-53.9 5.5-109.8 44.3-148.6.5.6.9 1.1 1.3 1.8l.9 1.6c2.7 5.2 9.3 7.2 14.5 4.5l24.9-13.3c5.2-2.7 11.7-.8 14.5 4.5l.9 1.7c2.8 5.2.9 11.7-4.3 14.6l-14.7 7.8c-5.2 2.8-7.1 9.4-4.3 14.6l.5.9c2.7 5.2 9.3 7.2 14.5 4.5l53.2-28.4c5.3-2.7 11.7-.8 14.5 4.5l.9 1.7c2.8 5.2.9 11.7-4.3 14.6l-103.6 55.5c-5.2 2.9-7 9.7-3.9 14.7 2.8 4.9 9.1 6.8 14 4.4l36.1-19.3 13.7-7.3c5.3-2.7 11.7-.8 14.5 4.5l.9 1.7c2.8 5.2.9 11.7-4.3 14.6L173 207l-20.6 11c-5.2 2.8-7.1 9.4-4.3 14.6l.9 1.7c2.7 5.3 9.3 7.2 14.5 4.5l57.4-30.6c5.2-2.7 11.7-.8 14.5 4.5l.9 1.7c2.8 5.2.9 11.7-4.3 14.6l-110.3 58.9c-5.2 2.8-7.2 9.4-4.3 14.6l.9 1.7c2.7 5.3 9.3 7.2 14.5 4.5l69.5-37.1c5.3-2.7 11.7-.8 14.5 4.5l.9 1.7c2.8 5.2.9 11.7-4.3 14.6l-16.3 8.7c-5.2 2.8-7.1 9.4-4.3 14.6l.9 1.7c2.7 5.3 9.3 7.2 14.5 4.5l20.6-11 54.1-28.9c5.3-2.7 11.7-.8 14.5 4.5l.9 1.7c2.1 5.2.3 11.8-5 14.6z"/></svg>