<svg id="Layer_1" viewBox="0 0 1401.9 1458.4" enable-background="new 0 0 1401.9 1458.4"><filter id="AI_GaussianBlur_18"><feGaussianBlur stdDeviation="18"/></filter><ellipse transform="rotate(-26.453 700.932 729.181)" fill="#FFD38E" cx="700.9" cy="729.2" rx="654.1" ry="686.8" opacity=".3" filter="url(#AI_GaussianBlur_18)"/><ellipse transform="rotate(-26.453 700.932 729.181)" opacity=".5" fill="#FFD38E" enable-background="new" cx="700.9" cy="729.2" rx="620.9" ry="651.9"/><path fill="#F9DA93" d="M1119.9 1136.6c-8.8 9.3-17.9 18.3-27.3 26.9l-3.6 3.3s-.1 0-.1.1c-1.8 1.7-3.7 3.3-5.6 4.9-1.6 1.4-3.1 2.7-4.7 4.1l-5.7 4.8c-1.5 1.2-3 2.5-4.5 3.7-.2.1-.3.2-.5.4-1.7 1.4-3.4 2.8-5.1 4.1l-5.4 4.2c-1.8 1.4-3.6 2.8-5.4 4.1-1.8 1.4-3.6 2.7-5.5 4.1-25.9 18.9-53.4 35.5-82.3 49.4l-.2.1-5.7 2.7c-.6.3-1.1.5-1.7.8-.5.2-1.1.5-1.6.7-1.7.8-3.3 1.5-5 2.3-.3.2-.7.3-1 .5-1.3.6-2.7 1.2-4 1.8-.2.1-.4.2-.7.3-.5.2-1.1.5-1.7.7-1.7.7-3.4 1.5-5.2 2.2l-1.5.6c-.3.1-.5.2-.8.3-1.2.5-2.4 1-3.5 1.4-.1 0-.2.1-.4.1l-4.5 1.8c-.7.3-1.3.5-2 .8l-3.9 1.5c-.7.3-1.3.5-2 .8-1.7.6-3.4 1.3-5.1 1.9-.2.1-.4.1-.6.2-1.8.7-3.6 1.3-5.5 1.9-.1 0-.1.1-.2.1-1.2.4-2.4.8-3.7 1.3-1.2.4-2.4.8-3.7 1.2-2.6.9-5.1 1.7-7.7 2.5-1.1.4-2.3.7-3.4 1.1-1.3.4-2.5.8-3.8 1.2-1.2.4-2.4.7-3.6 1.1s-2.5.7-3.7 1.1-2.5.7-3.7 1.1-2.5.7-3.7 1-2.5.7-3.8 1-2.5.6-3.8 1c-1.3.3-2.5.6-3.8.9l-11.4 2.7c-8.5 1.9-17.1 3.6-25.6 5.1h-.1c-21.5 3.7-43.2 6.1-65 7.3-1.5.1-2.9.1-4.4.2-1.4.1-2.9.1-4.4.2-4.4.2-8.7.3-13.1.3h-13.2c-2.9 0-5.8-.1-8.7-.2-1.5 0-2.9-.1-4.4-.1-2.9-.1-5.8-.2-8.7-.4-2.9-.2-5.8-.3-8.7-.5l-8.7-.6c-5.8-.5-11.6-1-17.4-1.7-1.5-.2-2.9-.3-4.4-.5-2.9-.4-5.8-.7-8.7-1.1-1.5-.2-2.9-.4-4.3-.6-25.7-3.7-51.2-9.1-76.4-16.2-.3-.1-.7-.2-1-.3-121.2-34.6-233.8-109.2-316.5-220.2-49.4-66.3-83.3-139.3-102.2-214.1-2.9-11.5-5.5-23.1-7.7-34.7-.7-3.9-1.4-7.8-2.1-11.6-1.3-7.7-2.5-15.5-3.5-23.2-6.5-50.2-6.5-100.7-.1-150 .3-2.5.7-4.9 1-7.4.5-3.7 1.1-7.3 1.7-11 .3-1.9.6-3.8 1-5.7.3-1.8.6-3.5.9-5.3.4-2.4.9-4.9 1.4-7.3 3.3-17 7.4-33.8 12.3-50.3 1.7-5.9 3.5-11.8 5.5-17.6 5.8-17.6 12.4-34.8 19.9-51.7.1-.3.3-.6.4-.9 9.5-21.2 20.4-41.9 32.6-61.9s25.8-39.2 40.7-57.6c1.8-2.2 3.6-4.3 5.4-6.5 8.1-9.7 16.6-19.1 25.5-28.3l2.8-2.8c.4-.3.7-.7 1.1-1.1l5.2-5.2c1-1 2-2 3.1-3 2.9-2.8 5.9-5.7 8.9-8.5 1.3-1.2 2.6-2.4 4-3.6 4.1-3.7 8.2-7.4 12.4-11 2-1.7 3.9-3.3 5.9-5 .1-.1.1-.1.2-.1 2.4-1.9 4.8-4 7.3-6 2.3-1.8 4.5-3.6 6.8-5.3 2.3-1.8 4.7-3.6 7-5.3 7.6-5.7 15.5-11.2 23.3-16.4 3.5-2.3 6.9-4.6 10.4-6.8.9-.6 1.9-1.2 2.9-1.8s2.1-1.3 3-1.9h.1c.4-.2.8-.5 1.2-.7.7-.4 1.4-.9 2.2-1.3 3.1-1.9 6.2-3.7 9.4-5.5.5-.3 1-.6 1.5-.8 2.7-1.5 5.4-3.1 8.2-4.6 1.1-.6 2.2-1.2 3.2-1.8s2.1-1.1 3.1-1.7c1.1-.6 2.3-1.2 3.4-1.8 2.6-1.3 5.2-2.7 7.8-4 .9-.5 1.8-.9 2.7-1.4.4-.2.8-.4 1.2-.5.2-.1.5-.2.7-.4.7-.4 1.4-.7 2.1-1 0 0 .1 0 .1-.1l1.8-.9c1.7-.8 3.5-1.7 5.2-2.5.8-.3 1.5-.7 2.2-1 1.7-.8 3.4-1.5 5-2.3 3.6-1.6 7.1-3.1 10.7-4.6.7-.3 1.4-.6 2.2-.9 1.4-.6 2.9-1.2 4.3-1.8.3-.1.7-.3 1-.4l4.5-1.8c.6-.2 1.2-.5 1.8-.7 1.8-.7 3.6-1.4 5.3-2 2-.8 4.1-1.5 6.2-2.3 3.3-1.2 6.7-2.4 10-3.5.9-.3 1.8-.6 2.6-.9l2.7-.9 3.9-1.2c1-.3 2-.7 3-1l.6-.2c.4-.1.7-.2 1-.3 5.1-1.6 10.3-3.1 15.5-4.5 1-.3 1.9-.5 2.9-.8 2.7-.7 5.4-1.5 8.2-2.2.2-.1.3-.1.5-.1 15.3-3.9 30.9-7.1 46.6-9.7.2 0 .4-.1.6-.1 9.1-1.5 18.1-2.7 27.3-3.7.7-.1 1.4-.2 2.1-.2 2.2-.2 4.5-.5 6.8-.7 15-1.4 29.9-2.2 45-2.3 23.4-.3 46.9.9 70.3 3.6 9 1 17.9 2.2 26.8 3.7 146 23.6 285.6 104 383.3 235.1 173.4 232.2 156.1 545.5-27.8 740.1z"/><g fill="#F4BD6E"><path d="M435.5 208.6c-.2.2-.5.3-.7.4l-1.2.6c-.9.4-1.8.9-2.7 1.3-2.6 1.3-5.2 2.7-7.8 4-1.1.6-2.3 1.2-3.4 1.8-1 .6-2.1 1.1-3.1 1.7-1 .6-2.1 1.2-3.2 1.8-2.8 1.4-5.5 3-8.2 4.6-.5.3-1 .6-1.5.8-3.2 1.8-6.3 3.6-9.4 5.5-.8.4-1.5.8-2.2 1.3 3.9 4 8.4 8.2 4.3 11.2-2.3 1.7-4.7 3.5-7 5.3-2.3 1.7-4.5 3.5-6.8 5.3-2.6 2-5 4.1-7.5 6.1-2 1.7-3.9 3.3-5.9 5-5.6 4.8-11.1 9.7-16.5 14.7-3 2.8-6 5.6-8.9 8.5-1.1 1-2.1 2-3.1 3l-9 9c-8.9 9.2-17.4 18.6-25.5 28.3-1.8 2.2-3.6 4.3-5.4 6.5-29.8 36.7-54.2 76.8-73.2 119.2 0 .1-.1.2-.1.3-.2.7-.1 1.5.2 2.2l387.4 807.8c.3.7.9 1.2 1.6 1.5.1 0 .2.1.3.1 25 7.1 50.4 12.5 76 16.1 1.4.2 2.8.4 4.3.6 2.9.4 5.8.7 8.7 1.1 1.5.2 2.9.3 4.4.5 5.8.7 11.6 1.2 17.4 1.7l8.7.6c2.9.2 5.8.4 8.7.5 2.9.2 5.8.3 8.7.4 1.5 0 2.9.1 4.4.1 2.9.1 5.8.2 8.7.2h13.2c4.4 0 8.7-.1 13.1-.3 1.5-.1 3-.1 4.4-.2 1.5-.1 2.9-.1 4.4-.2 21.8-1.2 43.5-3.6 65-7.3h.1c8.6-1.5 17.1-3.2 25.6-5.1l11.4-2.7c1.1-.3 2.2-.5 3.4-.8.3-.1.6-.2.9-.2 1.1-.3 2.2-.6 3.3-.8 1.3-.3 2.6-.7 3.8-1s2.5-.6 3.7-1 2.5-.7 3.7-1.1 2.5-.7 3.7-1.1 2.4-.7 3.6-1.1c1.3-.4 2.5-.8 3.8-1.2.3-.1.7-.2 1-.3.8-.3 1.5-.6 2.3-.9 1.8-.7 3.5-1.5 5.2-2.2.6-.2 1.2-.5 1.7-.7.3-.1.5-.2.7-.3 1.3-.6 2.7-1.2 4-1.8.3-.2.7-.3 1-.5 1.7-.8 3.3-1.5 5-2.3.5-.2 1.1-.5 1.6-.7.6-.3 1.1-.5 1.7-.8l5.7-2.7.2-.1c28.9-13.9 56.4-30.5 82.3-49.4 1.8-1.3 3.7-2.7 5.5-4.1s3.6-2.7 5.4-4.1l5.4-4.2c1.7-1.4 3.4-2.7 5.2-4.1.1-.1.3-.2.5-.4 1.5-1.2 3-2.5 4.5-3.7l5.7-4.8c1.6-1.4 3.2-2.7 4.7-4.1 1.9-1.6 3.7-3.3 5.6-4.9l.1-.1c2.3-2.1 3-5.5 1.7-8.4l-5.1-10.7c-8-16.7-1.1-36.7 15.5-44.6l60.9-30.3c16.5-8 23.5-27.9 15.5-44.6l-5.1-10.7c-8-16.7-27.9-23.7-44.5-15.8l-106 52c-16.6 7.9-36.5.9-44.5-15.8l-5.1-10.7c-8-16.6-1-36.6 15.7-44.4l178.4-85.6c16.5-8 23.5-27.9 15.5-44.6l-5.1-10.7c-8-16.7-27.9-23.7-44.5-15.8l-104.3 50c-8.3 3.9-17.5 4.2-25.5 1.3-8-2.8-15-8.8-19-17.1-8-16.7-1.1-36.7 15.5-44.6l123.8-60.6c16.5-8 23.5-27.9 15.5-44.6l-5.1-10.7c-8-16.7-27.9-23.7-44.5-15.8l-197.9 96.4c-16.6 7.9-36.5.9-44.5-15.8l-5.1-10.7c-8-16.7-1.1-36.7 15.5-44.6l242.5-116.2c16.5-8 23.5-27.9 15.5-44.6l-5.1-10.7c-8-16.7-27.9-23.7-44.5-15.8l-90.8 42.6c-16.6 7.9-36.5.9-44.5-15.8l-5.1-10.7c-8-16.7-1-36.6 15.5-44.6l143.2-68.2c16.5-8 23.5-27.9 15.5-44.6l-5.1-10.7c-8-16.7-27.9-23.7-44.5-15.8L644.3 555.6c-16.6 7.9-36.5.9-44.5-15.8l-4.5-9.5c-8-16.7-1.1-36.7 15.5-44.6l263.3-132.3c16.5-8 23.5-27.9 15.5-44.6l-5.1-10.7c-8-16.7-27.9-23.7-44.5-15.8l-162.7 79.2c-16.6 7.9-36.5.9-44.5-15.8l-5.1-10.7c-8-16.7-1.1-36.7 15.5-44.6l73.9-36c16.5-8 23.5-27.9 15.5-44.6l-5.1-10.7c-2.9-6.1-7.3-10.9-12.6-14.1-7.9-4.9-17.6-6.4-26.8-3.7-1.7.5-3.4 1.1-5.1 1.9l-28.3 13.5-36.6 17.3-22.5 10.8c-.6.3-1.3.6-1.9.8l-.6.3c-.7.3-1.3.5-2.1.7-15.5 4.8-32.6-2.3-39.8-17.4l-5.1-10.6c-4.8-9.9-22.6-16.9-38.9-18.9l-3.9 1.2-2.7.9c-.9.3-1.8.6-2.6.9-3.3 1.1-6.7 2.3-10 3.5-2.1.8-4.1 1.5-6.2 2.3-1.8.7-3.6 1.4-5.3 2.1-.6.2-1.2.5-1.8.7l-4.5 1.8c-.3.1-.6.3-1 .4-1.4.6-2.9 1.2-4.3 1.8-.7.3-1.4.6-2.2.9-3.6 1.5-7.1 3.1-10.7 4.6-1.7.8-3.4 1.5-5.1 2.3l-.9.6c-1 .6-2.1 1.3-3.1 1.9-1 .6-2 1.2-2.9 1.8-.2.1-1.1.2-2.5.2l-2 1z"/><path d="M437.6 207.6c-.7.4-1.4.7-2.1 1l2.1-1zM447 203.1c-.3.2-.6.4-1 .6-1 .6-2.1 1.3-3.1 1.9-1 .6-2 1.2-2.9 1.8-.2.1-1.1.2-2.4.2 0 0 .1 0 .1-.1l1.8-.9c1.7-.8 3.5-1.7 5.2-2.5.8-.3 1.5-.7 2.3-1zM618.1 214l-22.5 10.8c-.6.3-1.3.6-1.9.8l24.4-11.6z"/></g><path fill="#E5A948" d="M1056.1 1121.4l-84 40.3c-16.6 7.9-23.5 27.8-15.6 44.4l5.1 10.6c1.9 4 2.8 8.6 2.8 13.2 0 8.4-2.9 17.3-7.9 24.4-.5.2-1.1.5-1.6.7-1.7.8-3.3 1.5-5 2.3-.3.2-.7.3-1 .5-1.3.6-2.7 1.2-4 1.8-.2.1-.4.2-.7.3-.5.2-1.1.5-1.7.7-1.7.7-3.4 1.5-5.2 2.2-.4.2-.9.3-1.4.6-.1 0-.1.1-.2.1s-.1.1-.2.1c-1.3.5-2.7 1.1-4 1.6-.1 0-.2.1-.4.1l-4.5 1.8c-.7.3-1.3.5-2 .8l-3.9 1.5c-.7.3-1.3.5-2 .8-1.7.6-3.4 1.3-5.1 1.9-.2.1-.4.1-.6.2-1.8.7-3.6 1.3-5.5 1.9-.1 0-.1.1-.2.1-1.2.4-2.4.8-3.7 1.3-1.2.4-2.4.8-3.7 1.2-2.6.9-5.1 1.7-7.7 2.5-1.1.4-2.3.7-3.4 1.1-1.3.4-2.5.8-3.8 1.2-1.2.4-2.4.7-3.6 1.1-1.2.4-2.5.7-3.7 1.1s-2.5.7-3.7 1.1-2.5.7-3.7 1-2.5.7-3.8 1-2.5.6-3.8 1c-1.3.3-2.5.6-3.8.9l-11.4 2.7c-8.5 1.9-17.1 3.6-25.6 5.1h-.1c-21.5 3.7-43.2 6.1-65 7.3-1.5.1-2.9.1-4.4.2-1.4.1-2.9.1-4.4.2-4.4.2-8.7.3-13.1.3h-13.2c-2.9 0-5.8-.1-8.7-.2-1.5 0-2.9-.1-4.4-.1-2.9-.1-5.8-.2-8.7-.4-2.9-.2-5.8-.3-8.7-.5l-8.7-.6c-5.8-.5-11.6-1-17.4-1.7-1.5-.2-2.9-.3-4.4-.5-2.9-.4-5.8-.7-8.7-1.1-1.5-.2-2.9-.4-4.3-.6-25.7-3.7-51.2-9.1-76.4-16.2-.3-.1-.7-.2-1-.3-121.2-34.6-233.8-109.2-316.5-220.2-49.3-66.4-83.2-139.3-102.1-214.2-2.9-11.5-5.5-23.1-7.7-34.7-.7-3.9-1.4-7.8-2.1-11.6-1.3-7.7-2.5-15.5-3.5-23.2-6.5-50.2-6.5-100.7-.1-150 .3-2.5.7-4.9 1-7.4.5-3.7 1.1-7.3 1.7-11 .3-1.9.6-3.8 1-5.7.3-1.8.6-3.5.9-5.3.4-2.4.9-4.9 1.4-7.3 3.3-17 7.4-33.8 12.3-50.3 1.7-5.9 3.5-11.8 5.5-17.6 5.8-17.6 12.4-34.8 19.9-51.7.1-.3.3-.6.4-.9 9.5-21.2 20.4-41.9 32.6-61.9s25.8-39.2 40.7-57.6c1.8-2.2 3.6-4.3 5.4-6.5 8.1-9.7 16.6-19.1 25.5-28.3l2.8-2.8c.4-.3.7-.7 1.1-1.1.4-.3.7-.7 1.1-1 1-.9 1.9-1.8 2.9-2.7.2-.2.3-.4.4-.7l.8-.8c1-1 2-2 3.1-3 2.9-2.8 5.9-5.7 8.9-8.5 1.3-1.2 2.6-2.4 4-3.6 4.1-3.7 8.2-7.4 12.4-11 2-1.7 3.9-3.3 5.9-5 .1-.1.1-.1.2-.1 2.4-1.9 4.8-4 7.3-6 2.3-1.8 4.5-3.6 6.8-5.3 2.3-1.8 4.7-3.6 7-5.3 7.6-5.7 15.5-11.2 23.3-16.4 3.5-2.3 6.9-4.6 10.4-6.8.9-.6 1.9-1.2 2.9-1.8s2.1-1.3 3-1.9c17.8-2.8 49.4 5.3 56 19l5.1 10.6c7.9 16.6 27.8 23.5 44.4 15.6l94.5-48.4c16.6-8 36.5-1 44.4 15.6l5.1 10.6c8 16.6 1 36.5-15.6 44.4L534.3 347c-16.6 7.9-23.5 27.8-15.6 44.4l5.1 10.6c7.9 16.6 27.8 23.5 44.4 15.6l132.7-67.5c16.6-8 36.5-1 44.4 15.6l5.1 10.6c8 16.6 1 36.5-15.6 44.4L465.9 557.1c-16.6 7.9-23.5 27.8-15.6 44.4l4.5 9.4c7.9 16.6 27.8 23.5 44.4 15.6l353-175.8c16.6-8 36.5-1 44.4 15.6l5.1 10.6c8 16.6 1 36.5-15.6 44.4l-90.2 43.3c-16.6 7.9-23.5 27.8-15.6 44.4l5.1 10.6c7.9 16.6 27.8 23.5 44.4 15.6l98.8-45.6c16.6-8 36.5-1 44.4 15.6l5.1 10.6c8 16.6 1 36.5-15.6 44.4l-220.2 104c-16.6 7.9-23.5 27.8-15.6 44.4l5.1 10.6c7.9 16.6 27.8 23.5 44.4 15.6l206.5-99.4c16.6-8 36.5-1 44.4 15.6l5.1 10.6c8 16.6 1 36.5-15.6 44.4L834 896.3c-15.9 7.6-23.7 26.2-17.1 42.6 3.8 9.4 11.2 16 19.9 19.1 8 2.8 17.1 2.6 25.4-1.4l67.7-35.3c16.6-8 36.5-1 44.4 15.6l5.1 10.6c8 16.6 1 36.5-15.6 44.4L822 1062.8c-16.6 7.9-23.5 27.8-15.6 44.4l5.1 10.6c7.9 16.6 27.8 23.5 44.4 15.6l166.3-82.6c16.6-8 36.5-1 44.4 15.6l5.1 10.6c8 16.6 1 36.5-15.6 44.4z"/><path fill="#F4BD6E" d="M591 226.6l2.7-.9-.6.3c-.6.2-1.3.4-2.1.6zM654.5 196.6L618.1 214l33.9-16.3c.8-.4 1.7-.8 2.5-1.1z"/></svg>