<svg id="Layer_1" viewBox="0 0 1401.9 1458.4" enable-background="new 0 0 1401.9 1458.4"><filter id="AI_GaussianBlur_18"><feGaussianBlur stdDeviation="18"/></filter><ellipse transform="rotate(-26.453 700.958 729.205)" fill="#FFD38E" cx="700.9" cy="729.2" rx="654.1" ry="686.8" class="glow" opacity=".3" filter="url(#AI_GaussianBlur_18)"/><ellipse transform="rotate(-26.453 700.958 729.205)" opacity=".5" fill="#FFD38E" cx="700.9" cy="729.2" rx="620.9" ry="651.9"/><path fill="#F9DA93" d="M1119.9 1136.6c-22.6 23.9-47.2 45.5-73.4 64.7-25.9 18.9-53.4 35.5-82.3 49.4l-.2.1-5.7 2.7-3.3 1.5c-1.7.8-3.3 1.5-5 2.3-.3.2-.7.3-1 .5-1.3.6-2.7 1.2-4 1.8-.2.1-.4.2-.7.3-.5.2-1.1.5-1.7.7-1.7.7-3.4 1.5-5.2 2.2-1.9.8-3.9 1.6-5.8 2.4-.1 0-.2.1-.4.1l-4.5 1.8c-.7.3-1.3.5-2 .8l-3.9 1.5c-.7.3-1.3.5-2 .8-1.7.6-3.4 1.3-5.1 1.9-.2.1-.4.1-.6.2-1.8.7-3.6 1.3-5.5 1.9-.1 0-.1.1-.2.1-1.2.4-2.4.8-3.7 1.3-1.2.4-2.4.8-3.7 1.2-2.6.9-5.1 1.7-7.7 2.5-1.1.4-2.3.7-3.4 1.1-1.3.4-2.5.8-3.8 1.2-1.2.4-2.4.7-3.6 1.1-1.2.4-2.5.7-3.7 1.1-1.2.4-2.5.7-3.7 1.1-1.2.4-2.5.7-3.7 1-1.2.3-2.5.7-3.8 1-1.3.3-2.5.6-3.8 1-1.3.3-2.5.6-3.8.9l-11.4 2.7c-8.5 1.9-17.1 3.6-25.6 5.1h-.1c-21.5 3.7-43.2 6.1-65 7.3-1.5.1-2.9.1-4.4.2-1.4.1-2.9.1-4.4.2-4.4.2-8.7.3-13.1.3H721.8c-2.9 0-5.8-.1-8.7-.2-1.5 0-2.9-.1-4.4-.1-2.9-.1-5.8-.2-8.7-.4s-5.8-.3-8.7-.5l-8.7-.6c-5.8-.5-11.6-1-17.4-1.7-1.5-.2-2.9-.3-4.4-.5-2.9-.4-5.8-.7-8.7-1.1-1.5-.2-2.9-.4-4.3-.6-25.7-3.7-51.2-9.1-76.4-16.2-.3-.1-.7-.2-1-.3-121.2-34.6-233.8-109.2-316.5-220.2C120.6 883 100.2 656 181.9 472.1c.1-.3.3-.6.4-.9 19-42.5 43.5-82.7 73.3-119.5 1.8-2.2 3.6-4.3 5.4-6.5 8.1-9.7 16.6-19.1 25.5-28.3l3-3 3-3 3-3c1-1 2-2 3.1-3 2.9-2.8 5.9-5.7 8.9-8.5 5.4-5 10.9-9.9 16.5-14.7 2-1.7 3.9-3.3 5.9-5 2.5-2 4.9-4.1 7.5-6.1 2.3-1.8 4.5-3.6 6.8-5.3 2.3-1.8 4.7-3.6 7-5.3 7.6-5.7 15.5-11.2 23.3-16.4 3.5-2.3 6.9-4.6 10.4-6.8.9-.6 1.9-1.2 2.9-1.8 1-.6 2.1-1.3 3.1-1.9 1.1-.7 2.2-1.4 3.4-2 3.1-1.9 6.2-3.7 9.4-5.5 3.2-1.8 6.4-3.7 9.7-5.4 1.1-.6 2.2-1.2 3.2-1.8 1-.6 2.1-1.1 3.1-1.7 1.1-.6 2.3-1.2 3.4-1.8 2.6-1.3 5.2-2.7 7.8-4 1.5-.8 3.1-1.5 4.6-2.3 1.3-.7 2.7-1.3 4-2 31.7-15.2 64.9-27.3 99-35.9 15.5-4 31.2-7.2 47.1-9.8.2 0 .4-.1.6-.1 9.1-1.5 18.1-2.7 27.3-3.7.7-.1 1.4-.2 2.1-.2 195.7-20.7 401.4 63.9 532.1 239.3 173.4 232.5 156.1 545.8-27.8 740.4z"/><path fill="#F4BD6E" d="M683.3 649.5l5.1 10.7c8 16.7 27.9 23.7 44.5 15.8l286.9-137.6c16.6-7.9 36.5-.9 44.5 15.8l5.1 10.7c8 16.7 1 36.6-15.5 44.6L811.4 725.7c-16.6 7.9-23.5 27.9-15.5 44.6L801 781c8 16.7 27.9 23.7 44.5 15.8l293.9-141c16.6-7.9 36.5-.9 44.5 15.8l5.1 10.7c8 16.7 1 36.6-15.5 44.6L953.7 832.1c-16.6 7.9-23.5 27.9-15.5 44.6 4 8.3 11 14.3 19 17.1 8 2.9 17.2 2.6 25.5-1.3l104.3-50c16.6-7.9 36.5-.9 44.5 15.8l5.1 10.7c8 16.7 1 36.6-15.5 44.6l-178.4 85.6C926 1007 919 1027 927 1043.6l5.1 10.7c8 16.7 27.9 23.7 44.5 15.8l106-52c16.6-7.9 36.5-.9 44.5 15.8l5.1 10.7c8 16.7 1 36.6-15.5 44.6l-60.9 30.3c-16.6 7.9-23.5 27.9-15.5 44.6l5.1 10.7c4 8.3 4.3 17.5 1.4 25.6-.2.7-.7 1.2-1.3 1.6l-81.2 48.8c-.1.1-.2.1-.3.1l-5.7 2.7-3.3 1.5c-1.7.8-3.3 1.5-5 2.3-.3.2-.7.3-1 .5-1.3.6-2.7 1.2-4 1.8-.2.1-.4.2-.7.3-.5.2-1.1.5-1.7.7-1.7.7-3.4 1.5-5.2 2.2-1.9.8-3.9 1.6-5.8 2.4-.1 0-.2.1-.4.1l-4.5 1.8c-.7.3-1.3.5-2 .8l-3.9 1.5c-.7.3-1.3.5-2 .8-1.7.6-3.4 1.3-5.1 1.9-.2.1-.4.1-.6.2-1.8.7-3.6 1.3-5.5 1.9-.1 0-.1.1-.2.1-1.2.4-2.4.9-3.7 1.3-1.2.4-2.4.8-3.7 1.2-2.6.9-5.1 1.7-7.7 2.5-1.1.4-2.3.7-3.4 1.1-1.3.4-2.5.8-3.8 1.2-1.2.4-2.4.7-3.6 1.1-1.2.4-2.5.7-3.7 1.1-1.2.4-2.5.7-3.7 1.1-1.2.4-2.5.7-3.7 1-1.2.3-2.5.7-3.8 1-1.3.3-2.5.6-3.8 1-1.3.3-2.5.6-3.8.9l-11.4 2.7c-8.5 1.9-17 3.6-25.6 5.1h-.1c-21.5 3.7-43.2 6.1-65 7.3-1.5.1-2.9.1-4.4.2-1.4.1-2.9.1-4.4.2-4.4.2-8.7.3-13.1.3H721.8c-2.9 0-5.8-.1-8.7-.2-1.5 0-2.9-.1-4.4-.1-2.9-.1-5.8-.2-8.7-.4-2.9-.1-5.8-.3-8.7-.5l-8.7-.6c-5.8-.5-11.6-1-17.4-1.7-1.5-.2-2.9-.3-4.4-.5-2.9-.4-5.8-.7-8.7-1.1-1.5-.2-2.9-.4-4.3-.6-25.6-3.6-51-9-76-16.1-.1 0-.2-.1-.3-.1-.7-.3-1.3-.8-1.6-1.5L182.5 473.4c-.3-.7-.4-1.5-.2-2.2 0-.1.1-.2.1-.3 19-42.4 43.4-82.5 73.2-119.2 1.8-2.2 3.6-4.3 5.4-6.5 8.1-9.7 16.6-19.1 25.5-28.3l3-3 3-3 3-3c1-1 2-2 3.1-3 2.9-2.9 5.9-5.7 8.9-8.5 5.4-5 10.9-9.9 16.5-14.7 2-1.7 3.9-3.3 5.9-5 2.5-2 4.9-4.1 7.5-6.1 2.3-1.8 4.5-3.6 6.8-5.3 2.3-1.8 4.7-3.6 7-5.3 7.6-5.7 15.5-11.2 23.3-16.4 3.5-2.3 6.9-4.6 10.4-6.8.9-.6 1.9-1.2 2.9-1.8 1-.6 2.1-1.3 3.1-1.9 1.1-.7 2.2-1.4 3.4-2 3.1-1.9 6.2-3.7 9.4-5.5 3.2-1.9 6.4-3.7 9.7-5.4 1.1-.6 2.2-1.2 3.2-1.8 1-.6 2.1-1.1 3.1-1.7 1.1-.6 2.3-1.2 3.4-1.8 2.6-1.3 5.2-2.7 7.8-4 1.5-.8 3.1-1.5 4.6-2.3 1.3-.7 2.7-1.3 4-2 31.7-15.2 64.9-27.3 99-35.9 15.5-3.9 31.2-7.2 47.1-9.8.2 0 .4-.1.6-.1 9.1-1.5 18.1-2.7 27.3-3.7 1.3.1 2.2.7 3.1 1.7l5.1 10.7c8 16.7 27.9 23.7 44.5 15.8l21.1-9.5c16.6-7.9 36.5-.9 44.5 15.8l5.1 10.7c8 16.7 1 36.6-15.5 44.6l-72.4 34c-16.6 7.9-23.5 27.9-15.5 44.6l5.1 10.7c8 16.7 27.9 23.7 44.5 15.8l111.6-53.5c16.6-7.9 36.5-.9 44.5 15.8l5.1 10.7c8 16.7 1 36.6-15.5 44.6l-148.1 71c-16.6 7.9-23.5 27.9-15.5 44.6l4.5 9.5c8 16.7 27.9 23.7 44.5 15.8l289.9-140c16.6-7.9 36.5-.9 44.5 15.8l5.1 10.7c8 16.7 1 36.6-15.5 44.6L698.8 604.9c-16.5 8-23.5 27.9-15.5 44.6z"/><path fill="#E5A948" d="M419.5 216.7L388 234.9l-.1.1c-1 .6-1.9 1.2-2.9 1.8-1.7 1.1-3.5 2.2-5.2 3.3-1.7 1.1-3.5 2.3-5.2 3.4-7.8 5.2-15.7 10.8-23.3 16.4-1.2.9-2.4 1.8-3.5 2.7-1.2.9-2.3 1.8-3.5 2.7-2.3 1.8-4.6 3.6-6.8 5.3-1.1.9-2.3 1.8-3.4 2.7-.9.7-1.8 1.5-2.7 2.2-.8.6-1.6 1.3-2.3 1.9-1.7 1.4-3.3 2.7-4.9 4.1-2.5 2.1-4.9 4.2-7.4 6.4-.6.6-1.3 1.1-1.9 1.7-.4.4-.8.7-1.2 1.1-.8.7-1.7 1.5-2.5 2.2-2.2 2-4.4 4-6.6 6.1-1 .9-1.9 1.8-2.9 2.7-5.2 4.9-10.2 9.9-15.2 15-2 2-3.9 4.1-5.9 6.2-.8.8-1.5 1.6-2.3 2.4-4.3 4.6-8.5 9.3-12.6 14.1-.7.8-1.4 1.6-2 2.4-2.7 3.2-5.4 6.4-8.1 9.7-1.8 2.2-3.5 4.4-5.2 6.6l-5.1 6.6c-.8 1.1-1.7 2.2-2.5 3.3-.7.9-1.4 1.9-2.1 2.8-1.3 1.8-2.7 3.7-4 5.5-.7 1-1.4 1.9-2.1 2.9-.6.8-1.2 1.7-1.8 2.5-.7 1-1.5 2.1-2.2 3.1 0 .1-.1.1-.1.2l-2.1 3c-1.4 2-2.7 4-4 6-.7 1.1-1.4 2.1-2.1 3.2-.3.5-.7 1-1 1.5-.8 1.2-1.5 2.3-2.2 3.5-.7 1.2-1.5 2.4-2.2 3.5-.7 1.2-1.5 2.4-2.2 3.5-.8 1.4-1.7 2.7-2.5 4.1l-3.9 6.6c-1.4 2.4-2.8 4.8-4.1 7.2-.7 1.2-1.3 2.4-2 3.6-.7 1.2-1.3 2.4-2 3.6-.7 1.2-1.3 2.4-2 3.7-2.7 5.1-5.4 10.3-7.9 15.6-.5 1-.9 2-1.4 2.9-.6 1.2-1.1 2.3-1.7 3.5-1.8 3.8-3.6 7.7-5.3 11.5-81.7 184.5-61.3 411.5 72.2 590.7 82.7 111 195.3 185.6 316.5 220.2l8.7 2.4 3.6.9c11.7 3.1 23.5 5.8 35.3 8.1 1.3.3 2.6.5 3.9.7 4.7.9 9.4 1.7 14.2 2.5 1 .2 2.1.3 3.1.5 24.5 3.9 49.3 6.2 74 6.8 2.9.1 5.8.1 8.7.2H735.3c2 0 4-.1 6-.1h.9c2-.1 4.1-.1 6.2-.2 5.6-.2 11.3-.5 16.9-.9 1-.1 2-.1 3-.2.8 0 1.6-.1 2.4-.2l3.9-.3c2.9-.2 5.8-.5 8.7-.8 1.5-.1 2.9-.3 4.3-.5s2.9-.3 4.3-.5c1.3-.1 2.6-.3 3.9-.5l4.8-.6c4.2-.6 8.5-1.2 12.7-1.8 4.5-.7 9-1.5 13.5-2.3 1.2-.2 2.3-.4 3.5-.6l4.8-.9 5.7-1.2c.5-.1.9-.2 1.4-.3l5.7-1.2c1.3-.3 2.5-.6 3.8-.9 1.2-.3 2.3-.5 3.5-.8 17.8-4.2 35.2-9.4 52.4-15.4 3.8-1.3 7.6-2.7 11.4-4.1.7-.3 1.4-.5 2-.8.2-.1.5-.2.7-.3.9-.4 1.8-.7 2.7-1.1.2-.1.3-.1.5-.2.6-.3 1.3-.5 1.9-.8 1.7-.7 3.3-1.3 5-2 1.9-.8 3.9-1.6 5.8-2.4 1.6-.7 3.2-1.4 4.8-2 .1 0 .2-.1.3-.2.6-.2 1.1-.5 1.7-.7h.1l.6-.3c3.4-1.5 6.8-3 10.2-4.6 15.5-8.8 24.3-32.5 16.6-48.5l-5.1-10.6c-7.9-16.6-1-36.5 15.6-44.4l84-40.3c16.6-7.9 23.6-27.8 15.6-44.4l-5.1-10.6c-7.9-16.6-27.8-23.6-44.4-15.6L866.2 1123c-16.6 7.9-36.5 1-44.4-15.6l-5.1-10.6c-7.9-16.6-1-36.5 15.6-44.4l141.8-70.9c16.6-7.9 23.6-27.8 15.6-44.4l-5.1-10.6c-7.9-16.6-27.8-23.6-44.4-15.6l-67.7 35.3c-8.3 4-17.4 4.2-25.4 1.4-8.7-3.1-16.1-9.7-19.9-19.1-6.6-16.4 1.2-35 17.1-42.6l182.6-90.4c16.6-7.9 23.6-27.8 15.6-44.4l-5.1-10.6c-7.9-16.6-27.8-23.6-44.4-15.6L735.8 851.3c-16.6 7.9-36.5 1-44.4-15.6l-5.1-10.6c-7.9-16.6-1-36.5 15.6-44.4l205.9-101.6c16.6-7.9 23.6-27.8 15.6-44.4l-5.1-10.6c-7.9-16.6-27.8-23.6-44.4-15.6L623.6 731.4c-16.6 7.9-36.5 1-44.4-15.6l-5.1-10.6c-7.9-16.6-1-36.5 15.6-44.4l360.2-175.6c16.6-7.9 23.6-27.8 15.6-44.4l-5.1-10.6c-7.9-16.6-27.8-23.6-44.4-15.6L605.3 566.4c-16.6 7.9-36.5 1-44.4-15.6l-4.5-9.4c-7.9-16.6-1-36.5 15.6-44.4l111.5-56.3c16.6-7.9 23.6-27.8 15.6-44.4l-5.1-10.6c-7.9-16.6-27.8-23.6-44.4-15.6l-71.2 37.2c-16.6 7.9-36.5 1-44.4-15.6l-5.1-10.6c-7.9-16.6-1-36.5 15.6-44.4l96.6-49.4c16.6-7.9 23.6-27.8 15.6-44.4l-5.1-10.6c-7.9-16.6-27.8-23.6-44.4-15.6l-56.4 27.1c-16.6 7.9-36.5 1-44.4-15.6l-5.1-10.6c-6.6-13.7-31.6-19.5-49.4-16.7l-32.4 15.8z"/></svg>