<svg id="Layer_1" viewBox="0 0 131 328.4"><g id="Layer_2"><g id="Layer_1-2"><path fill="#FFF385" d="M87.7 264.7c-1.6-.1-2.9-1.4-2.8-2.9l-.3-22.9v-.1c0-1.6-1.3-2.8-2.9-2.8H81c-1.6.1-2.9 1.5-2.8 3l.1 18.2c.1 1.7-1.1 3-2.8 3.1h-1.2c-1.6 0-2.9-1.2-2.7-2.6l-.2-19.4v-.1c0-1.6-1.3-2.8-2.9-2.8h-1c-1.7.1-2.9 1.6-2.8 3.2l.2 22.9c.1 1.6-1.2 2.9-2.8 3h-1.3c-1.6-.1-2.9-1.4-2.8-2.9v-16.9c0-1.6-1.3-2.8-2.9-2.8-1.6.1-2.9 1.5-2.8 3v20.4c.1 1.6-1.2 2.9-2.8 3h-1.3c-1.6-.1-2.9-1.4-2.8-2.9l-1.1-87.7c-.1-1.6 1.2-2.9 2.8-3l40.6-1.1h.1c1.6.1 2.9 1.4 2.8 2.9l1.2 85.1c.1 1.6-1.2 2.9-2.8 3l-1.3.1zm-12.4-2.4c-2 .1-3.4 1.3-3.3 2.9v12.5c0 1.4 1.4 2.7 3.2 2.8h.1c1.9-.1 3.3-1.3 3.2-2.9v-12.5c.1-1.4-1.3-2.7-3.2-2.8zM61.6 267c-1.9.1-3.4 1.3-3.3 2.9V282c0 1.4 1.4 2.7 3.2 2.8h.1c1.9-.1 3.3-1.3 3.2-2.9v-12.1c.1-1.4-1.3-2.7-3.2-2.8zm30.2 5.2v-3c0-1.4-1.2-2.6-2.6-2.6h-1.3c-1.4 0-2.6 1.2-2.6 2.6v3c0 1.4 1.2 2.6 2.6 2.6h1.3c1.4 0 2.6-1.2 2.6-2.6z"/><path fill="#FA0" d="M70.3 223.1v5.7c0 1.4 1.2 2.6 2.7 2.7h.1c1.6-.1 2.8-1.3 2.7-2.8V223c0-1.4-1.2-2.6-2.7-2.7H73c-1.5.1-2.7 1.3-2.7 2.8zm16.7-2v-4.5c0-1.4-1.2-2.6-2.7-2.7-1.6.1-2.8 1.3-2.7 2.8v4.5c0 1.4 1.2 2.6 2.7 2.7h.1c1.5-.1 2.6-1.4 2.6-2.8zm-27.8 6.2v6.1c0 1.4 1.2 2.6 2.7 2.7h.1c1.6-.1 2.8-1.3 2.7-2.8v-6.1c.1-1.4-1.1-2.6-2.7-2.7h-.1c-1.6.2-2.8 1.4-2.7 2.8zm-.2-11v4.3c0 1.2 1.1 2.2 2.5 2.2h.4c1.5-.1 2.7-1.1 2.6-2.3v-6.6c-.1-1.2 1.1-2.2 2.6-2.3h.3c1.5 0 2.6 1 2.6 2.1v.1l.1 2.7c0 1.2 1.1 2.2 2.5 2.2h.4c1.5-.1 2.7-1.1 2.6-2.3l-.1-7.9c-.1-1.2 1.1-2.2 2.5-2.3h.3c1.5 0 2.7.9 2.7 2v.2l.1.7c0 1.2 1.1 2.2 2.5 2.2h.3c1.5-.1 2.7-1.1 2.6-2.3l-.2-15.7c0-1.2-1.1-2.2-2.5-2.2h-.1l-33.1.8c-1.5.1-2.7 1.1-2.6 2.3l.4 39.5c0 1.2 1.1 2.2 2.5 2.2h.4c1.5-.1 2.7-1.1 2.6-2.3l-.1-16.9c-.1-1.2 1.1-2.2 2.6-2.3 1.4-.3 2.6.7 2.6 1.9z"/><path fill="#FF7F00" d="M80.6 191.2l-25.8.7c-1.3-.1-2.5.2-2.4 1v18.7c0 .6 1 1.1 2.1 1.1s2.2-.6 2.2-1.2v-10.2c0-.7 1-1.3 2.1-1.3s2.2.5 2.2 1.2v4.5c0 .6 1 1.1 2.1 1.1s2.2-.6 2.2-1.2V202.2c0-.7.6-1.3 1.3-1.3h1.6c.7 0 1.3.5 1.3 1.3l.1.7v2.8c0 .7 1 1.2 2.2 1.2s2.1-.6 2.1-1.3v-5.4c0-.6 1-1.2 2.2-1.2s2.2.4 2.1 1.1l.1 4.3c0 .6 1 1.1 2.1 1.1s2.2-.6 2.2-1.2v-11.6c.2-1-.8-1.6-2-1.5z"/><g><path fill="#FFF385" d="M87.1 251.9c-1.6-.1-2.9-1.4-2.8-2.9l.2-7.8v-.1c0-1.6-1.3-2.8-2.9-2.8h-.7c-1.6.1-2.9 1.5-2.8 3l.3 6.9c.1 1.7-1.1 3-2.8 3.1h-1.2c-1.6 0-2.9-1.2-2.7-2.6l-.2-5.2v-.1c0-1.6-1.3-2.8-2.9-2.8h-1c-1.7.1-2.9 1.6-2.8 3.2l-.1 9.6c.1 1.6-1.2 2.9-2.8 3h-1.3c-1.6-.1-2.9-1.4-2.8-2.9l-.2-15.6v-.1c0-1.6-1.3-2.8-2.9-2.8-1.6.1-2.9 1.5-2.8 3l.1 5.4c.1 1.6-1.2 2.9-2.8 3h-1.3c-1.6-.1-2.9-1.4-2.8-2.9l-.9-65.7c-.1-1.6 1.2-2.9 2.8-3l40.6-1.1h.1c1.6.1 2.9 1.4 2.8 2.9l.7 72.3c.1 1.6-1.2 2.9-2.8 3h-1.3zm-11.8 1.3c-2 .1-3.4 1.3-3.3 2.9l.2 6.1c0 1.4 1.4 2.7 3.2 2.8h.1c1.9-.1 3.3-1.3 3.2-2.9l-.2-6.1c.1-1.4-1.3-2.7-3.2-2.8zm-13.8 5.6c-1.9.1-3.4 1.3-3.3 2.9v3c0 1.4 1.4 2.7 3.2 2.8h.1c1.9-.1 3.3-1.3 3.2-2.9v-3c.1-1.4-1.3-2.7-3.2-2.8z"/><path fill="#FA0" d="M70.3 227.9v3.6c0 1.4 1.2 2.6 2.7 2.7h.1c1.6-.1 2.8-1.3 2.7-2.8v-3.6c0-1.4-1.2-2.6-2.7-2.7H73c-1.5.1-2.7 1.3-2.7 2.8zm16.7-3.8v-1.8c0-1.4-1.2-2.6-2.7-2.7-1.6.1-2.8 1.3-2.7 2.8v1.8c0 1.4 1.2 2.6 2.7 2.7h.1c1.5-.1 2.6-1.4 2.6-2.8zm-27.8-.6v1.5c0 1.4 1.2 2.6 2.7 2.7h.1c1.6-.1 2.8-1.3 2.7-2.8v-1.5c.1-1.4-1.1-2.6-2.7-2.7h-.1c-1.6.2-2.8 1.4-2.7 2.8zm-.3-13.2l.1 6.5c0 1.2 1.1 2.2 2.5 2.2h.4c1.5-.1 2.7-1.1 2.6-2.3v-2.8c-.1-1.2 1.1-2.2 2.6-2.3h.3c1.5 0 2.6 1 2.6 2.1v.1l.1 7.5c0 1.2 1.1 2.2 2.5 2.2h.4c1.5-.1 2.7-1.1 2.6-2.3l-.1-12.7c-.1-1.2 1.1-2.2 2.5-2.3h.3c1.5 0 2.7.9 2.7 2v.2l.1 6.3c0 1.2 1.1 2.2 2.5 2.2h.3c1.5-.1 2.7-1.1 2.6-2.3l-.2-21.3c0-1.2-1.1-2.2-2.5-2.2h-.1l-33.1.8c-1.5.1-2.7 1.1-2.6 2.3l.2 21.5c0 1.2 1.1 2.2 2.5 2.2h.4c1.5-.1 2.7-1.1 2.6-2.3v-5c-.1-1.2 1.1-2.2 2.6-2.3 1.4-.2 2.6.8 2.6 2z"/><path fill="#FF7F00" d="M80.6 191.2l-25.8.7c-1.3-.1-2.5.2-2.4 1v12.3c0 .6 1 1.1 2.1 1.1s2.2-.6 2.2-1.2v-3.8c0-.7 1-1.3 2.1-1.3s2.2.5 2.2 1.2v6.6c0 .6 1 1.1 2.1 1.1s2.2-.6 2.2-1.2v-5.5c0-.7.6-1.3 1.3-1.3h1.6c.7 0 1.3.5 1.3 1.3l.1 1.9v4c0 .7 1 1.2 2.2 1.2s2.1-.6 2.1-1.3v-5.1c0-.6 1-1.2 2.2-1.2s2.2.4 2.1 1.1l.1 1.6c0 .6 1 1.1 2.1 1.1s2.2-.6 2.2-1.2v-11.6c.2-1-.8-1.6-2-1.5z"/></g><g><path fill="#FFF385" d="M87.2 242.9c-1.6-.1-2.9-1.4-2.8-2.9l-.3-8.1v-.1c0-1.6-1.3-2.8-2.9-2.8h-.7c-1.6.1-2.9 1.5-2.8 3l.3 7.7c.1 1.7-1.1 3-2.8 3.1H74c-1.6 0-2.9-1.2-2.7-2.6l-.2-6v-.1c0-1.6-1.3-2.8-2.9-2.8h-1c-1.7.1-2.9 1.6-2.8 3.2l-.1 3.7c.1 1.6-1.2 2.9-2.8 3h-1.3c-1.6-.1-2.9-1.4-2.8-2.9l-.2-9.7v-.1c0-1.6-1.3-2.8-2.9-2.8-1.6.1-2.9 1.5-2.8 3l.1 8.8c.1 1.6-1.2 2.9-2.8 3h-1.3c-1.6-.1-2.9-1.4-2.8-2.9l-.5-55.8c-.1-1.6 1.2-2.9 2.8-3l40.6-1.1h.1c1.6.1 2.9 1.4 2.8 2.9l.8 59.3c.1 1.6-1.2 2.9-2.8 3h-1.3z"/><path fill="#FA0" d="M58.9 210.6l.1 5.4c0 1.2 1.1 2.2 2.5 2.2h.4c1.5-.1 2.7-1.1 2.6-2.3v-1.7c-.1-1.2 1.1-2.2 2.6-2.3h.3c1.5 0 2.6 1 2.6 2.1v.1l.1 3.1c0 1.2 1.1 2.2 2.5 2.2h.4c1.5-.1 2.7-1.1 2.6-2.3l-.1-8.2c-.1-1.2 1.1-2.2 2.5-2.3h.3c1.5 0 2.7.9 2.7 2v.2l.1 1.8c0 1.2 1.1 2.2 2.5 2.2h.3c1.5-.1 2.7-1.1 2.6-2.3l-.2-16.8c0-1.2-1.1-2.2-2.5-2.2h-.1l-33.1.8c-1.5.1-2.7 1.1-2.6 2.3l.1 18.8c0 1.2 1.1 2.2 2.5 2.2h.4c1.5-.1 2.7-1.1 2.6-2.3l.1-2.3c-.1-1.2 1.1-2.2 2.6-2.3 1.4-.3 2.6.7 2.6 1.9z"/><path fill="#FF7F00" d="M80.6 191.5l-25.8.7c-1.3-.1-2.5.2-2.4 1v10.9c0 .6 1 1.1 2.1 1.1s2.2-.6 2.2-1.2v-2.4c0-.7 1-1.3 2.1-1.3s2.2.5 2.2 1.2v4.5c0 .6 1 1.1 2.1 1.1s2.2-.6 2.2-1.2V202.5c0-.7.6-1.3 1.3-1.3h1.6c.7 0 1.3.5 1.3 1.3l.1 1.9v.2-.2 1.7c0 .7 1 1.2 2.2 1.2s2.1-.6 2.1-1.3v-2.8c0-.6 1-1.2 2.2-1.2s2.2.4 2.1 1.1l.1.6c0 .6 1 1.1 2.1 1.1s2.2-.6 2.2-1.2V193c.2-1-.8-1.6-2-1.5z"/></g></g><path fill="#E5E5E5" d="M50.8 176.9h32.5v16.4H50.8z"/><path fill="#00468C" d="M40 128.3s-41 33.4-8.9 72.5c0 0 0-24.4 21.2-24.4 21.1-.1-12.3-48.1-12.3-48.1zM94.1 128.3s41 33.4 8.9 72.5c0 0 0-24.4-21.2-24.4-21.1-.1 12.3-48.1 12.3-48.1z"/><path opacity=".2" fill="#666" d="M94.1 128.3s41 33.4 8.9 72.5c0 0 0-24.4-21.2-24.4-21.1-.1 12.3-48.1 12.3-48.1z"/><path fill="#FFB700" d="M84.1 185.9c10.3-17.4 17.3-49.6 17.3-83.4 0-50.3-25.5-85.2-34.3-85.2-8.8 0-34.3 34.9-34.3 85.2 0 33.8 7 66 17.3 83.4h34z"/><path fill="#00468C" d="M68.4 129.1c.2.3.4.6.6 1 .2.4.5.8.8 1.3 1.1 2 2.3 4.8 3.3 8.2.5 1.7.9 3.5 1.3 5.5.3 1.9.6 4 .5 6.1 0 1.1-.1 2.1-.2 3.2s-.3 2.2-.5 3.3c-.4 2.2-1.5 11.3-1.8 13.5-.2 2.2-.5 4.4-.8 6.5-.3 2.1-.6 4.2-.9 6.1-.3 1.9-.6 3.8-.8 5.5-.3 1.7-.5 3.3-.8 4.6-.2 1.4-.4 2.6-.6 3.6-.4 2-.6 3.1-.6 3.1l-.7 4.7-.7-4.7s-.2-1.1-.6-3.1c-.2-1-.4-2.2-.6-3.6-.2-1.4-.5-2.9-.8-4.6-.3-1.7-.5-3.5-.8-5.5-.3-1.9-.6-4-.9-6.1-.3-2.1-.6-4.3-.8-6.5-.3-2.2-1.4-11.3-1.8-13.5-.2-1.1-.4-2.2-.5-3.3-.1-1.1-.2-2.2-.2-3.2 0-2.1.2-4.2.5-6.1.3-1.9.8-3.8 1.3-5.5 1-3.4 2.2-6.2 3.3-8.2.3-.5.5-.9.8-1.3.2-.4.4-.7.6-1 .3-.5.8-.8 1.3-.8.3 0 .7.2 1.1.8zM90.1 46.6C82.1 28.2 72 17.3 67 17.3c-4.9 0-15 10.9-23 29.3 0 0 4.7 3.9 23.1 3.9 18.3 0 23-3.9 23-3.9z"/><path fill="#F1F1F1" d="M67 75.1c-6.7 0-12.1 5.4-12.1 12.1 0 6.7 5.4 12.1 12.1 12.1 6.7 0 12.1-5.4 12.1-12.1.1-6.6-5.4-12.1-12.1-12.1z"/><path fill="#00468C" d="M67 71c-9 0-16.3 7.3-16.3 16.3S58 103.6 67 103.6s16.3-7.3 16.3-16.3S76 71 67 71zm0 28.3c-6.7 0-12.1-5.4-12.1-12.1 0-6.7 5.4-12.1 12.1-12.1 6.7 0 12.1 5.4 12.1 12.1.1 6.7-5.4 12.1-12.1 12.1z"/></g></svg>