<svg id="Layer_1" viewBox="0 0 131 367.1"><g class="flame-step1"><path class="outerflame" fill="#FFF385" d="M87.8 303.4c-1.6-.1-2.9-1.4-2.8-2.9l-.3-22.9v-.1c0-1.6-1.3-2.8-2.9-2.8h-.7c-1.6.1-2.9 1.5-2.8 3l.1 18.2c.1 1.7-1.1 3-2.8 3.1h-1.2c-1.6 0-2.9-1.2-2.7-2.6l-.2-19.4v-.1c0-1.6-1.3-2.8-2.9-2.8h-1c-1.7.1-2.9 1.6-2.8 3.2l.2 22.9c.1 1.6-1.2 2.9-2.8 3h-1.3c-1.6-.1-2.9-1.4-2.8-2.9V283.4c0-1.6-1.3-2.8-2.9-2.8-1.6.1-2.9 1.5-2.8 3V304c.1 1.6-1.2 2.9-2.8 3h-1.3c-1.6-.1-2.9-1.4-2.8-2.9l-1.1-87.7c-.1-1.6 1.2-2.9 2.8-3l40.6-1.1h.1c1.6.1 2.9 1.4 2.8 2.9l1.2 85.1c.1 1.6-1.2 2.9-2.8 3l-1.3.1zM75.4 301c-2 .1-3.4 1.3-3.3 2.9v12.5c0 1.4 1.4 2.7 3.2 2.8h.1c1.9-.1 3.3-1.3 3.2-2.9v-12.5c.1-1.4-1.3-2.7-3.2-2.8zm-13.7 4.7c-1.9.1-3.4 1.3-3.3 2.9v12.1c0 1.4 1.4 2.7 3.2 2.8h.1c1.9-.1 3.3-1.3 3.2-2.9v-12.1c.1-1.4-1.3-2.7-3.2-2.8zm30.2 5.2v-3c0-1.4-1.2-2.6-2.6-2.6H88c-1.4 0-2.6 1.2-2.6 2.6v3c0 1.4 1.2 2.6 2.6 2.6h1.3c1.4 0 2.6-1.2 2.6-2.6z"/><path class="midflame" fill="#FA0" d="M70.4 261.8v5.7c0 1.4 1.2 2.6 2.7 2.7h.1c1.6-.1 2.8-1.3 2.7-2.8v-5.7c0-1.4-1.2-2.6-2.7-2.7h-.1c-1.5.1-2.7 1.3-2.7 2.8zm16.7-2v-4.5c0-1.4-1.2-2.6-2.7-2.7-1.6.1-2.8 1.3-2.7 2.8v4.5c0 1.4 1.2 2.6 2.7 2.7h.1c1.5-.1 2.6-1.4 2.6-2.8zM59.3 266v6.1c0 1.4 1.2 2.6 2.7 2.7h.1c1.6-.1 2.8-1.3 2.7-2.8v-6.1c.1-1.4-1.1-2.6-2.7-2.7H62c-1.6.2-2.8 1.4-2.7 2.8zm-.2-11v4.3c0 1.2 1.1 2.2 2.5 2.2h.4c1.5-.1 2.7-1.1 2.6-2.3v-6.6c-.1-1.2 1.1-2.2 2.6-2.3h.3c1.5 0 2.6 1 2.6 2.1v.1l.1 2.7c0 1.2 1.1 2.2 2.5 2.2h.4c1.5-.1 2.7-1.1 2.6-2.3l-.1-7.9c-.1-1.2 1.1-2.2 2.5-2.3h.3c1.5 0 2.7.9 2.7 2v.2l.1.7c0 1.2 1.1 2.2 2.5 2.2H84c1.5-.1 2.7-1.1 2.6-2.3l-.2-15.7c0-1.2-1.1-2.2-2.5-2.2h-.1l-33.1.8c-1.5.1-2.7 1.1-2.6 2.3l.4 39.5c0 1.2 1.1 2.2 2.5 2.2h.4c1.5-.1 2.7-1.1 2.6-2.3l-.1-16.9c-.1-1.2 1.1-2.2 2.6-2.3 1.4-.3 2.6.7 2.6 1.9z"/><path class="innerflame" fill="#FF7F00" d="M80.7 229.9l-25.8.7c-1.3-.1-2.5.2-2.4 1v18.7c0 .6 1 1.1 2.1 1.1s2.2-.6 2.2-1.2V240c0-.7 1-1.3 2.1-1.3s2.2.5 2.2 1.2v4.5c0 .6 1 1.1 2.1 1.1s2.2-.6 2.2-1.2v-.8-2.6c0-.7.6-1.3 1.3-1.3h1.6c.7 0 1.3.5 1.3 1.3l.1.7v2.8c0 .7 1 1.2 2.2 1.2s2.1-.6 2.1-1.3v-5.4c0-.6 1-1.2 2.2-1.2s2.2.4 2.1 1.1l.1 4.3c0 .6 1 1.1 2.1 1.1s2.2-.6 2.2-1.2v-11.6c.2-1-.8-1.6-2-1.5z"/></g><g class="flame-step2"><path class="outerflame" fill="#FFF385" d="M87.2 290.6c-1.6-.1-2.9-1.4-2.8-2.9l.2-7.8v-.1c0-1.6-1.3-2.8-2.9-2.8H81c-1.6.1-2.9 1.5-2.8 3l.3 6.9c.1 1.7-1.1 3-2.8 3.1h-1.2c-1.6 0-2.9-1.2-2.7-2.6l-.2-5.2v-.1c0-1.6-1.3-2.8-2.9-2.8h-1c-1.7.1-2.9 1.6-2.8 3.2l-.1 9.6c.1 1.6-1.2 2.9-2.8 3h-1.3c-1.6-.1-2.9-1.4-2.8-2.9l-.2-15.6v-.1c0-1.6-1.3-2.8-2.9-2.8-1.6.1-2.9 1.5-2.8 3l.1 5.4c.1 1.6-1.2 2.9-2.8 3H48c-1.6-.1-2.9-1.4-2.8-2.9l-.9-65.7c-.1-1.6 1.2-2.9 2.8-3l40.6-1.1h.1c1.6.1 2.9 1.4 2.8 2.9l.7 72.3c.1 1.6-1.2 2.9-2.8 3h-1.3zm-11.8 1.3c-2 .1-3.4 1.3-3.3 2.9l.2 6.1c0 1.4 1.4 2.7 3.2 2.8h.1c1.9-.1 3.3-1.3 3.2-2.9l-.2-6.1c.1-1.4-1.3-2.7-3.2-2.8zm-13.8 5.6c-1.9.1-3.4 1.3-3.3 2.9v3c0 1.4 1.4 2.7 3.2 2.8h.1c1.9-.1 3.3-1.3 3.2-2.9v-3c.1-1.4-1.3-2.7-3.2-2.8z"/><path class="midflame" fill="#FA0" d="M70.4 266.6v3.6c0 1.4 1.2 2.6 2.7 2.7h.1c1.6-.1 2.8-1.3 2.7-2.8v-3.6c0-1.4-1.2-2.6-2.7-2.7h-.1c-1.5.1-2.7 1.3-2.7 2.8zm16.7-3.8V261c0-1.4-1.2-2.6-2.7-2.7-1.6.1-2.8 1.3-2.7 2.8v1.8c0 1.4 1.2 2.6 2.7 2.7h.1c1.5-.1 2.6-1.4 2.6-2.8zm-27.8-.6v1.5c0 1.4 1.2 2.6 2.7 2.7h.1c1.6-.1 2.8-1.3 2.7-2.8v-1.5c.1-1.4-1.1-2.6-2.7-2.7H62c-1.6.2-2.8 1.4-2.7 2.8zM59 249l.1 6.5c0 1.2 1.1 2.2 2.5 2.2h.4c1.5-.1 2.7-1.1 2.6-2.3v-2.8c-.1-1.2 1.1-2.2 2.6-2.3h.3c1.5 0 2.6 1 2.6 2.1v.1l.1 7.5c0 1.2 1.1 2.2 2.5 2.2h.4c1.5-.1 2.7-1.1 2.6-2.3l-.1-12.7c-.1-1.2 1.1-2.2 2.5-2.3h.3c1.5 0 2.7.9 2.7 2v.2l.1 6.3c0 1.2 1.1 2.2 2.5 2.2H84c1.5-.1 2.7-1.1 2.6-2.3l-.2-21.3c0-1.2-1.1-2.2-2.5-2.2h-.1l-33.1.8c-1.5.1-2.7 1.1-2.6 2.3l.2 21.5c0 1.2 1.1 2.2 2.5 2.2h.4c1.5-.1 2.7-1.1 2.6-2.3v-5c-.1-1.2 1.1-2.2 2.6-2.3 1.4-.2 2.6.8 2.6 2z"/><path class="innerflame" fill="#FF7F00" d="M80.7 229.9l-25.8.7c-1.3-.1-2.5.2-2.4 1v12.3c0 .6 1 1.1 2.1 1.1s2.2-.6 2.2-1.2V240c0-.7 1-1.3 2.1-1.3s2.2.5 2.2 1.2v6.6c0 .6 1 1.1 2.1 1.1s2.2-.6 2.2-1.2v-2.9-2.6c0-.7.6-1.3 1.3-1.3h1.6c.7 0 1.3.5 1.3 1.3l.1 1.9v4c0 .7 1 1.2 2.2 1.2s2.1-.6 2.1-1.3v-5.1c0-.6 1-1.2 2.2-1.2s2.2.4 2.1 1.1l.1 1.6c0 .6 1 1.1 2.1 1.1s2.2-.6 2.2-1.2v-11.6c.2-1-.8-1.6-2-1.5z"/></g><g class="flame-step3"><path class="outerflame" fill="#FFF385" d="M87.3 281.6c-1.6-.1-2.9-1.4-2.8-2.9l-.3-8.1v-.1c0-1.6-1.3-2.8-2.9-2.8h-.7c-1.6.1-2.9 1.5-2.8 3l.3 7.7c.1 1.7-1.1 3-2.8 3.1h-1.2c-1.6 0-2.9-1.2-2.7-2.6l-.2-6v-.1c0-1.6-1.3-2.8-2.9-2.8h-1c-1.7.1-2.9 1.6-2.8 3.2l-.1 3.7c.1 1.6-1.2 2.9-2.8 3h-1.3c-1.6-.1-2.9-1.4-2.8-2.9l-.2-9.7v-.1c0-1.6-1.3-2.8-2.9-2.8-1.6.1-2.9 1.5-2.8 3l.1 8.8c.1 1.6-1.2 2.9-2.8 3h-1.3c-1.6-.1-2.9-1.4-2.8-2.9l-.5-55.8c-.1-1.6 1.2-2.9 2.8-3l40.6-1.1h.1c1.6.1 2.9 1.4 2.8 2.9l.8 59.3c.1 1.6-1.2 2.9-2.8 3h-1.3z"/><path class="midflame" fill="#FA0" d="M59 249.3l.1 5.4c0 1.2 1.1 2.2 2.5 2.2h.4c1.5-.1 2.7-1.1 2.6-2.3v-1.7c-.1-1.2 1.1-2.2 2.6-2.3h.3c1.5 0 2.6 1 2.6 2.1v.1l.1 3.1c0 1.2 1.1 2.2 2.5 2.2h.4c1.5-.1 2.7-1.1 2.6-2.3l-.1-8.2c-.1-1.2 1.1-2.2 2.5-2.3h.3c1.5 0 2.7.9 2.7 2v.2l.1 1.8c0 1.2 1.1 2.2 2.5 2.2H84c1.5-.1 2.7-1.1 2.6-2.3l-.2-16.8c0-1.2-1.1-2.2-2.5-2.2h-.1l-33.1.8c-1.5.1-2.7 1.1-2.6 2.3l.1 18.8c0 1.2 1.1 2.2 2.5 2.2h.4c1.5-.1 2.7-1.1 2.6-2.3l.1-2.3c-.1-1.2 1.1-2.2 2.6-2.3 1.4-.3 2.6.7 2.6 1.9z"/><path class="innerflame" fill="#FF7F00" d="M80.7 230.2l-25.8.7c-1.3-.1-2.5.2-2.4 1v10.9c0 .6 1 1.1 2.1 1.1s2.2-.6 2.2-1.2v-2.4c0-.7 1-1.3 2.1-1.3s2.2.5 2.2 1.2v4.5c0 .6 1 1.1 2.1 1.1s2.2-.6 2.2-1.2v-.8-2.6c0-.7.6-1.3 1.3-1.3h1.6c.7 0 1.3.5 1.3 1.3l.1 1.9v.2-.2 1.7c0 .7 1 1.2 2.2 1.2s2.1-.6 2.1-1.3v-2.8c0-.6 1-1.2 2.2-1.2s2.2.4 2.1 1.1l.1.6c0 .6 1 1.1 2.1 1.1s2.2-.6 2.2-1.2v-10.6c.2-1-.8-1.6-2-1.5z"/></g><path fill="#A52046" d="M91.5 232.3l-48.3.3 3-19.6H89z"/><path fill="#A52046" d="M32 154.9s-53.8 40-11.7 86.7c0 0 0-29.1 27.8-29.1 27.9 0-16.1-57.6-16.1-57.6z"/><path fill="#00468C" d="M103.2 154.9s53.8 40 11.7 86.7c0 0 0-29.1-27.8-29.1-27.9 0 16.1-57.6 16.1-57.6z"/><path fill="#A52046" d="M103.2 154.9s53.8 40 11.7 86.7c0 0 0-29.1-27.8-29.1-27.9 0 16.1-57.6 16.1-57.6z"/><path fill="#F5F5F5" d="M90 223.9c13.5-20.8 23.2-46.2 23.2-86.6 0-60.1-33.5-101.9-45.1-101.9s-45 41.7-45 101.9c0 40.4 8.6 65.9 22.1 86.6H90z"/><path fill="#A52046" d="M69.4 155.9c.2.3.6.7.8 1.2.3.5.7 1 1 1.6 1.4 2.3 3.1 5.7 4.3 9.7.7 2 1.2 4.3 1.7 6.6.4 2.3.8 4.7.7 7.4 0 1.3-.1 2.6-.3 3.8-.2 1.3-.4 2.6-.7 3.9-.6 2.6-2 13.5-2.3 16.1s-.8 5.3-1.1 7.8c-.4 2.6-.8 5-1.1 7.4-.4 2.3-.8 4.6-1.1 6.6-.3 2-.7 3.9-1 5.6s-.6 3.1-.8 4.3c-.4 2.3-.8 3.7-.8 3.7l-1 5.6-1-5.6s-.3-1.3-.8-3.7c-.2-1.2-.6-2.6-.8-4.3-.3-1.6-.7-3.6-1-5.6-.3-2-.7-4.3-1.1-6.6-.4-2.3-.8-4.7-1.1-7.4-.3-2.6-.8-5.2-1.1-7.8s-1.8-13.5-2.3-16.1c-.2-1.3-.6-2.6-.7-3.9-.2-1.3-.3-2.6-.3-3.8 0-2.6.2-5 .7-7.4.4-2.3 1-4.6 1.7-6.6 1.3-4 3-7.5 4.3-9.7.3-.6.7-1.1 1-1.6s.6-.8.8-1.2c.4-.6 1-1 1.8-1 .6 0 1 .4 1.6 1zM98.4 70.4c-10.5-22-23.8-35.2-30.2-35.2-6.5 0-19.8 13.1-30.2 35.2 0 0 6.1 4.6 30.2 4.6s30.2-4.6 30.2-4.6z"/><path fill="#6EDEE9" d="M68.2 89.3c-8.8 0-16 7.1-16 16 0 8.8 7.1 16 16 16 8.8 0 16-7.1 16-16-.2-8.9-7.2-16-16-16z"/><path fill="#A52046" d="M68.2 83.8c-11.7 0-21.4 9.5-21.4 21.4s9.5 21.4 21.4 21.4 21.4-9.6 21.4-21.4-9.7-21.4-21.4-21.4zm0 37.3c-8.8 0-16-7.1-16-16 0-8.8 7.1-16 16-16 8.8 0 16 7.1 16 16-.2 8.8-7.2 16-16 16z"/></svg>