<svg id="Layer_1" viewBox="0 0 1532 257"><path class="path1" fill="none" stroke="#000" stroke-miterlimit="10" d="M188.7 139.3s-19 14.5-44.7 28.7c-15.7 8.6-36.9 17.3-48.9 21.9-24.2 9.3-66.5 15-66.5 15"/><path class="path3" fill="none" stroke="#000" stroke-miterlimit="10" d="M1503.9 164.3s-272.6-.7-417.4-9.6c-144.8-8.9-368.2-64.8-437.4-75.3-66.9-10.2-107.6-13.5-266.9 6-119.4 14.7-193.4 53.8-193.4 53.8"/><path class="path2" fill="none" stroke="#000" stroke-miterlimit="10" d="M28.6 204.9c9.9-.7-.7.1 12.8-.8 16.1-1.6 22.7-2.3 35.4-4 30.2-4.5 47.1-5 76.6-8.7 109.2-14.3 214.4-24.9 320.3-48.9 53-12 106.4-23.5 160.6-32.5 55.2-9.2 112-10.9 168.4-14.5 115.7-1.9 228.4-6.4 343.9-1.1 58.9 3.7 159 6.6 214.5 19.8 30.5 9.9 51.9 17.2 77.6 26.3 20.7 7.4 46.4 12.1 65.2 23.8"/></svg>