<svg id="Layer_1" viewBox="0 0 399 373"><style>.st0,.st1{opacity:.5;fill:url(#SVGID_1_);enable-background:new}.st1{fill:url(#SVGID_2_)}.st2{fill:#369}.st3{fill:#9cf}.st4{opacity:.9;fill:#cff;enable-background:new}.st5{fill:#ff9}</style><g class="light"><linearGradient id="SVGID_1_" gradientUnits="userSpaceOnUse" x1="-471.34" y1="-1858.7" x2="-471.34" y2="-1652.58" gradientTransform="scale(1 -1) rotate(26.276 -3404.163 539.193)"><stop offset="0" stop-color="#fff" stop-opacity="0"/><stop offset=".5" stop-color="#7bfefe"/><stop offset="1" stop-color="#7bfefe"/></linearGradient><path class="st0" d="M336.5 288.3l-98.6 48.6-75.1-192.7 64.3-31.8z"/><linearGradient id="SVGID_2_" gradientUnits="userSpaceOnUse" x1="-472.31" y1="-1817.99" x2="-472.31" y2="-1651.78" gradientTransform="scale(1 -1) rotate(26.276 -3404.163 539.193)"><stop offset="0" stop-color="#fff" stop-opacity="0"/><stop offset=".68" stop-color="#7bfefe"/><stop offset="1" stop-color="#7bfefe"/><stop offset="1" stop-color="#fed791"/></linearGradient><path class="st1" d="M341.8 240.3l-149.1 68.2-31.2-164.6 64.4-31.7z"/></g><path class="st2" d="M264.1 68.9l-156.9 78c-6.6-13.3 11-35.3 25.3-42.5l82.4-41c14.4-7.1 42.6-7.7 49.2 5.5zM111.3 155.2l156.9-77.9c5.9 11.7-56.9 46.5-71.3 53.6-14.5 7.1-79.7 36-85.6 24.3z"/><path class="st3" d="M269.9 76.4l-160.2 79.8c-2.4 1.2-5.4.4-6.6-2-1.1-2.5 0-5.4 2.4-6.4L265.7 68c2.4-1.2 5.4-.4 6.6 2 1.2 2.5 0 5.4-2.4 6.4z"/><path class="st4" d="M154.7 46.3c-22.8 11.3-32.7 37.4-22.4 58.1l.3.2 82.4-41-.3-.2c-10.4-20.8-37.3-28.5-60-17.1z"/><ellipse transform="rotate(-26.276 132.916 123.358)" class="st5" cx="132.9" cy="123.4" rx="5.5" ry="5.5"/><ellipse transform="rotate(-26.276 182.574 98.883)" class="st5" cx="182.6" cy="98.9" rx="5.5" ry="5.5"/><ellipse transform="rotate(-26.276 231.283 75.012)" class="st5" cx="231.3" cy="75" rx="5.5" ry="5.5"/></svg>